<svg width="10" height="10" viewBox="0 0 10 10" fill="none" xmlns="http://www.w3.org/2000/svg">
<path d="M9.00065 5.66671H5.66732V9.00004C5.66732 9.36671 5.36732 9.66671 5.00065 9.66671C4.63398 9.66671 4.33398 9.36671 4.33398 9.00004V5.66671H1.00065C0.633984 5.66671 0.333984 5.36671 0.333984 5.00004C0.333984 4.63337 0.633984 4.33337 1.00065 4.33337H4.33398V1.00004C4.33398 0.633374 4.63398 0.333374 5.00065 0.333374C5.36732 0.333374 5.66732 0.633374 5.66732 1.00004V4.33337H9.00065C9.36732 4.33337 9.66732 4.63337 9.66732 5.00004C9.66732 5.36671 9.36732 5.66671 9.00065 5.66671Z" fill="url(#paint0_linear)"/>
<defs>
<linearGradient id="paint0_linear" x1="5.00065" y1="0.333374" x2="5.00065" y2="9.66671" gradientUnits="userSpaceOnUse">
<stop stop-color="#D70900"/>
<stop offset="1" stop-color="#BF0B1C"/>
</linearGradient>
</defs>
</svg>
