<svg width="24" height="24" viewBox="0 0 24 24" fill="none" xmlns="http://www.w3.org/2000/svg">
<path d="M23.2156 13.2284V9.20311C23.2156 8.63487 22.755 8.17426 22.1868 8.17426H21.869C21.4498 8.17426 21.0757 7.91854 20.9153 7.53115C20.9135 7.52687 20.9118 7.52259 20.91 7.51835C20.7489 7.13068 20.8323 6.68471 21.1291 6.38786L21.3538 6.1632C21.7556 5.76141 21.7556 5.10998 21.3538 4.70819L18.5075 1.86188C18.1057 1.46009 17.4543 1.46009 17.0525 1.86188L16.8278 2.08654C16.531 2.38339 16.085 2.46673 15.6973 2.30565C15.693 2.30386 15.6887 2.30212 15.6845 2.30033C15.2971 2.14 15.0414 1.76588 15.0414 1.34664V1.02889C15.0414 0.460612 14.5807 0 14.0125 0H9.98724C9.419 0 8.95839 0.460612 8.95839 1.02885V1.34659C8.95839 1.76584 8.70267 2.13995 8.31529 2.30028C8.311 2.30207 8.30672 2.30381 8.30249 2.3056C7.91481 2.46668 7.46884 2.38334 7.17199 2.08649L6.94733 1.86184C6.54554 1.46005 5.89411 1.46005 5.49232 1.86184L2.64601 4.70814C2.24423 5.10993 2.24423 5.76136 2.64601 6.16315L2.87067 6.38781C3.16752 6.68466 3.25086 7.13064 3.08978 7.51831C3.08799 7.52259 3.08625 7.52687 3.08446 7.53111C2.92413 7.91849 2.55001 8.17421 2.13077 8.17421H1.81303C1.24479 8.17421 0.78418 8.63482 0.78418 9.20306V13.2283C0.78418 13.7966 1.24479 14.2572 1.81303 14.2572H2.13077C2.55001 14.2572 2.92413 14.5129 3.08446 14.9003C3.08625 14.9046 3.08799 14.9088 3.08978 14.9131C3.25086 15.3008 3.16752 15.7467 2.87067 16.0436L2.64601 16.2682C2.24423 16.67 2.24423 17.3215 2.64601 17.7232L5.49232 20.5696C5.89411 20.9713 6.54554 20.9713 6.94733 20.5696L7.17199 20.3449C7.46884 20.048 7.91481 19.9647 8.30249 20.1258C8.30677 20.1276 8.31105 20.1293 8.31529 20.1311C8.70267 20.2914 8.95839 20.6656 8.95839 21.0848V21.4025C8.95839 21.9708 9.419 22.4314 9.98724 22.4314H14.0125C14.5807 22.4314 15.0414 21.9708 15.0414 21.4025V21.0848C15.0414 20.6656 15.2971 20.2914 15.6845 20.1311C15.6887 20.1293 15.693 20.1276 15.6973 20.1258C16.0849 19.9647 16.5309 20.048 16.8278 20.3449L17.0524 20.5696C17.4542 20.9713 18.1056 20.9713 18.5074 20.5696L21.3537 17.7232C21.7555 17.3215 21.7555 16.67 21.3537 16.2682L21.1291 16.0436C20.8322 15.7467 20.7489 15.3008 20.91 14.9131C20.9118 14.9088 20.9135 14.9045 20.9153 14.9003C21.0756 14.5129 21.4497 14.2572 21.869 14.2572H22.1867C22.755 14.2572 23.2156 13.7966 23.2156 13.2284Z" fill="url(#paint0_linear)"/>
<path d="M11.9999 19.0243C16.3125 19.0243 19.8084 15.5283 19.8084 11.2157C19.8084 6.90322 16.3125 3.40723 11.9999 3.40723C7.6874 3.40723 4.19141 6.90322 4.19141 11.2157C4.19141 15.5283 7.6874 19.0243 11.9999 19.0243Z" fill="url(#paint1_linear)"/>
<path d="M23.2091 13.3336C23.1564 13.8524 22.7183 14.2571 22.1859 14.2571H21.868C21.4489 14.2571 21.0749 14.5127 20.9145 14.9003C20.9124 14.9048 20.9109 14.9088 20.909 14.9133C20.748 15.3009 20.8313 15.7466 21.1281 16.0439L21.3531 16.2685C21.7547 16.6701 21.7547 17.3213 21.3531 17.7234L18.5065 20.5695C18.1049 20.9716 17.4532 20.9716 17.0516 20.5695L16.827 20.3449C16.5302 20.0481 16.084 19.9649 15.6964 20.1258C15.6919 20.1278 15.6879 20.1293 15.6834 20.1313C15.2963 20.2912 15.0407 20.6658 15.0407 21.0849V21.4027C15.0407 21.9371 14.6331 22.3763 14.1117 22.4265L7.62378 15.9355C6.35988 14.7639 5.66853 13.0899 5.66505 11.2274C5.66105 9.06411 6.62463 7.24924 8.25903 6.07959C8.46157 5.9347 8.71875 5.89009 8.85762 6.05752C8.90373 6.11366 14.4441 11.6445 14.5067 11.7047C14.8411 11.433 15.0407 11.0228 15.0407 10.5842V6.33677C15.0407 5.97983 15.4448 5.76924 15.7355 5.97682C16.0955 6.23451 16.4279 6.52778 16.7272 6.85216L23.2091 13.3336Z" fill="url(#paint2_linear)"/>
<path d="M21.3535 16.2682L21.1289 16.0436C20.832 15.7467 20.7487 15.3007 20.9098 14.9131C20.9116 14.9088 20.9133 14.9045 20.9151 14.9003C21.0754 14.5129 21.4495 14.2572 21.8688 14.2572H22.1865C22.719 14.2572 23.1569 13.8527 23.21 13.3342L16.7279 6.85213C16.5905 6.70324 16.4466 6.56135 16.2958 6.427C17.314 7.56507 17.9327 9.06757 17.9327 10.7145C17.9327 13.1676 16.5595 15.3003 14.54 16.3857V22.2846C14.8399 22.1048 15.0412 21.7776 15.0412 21.4025V21.0848C15.0412 20.6655 15.2969 20.2914 15.6843 20.1311C15.6886 20.1293 15.6929 20.1276 15.6971 20.1258C16.0848 19.9647 16.5308 20.048 16.8276 20.3449L17.0523 20.5695C17.4541 20.9713 18.1055 20.9713 18.5073 20.5695L21.3536 17.7232C21.7554 17.3215 21.7554 16.67 21.3535 16.2682Z" fill="url(#paint3_linear)"/>
<path d="M14.9025 22.8757C15.0394 22.1094 15.1083 21.333 15.1083 20.5552V15.2432H8.8916V20.5552C8.8916 21.3331 8.96045 22.1095 9.09734 22.8757C9.21344 23.5257 9.79024 24 10.4646 24H13.5353C14.2096 24 14.7864 23.5257 14.9025 22.8757Z" fill="url(#paint4_linear)"/>
<path d="M8.8916 16.8888L14.9177 22.7853C15.0441 22.0484 15.1083 21.3025 15.1083 20.5552V15.2432H8.8916V16.8888Z" fill="url(#paint5_linear)"/>
<path d="M18.4339 11.2156C18.4339 14.7691 15.5532 17.6498 11.9997 17.6498C8.44624 17.6499 5.57179 14.7809 5.56544 11.2273C5.56158 9.06396 6.62535 7.14867 8.25975 5.97935C8.55184 5.77041 8.95805 5.97794 8.95805 6.33704V10.5839C8.95805 11.1004 9.23358 11.5777 9.68088 11.836L11.2768 12.7574C11.7241 13.0157 12.2753 13.0157 12.7226 12.7574L14.3185 11.836C14.7658 11.5777 15.0413 11.1004 15.0413 10.5839V6.3369C15.0413 5.97963 15.4455 5.76923 15.7363 5.9769C17.3696 7.14387 18.4339 9.05554 18.4339 11.2156Z" fill="url(#paint6_linear)"/>
<path d="M7.23833 11.7575C7.23833 12.5661 7.66967 13.3133 8.3699 13.7176L10.8683 15.1601C11.5685 15.5644 12.4314 15.5644 13.1316 15.1601L15.63 13.7176C16.3302 13.3133 16.7616 12.5661 16.7616 11.7575V6.88892C16.4535 6.55005 16.1101 6.24379 15.7365 5.97692C15.4458 5.7692 15.0416 5.97965 15.0416 6.33692V10.5839C15.0416 11.1005 14.766 11.5777 14.3188 11.836L12.7228 12.7574C12.2755 13.0157 11.7244 13.0157 11.277 12.7574L9.68111 11.836C9.23381 11.5777 8.95828 11.1005 8.95828 10.5839V6.33706C8.95828 5.97791 8.55207 5.77038 8.25998 5.97937C7.88774 6.24567 7.54548 6.55109 7.23828 6.88892V11.7575H7.23833Z" fill="url(#paint7_linear)"/>
<defs>
<linearGradient id="paint0_linear" x1="7.68747" y1="6.90329" x2="19.3587" y2="18.5745" gradientUnits="userSpaceOnUse">
<stop stop-color="#7FAEF4"/>
<stop offset="1" stop-color="#4C8DF1"/>
</linearGradient>
<linearGradient id="paint1_linear" x1="17.0121" y1="16.2279" x2="6.16035" y2="5.37617" gradientUnits="userSpaceOnUse">
<stop stop-color="#7FAEF4"/>
<stop offset="1" stop-color="#4C8DF1"/>
</linearGradient>
<linearGradient id="paint2_linear" x1="13.1762" y1="13.3296" x2="5.04355" y2="9.28627" gradientUnits="userSpaceOnUse">
<stop stop-color="#4C8DF1" stop-opacity="0"/>
<stop offset="0.5631" stop-color="#466CC8" stop-opacity="0.563"/>
<stop offset="1" stop-color="#4256AC"/>
</linearGradient>
<linearGradient id="paint3_linear" x1="19.808" y1="16.473" x2="13.7378" y2="13.5455" gradientUnits="userSpaceOnUse">
<stop stop-color="#4C8DF1" stop-opacity="0"/>
<stop offset="0.5631" stop-color="#466CC8" stop-opacity="0.563"/>
<stop offset="1" stop-color="#4256AC"/>
</linearGradient>
<linearGradient id="paint4_linear" x1="11.7742" y1="18.9012" x2="15.6445" y2="22.7716" gradientUnits="userSpaceOnUse">
<stop stop-color="#FFD833"/>
<stop offset="1" stop-color="#F2B631"/>
</linearGradient>
<linearGradient id="paint5_linear" x1="13.8718" y1="20.3023" x2="11.3173" y2="14.5211" gradientUnits="userSpaceOnUse">
<stop stop-color="#F9A126" stop-opacity="0"/>
<stop offset="1" stop-color="#EC4437"/>
</linearGradient>
<linearGradient id="paint6_linear" x1="9.64248" y1="8.86015" x2="18.0443" y2="17.2619" gradientUnits="userSpaceOnUse">
<stop stop-color="#FFD833"/>
<stop offset="1" stop-color="#F2B631"/>
</linearGradient>
<linearGradient id="paint7_linear" x1="15.572" y1="13.3589" x2="6.04633" y2="3.83315" gradientUnits="userSpaceOnUse">
<stop stop-color="#FFD833"/>
<stop offset="1" stop-color="#F2B631"/>
</linearGradient>
</defs>
</svg>
