<svg width="17" height="15" viewBox="0 0 17 15" fill="none" xmlns="http://www.w3.org/2000/svg">
<path d="M7.27249 1.69137L1.19239 11.8456C1.06704 12.0628 1.00071 12.309 1.00001 12.5598C0.999304 12.8106 1.06425 13.0572 1.18839 13.2751C1.31253 13.4929 1.49154 13.6745 1.70759 13.8017C1.92365 13.9289 2.16923 13.9972 2.4199 14H14.5801C14.8308 13.9972 15.0763 13.9289 15.2924 13.8017C15.5085 13.6745 15.6875 13.4929 15.8116 13.2751C15.9357 13.0572 16.0007 12.8106 16 12.5598C15.9993 12.309 15.933 12.0628 15.8076 11.8456L9.72751 1.69137C9.59954 1.48032 9.41935 1.30582 9.20434 1.18472C8.98933 1.06362 8.74675 1 8.5 1C8.25325 1 8.01067 1.06362 7.79566 1.18472C7.58065 1.30582 7.40046 1.48032 7.27249 1.69137V1.69137Z" stroke="black" stroke-width="1.43596" stroke-linecap="round" stroke-linejoin="round"/>
<path d="M8.50098 5.38232V8.25482" stroke="black" stroke-width="1.43596" stroke-linecap="round" stroke-linejoin="round"/>
<ellipse cx="8.50104" cy="11.1273" rx="0.717839" ry="0.718123" fill="black"/>
</svg>
