<svg width="24" height="24" viewBox="0 0 24 24" fill="none" xmlns="http://www.w3.org/2000/svg">
<path d="M10.5 4.5H4.5L0.75 12M12 6V21V6ZM8.25 21H15.75H8.25Z" stroke="#6B7280" stroke-miterlimit="10" stroke-linecap="round" stroke-linejoin="round"/>
<path d="M12 6C12.8284 6 13.5 5.32843 13.5 4.5C13.5 3.67157 12.8284 3 12 3C11.1716 3 10.5 3.67157 10.5 4.5C10.5 5.32843 11.1716 6 12 6Z" stroke="#6B7280" stroke-miterlimit="10" stroke-linecap="round" stroke-linejoin="round"/>
<path d="M4.5 4.5L8.25 12M13.5 4.5H19.5M19.5 4.5L23.25 12M19.5 4.5L15.75 12" stroke="#6B7280" stroke-miterlimit="10" stroke-linecap="round" stroke-linejoin="round"/>
<path d="M4.5 15.75C5.49456 15.75 6.44839 15.3549 7.15165 14.6517C7.85491 13.9484 8.25 12.9946 8.25 12H0.75C0.75 12.9946 1.14509 13.9484 1.84835 14.6517C2.19657 14.9999 2.60997 15.2761 3.06494 15.4645C3.51991 15.653 4.00754 15.75 4.5 15.75V15.75ZM19.5 15.75C18.5054 15.75 17.5516 15.3549 16.8483 14.6517C16.1451 13.9484 15.75 12.9946 15.75 12H23.25C23.25 12.9946 22.8549 13.9484 22.1517 14.6517C21.4484 15.3549 20.4946 15.75 19.5 15.75Z" stroke="#6B7280" stroke-miterlimit="10" stroke-linecap="round" stroke-linejoin="round"/>
</svg>
