<svg width="38" height="38" viewBox="0 0 38 38" fill="none" xmlns="http://www.w3.org/2000/svg">
<path d="M2.96875 7.12522C2.81128 7.12524 2.66026 7.1878 2.54891 7.29914C2.43757 7.41049 2.37502 7.5615 2.375 7.71897V29.094C2.37502 29.2514 2.43757 29.4025 2.54891 29.5138C2.66026 29.6251 2.81128 29.6877 2.96875 29.6877H12.4688C12.5474 29.6888 12.6256 29.6743 12.6986 29.645C12.7716 29.6156 12.838 29.5721 12.8941 29.5168C12.9501 29.4616 12.9946 29.3957 13.0249 29.3232C13.0553 29.2506 13.071 29.1727 13.071 29.094C13.071 29.0153 13.0553 28.9374 13.0249 28.8648C12.9946 28.7922 12.9501 28.7264 12.8941 28.6711C12.838 28.6159 12.7716 28.5723 12.6986 28.543C12.6256 28.5136 12.5474 28.4991 12.4688 28.5002H3.5625V8.31272H11.875V9.7971C11.8739 9.87578 11.8884 9.95389 11.9178 10.0269C11.9471 10.0999 11.9907 10.1664 12.0459 10.2224C12.1012 10.2784 12.167 10.3229 12.2396 10.3533C12.3122 10.3837 12.3901 10.3993 12.4688 10.3993C12.5474 10.3993 12.6253 10.3837 12.6979 10.3533C12.7705 10.3229 12.8363 10.2784 12.8916 10.2224C12.9468 10.1664 12.9904 10.0999 13.0197 10.0269C13.0491 9.95389 13.0636 9.87578 13.0625 9.7971V7.71897C13.0625 7.5615 12.9999 7.41049 12.8886 7.29914C12.7772 7.1878 12.6262 7.12524 12.4688 7.12522H2.96875ZM25.5312 7.12522C25.3738 7.12524 25.2228 7.1878 25.1114 7.29914C25.0001 7.41049 24.9375 7.5615 24.9375 7.71897V9.88522C24.9364 9.9639 24.9509 10.042 24.9803 10.115C25.0096 10.188 25.0532 10.2545 25.1084 10.3105C25.1637 10.3666 25.2295 10.411 25.3021 10.4414C25.3747 10.4718 25.4526 10.4874 25.5312 10.4874C25.6099 10.4874 25.6878 10.4718 25.7604 10.4414C25.833 10.411 25.8988 10.3666 25.9541 10.3105C26.0093 10.2545 26.0529 10.188 26.0822 10.115C26.1116 10.042 26.1261 9.9639 26.125 9.88522V8.31272H34.4375V28.5002H25.5312C25.4526 28.4991 25.3744 28.5136 25.3014 28.543C25.2284 28.5723 25.162 28.6159 25.1059 28.6711C25.0499 28.7264 25.0054 28.7922 24.9751 28.8648C24.9447 28.9374 24.929 29.0153 24.929 29.094C24.929 29.1727 24.9447 29.2506 24.9751 29.3232C25.0054 29.3957 25.0499 29.4616 25.1059 29.5168C25.162 29.5721 25.2284 29.6156 25.3014 29.645C25.3744 29.6743 25.4526 29.6888 25.5312 29.6877H35.0312C35.1887 29.6877 35.3397 29.6251 35.4511 29.5138C35.5624 29.4025 35.625 29.2514 35.625 29.094V7.71897C35.625 7.5615 35.5624 7.41049 35.4511 7.29914C35.3397 7.1878 35.1887 7.12524 35.0312 7.12522H25.5312Z" fill="url(#paint0_linear)"/>
<path d="M27.897 13.0581C27.74 13.0606 27.5903 13.1252 27.4807 13.2378C27.3712 13.3503 27.3107 13.5018 27.3126 13.6588V28.5003H10.6876V13.9928C10.6887 13.9141 10.6741 13.836 10.6448 13.763C10.6155 13.69 10.5719 13.6235 10.5167 13.5675C10.4614 13.5115 10.3956 13.467 10.323 13.4366C10.2504 13.4062 10.1725 13.3906 10.0938 13.3906C10.0151 13.3906 9.93722 13.4062 9.86463 13.4366C9.79204 13.467 9.72621 13.5115 9.67097 13.5675C9.61572 13.6235 9.57216 13.69 9.54282 13.763C9.51348 13.836 9.49895 13.9141 9.50006 13.9928V29.094C9.50008 29.2515 9.56263 29.4025 9.67397 29.5138C9.78532 29.6252 9.93634 29.6877 10.0938 29.6878H27.9063C28.0638 29.6877 28.2148 29.6252 28.3261 29.5138C28.4375 29.4025 28.5 29.2515 28.5001 29.094V13.6588C28.501 13.5795 28.486 13.5008 28.456 13.4273C28.426 13.3539 28.3816 13.2872 28.3254 13.2312C28.2692 13.1752 28.2023 13.131 28.1287 13.1013C28.0551 13.0716 27.9764 13.0569 27.897 13.0581Z" fill="#2B4255"/>
<path d="M1.78125 4.75022C1.62378 4.75024 1.47276 4.8128 1.36141 4.92414C1.25007 5.03549 1.18752 5.1865 1.1875 5.34397V7.71897C1.18752 7.87644 1.25007 8.02745 1.36141 8.1388C1.47276 8.25014 1.62378 8.31271 1.78125 8.31272H13.6562C13.8137 8.31271 13.9647 8.25014 14.0761 8.1388C14.1874 8.02745 14.25 7.87644 14.25 7.71897V5.34397C14.25 5.1865 14.1874 5.03549 14.0761 4.92414C13.9647 4.8128 13.8137 4.75024 13.6562 4.75022H1.78125ZM2.375 5.93772H13.0625V7.12522H2.375V5.93772ZM24.3438 4.75022C24.1863 4.75024 24.0353 4.8128 23.9239 4.92414C23.8126 5.03549 23.75 5.1865 23.75 5.34397V7.71897C23.75 7.87644 23.8126 8.02745 23.9239 8.1388C24.0353 8.25014 24.1863 8.31271 24.3438 8.31272H36.2188C36.3762 8.31271 36.5272 8.25014 36.6386 8.1388C36.7499 8.02745 36.8125 7.87644 36.8125 7.71897V5.34397C36.8125 5.1865 36.7499 5.03549 36.6386 4.92414C36.5272 4.8128 36.3762 4.75024 36.2188 4.75022H24.3438ZM24.9375 5.93772H35.625V7.12522H24.9375V5.93772Z" fill="url(#paint1_linear)"/>
<path d="M4.75037 9.50096H5.93787V10.6885H4.75037V9.50096ZM7.12537 9.50096H8.31287V10.6885H7.12537V9.50096ZM4.75037 11.876H5.93787V13.0635H4.75037V11.876ZM7.12537 11.876H8.31287V13.0635H7.12537V11.876ZM4.75037 14.251H5.93787V15.4385H4.75037V14.251ZM7.12537 14.251H8.31287V15.4385H7.12537V14.251ZM4.75037 16.626H5.93787V17.8135H4.75037V16.626ZM7.12537 16.626H8.31287V17.8135H7.12537V16.626ZM4.75037 19.001H5.93787V20.1885H4.75037V19.001ZM7.12537 19.001H8.31287V20.1885H7.12537V19.001ZM4.75037 21.376H5.93787V22.5635H4.75037V21.376ZM7.12537 21.376H8.31287V22.5635H7.12537V21.376ZM4.75037 23.751H5.93787V24.9385H4.75037V23.751ZM7.12537 23.751H8.31287V24.9385H7.12537V23.751ZM4.75037 26.126H5.93787V27.3135H4.75037V26.126ZM7.12537 26.126H8.31287V27.3135H7.12537V26.126ZM29.6879 9.50096H30.8754V10.6885H29.6879V9.50096ZM32.0629 9.50096H33.2504V10.6885H32.0629V9.50096ZM29.6879 11.876H30.8754V13.0635H29.6879V11.876ZM32.0629 11.876H33.2504V13.0635H32.0629V11.876ZM29.6879 14.251H30.8754V15.4385H29.6879V14.251ZM32.0629 14.251H33.2504V15.4385H32.0629V14.251ZM29.6879 16.626H30.8754V17.8135H29.6879V16.626ZM32.0629 16.626H33.2504V17.8135H32.0629V16.626ZM29.6879 19.001H30.8754V20.1885H29.6879V19.001ZM32.0629 19.001H33.2504V20.1885H32.0629V19.001ZM29.6879 21.376H30.8754V22.5635H29.6879V21.376ZM32.0629 21.376H33.2504V22.5635H32.0629V21.376ZM29.6879 23.751H30.8754V24.9385H29.6879V23.751ZM32.0629 23.751H33.2504V24.9385H32.0629V23.751ZM29.6879 26.126H30.8754V27.3135H29.6879V26.126ZM32.0629 26.126H33.2504V27.3135H32.0629V26.126Z" fill="url(#paint2_linear)"/>
<path d="M14.8438 20.1877C14.6863 20.1877 14.5353 20.2503 14.4239 20.3616C14.3126 20.473 14.25 20.624 14.25 20.7815V29.094C14.25 29.2514 14.3126 29.4025 14.4239 29.5138C14.5353 29.6251 14.6863 29.6877 14.8438 29.6877H23.1562C23.3137 29.6877 23.4647 29.6251 23.5761 29.5138C23.6874 29.4025 23.75 29.2514 23.75 29.094V20.7815C23.75 20.624 23.6874 20.473 23.5761 20.3616C23.4647 20.2503 23.3137 20.1877 23.1562 20.1877H14.8438ZM15.4375 21.3752H22.5625V28.5002H15.4375V21.3752Z" fill="#2B4255"/>
<path fill-rule="evenodd" clip-rule="evenodd" d="M18.4062 20.7815V29.094H19.5938V20.7815H18.4062Z" fill="#2B4255"/>
<path d="M8.3125 9.50022C8.15503 9.50024 8.00401 9.5628 7.89266 9.67414C7.78132 9.78549 7.71877 9.9365 7.71875 10.094V13.6565C7.71877 13.8139 7.78132 13.965 7.89266 14.0763C8.00401 14.1876 8.15503 14.2502 8.3125 14.2502H29.0938C29.2512 14.2502 29.4022 14.1876 29.5136 14.0763C29.6249 13.965 29.6875 13.8139 29.6875 13.6565V10.094C29.6875 9.9365 29.6249 9.78549 29.5136 9.67414C29.4022 9.5628 29.2512 9.50024 29.0938 9.50022H8.3125ZM8.90625 10.6877H28.5V13.0627H8.90625V10.6877Z" fill="#2B4255"/>
<path fill-rule="evenodd" clip-rule="evenodd" d="M1.1875 28.5002V29.6877H36.8125V28.5002H1.1875ZM13.0625 30.8752V32.0627H24.9375V30.8752H13.0625ZM10.6875 33.2502V34.4377H27.3125V33.2502H10.6875Z" fill="#2B4255"/>
<path fill-rule="evenodd" clip-rule="evenodd" d="M18.5628 18.9802C18.4995 18.9868 18.3831 19 18.373 19H17.4166L18.0609 16.3673C18.3983 16.9409 18.7344 17.5216 19.0692 18.1024C19.1322 18.2268 19.1689 18.3601 19.1774 18.4958C19.1774 18.7862 18.9439 18.9267 18.5603 18.9796L18.5628 18.9802Z" fill="url(#paint3_linear)"/>
<path fill-rule="evenodd" clip-rule="evenodd" d="M19.9371 18.4661C19.7415 18.1355 19.5466 17.8049 19.3548 17.4742C19.2472 17.2908 19.1402 17.1007 19.0326 16.9232C18.9985 16.8599 18.9599 16.8031 18.9295 16.7431C18.872 16.6261 18.8345 16.5025 18.8181 16.3761V16.3006C18.8204 16.2656 18.8267 16.2309 18.8371 16.197C18.9523 15.8796 19.3776 15.8499 19.6308 15.8333H20.5833L19.9371 18.4661Z" fill="url(#paint4_linear)"/>
<defs>
<linearGradient id="paint0_linear" x1="19" y1="7.12522" x2="19" y2="29.6878" gradientUnits="userSpaceOnUse">
<stop stop-color="#D70900"/>
<stop offset="1" stop-color="#BF0B1C"/>
</linearGradient>
<linearGradient id="paint1_linear" x1="19" y1="4.75022" x2="19" y2="8.31272" gradientUnits="userSpaceOnUse">
<stop stop-color="#D70900"/>
<stop offset="1" stop-color="#BF0B1C"/>
</linearGradient>
<linearGradient id="paint2_linear" x1="19.0004" y1="9.50096" x2="19.0004" y2="27.3135" gradientUnits="userSpaceOnUse">
<stop stop-color="#D70900"/>
<stop offset="1" stop-color="#BF0B1C"/>
</linearGradient>
<linearGradient id="paint3_linear" x1="19" y1="15.8333" x2="19" y2="19" gradientUnits="userSpaceOnUse">
<stop stop-color="#D70900"/>
<stop offset="1" stop-color="#BF0B1C"/>
</linearGradient>
<linearGradient id="paint4_linear" x1="19" y1="15.8333" x2="19" y2="19" gradientUnits="userSpaceOnUse">
<stop stop-color="#D70900"/>
<stop offset="1" stop-color="#BF0B1C"/>
</linearGradient>
</defs>
</svg>
