<svg width="58" height="58" viewBox="0 0 58 58" fill="none" xmlns="http://www.w3.org/2000/svg">
<path d="M28.9993 8.20899C33.4076 8.20507 37.7019 9.61014 41.2554 12.2191L12.2191 41.2554C9.95199 38.1575 8.58749 34.4921 8.27704 30.6658C7.96659 26.8395 8.72234 23.0021 10.4604 19.5792C12.1985 16.1564 14.8509 13.282 18.1234 11.2751C21.3959 9.26821 25.1604 8.20722 28.9993 8.2099V8.20899ZM28.9993 49.7905C24.591 49.7941 20.2971 48.3887 16.744 45.7794L45.7794 16.7431C48.0467 19.8411 49.4113 23.5067 49.7219 27.3331C50.0324 31.1595 49.2767 34.9972 47.5386 38.4202C45.8006 41.8433 43.1481 44.7178 39.8755 46.7249C36.6029 48.7319 32.8383 49.793 28.9993 49.7905Z" fill="white"/>
<path opacity="0.15" d="M45.7799 16.7432L42.1549 20.3682C44.8256 24.0117 46.2329 28.4279 46.1627 32.9448C46.0925 37.4617 44.5487 41.832 41.7662 45.3907C46.0333 42.0781 48.84 37.2317 49.5895 31.8819C50.3391 26.5322 48.9723 21.101 45.7799 16.7432ZM25.3748 11.8341C29.7832 11.8302 34.0775 13.2352 37.6309 15.8442L41.2559 12.2192C36.8983 9.02677 31.4671 7.66009 26.1175 8.40982C20.7678 9.15956 15.9216 11.9666 12.6094 16.2339C16.2522 13.3798 20.7471 11.8302 25.3748 11.8332V11.8341Z" fill="#000028"/>
<path d="M29 1.8125C23.6228 1.8125 18.3664 3.40702 13.8954 6.39442C9.42449 9.38182 5.9398 13.6279 3.88204 18.5958C1.82428 23.5637 1.28588 29.0302 2.33491 34.304C3.38395 39.5779 5.97331 44.4222 9.77555 48.2245C13.5778 52.0267 18.4221 54.6161 23.696 55.6651C28.9699 56.7141 34.4364 56.1757 39.4042 54.118C44.3721 52.0602 48.6182 48.5755 51.6056 44.1046C54.593 39.6336 56.1875 34.3772 56.1875 29C56.1794 21.7919 53.3124 14.8814 48.2155 9.78454C43.1186 4.68766 36.2081 1.82066 29 1.8125ZM29 8.20972C33.4084 8.2058 37.7027 9.61087 41.2561 12.2199L12.2199 41.2561C9.95275 38.1582 8.58825 34.4928 8.2778 30.6665C7.96736 26.8403 8.7231 23.0028 10.4612 19.5799C12.1993 16.1571 14.8517 13.2828 18.1242 11.2758C21.3966 9.26893 25.1612 8.20795 29 8.21063V8.20972ZM29 49.7912C24.5918 49.7948 20.2978 48.3894 16.7448 45.7801L45.7801 16.7439C48.0474 19.8418 49.4121 23.5074 49.7226 27.3338C50.0332 31.1603 49.2775 34.9979 47.5394 38.421C45.8013 41.844 43.1488 44.7185 39.8763 46.7256C36.6037 48.7327 32.839 49.7938 29 49.7912Z" fill="#FF6666"/>
<path d="M29 1.8125C23.6228 1.8125 18.3664 3.40702 13.8954 6.39442C9.42449 9.38182 5.9398 13.6279 3.88204 18.5958C1.82428 23.5637 1.28588 29.0302 2.33491 34.304C3.38395 39.5779 5.97331 44.4222 9.77555 48.2245C13.5778 52.0267 18.4221 54.6161 23.696 55.6651C28.9699 56.7141 34.4364 56.1757 39.4042 54.118C44.3721 52.0602 48.6182 48.5755 51.6056 44.1046C54.593 39.6336 56.1875 34.3772 56.1875 29C56.1794 21.7919 53.3124 14.8814 48.2155 9.78454C43.1186 4.68766 36.2081 1.82066 29 1.8125V1.8125ZM29 8.20972C33.4084 8.2058 37.7027 9.61087 41.2561 12.2199L12.2199 41.2561C9.95275 38.1582 8.58825 34.4928 8.2778 30.6665C7.96736 26.8403 8.7231 23.0028 10.4612 19.5799C12.1993 16.1571 14.8517 13.2828 18.1242 11.2758C21.3966 9.26893 25.1612 8.20795 29 8.21063V8.20972ZM29 49.7912C24.5918 49.7948 20.2978 48.3894 16.7448 45.7801L45.7801 16.7439C48.0474 19.8418 49.4121 23.5074 49.7226 27.3338C50.0332 31.1603 49.2775 34.9979 47.5394 38.421C45.8013 41.844 43.1488 44.7185 39.8763 46.7256C36.6037 48.7327 32.839 49.7938 29 49.7912V49.7912Z" stroke="#2E4369" stroke-linecap="round" stroke-linejoin="round"/>
</svg>
