<svg width="25" height="24" viewBox="0 0 25 24" fill="none" xmlns="http://www.w3.org/2000/svg">
<g clip-path="url(#clip0)">
<path d="M1.00586 2.25H20.5059V6.75H1.00586V2.25Z" fill="#A6B1C9"/>
<path d="M20.4309 16.0125L20.5059 15.975V6.75H1.00586V18.75H13.1184L17.5059 10.5L20.4309 16.0125Z" fill="white"/>
<path opacity="0.15" d="M16.1941 12.975L15.2566 11.25L11.2441 18.75H13.1191L16.1941 12.975Z" fill="#000064"/>
<path d="M3.25586 4.875C3.46297 4.875 3.63086 4.70711 3.63086 4.5C3.63086 4.29289 3.46297 4.125 3.25586 4.125C3.04875 4.125 2.88086 4.29289 2.88086 4.5C2.88086 4.70711 3.04875 4.875 3.25586 4.875Z" fill="#F27E7C"/>
<path d="M5.88086 4.875C6.08797 4.875 6.25586 4.70711 6.25586 4.5C6.25586 4.29289 6.08797 4.125 5.88086 4.125C5.67375 4.125 5.50586 4.29289 5.50586 4.5C5.50586 4.70711 5.67375 4.875 5.88086 4.875Z" fill="#F27E7C"/>
<path d="M8.50586 4.875C8.71297 4.875 8.88086 4.70711 8.88086 4.5C8.88086 4.29289 8.71297 4.125 8.50586 4.125C8.29875 4.125 8.13086 4.29289 8.13086 4.5C8.13086 4.70711 8.29875 4.875 8.50586 4.875Z" fill="#F27E7C"/>
<path opacity="0.15" d="M1.00586 6.75H2.50586V18.75H1.00586V6.75ZM1.00586 2.25H2.50586V6.75H1.00586V2.25Z" fill="#000064"/>
<path d="M3.25586 4.875C3.46297 4.875 3.63086 4.70711 3.63086 4.5C3.63086 4.29289 3.46297 4.125 3.25586 4.125C3.04875 4.125 2.88086 4.29289 2.88086 4.5C2.88086 4.70711 3.04875 4.875 3.25586 4.875Z" stroke="#2E4369" stroke-linecap="round" stroke-linejoin="round"/>
<path d="M5.88086 4.875C6.08797 4.875 6.25586 4.70711 6.25586 4.5C6.25586 4.29289 6.08797 4.125 5.88086 4.125C5.67375 4.125 5.50586 4.29289 5.50586 4.5C5.50586 4.70711 5.67375 4.875 5.88086 4.875Z" stroke="#2E4369" stroke-linecap="round" stroke-linejoin="round"/>
<path d="M8.50586 4.875C8.71297 4.875 8.88086 4.70711 8.88086 4.5C8.88086 4.29289 8.71297 4.125 8.50586 4.125C8.29875 4.125 8.13086 4.29289 8.13086 4.5C8.13086 4.70711 8.29875 4.875 8.50586 4.875Z" stroke="#2E4369" stroke-linecap="round" stroke-linejoin="round"/>
<path d="M1.00586 6.75V18.75H13.0059M1.00586 2.25H20.5059V6.75H1.00586V2.25ZM20.5059 16.125V6.75V16.125Z" stroke="#2E4369" stroke-linecap="round" stroke-linejoin="round"/>
<path d="M17.5059 9.25H17.1684C15.6929 9.3309 14.2991 9.95346 13.2542 10.9984C12.2093 12.0433 11.5868 13.437 11.5059 14.9125V15.25C11.5059 16.4367 11.8578 17.5967 12.517 18.5834C13.1763 19.5701 14.1134 20.3392 15.2098 20.7933C16.3061 21.2474 17.5125 21.3662 18.6764 21.1347C19.8403 20.9032 20.9094 20.3318 21.7485 19.4926C22.5876 18.6535 23.1591 17.5844 23.3906 16.4205C23.6221 15.2567 23.5033 14.0503 23.0491 12.9539C22.595 11.8575 21.826 10.9205 20.8393 10.2612C19.8526 9.60189 18.6925 9.25 17.5059 9.25Z" fill="#ED4C49"/>
<path d="M17.5059 21.25C20.8196 21.25 23.5059 18.5637 23.5059 15.25C23.5059 11.9363 20.8196 9.25 17.5059 9.25C14.1922 9.25 11.5059 11.9363 11.5059 15.25C11.5059 18.5637 14.1922 21.25 17.5059 21.25Z" stroke="#2E4369" stroke-linecap="round" stroke-linejoin="round"/>
<path d="M15.2559 17.5L19.7559 13M15.2559 13L19.7559 17.5L15.2559 13Z" stroke="#2E4369" stroke-linecap="round" stroke-linejoin="round"/>
</g>
<defs>
<clipPath id="clip0">
<rect width="24" height="24" fill="white" transform="translate(0.255859)"/>
</clipPath>
</defs>
</svg>
