<svg width="24" height="24" viewBox="0 0 24 24" fill="none" xmlns="http://www.w3.org/2000/svg">
<path d="M12 0.75V10.575M15 15.375L18 0.75H6L9 15.375H15Z" stroke="#6B7280" stroke-miterlimit="10" stroke-linecap="round" stroke-linejoin="round"/>
<path d="M12 0.75V10.575M15 15.375L18 0.75H6L9 15.375H15Z" stroke="#6B7280" stroke-miterlimit="10" stroke-linecap="round" stroke-linejoin="round"/>
<path d="M12 20.2125L7.8375 23.25L9.45 18.375L5.25 15.375H10.425L12 10.5L13.575 15.375H18.75L14.55 18.375L16.1625 23.25L12 20.2125Z" stroke="#6B7280" stroke-miterlimit="10" stroke-linecap="round" stroke-linejoin="round"/>
<path d="M12 20.2125L7.8375 23.25L9.45 18.375L5.25 15.375H10.425L12 10.5L13.575 15.375H18.75L14.55 18.375L16.1625 23.25L12 20.2125Z" stroke="#6B7280" stroke-miterlimit="10" stroke-linecap="round" stroke-linejoin="round"/>
</svg>
