<svg width="25" height="24" viewBox="0 0 25 24" fill="none" xmlns="http://www.w3.org/2000/svg">
<g clip-path="url(#clip0)">
<path d="M1.00586 2.25H20.5059V6.75H1.00586V2.25Z" fill="#A6B1C9"/>
<path d="M17.5059 9.75C18.5451 9.74983 19.5664 10.0213 20.4684 10.5375H20.5059V6.75H1.00586V18.75H12.2934C11.7661 17.8367 11.4888 16.8005 11.4895 15.7459C11.4902 14.6913 11.7689 13.6555 12.2974 12.7429C12.826 11.8303 13.5857 11.0731 14.5001 10.5477C15.4145 10.0223 16.4513 9.74712 17.5059 9.75Z" fill="white"/>
<path opacity="0.15" d="M12.2932 18.7125C11.548 17.4077 11.3194 15.8709 11.6527 14.4058C11.986 12.9407 12.8569 11.6539 14.0932 10.8C13.3171 11.0619 12.6029 11.4799 11.9945 12.0283C11.3861 12.5766 10.8965 13.2438 10.5557 13.9886C10.2149 14.7334 10.0302 15.54 10.013 16.3589C9.99584 17.1778 10.1465 17.9915 10.4557 18.75H12.2932V18.7125Z" fill="#000064"/>
<path d="M3.25586 4.875C3.46297 4.875 3.63086 4.70711 3.63086 4.5C3.63086 4.29289 3.46297 4.125 3.25586 4.125C3.04875 4.125 2.88086 4.29289 2.88086 4.5C2.88086 4.70711 3.04875 4.875 3.25586 4.875Z" fill="#F27E7C"/>
<path d="M5.88086 4.875C6.08797 4.875 6.25586 4.70711 6.25586 4.5C6.25586 4.29289 6.08797 4.125 5.88086 4.125C5.67375 4.125 5.50586 4.29289 5.50586 4.5C5.50586 4.70711 5.67375 4.875 5.88086 4.875Z" fill="#F27E7C"/>
<path d="M8.50586 4.875C8.71297 4.875 8.88086 4.70711 8.88086 4.5C8.88086 4.29289 8.71297 4.125 8.50586 4.125C8.29875 4.125 8.13086 4.29289 8.13086 4.5C8.13086 4.70711 8.29875 4.875 8.50586 4.875Z" fill="#F27E7C"/>
<path opacity="0.15" d="M1.00586 6.75H2.50586V18.75H1.00586V6.75ZM1.00586 2.25H2.50586V6.75H1.00586V2.25Z" fill="#000064"/>
<path d="M3.25586 4.875C3.46297 4.875 3.63086 4.70711 3.63086 4.5C3.63086 4.29289 3.46297 4.125 3.25586 4.125C3.04875 4.125 2.88086 4.29289 2.88086 4.5C2.88086 4.70711 3.04875 4.875 3.25586 4.875Z" stroke="#2E4369" stroke-linecap="round" stroke-linejoin="round"/>
<path d="M5.88086 4.875C6.08797 4.875 6.25586 4.70711 6.25586 4.5C6.25586 4.29289 6.08797 4.125 5.88086 4.125C5.67375 4.125 5.50586 4.29289 5.50586 4.5C5.50586 4.70711 5.67375 4.875 5.88086 4.875Z" stroke="#2E4369" stroke-linecap="round" stroke-linejoin="round"/>
<path d="M8.50586 4.875C8.71297 4.875 8.88086 4.70711 8.88086 4.5C8.88086 4.29289 8.71297 4.125 8.50586 4.125C8.29875 4.125 8.13086 4.29289 8.13086 4.5C8.13086 4.70711 8.29875 4.875 8.50586 4.875Z" stroke="#2E4369" stroke-linecap="round" stroke-linejoin="round"/>
<path d="M1.00586 6.75V18.75H12.2559M1.00586 2.25H20.5059V6.75H1.00586V2.25ZM20.5059 10.5V6.75V10.5Z" stroke="#2E4369" stroke-linecap="round" stroke-linejoin="round"/>
<path d="M17.2559 22C20.5696 22 23.2559 19.3137 23.2559 16C23.2559 12.6863 20.5696 10 17.2559 10C13.9422 10 11.2559 12.6863 11.2559 16C11.2559 19.3137 13.9422 22 17.2559 22Z" fill="#5EDC89"/>
<path opacity="0.25" d="M17.2559 10C16.3558 9.99944 15.4671 10.2014 14.6557 10.5909C13.8443 10.9803 13.1309 11.5474 12.5684 12.25C13.7208 11.3195 15.1767 10.8482 16.6559 10.9268C18.135 11.0054 19.5328 11.6283 20.5801 12.6757C21.6275 13.7231 22.2505 15.1209 22.329 16.6C22.4076 18.0791 21.9363 19.535 21.0059 20.6875C21.9777 19.911 22.6842 18.8516 23.0275 17.6559C23.3709 16.4602 23.334 15.1873 22.9222 14.0135C22.5103 12.8396 21.7437 11.8228 20.7286 11.1038C19.7134 10.3848 18.4999 9.99903 17.2559 10Z" fill="white"/>
<path d="M17.2559 22C20.5696 22 23.2559 19.3137 23.2559 16C23.2559 12.6863 20.5696 10 17.2559 10C13.9422 10 11.2559 12.6863 11.2559 16C11.2559 19.3137 13.9422 22 17.2559 22Z" stroke="#2E4369" stroke-miterlimit="10" stroke-linecap="round" stroke-linejoin="round"/>
<path d="M19.8809 14.5L16.8809 17.875L15.0059 16" stroke="#2E4369" stroke-miterlimit="10" stroke-linecap="round" stroke-linejoin="round"/>
</g>
<defs>
<clipPath id="clip0">
<rect width="24" height="24" fill="white" transform="translate(0.255859)"/>
</clipPath>
</defs>
</svg>
