<svg width="38" height="38" viewBox="0 0 38 38" fill="none" xmlns="http://www.w3.org/2000/svg">
<path d="M19.5938 6.31097C18.0049 4.7215 16.0906 4.68469 14.8271 5.947C14.06 6.71412 13.7352 7.1345 12.4444 7.1345C11.3798 7.1345 10.1092 5.66081 10.1092 5.66081L0.59375 15.1739L4.42225 19.0042L3.63197 19.7938C3.19424 20.2404 2.95029 20.8416 2.95305 21.4669C2.95581 22.0922 3.20507 22.6912 3.64672 23.1338C4.08837 23.5765 4.68679 23.8271 5.31208 23.8313C5.93738 23.8355 6.5391 23.5929 6.98666 23.1562L6.15541 23.9875C5.72604 24.436 5.48938 25.0348 5.49612 25.6557C5.50286 26.2765 5.75246 26.87 6.19146 27.3091C6.63045 27.7482 7.22394 27.9979 7.84479 28.0047C8.46564 28.0116 9.06449 27.775 9.51306 27.3457L10.3485 26.5097C9.91957 26.9587 9.68353 27.5578 9.69092 28.1786C9.69831 28.7995 9.94854 29.3927 10.388 29.8314C10.8275 30.27 11.4212 30.519 12.0421 30.5252C12.663 30.5314 13.2616 30.2942 13.7097 29.8644L14.3688 29.2036C13.9402 29.6529 13.7047 30.2522 13.7126 30.8731C13.7205 31.4939 13.9713 32.087 14.4111 32.5253C14.851 32.9635 15.445 33.2121 16.0659 33.2177C16.6868 33.2233 17.2852 32.9855 17.7329 32.5553L18.471 31.8155L19.2084 32.5553C19.6402 32.9871 20.222 33.2355 20.8326 33.2486C21.4431 33.2617 22.035 33.0384 22.4849 32.6255C22.9348 32.2126 23.2078 31.6418 23.2469 31.0324C23.286 30.423 23.0883 29.8221 22.6949 29.355L22.7086 29.3402L23.2352 29.8668C23.6843 30.2933 24.2823 30.5275 24.9016 30.5195C25.5209 30.5115 26.1125 30.2618 26.5504 29.8238C26.9883 29.3857 27.2377 28.794 27.2456 28.1747C27.2534 27.5554 27.019 26.9575 26.5923 26.5086L27.4312 27.3487C27.652 27.5693 27.9139 27.7443 28.2023 27.8636C28.4906 27.9829 28.7996 28.0443 29.1116 28.0442C29.4236 28.0441 29.7326 27.9826 30.0208 27.8631C30.3091 27.7436 30.571 27.5685 30.7916 27.3478C31.0122 27.1271 31.1871 26.8651 31.3064 26.5768C31.4258 26.2885 31.4872 25.9795 31.4871 25.6675C31.487 25.3554 31.4255 25.0465 31.306 24.7582C31.1865 24.47 31.0114 24.2081 30.7907 23.9875L28.7322 21.929V21.9254L29.9541 23.1479C30.3995 23.5933 31.0036 23.8436 31.6335 23.8436C32.2634 23.8436 32.8675 23.5933 33.3129 23.1479C33.7583 22.7025 34.0086 22.0984 34.0086 21.4685C34.0086 20.8386 33.7583 20.2345 33.3129 19.7891L32.5233 19L36.2188 15.3051L25.6577 4.75H23.1562C21.8148 4.80434 20.543 5.36161 19.5938 6.31097Z" fill="#E8D4D4"/>
<g opacity="0.15">
<path opacity="0.15" d="M8.67699 21.4663L9.71012 20.4326L8.67105 21.4711L8.58496 21.5578L8.59149 21.5524L8.67699 21.4663ZM16.8031 26.7709L15.9718 27.598L15.9659 27.6051L16.8025 26.7679L16.8031 26.7709ZM23.7274 23.6424L23.6181 23.871C24.5741 24.6945 25.5906 25.5905 26.1249 26.1249C27.2394 27.24 25.7384 29.4006 23.5855 30.1523C24.0747 30.4768 24.6668 30.6086 25.2476 30.5222C25.8283 30.4359 26.3564 30.1375 26.7301 29.6846C27.1037 29.2318 27.2964 28.6566 27.271 28.0701C27.2455 27.4835 27.0037 26.9272 26.5922 26.5085L23.7274 23.6424Z" fill="#000064"/>
<path opacity="0.15" d="M23.1562 30.2812C22.1392 31.8077 19.8194 31.1558 19.1746 30.9343L18.7364 31.3731C18.2355 31.6261 17.6612 31.6933 17.1155 31.5627C16.5698 31.4321 16.0881 31.1122 15.7561 30.6598C15.424 30.2075 15.2632 29.6521 15.3022 29.0923C15.3412 28.5325 15.5774 28.0047 15.9689 27.6028L15.3063 28.2666L15.2974 28.2737C14.8473 28.6973 14.2498 28.9287 13.6319 28.9189C13.0139 28.9091 12.4241 28.6587 11.9878 28.2211C11.5514 27.7834 11.3028 27.1928 11.2949 26.5749C11.2869 25.9569 11.5201 25.3601 11.9451 24.9113L12.0323 24.8234L13.6272 23.228L12.0288 24.827L11.9486 24.9072L11.1031 25.755C10.6528 26.1766 10.0561 26.4064 9.4394 26.3958C8.82265 26.3853 8.23421 26.1352 7.79858 25.6985C7.36295 25.2618 7.11431 24.6727 7.10529 24.0559C7.09626 23.4392 7.32755 22.8431 7.75021 22.3938L8.11181 22.0316L8.58681 21.5566C8.1363 21.9798 7.53858 22.2106 6.9206 22.2002C6.30261 22.1897 5.71305 21.9387 5.27713 21.5006C4.84121 21.0624 4.59327 20.4716 4.58598 19.8535C4.57868 19.2355 4.8126 18.639 5.23806 18.1907L3.63493 19.7926C3.2075 20.2409 2.97209 20.8384 2.9789 21.4577C2.98572 22.0771 3.23422 22.6692 3.67141 23.108C4.10861 23.5467 4.69991 23.7973 5.31923 23.8063C5.93855 23.8153 6.53688 23.582 6.98665 23.1562L6.1554 23.9874C5.72604 24.4359 5.48938 25.0347 5.49612 25.6556C5.50285 26.2765 5.75245 26.87 6.19145 27.3091C6.63045 27.7481 7.22393 27.9978 7.84478 28.0047C8.46563 28.0115 9.06448 27.775 9.51306 27.3457L10.3485 26.5097C9.91956 26.9586 9.68352 27.5577 9.69091 28.1786C9.6983 28.7994 9.94853 29.3927 10.388 29.8313C10.8275 30.2699 11.4212 30.519 12.0421 30.5252C12.663 30.5314 13.2616 30.2942 13.7097 29.8644L14.3687 29.2035C13.9402 29.6529 13.7047 30.2521 13.7126 30.873C13.7205 31.4939 13.9713 32.087 14.4111 32.5252C14.851 32.9634 15.445 33.212 16.0659 33.2176C16.6868 33.2232 17.2852 32.9855 17.7329 32.5553L18.471 31.8154L19.2084 32.5553C19.5761 32.925 20.0557 33.163 20.5726 33.2322C21.0894 33.3015 21.6147 33.1981 22.0668 32.9382C22.5189 32.6783 22.8725 32.2763 23.0728 31.7948C23.273 31.3133 23.3086 30.7791 23.1741 30.2753L23.1562 30.2812ZM23.75 8.31244C22.5625 7.12494 20.7812 9.49994 19 10.6874C17.4123 11.7461 16.299 10.9178 16.0752 10.3051C15.98 10.8037 16.0471 11.3197 16.2666 11.7774C16.4861 12.2352 16.8465 12.6105 17.2949 12.8484C17.7433 13.0864 18.2562 13.1743 18.7583 13.0995C19.2604 13.0246 19.7253 12.7909 20.0848 12.4325L22.1956 10.3205L32.5203 19.0041L34.2594 17.2656C31.3381 14.8241 24.6733 9.23572 23.75 8.31244Z" fill="#000064"/>
</g>
<path d="M26.7336 19.9268L29.9559 23.1515C30.4013 23.5969 31.0054 23.8471 31.6353 23.8471C32.2652 23.8471 32.8693 23.5969 33.3147 23.1515C33.7602 22.7061 34.0104 22.102 34.0104 21.4721C34.0104 20.8422 33.7602 20.2381 33.3147 19.7927L25.3413 11.8156C23.8919 10.3669 22.2912 10.2291 20.5818 11.9391L20.0842 12.4308C19.6356 12.86 19.0368 13.0966 18.4159 13.0897C17.7951 13.0829 17.2016 12.8332 16.7626 12.3941C16.3236 11.955 16.074 11.3615 16.0673 10.7407C16.0605 10.1198 16.2972 9.521 16.7266 9.0725L18.4063 7.39516C20.3455 5.45419 21.4487 4.75 23.0809 4.75H25.6578L36.2188 15.3051L32.5197 19.0042" stroke="#2E4369" stroke-linecap="round" stroke-linejoin="round"/>
<path d="M26.727 19.9262L30.7907 23.9874C31.0114 24.208 31.1864 24.4699 31.3059 24.7582C31.4254 25.0464 31.487 25.3554 31.487 25.6674C31.4871 25.9795 31.4257 26.2885 31.3064 26.5768C31.1871 26.8651 31.0121 27.1271 30.7915 27.3478C30.571 27.5685 30.3091 27.7436 30.0208 27.8631C29.7326 27.9825 29.4236 28.0441 29.1116 28.0442C28.7995 28.0442 28.4905 27.9829 28.2022 27.8635C27.9139 27.7442 27.6519 27.5692 27.4312 27.3487L23.7268 23.6425" stroke="#2E4369" stroke-linecap="round" stroke-linejoin="round"/>
<path d="M23.7273 23.6426L26.5921 26.5086C26.8261 26.7258 27.0139 26.988 27.1442 27.2794C27.2746 27.5709 27.3448 27.8856 27.3508 28.2048C27.3567 28.524 27.2983 28.8412 27.1789 29.1373C27.0595 29.4334 26.8816 29.7024 26.6559 29.9282C26.4302 30.154 26.1612 30.3319 25.8652 30.4514C25.5691 30.5709 25.252 30.6295 24.9328 30.6237C24.6136 30.6179 24.2988 30.5477 24.0073 30.4175C23.7158 30.2872 23.4536 30.0995 23.2363 29.8656L21.5577 28.1865" stroke="#2E4369" stroke-linecap="round" stroke-linejoin="round"/>
<path d="M4.42344 19.0042L0.59375 15.1739L10.1062 5.65905C10.1062 5.65905 11.3721 7.13274 12.4361 7.13274C13.7269 7.13274 14.0428 6.71355 14.8111 5.94524C16.0722 4.68293 17.9698 4.72033 19.5611 6.30921M21.7408 28.37L22.5661 29.1965C22.9928 29.6454 23.2273 30.2432 23.2196 30.8625C23.2119 31.4818 22.9626 32.0736 22.5248 32.5117C22.087 32.9498 21.4954 33.1996 20.8761 33.2077C20.2568 33.2159 19.6588 32.9818 19.2096 32.5553L18.3843 31.7276L21.7408 28.37Z" stroke="#2E4369" stroke-linecap="round" stroke-linejoin="round"/>
<path d="M8.66869 21.4717C8.90079 21.254 9.08677 20.9918 9.21558 20.7008C9.34438 20.4098 9.41339 20.0959 9.4185 19.7777C9.42361 19.4595 9.36472 19.1435 9.24533 18.8485C9.12593 18.5535 8.94847 18.2855 8.72348 18.0605C8.49849 17.8354 8.23057 17.6578 7.93562 17.5383C7.64066 17.4188 7.3247 17.3598 7.0065 17.3648C6.68831 17.3698 6.37436 17.4387 6.0833 17.5674C5.79225 17.6961 5.53003 17.882 5.31222 18.114L3.63488 19.7926C3.20217 20.2404 2.96268 20.8403 2.96798 21.463C2.97328 22.0858 3.22295 22.6815 3.66322 23.1219C4.10349 23.5623 4.69912 23.8122 5.32184 23.8177C5.94456 23.8232 6.54453 23.584 6.99254 23.1514L8.66869 21.4717Z" stroke="#2E4369" stroke-linecap="round" stroke-linejoin="round"/>
<path d="M12.0281 24.8301C12.4735 24.3846 12.7237 23.7804 12.7236 23.1505C12.7236 22.5205 12.4733 21.9164 12.0278 21.471C11.5823 21.0256 10.9781 20.7754 10.3482 20.7754C9.7182 20.7755 9.11407 21.0258 8.66866 21.4713L6.15234 23.9876C5.72298 24.4361 5.48632 25.0349 5.49306 25.6557C5.4998 26.2766 5.7494 26.8701 6.18839 27.3092C6.62739 27.7483 7.22087 27.998 7.84173 28.0048C8.46258 28.0117 9.06143 27.7751 9.51 27.3458L12.0281 24.8301ZM15.3846 28.1884C15.8089 27.739 16.0414 27.142 16.0326 26.524C16.0239 25.9061 15.7746 25.3159 15.3377 24.8787C14.9008 24.4416 14.3107 24.192 13.6928 24.1829C13.0748 24.1738 12.4776 24.406 12.0281 24.8301L10.3496 26.5086C9.92538 26.9581 9.69311 27.5552 9.70208 28.1732C9.71105 28.7911 9.96055 29.3813 10.3976 29.8182C10.8347 30.2552 11.4248 30.5046 12.0428 30.5135C12.6607 30.5223 13.2578 30.29 13.7072 29.8657L15.3846 28.1884Z" stroke="#2E4369" stroke-linecap="round" stroke-linejoin="round"/>
<path d="M18.5593 31.7283C18.7798 31.5077 18.9547 31.2458 19.0741 30.9576C19.1934 30.6695 19.2547 30.3606 19.2547 30.0487C19.2546 29.7368 19.1931 29.428 19.0737 29.1398C18.9543 28.8517 18.7793 28.5899 18.5587 28.3694C18.3382 28.1489 18.0763 27.974 17.7881 27.8547C17.5 27.7354 17.1911 27.674 16.8792 27.6741C16.5673 27.6741 16.2585 27.7356 15.9703 27.855C15.6822 27.9744 15.4204 28.1494 15.1999 28.37L14.3734 29.1965C13.9407 29.6444 13.7012 30.2443 13.7065 30.867C13.7118 31.4897 13.9615 32.0854 14.4017 32.5258C14.842 32.9663 15.4376 33.2161 16.0604 33.2217C16.6831 33.2272 17.2831 32.9879 17.7311 32.5554L18.5593 31.7283Z" stroke="#2E4369" stroke-linecap="round" stroke-linejoin="round"/>
</svg>
