<svg width="22" height="22" viewBox="0 0 22 22" fill="none" xmlns="http://www.w3.org/2000/svg">
<path d="M8.89082 21.8002H5.26269C2.47123 21.8002 0.200195 19.5292 0.200195 16.7377V5.26269C0.200195 2.47123 2.47123 0.200195 5.26269 0.200195H16.7377C19.5292 0.200195 21.8002 2.47123 21.8002 5.26269V9.48144C21.8002 9.94745 21.4224 10.3252 20.9564 10.3252C20.4904 10.3252 20.1127 9.94745 20.1127 9.48144V5.26269C20.1127 3.40172 18.5987 1.8877 16.7377 1.8877H5.26269C3.40172 1.8877 1.8877 3.40172 1.8877 5.26269V16.7377C1.8877 18.5987 3.40172 20.1127 5.26269 20.1127H8.89082C9.35682 20.1127 9.73457 20.4904 9.73457 20.9564C9.73457 21.4224 9.35682 21.8002 8.89082 21.8002ZM10.0299 6.10644C10.0299 4.71071 8.89436 3.5752 7.49863 3.5752C6.1029 3.5752 4.96738 4.71071 4.96738 6.10644C4.96738 7.50218 6.1029 8.63769 7.49863 8.63769C8.89436 8.63769 10.0299 7.50218 10.0299 6.10644ZM8.34238 6.10644C8.34238 6.57169 7.96388 6.95019 7.49863 6.95019C7.03339 6.95019 6.65488 6.57169 6.65488 6.10644C6.65488 5.6412 7.03339 5.26269 7.49863 5.26269C7.96388 5.26269 8.34238 5.6412 8.34238 6.10644ZM18.4252 8.38457C18.4252 7.91857 18.0474 7.54082 17.5814 7.54082H12.3502C11.8842 7.54082 11.5064 7.91857 11.5064 8.38457C11.5064 8.85057 11.8842 9.22832 12.3502 9.22832H17.5814C18.0474 9.22832 18.4252 8.85057 18.4252 8.38457ZM12.1814 14.2908C12.1814 13.8248 11.8037 13.4471 11.3377 13.4471H5.17832C4.71232 13.4471 4.33457 13.8248 4.33457 14.2908C4.33457 14.7568 4.71232 15.1346 5.17832 15.1346H11.3377C11.8037 15.1346 12.1814 14.7568 12.1814 14.2908ZM8.80645 17.2439C8.80645 16.7779 8.4287 16.4002 7.96269 16.4002H5.17832C4.71232 16.4002 4.33457 16.7779 4.33457 17.2439C4.33457 17.7099 4.71232 18.0877 5.17832 18.0877H7.96269C8.4287 18.0877 8.80645 17.7099 8.80645 17.2439ZM12.4312 21.7838L14.8217 21.306C16.0071 21.0691 17.0856 20.492 17.9405 19.6372L20.8981 16.6794C21.4798 16.0978 21.8002 15.3244 21.8002 14.5018C21.8002 13.6791 21.4799 12.9058 20.8982 12.3241C20.3165 11.7424 19.5431 11.4221 18.7205 11.4221C17.8979 11.4221 17.1245 11.7424 16.5428 12.3241L13.5851 15.2818C12.7303 16.1367 12.1532 17.2151 11.9163 18.4006L11.4384 20.7911C11.3831 21.0677 11.4697 21.3536 11.6692 21.5531C11.829 21.7129 12.0443 21.8002 12.2658 21.8002C12.3208 21.8002 12.3762 21.7948 12.4312 21.7838ZM19.7049 13.5174C19.9679 13.7803 20.1127 14.1299 20.1127 14.5018C20.1127 14.8736 19.9679 15.2232 19.7049 15.4862L16.7472 18.4439C16.1288 19.0624 15.3486 19.4798 14.491 19.6512L13.3413 19.881L13.5711 18.7313C13.7425 17.8737 14.1599 17.0935 14.7784 16.4751L17.7361 13.5173C17.999 13.2544 18.3487 13.1096 18.7205 13.1096C19.0923 13.1096 19.442 13.2544 19.7049 13.5174ZM17.5814 6.2752H12.3502C11.8842 6.2752 11.5064 5.89745 11.5064 5.43145C11.5064 4.96544 11.8842 4.5877 12.3502 4.5877H17.5814C18.0474 4.5877 18.4252 4.96544 18.4252 5.43145C18.4252 5.89745 18.0474 6.2752 17.5814 6.2752ZM10.3586 11.7369C10.6722 11.3922 10.6471 10.8586 10.3025 10.5449C9.60881 9.91353 8.70815 9.56582 7.76652 9.56582H7.23074C6.28912 9.56582 5.38846 9.91353 4.69477 10.5449C4.35014 10.8586 4.32504 11.3922 4.6387 11.7369C4.95232 12.0815 5.48599 12.1066 5.83062 11.7929C6.21297 11.445 6.71023 11.2533 7.23074 11.2533H7.76648C8.28703 11.2533 8.7843 11.445 9.1666 11.7929C9.3283 11.9401 9.53156 12.0127 9.73427 12.0127C9.9636 12.0127 10.1921 11.9198 10.3586 11.7369Z" fill="white"/>
</svg>
