<svg width="22" height="21" viewBox="0 0 22 21" fill="none" xmlns="http://www.w3.org/2000/svg">
<path d="M8.80682 2.8913V3.82609H8.10227C8.00884 3.82609 7.91924 3.86273 7.85318 3.92796C7.78711 3.99319 7.75 4.08166 7.75 4.17391V6.95652C7.75 7.04877 7.78711 7.13724 7.85318 7.20247C7.91924 7.2677 8.00884 7.30435 8.10227 7.30435H13.0341C13.1275 7.30435 13.2171 7.2677 13.2832 7.20247C13.3492 7.13724 13.3864 7.04877 13.3864 6.95652V4.17391C13.3864 4.08166 13.3492 3.99319 13.2832 3.92796C13.2171 3.86273 13.1275 3.82609 13.0341 3.82609H12.3295V2.8913C12.3288 2.71048 12.2852 2.53234 12.2022 2.37115C12.1192 2.20997 11.9991 2.07023 11.8515 1.96313C11.9345 1.78364 11.9774 1.58861 11.9773 1.3913C11.9773 1.02231 11.8288 0.668424 11.5646 0.407504C11.3003 0.146583 10.9419 0 10.5682 0C10.1945 0 9.83606 0.146583 9.5718 0.407504C9.30755 0.668424 9.15909 1.02231 9.15909 1.3913C9.15895 1.58861 9.20183 1.78364 9.28483 1.96313C9.13727 2.07023 9.01717 2.20997 8.93416 2.37115C8.85115 2.53234 8.80754 2.71048 8.80682 2.8913ZM9.51136 2.8913C9.51185 2.78724 9.54819 2.68644 9.6144 2.60548C9.68061 2.52452 9.77275 2.46821 9.87568 2.44582C9.93672 2.43281 9.99317 2.40402 10.0392 2.36238C10.0853 2.32074 10.1193 2.26776 10.1378 2.20886C10.1563 2.14996 10.1586 2.08727 10.1445 2.0272C10.1304 1.96714 10.1004 1.91185 10.0575 1.86702C9.96254 1.76838 9.89898 1.64441 9.87468 1.51046C9.85037 1.37652 9.86639 1.23847 9.92075 1.11342C9.9751 0.98837 10.0654 0.881807 10.1805 0.806925C10.2956 0.732043 10.4304 0.692131 10.5682 0.692131C10.706 0.692131 10.8408 0.732043 10.9559 0.806925C11.071 0.881807 11.1613 0.98837 11.2156 1.11342C11.27 1.23847 11.286 1.37652 11.2617 1.51046C11.2374 1.64441 11.1738 1.76838 11.0789 1.86702C11.036 1.91185 11.006 1.96714 10.9918 2.0272C10.9777 2.08727 10.98 2.14996 10.9985 2.20886C11.017 2.26776 11.0511 2.32074 11.0971 2.36238C11.1432 2.40402 11.1996 2.43281 11.2607 2.44582C11.3636 2.46821 11.4558 2.52452 11.522 2.60548C11.5882 2.68644 11.6245 2.78724 11.625 2.8913V3.82609H9.51136V2.8913ZM11.9773 4.52174H12.6818V6.6087H8.45455V4.52174H11.9773Z" fill="#6B7280"/>
<path d="M13.3864 20.5217V17.7391C13.3864 17.6469 13.3492 17.5584 13.2832 17.4931C13.2171 17.4279 13.1275 17.3913 13.0341 17.3913H12.3295V16.4565C12.3288 16.2757 12.2852 16.0975 12.2022 15.9363C12.1192 15.7752 11.9991 15.6354 11.8515 15.5283C11.9345 15.3488 11.9774 15.1538 11.9773 14.9565C11.9773 14.5875 11.8288 14.2336 11.5646 13.9727C11.3003 13.7118 10.9419 13.5652 10.5682 13.5652C10.1945 13.5652 9.83606 13.7118 9.5718 13.9727C9.30755 14.2336 9.15909 14.5875 9.15909 14.9565C9.15895 15.1538 9.20183 15.3488 9.28483 15.5283C9.13727 15.6354 9.01717 15.7752 8.93416 15.9363C8.85115 16.0975 8.80754 16.2757 8.80682 16.4565V17.3913H8.10227C8.00884 17.3913 7.91924 17.4279 7.85318 17.4931C7.78711 17.5584 7.75 17.6469 7.75 17.7391V20.5217C7.75 20.614 7.78711 20.7024 7.85318 20.7677C7.91924 20.8329 8.00884 20.8695 8.10227 20.8695H13.0341C13.1275 20.8695 13.2171 20.8329 13.2832 20.7677C13.3492 20.7024 13.3864 20.614 13.3864 20.5217ZM9.51136 16.4565C9.51185 16.3524 9.54819 16.2516 9.6144 16.1707C9.68061 16.0897 9.77275 16.0334 9.87568 16.011C9.93672 15.998 9.99317 15.9692 10.0392 15.9276C10.0853 15.8859 10.1193 15.8329 10.1378 15.774C10.1563 15.7152 10.1586 15.6525 10.1445 15.5924C10.1304 15.5323 10.1004 15.477 10.0575 15.4322C9.96254 15.3336 9.89898 15.2096 9.87468 15.0756C9.85037 14.9417 9.86639 14.8037 9.92075 14.6786C9.9751 14.5536 10.0654 14.447 10.1805 14.3721C10.2956 14.2972 10.4304 14.2573 10.5682 14.2573C10.706 14.2573 10.8408 14.2972 10.9559 14.3721C11.071 14.447 11.1613 14.5536 11.2156 14.6786C11.27 14.8037 11.286 14.9417 11.2617 15.0756C11.2374 15.2096 11.1738 15.3336 11.0789 15.4322C11.036 15.477 11.006 15.5323 10.9918 15.5924C10.9777 15.6525 10.98 15.7152 10.9985 15.774C11.017 15.8329 11.0511 15.8859 11.0971 15.9276C11.1432 15.9692 11.1996 15.998 11.2607 16.011C11.3636 16.0334 11.4558 16.0897 11.522 16.1707C11.5882 16.2516 11.6245 16.3524 11.625 16.4565V17.3913H9.51136V16.4565ZM12.6818 20.1739H8.45455V18.0869H12.6818V20.1739Z" fill="#6B7280"/>
<path d="M20.7841 17.3913H20.0795V16.4565C20.0788 16.2757 20.0352 16.0975 19.9522 15.9363C19.8692 15.7752 19.7491 15.6354 19.6015 15.5283C19.6845 15.3488 19.7274 15.1538 19.7273 14.9565C19.7273 14.5875 19.5788 14.2336 19.3146 13.9727C19.0503 13.7118 18.6919 13.5652 18.3182 13.5652C17.9445 13.5652 17.5861 13.7118 17.3218 13.9727C17.0575 14.2336 16.9091 14.5875 16.9091 14.9565C16.9089 15.1538 16.9518 15.3488 17.0348 15.5283C16.8873 15.6354 16.7672 15.7752 16.6842 15.9363C16.6011 16.0975 16.5575 16.2757 16.5568 16.4565V17.3913H15.8523C15.7588 17.3913 15.6692 17.4279 15.6032 17.4931C15.5371 17.5584 15.5 17.6469 15.5 17.7391V20.5217C15.5 20.614 15.5371 20.7024 15.6032 20.7677C15.6692 20.8329 15.7588 20.8695 15.8523 20.8695H20.7841C20.8775 20.8695 20.9671 20.8329 21.0332 20.7677C21.0992 20.7024 21.1364 20.614 21.1364 20.5217V17.7391C21.1364 17.6469 21.0992 17.5584 21.0332 17.4931C20.9671 17.4279 20.8775 17.3913 20.7841 17.3913ZM17.2614 16.4565C17.2619 16.3524 17.2982 16.2516 17.3644 16.1707C17.4306 16.0897 17.5228 16.0334 17.6257 16.011C17.6867 15.998 17.7432 15.9692 17.7892 15.9276C17.8353 15.8859 17.8693 15.8329 17.8878 15.774C17.9063 15.7152 17.9086 15.6525 17.8945 15.5924C17.8804 15.5323 17.8504 15.477 17.8075 15.4322C17.7125 15.3336 17.649 15.2096 17.6247 15.0756C17.6004 14.9417 17.6164 14.8037 17.6707 14.6786C17.7251 14.5536 17.8154 14.447 17.9305 14.3721C18.0456 14.2972 18.1804 14.2573 18.3182 14.2573C18.456 14.2573 18.5908 14.2972 18.7059 14.3721C18.821 14.447 18.9113 14.5536 18.9656 14.6786C19.02 14.8037 19.036 14.9417 19.0117 15.0756C18.9874 15.2096 18.9238 15.3336 18.8289 15.4322C18.786 15.477 18.756 15.5323 18.7418 15.5924C18.7277 15.6525 18.73 15.7152 18.7485 15.774C18.767 15.8329 18.8011 15.8859 18.8471 15.9276C18.8932 15.9692 18.9496 15.998 19.0107 16.011C19.1136 16.0334 19.2058 16.0897 19.272 16.1707C19.3382 16.2516 19.3745 16.3524 19.375 16.4565V17.3913H17.2614V16.4565ZM20.4318 20.1739H16.2045V18.0869H20.4318V20.1739Z" fill="#6B7280"/>
<path d="M0.352273 20.8695H5.28409C5.37752 20.8695 5.46712 20.8329 5.53319 20.7677C5.59925 20.7024 5.63636 20.614 5.63636 20.5217V17.7391C5.63636 17.6469 5.59925 17.5584 5.53319 17.4931C5.46712 17.4279 5.37752 17.3913 5.28409 17.3913H4.57955V16.4565C4.57883 16.2757 4.53521 16.0975 4.4522 15.9363C4.3692 15.7752 4.2491 15.6354 4.10154 15.5283C4.18453 15.3488 4.22741 15.1538 4.22727 14.9565C4.22727 14.5875 4.07882 14.2336 3.81456 13.9727C3.5503 13.7118 3.1919 13.5652 2.81818 13.5652C2.44447 13.5652 2.08606 13.7118 1.8218 13.9727C1.55755 14.2336 1.40909 14.5875 1.40909 14.9565C1.40895 15.1538 1.45183 15.3488 1.53483 15.5283C1.38727 15.6354 1.26717 15.7752 1.18416 15.9363C1.10115 16.0975 1.05754 16.2757 1.05682 16.4565V17.3913H0.352273C0.258844 17.3913 0.169242 17.4279 0.103178 17.4931C0.0371143 17.5584 0 17.6469 0 17.7391V20.5217C0 20.614 0.0371143 20.7024 0.103178 20.7677C0.169242 20.8329 0.258844 20.8695 0.352273 20.8695ZM1.76136 16.4565C1.76185 16.3524 1.79819 16.2516 1.8644 16.1707C1.93061 16.0897 2.02275 16.0334 2.12568 16.011C2.18672 15.998 2.24317 15.9692 2.28923 15.9276C2.3353 15.8859 2.36932 15.8329 2.38782 15.774C2.40632 15.7152 2.40863 15.6525 2.39452 15.5924C2.3804 15.5323 2.35037 15.477 2.30749 15.4322C2.21254 15.3336 2.14898 15.2096 2.12468 15.0756C2.10037 14.9417 2.11639 14.8037 2.17075 14.6786C2.2251 14.5536 2.31541 14.447 2.43049 14.3721C2.54557 14.2972 2.68036 14.2573 2.81818 14.2573C2.956 14.2573 3.0908 14.2972 3.20587 14.3721C3.32095 14.447 3.41126 14.5536 3.46562 14.6786C3.51997 14.8037 3.53599 14.9417 3.51168 15.0756C3.48738 15.2096 3.42382 15.3336 3.32888 15.4322C3.286 15.477 3.25596 15.5323 3.24185 15.5924C3.22773 15.6525 3.23004 15.7152 3.24854 15.774C3.26704 15.8329 3.30106 15.8859 3.34713 15.9276C3.39319 15.9692 3.44964 15.998 3.51069 16.011C3.61361 16.0334 3.70575 16.0897 3.77196 16.1707C3.83818 16.2516 3.87451 16.3524 3.875 16.4565V17.3913H1.76136V16.4565ZM0.704545 18.0869H4.93182V20.1739H0.704545V18.0869Z" fill="#6B7280"/>
<path d="M18.6694 12.8696V10.4348C18.6694 10.3425 18.6323 10.2541 18.5662 10.1888C18.5001 10.1236 18.4105 10.087 18.3171 10.087H10.9194V8H10.2148V10.087H2.81712C2.72369 10.087 2.63409 10.1236 2.56802 10.1888C2.50196 10.2541 2.46484 10.3425 2.46484 10.4348V12.8696H3.16939V10.7826H10.2148V12.8696H10.9194V10.7826H17.9648V12.8696H18.6694Z" fill="#6B7280"/>
</svg>
