<svg width="16" height="16" viewBox="0 0 16 16" fill="none" xmlns="http://www.w3.org/2000/svg">
<path fill-rule="evenodd" clip-rule="evenodd" d="M9.99869 6.33331H11.0587C11.652 6.33331 11.9454 7.05331 11.5254 7.47331L8.46536 10.5333C8.20536 10.7933 7.78536 10.7933 7.52536 10.5333L4.46536 7.47331C4.04536 7.05331 4.34536 6.33331 4.93869 6.33331H5.99869V2.99998C5.99869 2.63331 6.29869 2.33331 6.66536 2.33331H9.33203C9.69869 2.33331 9.99869 2.63331 9.99869 2.99998V6.33331ZM3.9987 13.6666C3.63203 13.6666 3.33203 13.3666 3.33203 13C3.33203 12.6333 3.63203 12.3333 3.9987 12.3333H11.9987C12.3654 12.3333 12.6654 12.6333 12.6654 13C12.6654 13.3666 12.3654 13.6666 11.9987 13.6666H3.9987Z" fill="url(#paint0_linear)"/>
<defs>
<linearGradient id="paint0_linear" x1="7.9987" y1="2.33331" x2="7.9987" y2="13.6666" gradientUnits="userSpaceOnUse">
<stop stop-color="#D70900"/>
<stop offset="1" stop-color="#BF0B1C"/>
</linearGradient>
</defs>
</svg>
