<svg width="72" height="72" viewBox="0 0 72 72" fill="none" xmlns="http://www.w3.org/2000/svg">
<g clip-path="url(#clip0)">
<path d="M71.1602 21.4148L51.7943 25.5562L43.3633 44.1924L53.0513 63.864L71.1602 66.97V21.4148Z" fill="#FF9100"/>
<path d="M0.480469 66.97L21.5724 64.8174L28.2774 44.1924L19.8463 25.5562L0.480469 21.4148V66.97Z" fill="#FDBF00"/>
<path d="M71.1601 66.9699H0.480469L35.8203 37.9802L71.1601 66.9699Z" fill="#FFDA2D"/>
<path d="M71.1601 66.9699H35.8203V37.9802L71.1601 66.9699Z" fill="#FDBF00"/>
<path d="M71.1601 21.4148L43.3578 44.1924L35.8203 50.4045L28.2827 44.1924L0.480469 21.4148H71.1601Z" fill="#FFF5F5"/>
<path d="M71.1601 21.4148L43.3578 44.1924L35.8203 50.4045V21.4148H71.1601Z" fill="#EFE2DD"/>
<path d="M35.82 4.84912C27.8274 4.84912 21.3252 11.3513 21.3252 19.344C21.3252 27.3366 27.8274 33.8388 35.82 33.8388C43.8127 33.8388 50.3149 27.3366 50.3149 19.344C50.3149 11.3513 43.8127 4.84912 35.82 4.84912Z" fill="#61D7A8"/>
<path d="M50.3152 19.344C50.3152 27.3366 43.813 33.8388 35.8203 33.8388V4.84912C43.813 4.84912 50.3152 11.3513 50.3152 19.344Z" fill="#00AB94"/>
<path d="M43.4823 16.6521L35.8207 24.3552L33.75 26.4259L28.1592 20.7935L31.0581 17.8946L33.75 20.5449L35.8207 18.4742L40.5833 13.7532L43.4823 16.6521Z" fill="#FFF5F5"/>
<path d="M43.4819 16.6521L35.8203 24.3552V18.4742L40.5829 13.7532L43.4819 16.6521Z" fill="#EFE2DD"/>
</g>
<defs>
<clipPath id="clip0">
<rect width="70.6796" height="70.6796" fill="white" transform="translate(0.480469 0.569824)"/>
</clipPath>
</defs>
</svg>
