<svg xmlns="http://www.w3.org/2000/svg" width="47" height="47" viewBox="0 0 47 47">
  <g id="Group_25144" data-name="Group 25144" transform="translate(1450 617)">
    <g id="Group_25108" data-name="Group 25108" transform="translate(-1504 -675)">
      <rect id="Rectangle_6458" data-name="Rectangle 6458" width="47" height="47" rx="4" transform="translate(54 58)" fill="rgba(255,255,255,0.3)"/>
      <path id="Path_12325" data-name="Path 12325" d="M356.742,253.313v-2.361a4.722,4.722,0,0,0-3.542-4.569" transform="translate(-266.141 -161.073)" fill="none" stroke="#fff" stroke-linecap="round" stroke-linejoin="round" stroke-width="2"/>
      <path id="Path_12326" data-name="Path 12326" d="M345.491,253.284v-2.361a4.722,4.722,0,0,0-4.723-4.723h-9.445a4.722,4.722,0,0,0-4.723,4.723v2.361" transform="translate(-261.974 -161.045)" fill="none" stroke="#fff" stroke-linecap="round" stroke-linejoin="round" stroke-width="2"/>
      <path id="Path_12327" data-name="Path 12327" d="M347.6,229.582a4.723,4.723,0,0,1,0,9.15" transform="translate(-265.264 -158.441)" fill="none" stroke="#fff" stroke-linecap="round" stroke-linejoin="round" stroke-width="2"/>
      <path id="Path_12328" data-name="Path 12328" d="M336.923,238.845a4.723,4.723,0,1,0-4.723-4.723A4.722,4.722,0,0,0,336.923,238.845Z" transform="translate(-262.851 -158.413)" fill="none" stroke="#fff" stroke-linecap="round" stroke-linejoin="round" stroke-width="2"/>
    </g>
  </g>
</svg>
