<svg width="38" height="38" viewBox="0 0 38 38" fill="none" xmlns="http://www.w3.org/2000/svg">
<path d="M19 36.8125C28.8376 36.8125 36.8125 28.8376 36.8125 19C36.8125 9.16243 28.8376 1.1875 19 1.1875C9.16243 1.1875 1.1875 9.16243 1.1875 19C1.1875 28.8376 9.16243 36.8125 19 36.8125Z" fill="#E0EAFC" stroke="#2E4369" stroke-linecap="round" stroke-linejoin="round"/>
<mask id="mask0" mask-type="alpha" maskUnits="userSpaceOnUse" x="0" y="0" width="38" height="38">
<path d="M19 36.8125C28.8376 36.8125 36.8125 28.8376 36.8125 19C36.8125 9.16243 28.8376 1.1875 19 1.1875C9.16243 1.1875 1.1875 9.16243 1.1875 19C1.1875 28.8376 9.16243 36.8125 19 36.8125Z" fill="#E0EAFC" stroke="#2E4369" stroke-linecap="round" stroke-linejoin="round"/>
</mask>
<g mask="url(#mask0)">
<path d="M16.2886 28.5001V27.9064C17.5514 26.7856 18.4594 25.3204 18.9011 23.6907H18.9604C20.4448 23.6907 20.8011 20.6626 20.8011 20.1876C20.8011 19.7126 20.8604 17.9314 19.3761 17.9314C22.5823 9.26261 14.0917 5.75949 7.79794 10.2126C5.18544 10.2126 4.94794 14.072 5.95731 17.9314C4.47294 17.9314 4.53231 19.772 4.53231 20.1876C4.53231 20.6032 4.88856 23.6907 6.31356 23.6907H6.19481C6.66981 25.4126 7.97606 26.897 8.56981 27.9064V28.5001C8.56981 29.4501 8.68856 30.9939 3.87919 31.8845C2.99271 32.031 2.14469 32.354 1.38544 32.8345C4.56354 35.3985 8.52386 36.7969 12.6073 36.7969C16.6908 36.7969 20.6511 35.3985 23.8292 32.8345C23.0079 32.3372 22.1022 31.9951 21.1573 31.8251C16.4073 30.9345 16.2886 29.4501 16.2886 28.5001Z" fill="#78D1F4"/>
<path opacity="0.15" d="M2.3353 20.3064C0.850924 20.3064 0.910299 22.147 0.910299 22.5626C0.910299 22.9782 1.26655 26.0657 2.69155 26.0657H2.5728C3.0478 27.7876 4.35405 29.272 4.9478 30.2814V30.8751C4.95353 31.1337 4.93364 31.3923 4.88842 31.647C8.62905 30.7564 8.5103 29.3907 8.5103 28.5001V27.9064C7.91655 26.897 6.6103 25.4126 6.1353 23.6907H6.19467C4.7103 23.6907 4.41342 20.6626 4.41342 20.1876C4.41342 19.7126 4.35405 17.9314 5.83842 17.9314C5.24467 15.5564 5.12592 13.1814 5.71967 11.697L4.17592 12.5876C1.6228 12.5876 1.3853 16.447 2.3353 20.3064Z" fill="#000064"/>
<path opacity="0.15" d="M3.76044 32.8343C4.51969 32.3539 5.36771 32.0308 6.25419 31.8843C11.0636 30.9937 10.9448 29.45 10.9448 28.5V27.9062C10.3511 26.8968 9.04481 25.4125 8.56981 23.6906H8.68856C7.20419 23.6906 6.90731 20.6625 6.90731 20.1875C6.90731 19.7125 6.84794 17.9312 8.33231 17.9312C7.38231 14.0718 7.56044 10.2125 10.1729 10.2125C11.5479 9.23853 13.1358 8.60744 14.8042 8.37185C12.3202 8.07982 9.81764 8.73727 7.79794 10.2125C5.18544 10.2125 4.94794 14.0718 5.95731 17.9312C4.47294 17.9312 4.53231 19.7718 4.53231 20.1875C4.53231 20.6031 4.88856 23.6906 6.31356 23.6906H6.19481C6.66981 25.4125 7.97606 26.8968 8.56981 27.9062V28.5C8.56981 29.45 8.68856 30.9937 3.87919 31.8843C2.99271 32.0308 2.14469 32.3539 1.38544 32.8343C4.55904 35.4083 8.52112 36.8128 12.6073 36.8125H13.7948C10.1191 36.5562 6.61327 35.1663 3.76044 32.8343Z" fill="#000064"/>
<path d="M23.8883 32.8343C23.1094 32.3382 22.2428 31.9956 21.3352 31.825C16.5258 30.9343 16.5258 29.3906 16.5258 28.4406V27.8468C17.7398 26.7064 18.6047 25.2444 19.0196 23.6312C20.504 23.6312 20.8008 20.6031 20.8008 20.1281C20.8008 19.6531 20.8602 17.8718 19.3758 17.8718C22.5821 9.20308 14.0915 5.69995 7.73833 10.1531C5.12583 10.1531 4.88833 14.0125 5.89771 17.8718C4.41333 17.8718 4.47271 19.7125 4.47271 20.1281C4.47271 20.5437 4.82896 23.6312 6.25396 23.6312C6.67502 25.2726 7.56166 26.7572 8.80708 27.9062V28.5C8.80708 29.45 8.80708 30.9937 3.9977 31.8843C3.0931 32.0324 2.22594 32.3551 1.44458 32.8343" stroke="#2E4369" stroke-linecap="round" stroke-linejoin="round"/>
<path d="M28.8365 27.4907V27.3126C31.2869 27.1801 33.7158 26.7819 36.0802 26.1251C34.0615 24.1657 32.4584 23.2157 32.4584 14.9626C32.4584 6.70944 24.0865 8.31256 24.0865 8.31256C18.149 8.31256 18.149 14.7251 18.149 14.7251C18.149 22.9782 16.6052 24.1063 14.6459 26.1251C16.9313 26.7737 19.2806 27.1718 21.6521 27.3126V27.4907C21.6521 28.4407 21.4146 30.9938 16.6052 31.8844C15.6999 32.0295 14.8321 32.3524 14.0521 32.8344C17.2256 35.4088 21.1877 36.8138 25.274 36.8138C29.3603 36.8138 33.3224 35.4088 36.4959 32.8344C35.697 32.3352 34.8104 31.9927 33.8834 31.8251C29.1334 30.9344 28.8365 28.4407 28.8365 27.4907Z" fill="#FF7E63"/>
<path opacity="0.15" d="M21.7113 27.4907C21.7182 28.0388 21.5986 28.5811 21.3618 29.0755C21.1249 29.5698 20.7772 30.0028 20.3456 30.3407C23.8488 29.272 24.0863 27.1345 24.0863 26.3032V26.1251C21.7147 25.9844 19.3655 25.5862 17.08 24.9376C19.0394 22.9782 20.5831 21.8501 20.5831 13.5376C20.5831 13.5376 20.5831 10.3314 22.6613 8.43137C18.1488 9.44074 18.2081 14.7251 18.2081 14.7251C18.2081 22.9782 16.6644 24.1064 14.705 26.1251C16.9905 26.7737 19.3397 27.1719 21.7113 27.3126V27.4907Z" fill="#000064"/>
<path opacity="0.15" d="M21.7113 27.4906V27.3125C19.3397 27.1717 16.9905 26.7736 14.705 26.125C16.6644 24.1656 18.2081 23.0375 18.2081 14.725C18.2431 13.3251 18.6311 11.9567 19.3363 10.7468C14.5863 11.6375 14.6456 17.1 14.6456 17.1C14.6456 25.4125 13.1019 26.5406 11.1425 28.5C13.428 29.1486 15.7772 29.5467 18.1488 29.6875V29.8656C18.1649 30.4851 18.0218 31.0984 17.7331 31.6468C21.4738 30.5781 21.7113 28.3812 21.7113 27.4906Z" fill="#000064"/>
<path d="M14.1113 32.8343C14.8926 32.355 15.7598 32.0324 16.6644 31.8843C21.4738 30.9937 21.7706 28.4999 21.7706 27.4906V27.3124C19.3809 27.16 17.0133 26.762 14.705 26.1249C16.6644 24.1656 18.2081 23.0374 18.2081 14.7249C18.2081 14.7249 18.1488 8.31245 24.1456 8.31245C24.1456 8.31245 32.4581 6.88745 32.4581 14.9625C32.4581 23.0374 34.1206 24.1656 36.08 26.1249C33.7315 26.7627 31.3244 27.1606 28.8956 27.3124V27.4906C28.8956 28.4406 29.1925 30.9343 34.0019 31.8843C34.9099 32.0535 35.7768 32.3962 36.555 32.8937" stroke="#2E4369" stroke-linecap="round" stroke-linejoin="round"/>
<path d="M19 36.8125C28.8376 36.8125 36.8125 28.8376 36.8125 19C36.8125 9.16243 28.8376 1.1875 19 1.1875C9.16243 1.1875 1.1875 9.16243 1.1875 19C1.1875 28.8376 9.16243 36.8125 19 36.8125Z" stroke="#2E4369" stroke-linecap="round" stroke-linejoin="round"/>
</g>
</svg>
