<svg id="Group_10669" data-name="Group 10669" xmlns="http://www.w3.org/2000/svg" width="52.333" height="35.314" viewBox="0 0 52.333 35.314">
  <path id="Path" d="M7.042,0A15.339,15.339,0,0,0,.75,1.347a1.265,1.265,0,0,0-.716.859A1.25,1.25,0,0,0,.286,3.292,18.577,18.577,0,0,1,4.518,13.872v.063a1.27,1.27,0,0,0,1.276,1.193H21.432a.965.965,0,0,0,.694-.3.942.942,0,0,0,.258-.7A15.276,15.276,0,0,0,7.042,0Z" transform="translate(29.948 20.185)" fill="rgba(255,255,255,0.5)"/>
  <ellipse id="Oval" cx="8.966" cy="8.828" rx="8.966" ry="8.828" transform="translate(26.809 0)" fill="rgba(255,255,255,0.5)"/>
  <path id="Path-2" data-name="Path" d="M30.637,14.2A15.3,15.3,0,0,0,15.639,0,15.318,15.318,0,0,0,.01,13.516,1.5,1.5,0,0,0,.393,14.7a1.54,1.54,0,0,0,1.148.5H29.675a.965.965,0,0,0,.7-.3.942.942,0,0,0,.258-.71Z" transform="translate(0 20.113)" fill="rgba(255,255,255,0.5)"/>
  <ellipse id="Oval-2" data-name="Oval" cx="8.966" cy="8.828" rx="8.966" ry="8.828" transform="translate(5.114 0)" fill="rgba(255,255,255,0.5)"/>
</svg>
