<svg xmlns="http://www.w3.org/2000/svg" xmlns:xlink="http://www.w3.org/1999/xlink" width="277" height="186.623" viewBox="0 0 277 186.623">
  <defs>
    <linearGradient id="linear-gradient" x1="0.238" y1="0.39" x2="0.887" y2="0.866" gradientUnits="objectBoundingBox">
      <stop offset="0" stop-color="#4a4a4a" stop-opacity="0.533"/>
      <stop offset="1" stop-color="#4a4a4a"/>
    </linearGradient>
    <linearGradient id="linear-gradient-2" x1="0.707" y1="0.813" x2="0.352" y2="0.283" gradientUnits="objectBoundingBox">
      <stop offset="0" stop-color="#5d5d5d" stop-opacity="0.647"/>
      <stop offset="1" stop-color="#6c6a6a"/>
    </linearGradient>
    <linearGradient id="linear-gradient-3" x1="0.112" y1="0.532" x2="0.518" y2="0.941" gradientUnits="objectBoundingBox">
      <stop offset="0" stop-color="#4a4a4a"/>
      <stop offset="1" stop-color="#4a4a4a"/>
    </linearGradient>
  </defs>
  <g id="Group_25137" data-name="Group 25137" transform="translate(-818 -236)">
    <g id="Group_10612" data-name="Group 10612" transform="translate(879.034 282.484)">
      <g id="google-docs" transform="translate(0)">
        <path id="Path_51521" data-name="Path 51521" d="M68.17,6.725v94.128a6.742,6.742,0,0,0,6.722,6.722h65.37a6.744,6.744,0,0,0,6.725-6.725V24.762a7.785,7.785,0,0,0-2.28-5.5L127.729,2.28a7.784,7.784,0,0,0-5.5-2.28H74.895A6.744,6.744,0,0,0,68.17,6.725Z" transform="translate(-68.17 0)" fill="url(#linear-gradient)"/>
        <g id="Group_10611" data-name="Group 10611" transform="translate(15.977 43.288)">
          <g id="Group_10601" data-name="Group 10601">
            <g id="Group_10600" data-name="Group 10600">
              <g id="Group_10599" data-name="Group 10599">
                <path id="Path_51522" data-name="Path 51522" d="M145.855,213.834h42.983a1.94,1.94,0,0,0,1.94-1.94v-4.73a1.94,1.94,0,0,0-1.94-1.94H145.855a1.94,1.94,0,0,0-1.94,1.94v4.73A1.94,1.94,0,0,0,145.855,213.834Z" transform="translate(-143.915 -205.224)" fill="#ebeff0"/>
              </g>
            </g>
          </g>
          <g id="Group_10604" data-name="Group 10604" transform="translate(0 13.44)">
            <g id="Group_10603" data-name="Group 10603">
              <g id="Group_10602" data-name="Group 10602">
                <path id="Path_51523" data-name="Path 51523" d="M145.855,277.549h42.983a1.94,1.94,0,0,0,1.94-1.94v-4.73a1.94,1.94,0,0,0-1.94-1.94H145.855a1.94,1.94,0,0,0-1.94,1.94v4.73A1.94,1.94,0,0,0,145.855,277.549Z" transform="translate(-143.915 -268.939)" fill="#ebeff0"/>
              </g>
            </g>
          </g>
          <g id="Group_10607" data-name="Group 10607" transform="translate(0 26.879)">
            <g id="Group_10606" data-name="Group 10606">
              <g id="Group_10605" data-name="Group 10605">
                <path id="Path_51524" data-name="Path 51524" d="M145.855,341.263h42.983a1.94,1.94,0,0,0,1.94-1.94v-4.73a1.94,1.94,0,0,0-1.94-1.94H145.855a1.94,1.94,0,0,0-1.94,1.94v4.73A1.94,1.94,0,0,0,145.855,341.263Z" transform="translate(-143.915 -332.654)" fill="#ebeff0"/>
              </g>
            </g>
          </g>
          <g id="Group_10610" data-name="Group 10610" transform="translate(0 40.319)">
            <g id="Group_10609" data-name="Group 10609">
              <g id="Group_10608" data-name="Group 10608">
                <path id="Path_51525" data-name="Path 51525" d="M145.319,404.978h21.759a1.4,1.4,0,0,0,1.4-1.4v-5.8a1.4,1.4,0,0,0-1.4-1.4H145.319a1.4,1.4,0,0,0-1.4,1.4v5.8A1.4,1.4,0,0,0,145.319,404.978Z" transform="translate(-143.915 -396.369)" fill="#ebeff0"/>
              </g>
            </g>
          </g>
        </g>
        <path id="Path_51526" data-name="Path 51526" d="M337.092,3.173A7.784,7.784,0,0,0,333.5,1.132v21.92L356.35,45.9V25.655a7.784,7.784,0,0,0-2.28-5.5Z" transform="translate(-277.533 -0.893)" fill="url(#linear-gradient-2)"/>
        <path id="Path_51527" data-name="Path 51527" d="M354.064,23.333c.025.108.048.213.069.315h-20.6a2.641,2.641,0,0,1-2.641-2.641V.581c.161.029.33.062.5.1a8.267,8.267,0,0,1,4.047,2.241l16.38,16.38a8.362,8.362,0,0,1,2.237,4.03Z" transform="translate(-275.478 -0.458)" fill="url(#linear-gradient-3)"/>
      </g>
      <g id="search_4_" data-name="search (4)" transform="translate(55.324 32.142)">
        <path id="Path_51529" data-name="Path 51529" d="M350.4,341.807h0a8.7,8.7,0,0,1-8.591,8.591h0a8.914,8.914,0,0,1-6.382-2.7l-27.49-29.945a2.373,2.373,0,0,1,0-3.436l6.382-6.382a2.373,2.373,0,0,1,3.436,0L347.7,335.671A8.365,8.365,0,0,1,350.4,341.807Z" transform="translate(-242.402 -242.401)" fill="#9e9e9e"/>
        <rect id="Rectangle_6333" data-name="Rectangle 6333" width="6.872" height="10.309" transform="translate(71.117 66.259) rotate(135)" fill="#b0c4d8"/>
        <path id="Path_51530" data-name="Path 51530" d="M287.863,287.864l1.227,1.227,2.454-2.454-7.363-7.363-4.909,4.909,3.682,3.682h0A3.279,3.279,0,0,1,287.863,287.864Z" transform="translate(-220.365 -220.365)" fill="#99b4cd"/>
        <path id="Path_51531" data-name="Path 51531" d="M36.817,0A36.817,36.817,0,1,0,73.634,36.817,36.768,36.768,0,0,0,36.817,0Zm0,66.271A29.454,29.454,0,1,1,66.271,36.817,29.54,29.54,0,0,1,36.817,66.271Z" transform="translate(0)" fill="#c4d7e5"/>
        <path id="Path_51538" data-name="Path 51538" d="M29.454,0A29.454,29.454,0,1,1,0,29.454,29.454,29.454,0,0,1,29.454,0Z" transform="translate(7.363 7.363)" fill="rgba(74,74,74,0.56)"/>
        <path id="Path_51532" data-name="Path 51532" d="M78.262,95.66A20.832,20.832,0,0,1,96.18,77.743h.246c4.173-.491,4.418-6.382.491-7.118a24.73,24.73,0,0,0-7.363-.246A21.869,21.869,0,0,0,71.144,88.788a18.463,18.463,0,0,0,.246,7.363c.736,4.173,6.627,3.682,7.118-.491C78.262,95.906,78.262,95.66,78.262,95.66Z" transform="translate(-55.926 -55.407)" fill="#ebeff0"/>
        <path id="Path_51533" data-name="Path 51533" d="M37.363,66.818A29.54,29.54,0,0,1,66.817,37.364a30.754,30.754,0,0,1,19.636,7.363,29.118,29.118,0,0,0-22.09-9.818A29.54,29.54,0,0,0,34.909,64.364a29.993,29.993,0,0,0,9.818,22.09A30.754,30.754,0,0,1,37.363,66.818Z" transform="translate(-27.546 -27.546)" fill="#f3dddd"/>
        <path id="Path_51534" data-name="Path 51534" d="M174.545,211.363h0a36.768,36.768,0,0,0,36.817-36.817h0A2.46,2.46,0,0,0,208.908,177a33.385,33.385,0,0,1-9.818,21.6A34.584,34.584,0,0,1,177,208.909,2.46,2.46,0,0,0,174.545,211.363Z" transform="translate(-137.728 -137.729)" fill="#b0c9db"/>
        <path id="Path_51535" data-name="Path 51535" d="M36.817,0h0A36.768,36.768,0,0,0,0,36.817H0a2.46,2.46,0,0,0,2.454-2.454A33.229,33.229,0,0,1,11.536,13.5,36.039,36.039,0,0,1,34.363,2.454,2.459,2.459,0,0,0,36.817,0Z" transform="translate(0)" fill="#e2e7f0"/>
        <path id="Path_51536" data-name="Path 51536" d="M352.045,364.349l-1.473-1.227a8.577,8.577,0,0,1,1.964,5.4h0c0,3.191-3.927,4.418-6.136,2.209l-25.772-25.772a3.559,3.559,0,0,0-5.154,0l-2.454,2.454,26.754,28.717a9.852,9.852,0,0,0,5.4,2.945,8.6,8.6,0,0,0,9.572-9.572C354.745,367.54,353.518,365.822,352.045,364.349Z" transform="translate(-246.993 -271.325)" fill="#4a4a4a"/>
        <path id="Path_51537" data-name="Path 51537" d="M350.177,329.05a1.475,1.475,0,0,1-.982-.246l-6.136-6.136a1.215,1.215,0,1,1,1.718-1.718l6.136,6.136a1.186,1.186,0,0,1,0,1.718C350.913,329.05,350.422,329.05,350.177,329.05Z" transform="translate(-270.406 -252.961)" fill="#4a4a4a"/>
      </g>
      <path id="Icon_awesome-user-circle" data-name="Icon awesome-user-circle" d="M10.233.563A10.233,10.233,0,1,0,20.467,10.8,10.232,10.232,0,0,0,10.233.563Zm0,3.961A3.631,3.631,0,1,1,6.6,8.155,3.631,3.631,0,0,1,10.233,4.524Zm0,14.195A7.907,7.907,0,0,1,4.188,15.9a4.6,4.6,0,0,1,4.064-2.468,1.01,1.01,0,0,1,.293.045,5.463,5.463,0,0,0,1.688.285,5.443,5.443,0,0,0,1.688-.285,1.01,1.01,0,0,1,.293-.045A4.6,4.6,0,0,1,16.279,15.9,7.907,7.907,0,0,1,10.233,18.719Z" transform="translate(16.08 11.112)" fill="#ebeff0"/>
    </g>
    <path id="Icon_awesome-suitcase" data-name="Icon awesome-suitcase" d="M5.124,20.186H15.373V4.172A1.922,1.922,0,0,0,13.452,2.25H7.046A1.922,1.922,0,0,0,5.124,4.172ZM7.687,4.812h5.124V6.093H7.687ZM20.5,8.015V18.264a1.922,1.922,0,0,1-1.922,1.922H16.655V6.093h1.922A1.922,1.922,0,0,1,20.5,8.015ZM3.843,20.186H1.922A1.922,1.922,0,0,1,0,18.264V8.015A1.922,1.922,0,0,1,1.922,6.093H3.843Z" transform="translate(824.912 323.099)" fill="#b11e1e"/>
    <path id="Icon_ionic-md-people" data-name="Icon ionic-md-people" d="M22.349,15.771a3.949,3.949,0,1,0-4.02-3.948A4,4,0,0,0,22.349,15.771Zm-10.719,0a3.949,3.949,0,1,0-4.02-3.948A4,4,0,0,0,11.63,15.771Zm0,2.9c-3.149,0-9.38,1.513-9.38,4.606v3.553H21.2V23.272C21.2,20.179,14.778,18.666,11.63,18.666Zm10.719.724a7.151,7.151,0,0,0-1.148.066c1.541,1.119,2.106,1.842,2.106,3.816v3.553h8.422V23.272C31.728,20.179,25.5,19.39,22.349,19.39Z" transform="translate(1054.728 334.384)" fill="#b11e1e"/>
    <circle id="Ellipse_629" data-name="Ellipse 629" cx="17.5" cy="17.5" r="17.5" transform="translate(818 317)" fill="rgba(177,30,30,0.15)"/>
    <circle id="Ellipse_631" data-name="Ellipse 631" cx="23.5" cy="23.5" r="23.5" transform="translate(972 236)" fill="rgba(177,30,30,0.15)"/>
    <circle id="Ellipse_630" data-name="Ellipse 630" cx="23.5" cy="23.5" r="23.5" transform="translate(1048 329)" fill="rgba(177,30,30,0.15)"/>
    <path id="Icon_awesome-building" data-name="Icon awesome-building" d="M19.776,21.772h-.907V1.089A1.089,1.089,0,0,0,17.78,0H2.54A1.089,1.089,0,0,0,1.451,1.089V21.772H.544A.544.544,0,0,0,0,22.316v.907H20.32v-.907A.544.544,0,0,0,19.776,21.772ZM5.806,3.447A.544.544,0,0,1,6.35,2.9H8.164a.544.544,0,0,1,.544.544V5.261a.544.544,0,0,1-.544.544H6.35a.544.544,0,0,1-.544-.544Zm0,4.354a.544.544,0,0,1,.544-.544H8.164a.544.544,0,0,1,.544.544V9.616a.544.544,0,0,1-.544.544H6.35a.544.544,0,0,1-.544-.544Zm2.359,6.713H6.35a.544.544,0,0,1-.544-.544V12.156a.544.544,0,0,1,.544-.544H8.164a.544.544,0,0,1,.544.544V13.97A.544.544,0,0,1,8.164,14.514Zm3.447,7.257h-2.9v-3.81a.544.544,0,0,1,.544-.544h1.814a.544.544,0,0,1,.544.544Zm2.9-7.8a.544.544,0,0,1-.544.544H12.156a.544.544,0,0,1-.544-.544V12.156a.544.544,0,0,1,.544-.544H13.97a.544.544,0,0,1,.544.544Zm0-4.354a.544.544,0,0,1-.544.544H12.156a.544.544,0,0,1-.544-.544V7.8a.544.544,0,0,1,.544-.544H13.97a.544.544,0,0,1,.544.544Zm0-4.354a.544.544,0,0,1-.544.544H12.156a.544.544,0,0,1-.544-.544V3.447a.544.544,0,0,1,.544-.544H13.97a.544.544,0,0,1,.544.544Z" transform="translate(984.956 247.696)" fill="#b11e1e"/>
  </g>
</svg>
