<svg width="16" height="18" viewBox="0 0 16 18" fill="none" xmlns="http://www.w3.org/2000/svg">
<path fill-rule="evenodd" clip-rule="evenodd" d="M9.99869 7.33325H11.0587C11.652 7.33325 11.9454 8.05325 11.5254 8.47325L8.46536 11.5333C8.20536 11.7933 7.78536 11.7933 7.52536 11.5333L4.46536 8.47325C4.04536 8.05325 4.34536 7.33325 4.93869 7.33325H5.99869V3.99992C5.99869 3.63325 6.29869 3.33325 6.66536 3.33325H9.33203C9.69869 3.33325 9.99869 3.63325 9.99869 3.99992V7.33325ZM3.9987 14.6666C3.63203 14.6666 3.33203 14.3666 3.33203 13.9999C3.33203 13.6333 3.63203 13.3333 3.9987 13.3333H11.9987C12.3654 13.3333 12.6654 13.6333 12.6654 13.9999C12.6654 14.3666 12.3654 14.6666 11.9987 14.6666H3.9987Z" fill="black" fill-opacity="0.54"/>
</svg>
