<svg xmlns="http://www.w3.org/2000/svg" width="47" height="47" viewBox="0 0 47 47">
  <g id="Group_25141" data-name="Group 25141" transform="translate(1062 454)">
    <g id="Group_25140" data-name="Group 25140">
      <rect id="Rectangle_7596" data-name="Rectangle 7596" width="47" height="47" rx="4" transform="translate(-1062 -454)" fill="#f7e8e8"/>
      <path id="Icon_material-favorite-border" data-name="Icon material-favorite-border" d="M9.99,4.5a7.611,7.611,0,0,1,5.719,2.656A7.611,7.611,0,0,1,21.429,4.5a6.922,6.922,0,0,1,6.99,6.99c0,4.8-4.321,8.719-10.867,14.667l-1.843,1.665-1.843-1.678C7.321,20.209,3,16.294,3,11.49A6.922,6.922,0,0,1,9.99,4.5Zm5.592,19.763.127.127.127-.127c6.05-5.478,10.041-9.1,10.041-12.773a4.344,4.344,0,0,0-4.448-4.448,4.969,4.969,0,0,0-4.537,3H14.515a4.937,4.937,0,0,0-4.525-3A4.344,4.344,0,0,0,5.542,11.49C5.542,15.163,9.533,18.785,15.582,24.263Z" transform="translate(-1054.045 -446.161)" fill="#b11e1e"/>
    </g>
  </g>
</svg>
