<svg width="44" height="44" viewBox="0 0 44 44" fill="none" xmlns="http://www.w3.org/2000/svg">
<path d="M20.625 31.625C20.625 28.7076 21.7839 25.9097 23.8468 23.8468C25.9097 21.7839 28.7076 20.625 31.625 20.625V1.375H1.375V39.875H24.3375C23.1657 38.8445 22.2281 37.5751 21.5877 36.1521C20.9474 34.7291 20.6191 33.1854 20.625 31.625Z" fill="#EBF5FF"/>
<path d="M31.625 42.625C37.7001 42.625 42.625 37.7001 42.625 31.625C42.625 25.5499 37.7001 20.625 31.625 20.625C25.5499 20.625 20.625 25.5499 20.625 31.625C20.625 37.7001 25.5499 42.625 31.625 42.625Z" fill="#5EDC89"/>
<path opacity="0.1" d="M23.1 38.5687L22.6875 38.0875C21.7944 36.8596 21.1668 35.459 20.8449 33.9752C20.523 32.4913 20.5137 30.9567 20.8177 29.469C21.1217 27.9814 21.7323 26.5734 22.6106 25.3348C23.4888 24.0962 24.6155 23.0541 25.9188 22.275C24.2874 22.6203 22.7559 23.332 21.44 24.3562C20.1241 25.3805 19.0583 26.6905 18.3232 28.1872C17.5881 29.684 17.2029 31.3283 17.1967 32.9958C17.1905 34.6633 17.5635 36.3104 18.2875 37.8125H4.125V1.375H1.375V39.875H24.3375L23.4437 38.9813L23.1 38.5687Z" fill="#000064"/>
<path opacity="0.25" d="M31.625 20.625C29.9749 20.624 28.3457 20.9942 26.8581 21.7082C25.3705 22.4223 24.0626 23.4619 23.0312 24.75C25.1441 23.0441 27.8133 22.1801 30.525 22.3242C33.2367 22.4682 35.7993 23.6103 37.7195 25.5305C39.6397 27.4507 40.7818 30.0133 40.9258 32.725C41.0699 35.4367 40.2059 38.1059 38.5 40.2188C40.2818 38.7951 41.577 36.8528 42.2064 34.6607C42.8358 32.4686 42.7683 30.1351 42.0132 27.983C41.2581 25.831 39.8527 23.9669 37.9916 22.6486C36.1305 21.3304 33.9057 20.6232 31.625 20.625Z" fill="white"/>
<path d="M24.3375 39.875H1.375V1.375H31.625V20.625M8.25 1.375V6.875M6.875 6.875H9.625M16.5 1.375V6.875M15.125 6.875H17.875M24.75 1.375V6.875M23.375 6.875H26.125" stroke="#2E4369" stroke-miterlimit="10" stroke-linecap="round" stroke-linejoin="round"/>
<path d="M31.625 42.625C37.7001 42.625 42.625 37.7001 42.625 31.625C42.625 25.5499 37.7001 20.625 31.625 20.625C25.5499 20.625 20.625 25.5499 20.625 31.625C20.625 37.7001 25.5499 42.625 31.625 42.625Z" stroke="#2E4369" stroke-miterlimit="10" stroke-linecap="round" stroke-linejoin="round"/>
<path d="M36.4375 28.875L30.9375 35.0625L27.5 31.625" stroke="#2E4369" stroke-miterlimit="10" stroke-linecap="round" stroke-linejoin="round"/>
</svg>
