<svg width="24" height="24" viewBox="0 0 24 24" fill="none" xmlns="http://www.w3.org/2000/svg">
<path d="M22.0001 10.947V8.01456C22.0001 7.9296 21.9312 7.86072 21.8463 7.86072H14.5186C14.4545 7.86072 14.3972 7.90038 14.3746 7.96033L14.0671 8.77666H12.7913L12.484 7.96033C12.4613 7.90038 12.404 7.86072 12.3399 7.86072H7.7981C4.68047 7.86072 2.08033 10.3392 2.0019 13.3857C1.96255 14.9303 2.53413 16.3895 3.61136 17.4945C4.68865 18.5996 6.13141 19.2082 7.67386 19.2082C10.8024 19.2082 13.3476 16.663 13.3476 13.5345C13.3476 13.3612 13.339 13.1847 13.3221 13.0081L21.8798 11.0972C21.9501 11.0815 22.0001 11.0191 22.0001 10.947ZM21.6924 10.8238L13.1456 12.7323C13.1256 12.7334 13.1056 12.7384 13.0868 12.7476C13.0277 12.7763 12.9935 12.8392 13.0014 12.9044C13.0269 13.1154 13.0399 13.3274 13.0399 13.5345C13.0399 16.4933 10.6327 18.9005 7.67386 18.9005C6.2151 18.9005 4.85054 18.3249 3.83168 17.2797C2.81283 16.2346 2.27226 14.8544 2.30945 13.3935C2.38367 10.5124 4.84588 8.16841 7.7981 8.16841H12.2335L12.5409 8.98474C12.5635 9.04469 12.6208 9.08435 12.6849 9.08435H14.1736C14.2376 9.08435 14.295 9.04469 14.3176 8.98474L14.625 8.16841H21.6924V10.8238Z" fill="#6B7280" stroke="#6B7280" stroke-width="0.5"/>
<path d="M7.673 10.2618C5.86846 10.2618 4.40039 11.7299 4.40039 13.5345C4.40039 15.339 5.86846 16.8071 7.673 16.8071C9.47754 16.8071 10.9456 15.339 10.9456 13.5345C10.9456 11.7299 9.47754 10.2618 7.673 10.2618ZM7.673 16.4994C6.03816 16.4994 4.70808 15.1693 4.70808 13.5345C4.70808 11.8996 6.03816 10.5695 7.673 10.5695C9.30784 10.5695 10.6379 11.8996 10.6379 13.5345C10.6379 15.1693 9.30784 16.4994 7.673 16.4994Z" fill="#6B7280" stroke="#6B7280" stroke-width="0.5"/>
<path d="M13.6339 6.50255V5.15385C13.6339 5.06889 13.565 5 13.48 5C13.3951 5 13.3262 5.06889 13.3262 5.15385V6.50255C13.3262 6.58751 13.3951 6.6564 13.48 6.6564C13.565 6.6564 13.6339 6.58751 13.6339 6.50255Z" fill="#6B7280" stroke="#6B7280" stroke-width="0.5"/>
<path d="M14.7178 7.0936L15.774 6.13995C15.8371 6.08301 15.8421 5.98573 15.7851 5.9227C15.7284 5.85975 15.631 5.85457 15.5679 5.91158L14.5117 6.86523C14.4486 6.92217 14.4437 7.01946 14.5006 7.08248C14.5309 7.11613 14.5728 7.13326 14.6149 7.13326C14.6516 7.13326 14.6885 7.12019 14.7178 7.0936Z" fill="#6B7280" stroke="#6B7280" stroke-width="0.5"/>
<path d="M12.3466 7.13336C12.3887 7.13336 12.4305 7.11623 12.4609 7.08265C12.5178 7.01955 12.5129 6.92227 12.4498 6.86533L11.3937 5.91168C11.3305 5.85451 11.2332 5.85977 11.1764 5.92272C11.1194 5.98582 11.1244 6.0831 11.1874 6.14004L12.2435 7.09369C12.273 7.12029 12.3099 7.13336 12.3466 7.13336Z" fill="#6B7280" stroke="#6B7280" stroke-width="0.5"/>
</svg>
