<svg id="Group_10670" data-name="Group 10670" xmlns="http://www.w3.org/2000/svg" width="48.343" height="48.375" viewBox="0 0 48.343 48.375">
  <path id="Path" d="M.616.616A2.1,2.1,0,0,0,0,2.1V25.254a2.1,2.1,0,0,0,2.1,2.1H18.917a2.1,2.1,0,0,0,2.1-2.1V2.133a2.1,2.1,0,0,0-2.1-2.1L2.1,0A2.1,2.1,0,0,0,.616.616Z" transform="translate(0 0)" fill="#fff"/>
  <path id="Path-2" data-name="Path" d="M18.917,0,2.1.029A2.1,2.1,0,0,0,0,2.131V12.641a2.1,2.1,0,0,0,2.1,2.1H18.917a2.1,2.1,0,0,0,2.1-2.1V2.1A2.1,2.1,0,0,0,18.917,0Z" transform="translate(27.324 0)" fill="#fff"/>
  <path id="Path-3" data-name="Path" d="M20.4,14.1a2.1,2.1,0,0,0,.616-1.486V2.1a2.1,2.1,0,0,0-2.1-2.1H2.1A2.1,2.1,0,0,0,0,2.1V12.58a2.1,2.1,0,0,0,2.1,2.1l16.815.029A2.1,2.1,0,0,0,20.4,14.1Z" transform="translate(0 33.66)" fill="#fff"/>
  <path id="Path-4" data-name="Path" d="M18.917,0H2.1A2.1,2.1,0,0,0,0,2.1V25.223a2.1,2.1,0,0,0,2.1,2.1L18.917,27.3a2.1,2.1,0,0,0,2.1-2.1V2.1A2.1,2.1,0,0,0,18.917,0Z" transform="translate(27.324 21.05)" fill="#fff"/>
</svg>
