<svg width="38" height="38" viewBox="0 0 38 38" fill="none" xmlns="http://www.w3.org/2000/svg">
<path d="M21.375 5.9375V9.5H16.625V5.9375H1.1875V35.625H36.8125V5.9375H21.375Z" fill="white"/>
<path d="M17.8125 27.8469C15.4375 27.3125 15.4375 26.4812 15.4375 25.8875V24.9969C15.9926 24.4705 16.4323 23.8345 16.7288 23.1293C17.0252 22.424 17.1718 21.6649 17.1594 20.9V18.2281C17.1516 17.6979 17.0395 17.1744 16.8294 16.6875C16.6193 16.2006 16.3154 15.7598 15.9349 15.3904C15.5545 15.021 15.105 14.7302 14.6121 14.5345C14.1193 14.3388 13.5927 14.2421 13.0625 14.25C12.5273 14.2342 11.9944 14.325 11.4946 14.5171C10.9949 14.7092 10.5383 14.9988 10.1516 15.369C9.76478 15.7392 9.4555 16.1826 9.2417 16.6735C9.0279 17.1643 8.91387 17.6928 8.90623 18.2281V20.9C8.90137 21.6693 9.0573 22.4311 9.36405 23.1366C9.67079 23.8421 10.1216 24.4757 10.6875 24.9969V25.8875C10.6875 26.4219 10.6875 27.3125 8.19373 27.8469C5.69998 28.3812 5.93748 30.875 5.93748 30.875H20.1875C20.204 30.1732 19.9761 29.4875 19.5429 28.9351C19.1097 28.3828 18.498 27.9981 17.8125 27.8469Z" fill="#A5D0EC"/>
<path d="M16.625 2.375H21.375V9.5H16.625V2.375Z" fill="url(#paint0_linear)"/>
<path opacity="0.15" d="M19.5938 9.5V11.875H14.25V5.9375H16.625V9.5H19.5938ZM4.75 5.9375V33.8438H36.8125V35.625H1.1875V5.9375H4.75Z" fill="#000064"/>
<path d="M17.8125 27.8469C15.4375 27.3125 15.4375 26.4812 15.4375 25.8875V24.9969C15.9926 24.4705 16.4323 23.8345 16.7288 23.1293C17.0252 22.424 17.1718 21.6649 17.1594 20.9V18.2281C17.1516 17.6979 17.0395 17.1744 16.8294 16.6875C16.6193 16.2006 16.3154 15.7598 15.9349 15.3904C15.5545 15.021 15.105 14.7302 14.6121 14.5345C14.1193 14.3388 13.5927 14.2421 13.0625 14.25C12.5273 14.2342 11.9944 14.325 11.4946 14.5171C10.9949 14.7092 10.5383 14.9988 10.1516 15.369C9.76478 15.7392 9.4555 16.1826 9.2417 16.6735C9.0279 17.1643 8.91387 17.6928 8.90623 18.2281V20.9C8.90137 21.6693 9.0573 22.4311 9.36405 23.1366C9.67079 23.8421 10.1216 24.4757 10.6875 24.9969V25.8875C10.6875 26.4219 10.6875 27.3125 8.19373 27.8469C5.69998 28.3812 5.93748 30.875 5.93748 30.875H20.1875C20.204 30.1732 19.9761 29.4875 19.5429 28.9351C19.1097 28.3828 18.498 27.9981 17.8125 27.8469V27.8469Z" stroke="#2E4369" stroke-linecap="round" stroke-linejoin="round"/>
<path d="M21.375 5.9375H36.8125V35.625H1.1875V5.9375H16.625" stroke="#2E4369" stroke-linecap="round" stroke-linejoin="round"/>
<path d="M22.5625 23.75H30.875M16.625 2.375H21.375V9.5H16.625V2.375ZM22.5625 14.25H32.0625H22.5625ZM22.5625 19H28.5H22.5625Z" stroke="#2E4369" stroke-linecap="round" stroke-linejoin="round"/>
<defs>
<linearGradient id="paint0_linear" x1="19" y1="2.375" x2="19" y2="9.5" gradientUnits="userSpaceOnUse">
<stop stop-color="#D70900"/>
<stop offset="1" stop-color="#BF0B1C"/>
</linearGradient>
</defs>
</svg>
