<svg width="18" height="18" viewBox="0 0 18 18" fill="none" xmlns="http://www.w3.org/2000/svg">
<path fill-rule="evenodd" clip-rule="evenodd" d="M8.99935 0.666626C4.39935 0.666626 0.666016 4.39996 0.666016 8.99996C0.666016 13.6 4.39935 17.3333 8.99935 17.3333C13.5993 17.3333 17.3327 13.6 17.3327 8.99996C17.3327 4.39996 13.5993 0.666626 8.99935 0.666626ZM8.99935 13.1666C8.54102 13.1666 8.16602 12.7916 8.16602 12.3333V8.99996C8.16602 8.54163 8.54102 8.16663 8.99935 8.16663C9.45768 8.16663 9.83268 8.54163 9.83268 8.99996V12.3333C9.83268 12.7916 9.45768 13.1666 8.99935 13.1666ZM8.16602 6.49996H9.83268V4.83329H8.16602V6.49996Z" fill="black" fill-opacity="0.54"/>
</svg>
