<svg width="40" height="40" viewBox="0 0 40 40" fill="none" xmlns="http://www.w3.org/2000/svg">
<path d="M27.5 23.75C27.4992 25.072 27.1989 26.3767 26.6216 27.566C26.0442 28.7553 25.2049 29.7983 24.1667 30.6167V29.5833C24.1674 28.1463 23.598 26.7676 22.5833 25.75C21.9848 25.1566 21.2577 24.7089 20.4583 24.4417C20.8326 24.1729 21.1375 23.8187 21.3476 23.4086C21.5578 22.9985 21.6671 22.5442 21.6667 22.0833V21.25C21.6623 20.4778 21.3536 19.7385 20.8076 19.1924C20.2615 18.6464 19.5222 18.3377 18.75 18.3333C17.9765 18.3333 17.2346 18.6406 16.6876 19.1876C16.1406 19.7346 15.8333 20.4765 15.8333 21.25V22.0833C15.8329 22.5442 15.9423 22.9985 16.1524 23.4086C16.3625 23.8187 16.6674 24.1729 17.0417 24.4417C15.9618 24.8006 15.0224 25.4904 14.3568 26.4133C13.6911 27.3363 13.333 28.4454 13.3333 29.5833V30.6167C12.1267 29.661 11.1937 28.4037 10.6288 26.9719C10.0639 25.54 9.88712 23.9844 10.1163 22.4623C10.3454 20.9402 10.9724 19.5056 11.9339 18.3036C12.8953 17.1015 14.1571 16.1746 15.5917 15.6167C16.5964 15.2146 17.6678 15.0054 18.75 15C21.0707 15 23.2963 15.9219 24.9372 17.5628C26.5781 19.2038 27.5 21.4294 27.5 23.75Z" fill="url(#paint0_linear)"/>
<path d="M13.3333 30.6417V29.5833C13.333 28.4454 13.6911 27.3363 14.3567 26.4133C15.0224 25.4904 15.9618 24.8006 17.0416 24.4417C17.5373 24.8046 18.1357 25.0002 18.75 25.0002C19.3643 25.0002 19.9627 24.8046 20.4583 24.4417C21.2577 24.7089 21.9848 25.1566 22.5833 25.75C23.598 26.7676 24.1674 28.1463 24.1666 29.5833V30.6167" stroke="white" stroke-width="2" stroke-linecap="round" stroke-linejoin="round"/>
<path d="M9.16667 13.3333C11.4679 13.3333 13.3333 11.4679 13.3333 9.16667C13.3333 6.86548 11.4679 5 9.16667 5C6.86548 5 5 6.86548 5 9.16667C5 11.4679 6.86548 13.3333 9.16667 13.3333Z" stroke="white" stroke-width="2" stroke-linecap="round" stroke-linejoin="round"/>
<path d="M31.6666 11.6667C33.5076 11.6667 35 10.1743 35 8.33333C35 6.49238 33.5076 5 31.6666 5C29.8257 5 28.3333 6.49238 28.3333 8.33333C28.3333 10.1743 29.8257 11.6667 31.6666 11.6667Z" stroke="white" stroke-width="2" stroke-linecap="round" stroke-linejoin="round"/>
<path d="M6.66667 35C7.58714 35 8.33333 34.2538 8.33333 33.3333C8.33333 32.4129 7.58714 31.6667 6.66667 31.6667C5.74619 31.6667 5 32.4129 5 33.3333C5 34.2538 5.74619 35 6.66667 35Z" stroke="white" stroke-width="2" stroke-linecap="round" stroke-linejoin="round"/>
<path d="M32.5 35C33.8807 35 35 33.8807 35 32.5C35 31.1193 33.8807 30 32.5 30C31.1193 30 30 31.1193 30 32.5C30 33.8807 31.1193 35 32.5 35Z" stroke="white" stroke-width="2" stroke-linecap="round" stroke-linejoin="round"/>
<path d="M15.5917 15.5917L12.5 12.5" stroke="white" stroke-width="2" stroke-linecap="round" stroke-linejoin="round"/>
<path d="M29.1667 10.8333L24.1667 15.8333" stroke="white" stroke-width="2" stroke-linecap="round" stroke-linejoin="round"/>
<path d="M11.4416 28.5583L8.33331 31.6667" stroke="white" stroke-width="2" stroke-linecap="round" stroke-linejoin="round"/>
<path d="M30.7333 30.7333L26.9083 26.9083" stroke="white" stroke-width="2" stroke-linecap="round" stroke-linejoin="round"/>
<path d="M21.6666 21.25V22.0833C21.6666 22.8569 21.3594 23.5987 20.8124 24.1457C20.2654 24.6927 19.5235 25 18.75 25C17.9764 25 17.2346 24.6927 16.6876 24.1457C16.1406 23.5987 15.8333 22.8569 15.8333 22.0833V21.25C15.8333 20.4764 16.1406 19.7346 16.6876 19.1876C17.2346 18.6406 17.9764 18.3333 18.75 18.3333C19.5222 18.3377 20.2615 18.6464 20.8075 19.1924C21.3536 19.7385 21.6623 20.4778 21.6666 21.25V21.25Z" stroke="white" stroke-width="2" stroke-linecap="round" stroke-linejoin="round"/>
<path d="M13.3333 30.6417V29.5833C13.333 28.4454 13.6911 27.3363 14.3567 26.4133C15.0224 25.4904 15.9618 24.8006 17.0416 24.4417C17.5373 24.8046 18.1357 25.0002 18.75 25.0002C19.3643 25.0002 19.9627 24.8046 20.4583 24.4417C21.2577 24.7089 21.9848 25.1566 22.5833 25.75C23.598 26.7676 24.1674 28.1463 24.1666 29.5833V30.6167" stroke="white" stroke-width="2" stroke-linecap="round" stroke-linejoin="round"/>
<defs>
<linearGradient id="paint0_linear" x1="18.7594" y1="15" x2="18.7594" y2="30.6167" gradientUnits="userSpaceOnUse">
<stop stop-color="#D70900"/>
<stop offset="1" stop-color="#BF0B1C"/>
</linearGradient>
</defs>
</svg>
