<svg width="18" height="18" viewBox="0 0 18 18" fill="none" xmlns="http://www.w3.org/2000/svg">
<path fill-rule="evenodd" clip-rule="evenodd" d="M3 2C2.45 2 2 2.45 2 3V5C2 5.55 1.55 6 1 6C0.45 6 0 5.55 0 5V2C0 0.9 0.9 0 2 0H5C5.55 0 6 0.45 6 1C6 1.55 5.55 2 5 2H3ZM9 5C6.79 5 5 6.79 5 9C5 11.21 6.79 13 9 13C11.21 13 13 11.21 13 9C13 6.79 11.21 5 9 5ZM1 12C0.45 12 0 12.45 0 13V16C0 17.1 0.9 18 2 18H5C5.55 18 6 17.55 6 17C6 16.45 5.55 16 5 16H3C2.45 16 2 15.55 2 15V13C2 12.45 1.55 12 1 12ZM16 0H13C12.45 0 12 0.45 12 1C12 1.55 12.45 2 13 2H15C15.55 2 16 2.45 16 3V5C16 5.55 16.45 6 17 6C17.55 6 18 5.55 18 5V2C18 0.9 17.1 0 16 0ZM15 16C15.55 16 16 15.55 16 15V13C16 12.45 16.45 12 17 12C17.55 12 18 12.45 18 13V16C18 17.1 17.1 18 16 18H13C12.45 18 12 17.55 12 17C12 16.45 12.45 16 13 16H15Z" fill="#6A737D"/>
</svg>
