<svg width="56" height="56" viewBox="0 0 56 56" fill="none" xmlns="http://www.w3.org/2000/svg">
<path d="M1.75 14H54.25V52.5H1.75V14Z" fill="white"/>
<path d="M1.75 3.5H54.25V14H1.75V3.5Z" fill="#A6B1C9"/>
<path d="M7 9.625C7.48325 9.625 7.875 9.23325 7.875 8.75C7.875 8.26675 7.48325 7.875 7 7.875C6.51675 7.875 6.125 8.26675 6.125 8.75C6.125 9.23325 6.51675 9.625 7 9.625Z" fill="#F27E7C"/>
<path d="M13.125 9.625C13.6082 9.625 14 9.23325 14 8.75C14 8.26675 13.6082 7.875 13.125 7.875C12.6418 7.875 12.25 8.26675 12.25 8.75C12.25 9.23325 12.6418 9.625 13.125 9.625Z" fill="#F27E7C"/>
<path d="M19.25 9.625C19.7332 9.625 20.125 9.23325 20.125 8.75C20.125 8.26675 19.7332 7.875 19.25 7.875C18.7668 7.875 18.375 8.26675 18.375 8.75C18.375 9.23325 18.7668 9.625 19.25 9.625Z" fill="#F27E7C"/>
<path opacity="0.15" d="M1.75 14H5.25V52.5H1.75V14ZM1.75 3.5H5.25V14H1.75V3.5Z" fill="#000064"/>
<path d="M19.25 21H36.75C36.75 21 31.5 33.25 28 33.25C24.5 33.25 19.25 21 19.25 21ZM28 33.25C26.425 33.25 24.5 35.7875 22.8375 38.5H33.1625C31.5 35.7875 29.575 33.25 28 33.25Z" fill="#C3D6F9"/>
<path d="M36.75 45.5C35.6935 43.0978 34.4956 40.7604 33.1625 38.5H22.8375C21.5044 40.7604 20.3065 43.0978 19.25 45.5H36.75Z" fill="#FFCC66"/>
<path d="M1.75 14V52.5H54.25V14M1.75 3.5H54.25V14H1.75V3.5Z" stroke="#2E4369" stroke-linecap="round" stroke-linejoin="round"/>
<path d="M22.8375 38.5H33.1625M19.25 21H36.75C36.75 21 31.5 33.25 28 33.25C24.5 33.25 19.25 21 19.25 21ZM19.25 45.5H36.75C36.75 45.5 31.5 33.25 28 33.25C24.5 33.25 19.25 45.5 19.25 45.5Z" stroke="#2E4369" stroke-linecap="round" stroke-linejoin="round"/>
<path d="M7 9.625C7.48325 9.625 7.875 9.23325 7.875 8.75C7.875 8.26675 7.48325 7.875 7 7.875C6.51675 7.875 6.125 8.26675 6.125 8.75C6.125 9.23325 6.51675 9.625 7 9.625Z" stroke="#2E4369" stroke-linecap="round" stroke-linejoin="round"/>
<path d="M13.125 9.625C13.6082 9.625 14 9.23325 14 8.75C14 8.26675 13.6082 7.875 13.125 7.875C12.6418 7.875 12.25 8.26675 12.25 8.75C12.25 9.23325 12.6418 9.625 13.125 9.625Z" stroke="#2E4369" stroke-linecap="round" stroke-linejoin="round"/>
<path d="M19.25 9.625C19.7332 9.625 20.125 9.23325 20.125 8.75C20.125 8.26675 19.7332 7.875 19.25 7.875C18.7668 7.875 18.375 8.26675 18.375 8.75C18.375 9.23325 18.7668 9.625 19.25 9.625Z" stroke="#2E4369" stroke-linecap="round" stroke-linejoin="round"/>
</svg>
