<svg width="24" height="24" viewBox="0 0 24 24" fill="none" xmlns="http://www.w3.org/2000/svg">
<path d="M12.75 12C13.6916 12.443 14.7107 12.6978 15.75 12.75V15.75L19.425 12.075C21.675 11.0625 23.25 9.075 23.25 6.75C23.25 3.45 20.0625 0.75 16.125 0.75C12.1875 0.75 9 3.45 9 6.75C9 6.75 9.0375 7.2375 9.075 7.5" stroke="#757575" stroke-linecap="round" stroke-linejoin="round"/>
<path d="M16.125 7.125C16.3321 7.125 16.5 6.95711 16.5 6.75C16.5 6.54289 16.3321 6.375 16.125 6.375C15.9179 6.375 15.75 6.54289 15.75 6.75C15.75 6.95711 15.9179 7.125 16.125 7.125Z" stroke="#757575" stroke-linecap="round" stroke-linejoin="round"/>
<path d="M13.125 7.125C13.3321 7.125 13.5 6.95711 13.5 6.75C13.5 6.54289 13.3321 6.375 13.125 6.375C12.9179 6.375 12.75 6.54289 12.75 6.75C12.75 6.95711 12.9179 7.125 13.125 7.125Z" stroke="#757575" stroke-linecap="round" stroke-linejoin="round"/>
<path d="M19.125 7.125C19.3321 7.125 19.5 6.95711 19.5 6.75C19.5 6.54289 19.3321 6.375 19.125 6.375C18.9179 6.375 18.75 6.54289 18.75 6.75C18.75 6.95711 18.9179 7.125 19.125 7.125Z" stroke="#757575" stroke-linecap="round" stroke-linejoin="round"/>
<path d="M14.025 20.3625C10.95 19.8375 11.25 19.05 11.25 18.525V17.5875C11.7415 17.0892 12.1276 16.4971 12.3853 15.8464C12.643 15.1956 12.7671 14.4997 12.75 13.8V11.2875C12.75 8.55 10.7625 7.5 9 7.5C7.2375 7.5 5.25 8.55 5.25 11.2875V13.8C5.23567 14.5026 5.36461 15.2008 5.62894 15.852C5.89328 16.5032 6.28748 17.0937 6.7875 17.5875V18.525C6.7875 19.05 7.05 19.8375 4.0125 20.3625C0.975 20.8875 0.75 22.5 0.75 23.25H17.25C17.25 22.5 16.7625 20.85 14.025 20.3625Z" stroke="#757575" stroke-linecap="round" stroke-linejoin="round"/>
</svg>
