<svg width="24" height="24" viewBox="0 0 24 24" fill="none" xmlns="http://www.w3.org/2000/svg">
<path d="M21.8258 1.2V19.575H2.17578V5.175L7.35078 0H20.6633C21.3008 0 21.8258 0.5625 21.8258 1.2Z" fill="#EFF2F3"/>
<path d="M6.26289 5.175H2.21289L7.35039 0L7.31289 4.05C7.35039 4.6875 6.86289 5.175 6.26289 5.175Z" fill="#DADEDE"/>
<path d="M13.9117 10.5C12.8242 9.45 12.0367 8.25 12.0367 8.25C12.3367 7.8 13.0492 5.2125 11.9617 4.4625C10.8742 3.7125 10.3117 5.1 10.3117 5.1C9.82422 6.825 10.9867 8.4 10.9867 8.4L9.67422 11.2875C9.52422 11.2875 5.36172 12.9 6.78672 14.8875C8.24922 16.875 10.2742 12.075 10.2742 12.075C11.0617 11.8125 13.4617 11.475 13.4617 11.475C14.3992 12.75 15.5242 13.1625 15.5242 13.1625C17.2492 13.6125 17.4367 12.1875 17.4367 12.1875C17.4742 10.3125 13.9117 10.5 13.9117 10.5ZM7.49922 14.2125C7.46172 14.2125 7.46172 14.175 7.46172 14.175C7.23672 13.65 8.96172 12.6375 8.96172 12.6375C8.96172 12.6375 8.02422 14.4375 7.49922 14.2125ZM11.3992 5.1375C11.8867 5.5875 11.4742 7.125 11.4742 7.125C11.4742 7.125 10.9117 5.5875 11.3992 5.1375ZM10.9492 10.95L11.6242 9.3L12.6742 10.575L10.9492 10.95ZM16.4992 12.15C16.1992 12.6375 14.9617 11.5875 14.8492 11.475C15.0367 11.475 16.6492 11.5875 16.4992 12.15ZM21.8242 18.375V22.8C21.8242 23.4375 21.2992 24 20.6242 24H3.33672C2.69922 24 2.13672 23.475 2.13672 22.8V18.375H21.8242Z" fill="#F2786B"/>
<path d="M10.4617 20.325C10.4617 20.625 10.3492 20.85 10.1617 21.0375C9.97422 21.1875 9.67422 21.2625 9.29922 21.2625H8.99922V22.35H8.51172V19.4625H9.37422C9.74922 19.4625 10.0117 19.5375 10.1992 19.6875C10.3867 19.8375 10.4617 20.025 10.4617 20.325ZM9.03672 20.8875H9.29922C9.52422 20.8875 9.71172 20.85 9.82422 20.775C9.93672 20.7 10.0117 20.55 10.0117 20.3625C10.0117 20.2125 9.97422 20.0625 9.86172 19.9875C9.74922 19.9125 9.59922 19.875 9.37422 19.875H9.03672V20.8875ZM13.4242 20.8875C13.4242 21.375 13.2742 21.75 13.0117 21.975C12.7492 22.2375 12.3742 22.35 11.8492 22.35H11.0242V19.4625H11.9242C12.3742 19.4625 12.7492 19.575 13.0117 19.8375C13.2742 20.0625 13.4242 20.4375 13.4242 20.8875ZM12.8992 20.8875C12.8992 20.175 12.5617 19.8375 11.9242 19.8375H11.5117V21.9375H11.8492C12.5617 21.975 12.8992 21.6 12.8992 20.8875ZM14.5117 22.35H14.0242V19.4625H15.6742V19.875H14.5117V20.775H15.5992V21.1875H14.5117V22.35Z" fill="#EFF2F3"/>
</svg>
