<svg width="17" height="16" viewBox="0 0 17 16" fill="none" xmlns="http://www.w3.org/2000/svg">
<path d="M8.5 0C6.91775 0 5.37103 0.469192 4.05544 1.34824C2.73985 2.22729 1.71447 3.47672 1.10897 4.93853C0.503466 6.40034 0.34504 8.00887 0.653721 9.56072C0.962403 11.1126 1.72433 12.538 2.84315 13.6569C3.96197 14.7757 5.38743 15.5376 6.93928 15.8463C8.49113 16.155 10.0997 15.9965 11.5615 15.391C13.0233 14.7855 14.2727 13.7602 15.1518 12.4446C16.0308 11.129 16.5 9.58225 16.5 8C16.5 5.87827 15.6571 3.84344 14.1569 2.34315C12.6566 0.842855 10.6217 0 8.5 0V0ZM11.9158 10.3132C11.8658 10.3992 11.7838 10.4619 11.6877 10.4874C11.5916 10.5129 11.4893 10.4992 11.4033 10.4492L8 8.475V2.375C8 2.27554 8.03951 2.18016 8.10984 2.10983C8.18016 2.03951 8.27555 2 8.375 2C8.47446 2 8.56984 2.03951 8.64017 2.10983C8.71049 2.18016 8.75 2.27554 8.75 2.375V8.04225L11.7798 9.8C11.8224 9.82473 11.8598 9.85763 11.8897 9.89682C11.9197 9.93602 11.9416 9.98073 11.9542 10.0284C11.9669 10.0761 11.97 10.1258 11.9634 10.1747C11.9568 10.2235 11.9406 10.2706 11.9158 10.3132Z" fill="#F5A700"/>
</svg>
