<svg width="33" height="33" viewBox="0 0 33 33" fill="none" xmlns="http://www.w3.org/2000/svg">
<ellipse cx="16.252" cy="16.499" rx="16" ry="15.6074" fill="#FBE9E9"/>
<path d="M19.7861 14.8861L20.3469 15.1323V14.5198V8.10131C20.3469 7.35841 19.7271 6.8041 19.0271 6.8041H9.31041C8.57334 6.8041 7.99062 7.3946 7.99062 8.10131V22.8478C7.99062 23.5907 8.61044 24.145 9.31041 24.145H19.0271C19.7642 24.145 20.3469 23.5545 20.3469 22.8478V21.2834V20.671L19.7861 20.9172C19.3636 21.1027 18.8993 21.2055 18.4139 21.2055C16.5264 21.2055 15.0169 19.7189 15.0169 17.9016C15.0169 16.0844 16.5264 14.5978 18.4139 14.5978C18.8993 14.5978 19.3636 14.7006 19.7861 14.8861Z" fill="#C8D0E8" stroke="#2E4369" stroke-width="0.8"/>
<path d="M20.4186 22.5044C20.4186 22.9911 20.0139 23.4083 19.49 23.4083H9.68052C9.18052 23.4083 8.75195 23.0142 8.75195 22.5044V7.64804C8.75195 7.16132 9.15671 6.74414 9.68052 6.74414H19.49C19.99 6.74414 20.4186 7.13815 20.4186 7.64804V14.1144C19.9424 13.9058 19.4186 13.7899 18.871 13.7899C16.752 13.7899 15.0377 15.4586 15.0377 17.5213C15.0377 19.5841 16.752 21.2528 18.871 21.2528C19.4186 21.2528 19.9424 21.1369 20.4186 20.9283V22.5044Z" fill="#EBF5FF"/>
<path d="M19.7459 14.9777L20.4469 15.2854V14.5198V8.10131C20.4469 7.29922 19.7783 6.7041 19.0271 6.7041H9.31041C8.51879 6.7041 7.89062 7.33869 7.89062 8.10131V22.8478C7.89062 23.6499 8.55926 24.245 9.31041 24.245H19.0271C19.8187 24.245 20.4469 23.6104 20.4469 22.8478V21.2834V20.5179L19.7459 20.8256C19.3357 21.0057 18.8851 21.1055 18.4139 21.1055C16.5793 21.1055 15.1169 19.6613 15.1169 17.9016C15.1169 16.1419 16.5793 14.6978 18.4139 14.6978C18.8851 14.6978 19.3357 14.7976 19.7459 14.9777Z" stroke="#2E4369"/>
<path d="M10.7483 9.98779L11.1492 10.793L12.0454 10.908L11.3851 11.5292L11.5502 12.4034L10.7483 11.9893L9.94644 12.4034L10.0879 11.5292L9.45117 10.908L10.3474 10.793L10.7483 9.98779Z" fill="#F27E7C" stroke="#2E4369" stroke-width="0.3"/>
<path d="M14.1682 9.98779L14.5692 10.793L15.4654 10.908L14.805 11.5292L14.9701 12.4034L14.1682 11.9893L13.3664 12.4034L13.5079 11.5292L12.8711 10.908L13.7673 10.793L14.1682 9.98779Z" fill="#F27E7C" stroke="#2E4369" stroke-width="0.3"/>
<path d="M17.5881 9.98779L17.9891 10.793L18.8853 10.908L18.2249 11.5292L18.39 12.4034L17.5881 11.9893L16.7863 12.4034L16.9278 11.5292L16.291 10.908L17.1872 10.793L17.5881 9.98779Z" fill="#F27E7C" stroke="#2E4369" stroke-width="0.3"/>
<path d="M14.4989 15.923H10.2065C10.065 15.923 9.9707 15.831 9.9707 15.6929C9.9707 15.5549 10.065 15.4629 10.2065 15.4629H14.5225C14.664 15.4629 14.7583 15.5549 14.7583 15.6929C14.7583 15.831 14.6404 15.923 14.4989 15.923Z" fill="#2E4369"/>
<path d="M13.3904 17.4416H10.2065C10.065 17.4416 9.9707 17.3495 9.9707 17.2115C9.9707 17.0735 10.065 16.9814 10.2065 16.9814H13.414C13.5555 16.9814 13.6498 17.0735 13.6498 17.2115C13.6498 17.3495 13.5319 17.4416 13.3904 17.4416Z" fill="#2E4369"/>
<path d="M13.8857 19.0983H10.2065C10.065 19.0983 9.9707 19.0063 9.9707 18.8682C9.9707 18.7302 10.065 18.6382 10.2065 18.6382H13.9093C14.0508 18.6382 14.1451 18.7302 14.1451 18.8682C14.1451 19.0063 14.0272 19.0983 13.8857 19.0983Z" fill="#2E4369"/>
<path d="M18.2816 21.1871C20.1775 21.4246 21.9118 20.1179 22.1552 18.2686C22.3987 16.4192 21.0591 14.7275 19.1632 14.49C17.2674 14.2526 15.5331 15.5593 15.2897 17.4086C15.0462 19.2579 16.3858 20.9496 18.2816 21.1871Z" fill="white"/>
<path opacity="0.1" d="M19.1642 14.49C18.6313 14.4232 18.0897 14.4784 17.5825 14.6512C17.0752 14.824 16.6161 15.1096 16.2416 15.4854C16.9664 15.0846 17.815 14.9522 18.6317 15.1126C19.4484 15.273 20.1784 15.7154 20.6877 16.3585C21.197 17.0017 21.4513 17.8024 21.4041 18.6138C21.3568 19.4251 21.0111 20.1926 20.4304 20.7753C21.0623 20.4259 21.5655 19.8913 21.8686 19.2474C22.1717 18.6035 22.2595 17.8828 22.1194 17.1875C21.9793 16.4923 21.6186 15.8576 21.0882 15.3735C20.5578 14.8893 19.8847 14.5802 19.1642 14.49Z" fill="#000064"/>
<path d="M18.2816 21.1871C20.1775 21.4246 21.9118 20.1179 22.1552 18.2686C22.3987 16.4192 21.0591 14.7275 19.1632 14.49C17.2674 14.2526 15.5331 15.5593 15.2897 17.4086C15.0462 19.2579 16.3858 20.9496 18.2816 21.1871Z" stroke="#2E4369" stroke-miterlimit="10" stroke-linecap="round" stroke-linejoin="round"/>
<path d="M20.8516 20.4878L23.51 23.8842" stroke="#2E4369" stroke-miterlimit="10" stroke-linecap="round" stroke-linejoin="round"/>
</svg>
