<svg width="20" height="26" viewBox="0 0 20 26" fill="none" xmlns="http://www.w3.org/2000/svg">
<path d="M15.2734 5.67188C15.2734 2.7641 12.9078 0.398438 10 0.398438C7.09223 0.398438 4.72656 2.7641 4.72656 5.67188C4.72656 8.57965 7.09223 10.9453 10 10.9453C12.9078 10.9453 15.2734 8.57965 15.2734 5.67188ZM10 10.9453C4.76601 10.9453 0.507812 15.2035 0.507812 20.4375V21.426C0.507812 21.7258 0.635359 22.0114 0.858672 22.2114C3.42775 24.5134 6.67422 25.7812 10 25.7812C13.3259 25.7812 16.5723 24.5134 19.1413 22.2114C19.3646 22.0114 19.4922 21.7257 19.4922 21.426V20.4375C19.4922 15.2035 15.234 10.9453 10 10.9453Z" fill="white"/>
</svg>
