<svg width="24" height="24" viewBox="0 0 24 24" fill="none" xmlns="http://www.w3.org/2000/svg">
<path d="M20.25 14.2125V6.75H3.75V17.625C3.75 17.9234 3.63147 18.2095 3.4205 18.4205C3.20952 18.6315 2.92337 18.75 2.625 18.75" stroke="#6B7280" stroke-miterlimit="10" stroke-linecap="round" stroke-linejoin="round"/>
<path d="M18 6.75V3.75H7.5V2.25H0.75V17.625C0.75 17.9234 0.868526 18.2095 1.0795 18.4205C1.29048 18.6315 1.57663 18.75 1.875 18.75H12.75" stroke="#6B7280" stroke-miterlimit="10" stroke-linecap="round" stroke-linejoin="round"/>
<path d="M17.1125 15.1381L15.3125 13.3381L17.1125 11.5381" stroke="#6B7280" stroke-miterlimit="10" stroke-linecap="round" stroke-linejoin="round"/>
<path d="M21.087 19.6004C21.5503 18.7538 21.7241 17.7789 21.5819 16.8243C21.4398 15.8697 20.9894 14.9878 20.2995 14.3129C19.6947 13.7168 18.9347 13.3023 18.1061 13.1167C17.2774 12.9311 16.4133 12.9817 15.612 13.2629M13.137 15.3629C12.6737 16.2095 12.4999 17.1844 12.642 18.139C12.7842 19.0936 13.2346 19.9755 13.9245 20.6504" stroke="#6B7280" stroke-miterlimit="10" stroke-linecap="round" stroke-linejoin="round"/>
<path d="M14.0508 20.7627C14.7486 21.4293 15.6453 21.8495 16.6042 21.9593C17.563 22.069 18.5315 21.8622 19.3619 21.3705C20.0891 20.9351 20.6631 20.3919 21.0504 19.638" stroke="#6B7280" stroke-miterlimit="10" stroke-linecap="round" stroke-linejoin="round"/>
</svg>
