<svg width="24" height="24" viewBox="0 0 24 24" fill="none" xmlns="http://www.w3.org/2000/svg">
<path d="M17.4 14.1377L20.25 21.1502L16.95 20.7377L14.925 23.2877L12.4875 16.3127M6.6 14.1377L3.75 21.1502L7.05 20.7377L9.1125 23.2877L11.5125 16.3127L6.6 14.1377Z" stroke="#6B7280" stroke-miterlimit="10" stroke-linecap="round" stroke-linejoin="round"/>
<path d="M12 13.0879C14.4853 13.0879 16.5 11.0732 16.5 8.58789C16.5 6.10261 14.4853 4.08789 12 4.08789C9.51472 4.08789 7.5 6.10261 7.5 8.58789C7.5 11.0732 9.51472 13.0879 12 13.0879Z" stroke="#6B7280" stroke-miterlimit="10" stroke-linecap="round" stroke-linejoin="round"/>
<path d="M12 1.68789L13.6875 0.712891L14.85 2.28789L16.7625 2.10039L17.175 3.97539L19.0125 4.61289L18.6375 6.48789L20.0625 7.80039L18.9375 9.37539L19.725 11.1754L18.0375 12.1504V14.0629L16.0875 14.2879L15.3 16.0504L13.4625 15.4879L12 16.7629L10.5375 15.4879L8.7 16.0504L7.9125 14.2879L5.9625 14.0629V12.1504L4.275 11.1754L5.0625 9.37539L3.9375 7.80039L5.3625 6.48789L4.9875 4.61289L6.825 3.97539L7.2375 2.10039L9.15 2.28789L10.3125 0.712891L12 1.68789Z" stroke="#6B7280" stroke-miterlimit="10" stroke-linecap="round" stroke-linejoin="round"/>
</svg>
