<svg width="16" height="16" viewBox="0 0 16 16" fill="none" xmlns="http://www.w3.org/2000/svg">
<path fill-rule="evenodd" clip-rule="evenodd" d="M13.0018 8.00065C13.0018 8.22732 12.9818 8.44065 12.9552 8.65398L14.3618 9.75398C14.4885 9.85398 14.5218 10.034 14.4418 10.1807L13.1085 12.4873C13.0485 12.594 12.9352 12.654 12.8218 12.654C12.7818 12.654 12.7418 12.6473 12.7018 12.634L11.0418 11.9673C10.6952 12.2273 10.3218 12.454 9.91518 12.6207L9.66185 14.3873C9.64185 14.5473 9.50185 14.6673 9.33518 14.6673H6.66851C6.50185 14.6673 6.36185 14.5473 6.34185 14.3873L6.08851 12.6207C5.68185 12.454 5.30851 12.234 4.96185 11.9673L3.30185 12.634C3.26851 12.6473 3.22851 12.654 3.18851 12.654C3.06851 12.654 2.95518 12.594 2.89518 12.4873L1.56185 10.1807C1.48185 10.034 1.51518 9.85398 1.64185 9.75398L3.04851 8.65398C3.02185 8.44065 3.00185 8.22065 3.00185 8.00065C3.00185 7.78065 3.02185 7.56065 3.04851 7.34732L1.64185 6.24732C1.51518 6.14732 1.47518 5.96732 1.56185 5.82065L2.89518 3.51398C2.95518 3.40732 3.06851 3.34732 3.18185 3.34732C3.22185 3.34732 3.26185 3.35398 3.30185 3.36732L4.96185 4.03398C5.30851 3.77398 5.68185 3.54732 6.08851 3.38065L6.34185 1.61398C6.36185 1.45398 6.50185 1.33398 6.66851 1.33398H9.33518C9.50185 1.33398 9.64185 1.45398 9.66185 1.61398L9.91518 3.38065C10.3218 3.54732 10.6952 3.76732 11.0418 4.03398L12.7018 3.36732C12.7352 3.35398 12.7752 3.34732 12.8152 3.34732C12.9352 3.34732 13.0485 3.40732 13.1085 3.51398L14.4418 5.82065C14.5218 5.96732 14.4885 6.14732 14.3618 6.24732L12.9552 7.34732C12.9818 7.56065 13.0018 7.77398 13.0018 8.00065ZM11.6686 8.00065C11.6686 7.86065 11.6619 7.72065 11.6352 7.51398L11.5419 6.76065L12.1352 6.29398L12.8486 5.72732L12.3819 4.92065L11.5352 5.26065L10.8286 5.54732L10.2219 5.08065C9.95522 4.88065 9.68855 4.72732 9.40188 4.60732L8.69522 4.32065L8.58855 3.56732L8.46188 2.66732H7.53522L7.40188 3.56732L7.29522 4.32065L6.58855 4.60732C6.31522 4.72065 6.04188 4.88065 5.75522 5.09398L5.15522 5.54732L4.46188 5.26732L3.61522 4.92732L3.14855 5.73398L3.86855 6.29398L4.46188 6.76065L4.36855 7.51398C4.34855 7.71398 4.33522 7.86732 4.33522 8.00065C4.33522 8.13398 4.34855 8.28732 4.36855 8.49398L4.46188 9.24732L3.86855 9.71398L3.14855 10.274L3.61522 11.0807L4.46188 10.7407L5.16855 10.454L5.77522 10.9207C6.04188 11.1207 6.30855 11.274 6.59522 11.394L7.30188 11.6807L7.40855 12.434L7.53522 13.334H8.46855L8.60188 12.434L8.70855 11.6807L9.41522 11.394C9.68855 11.2807 9.96188 11.1207 10.2486 10.9073L10.8486 10.454L11.5419 10.734L12.3886 11.074L12.8552 10.2673L12.1352 9.70732L11.5419 9.24065L11.6352 8.48732C11.6552 8.28732 11.6686 8.14065 11.6686 8.00065ZM8.00187 5.33398C6.52854 5.33398 5.33521 6.52732 5.33521 8.00065C5.33521 9.47398 6.52854 10.6673 8.00187 10.6673C9.47521 10.6673 10.6685 9.47398 10.6685 8.00065C10.6685 6.52732 9.47521 5.33398 8.00187 5.33398ZM6.66854 8.00065C6.66854 8.73398 7.26854 9.33398 8.00187 9.33398C8.73521 9.33398 9.33521 8.73398 9.33521 8.00065C9.33521 7.26732 8.73521 6.66732 8.00187 6.66732C7.26854 6.66732 6.66854 7.26732 6.66854 8.00065Z" fill="#7B899A"/>
</svg>
