<svg width="56" height="56" viewBox="0 0 56 56" fill="none" xmlns="http://www.w3.org/2000/svg">
<path d="M28 0.8125C22.6228 0.8125 17.3664 2.40702 12.8954 5.39442C8.42449 8.38182 4.9398 12.6279 2.88204 17.5958C0.82428 22.5637 0.285877 28.0302 1.33491 33.304C2.38395 38.5779 4.97331 43.4222 8.77555 47.2245C12.5778 51.0267 17.4221 53.6161 22.696 54.6651C27.9699 55.7141 33.4364 55.1757 38.4042 53.118C43.3721 51.0602 47.6182 47.5755 50.6056 43.1046C53.593 38.6336 55.1875 33.3772 55.1875 28C55.1794 20.7919 52.3124 13.8814 47.2155 8.78454C42.1186 3.68766 35.2081 0.820655 28 0.8125V0.8125ZM28 7.20972C32.4084 7.2058 36.7027 8.61087 40.2561 11.2199L11.2199 40.2561C8.95275 37.1582 7.58825 33.4928 7.2778 29.6665C6.96736 25.8403 7.7231 22.0028 9.46118 18.5799C11.1993 15.1571 13.8517 12.2828 17.1242 10.2758C20.3966 8.26893 24.1612 7.20795 28 7.21063V7.20972ZM28 48.7912C23.5918 48.7948 19.2978 47.3894 15.7448 44.7801L44.7801 15.7439C47.0474 18.8418 48.4121 22.5074 48.7226 26.3338C49.0332 30.1603 48.2775 33.9979 46.5394 37.421C44.8013 40.844 42.1488 43.7185 38.8763 45.7256C35.6037 47.7327 31.839 48.7938 28 48.7912V48.7912Z" stroke="#2E4369" stroke-linecap="round" stroke-linejoin="round"/>
</svg>
