<svg width="16" height="16" viewBox="0 0 16 16" fill="none" xmlns="http://www.w3.org/2000/svg">
<path d="M0.5 4V15H15.5V4M0.5 1H15.5V4H0.5V1Z" stroke="#7B899A" stroke-linecap="round" stroke-linejoin="round"/>
<path d="M6.525 11H9.475M5.5 6H10.5C10.5 6 9 9.5 8 9.5C7 9.5 5.5 6 5.5 6ZM5.5 13H10.5C10.5 13 9 9.5 8 9.5C7 9.5 5.5 13 5.5 13Z" stroke="#7B899A" stroke-linecap="round" stroke-linejoin="round"/>
<path d="M2 2.75C2.13807 2.75 2.25 2.63807 2.25 2.5C2.25 2.36193 2.13807 2.25 2 2.25C1.86193 2.25 1.75 2.36193 1.75 2.5C1.75 2.63807 1.86193 2.75 2 2.75Z" stroke="#7B899A" stroke-linecap="round" stroke-linejoin="round"/>
<path d="M3.75 2.75C3.88807 2.75 4 2.63807 4 2.5C4 2.36193 3.88807 2.25 3.75 2.25C3.61193 2.25 3.5 2.36193 3.5 2.5C3.5 2.63807 3.61193 2.75 3.75 2.75Z" stroke="#7B899A" stroke-linecap="round" stroke-linejoin="round"/>
<path d="M5.5 2.75C5.63807 2.75 5.75 2.63807 5.75 2.5C5.75 2.36193 5.63807 2.25 5.5 2.25C5.36193 2.25 5.25 2.36193 5.25 2.5C5.25 2.63807 5.36193 2.75 5.5 2.75Z" stroke="#7B899A" stroke-linecap="round" stroke-linejoin="round"/>
</svg>
