<svg width="16" height="17" viewBox="0 0 16 17" fill="none" xmlns="http://www.w3.org/2000/svg">
<path d="M8.91181 3.504V11.496C8.91181 12 8.50381 12.408 7.99981 12.408C7.49581 12.408 7.11181 12 7.11181 11.496V3.504L4.08781 6.168C3.72781 6.504 3.15181 6.48 2.83981 6.096C2.50381 5.736 2.52781 5.16 2.91181 4.824L7.39981 0.839996C7.73581 0.527995 8.23981 0.527995 8.59981 0.815996C8.59981 0.839996 8.59981 0.839996 8.59981 0.839996L13.0878 4.824C13.4718 5.16 13.4958 5.736 13.1838 6.096C12.8478 6.48 12.2718 6.504 11.9118 6.168L8.91181 3.504ZM14.1918 13.896C14.1918 13.392 14.5998 13.008 15.1038 13.008C15.6078 13.008 15.9918 13.392 15.9918 13.896V16.104C15.9918 16.584 15.6078 16.992 15.1038 16.992H0.895813C0.415813 16.992 0.0078125 16.584 0.0078125 16.104V13.896C0.0078125 13.392 0.415813 13.008 0.895813 13.008C1.39981 13.008 1.80781 13.392 1.80781 13.896V15.192H14.1918V13.896Z" fill="#1B2B41" fill-opacity="0.72"/>
<path d="M9.24381 3.13013L8.41181 2.39132V3.504V11.496C8.41181 11.7239 8.22767 11.908 7.99981 11.908C7.78925 11.908 7.61181 11.7415 7.61181 11.496V3.504V2.39717L6.7813 3.12882L3.7573 5.79282L3.75191 5.79757L3.74665 5.80247C3.58674 5.95173 3.34733 5.92773 3.22787 5.78071L3.21705 5.76739L3.20534 5.75484C3.06295 5.60228 3.06862 5.35118 3.24107 5.20029L3.24107 5.2003L3.24375 5.19793L7.73175 1.21392L7.73183 1.21401L7.74004 1.20639C7.85612 1.0986 8.03067 1.06927 8.19089 1.14557L8.26788 1.21392L12.7559 5.19793L12.7559 5.19794L12.7586 5.20029C12.9322 5.35224 12.9402 5.6126 12.8067 5.76765C12.6558 5.93922 12.4053 5.94462 12.253 5.80248L12.2531 5.80236L12.2438 5.79413L9.24381 3.13013ZM1.30781 15.192V15.692H1.80781H14.1918H14.6918V15.192V13.896C14.6918 13.6854 14.8583 13.508 15.1038 13.508C15.3317 13.508 15.4918 13.6682 15.4918 13.896V16.104C15.4918 16.3167 15.3229 16.492 15.1038 16.492H0.895813C0.691955 16.492 0.507812 16.3079 0.507812 16.104V13.896C0.507812 13.6769 0.683104 13.508 0.895813 13.508C1.14129 13.508 1.30781 13.6854 1.30781 13.896V15.192Z" stroke="#1C375A" stroke-opacity="0.16"/>
</svg>
