<svg width="24" height="24" viewBox="0 0 24 24" fill="none" xmlns="http://www.w3.org/2000/svg">
<path d="M18 13.5H16.5M18 6V18.75V6ZM19.5 9H18H19.5ZM18 10.5H16.5H18ZM19.5 15H18H19.5ZM18 16.5H16.5H18ZM19.5 12H18H19.5Z" stroke="#6B7280" stroke-miterlimit="10" stroke-linecap="round" stroke-linejoin="round"/>
<path d="M19.5 20.25H22.125C22.4234 20.25 22.7095 20.1315 22.9205 19.9205C23.1315 19.7095 23.25 19.4234 23.25 19.125V6H3.75V19.125C3.75 19.4234 3.63147 19.7095 3.4205 19.9205C3.20952 20.1315 2.92337 20.25 2.625 20.25" stroke="#6B7280" stroke-miterlimit="10" stroke-linecap="round" stroke-linejoin="round"/>
<path d="M20.25 6V3H7.5V1.5H0.75V19.125C0.75 19.4234 0.868526 19.7095 1.0795 19.9205C1.29048 20.1315 1.57663 20.25 1.875 20.25H16.5" stroke="#6B7280" stroke-miterlimit="10" stroke-linecap="round" stroke-linejoin="round"/>
<path d="M16.5 18.75H19.5V22.5H16.5V18.75Z" stroke="#6B7280" stroke-miterlimit="10" stroke-linecap="round" stroke-linejoin="round"/>
</svg>
