<svg width="24" height="24" viewBox="0 0 24 24" fill="none" xmlns="http://www.w3.org/2000/svg">
<path d="M12 23.25C18.2132 23.25 23.25 18.2132 23.25 12C23.25 5.7868 18.2132 0.75 12 0.75C5.7868 0.75 0.75 5.7868 0.75 12C0.75 18.2132 5.7868 23.25 12 23.25Z" fill="#FFCC66"/>
<path opacity="0.2" d="M22.5002 14.25C22.5003 15.0039 22.4376 15.7565 22.3127 16.5C23.0599 14.7878 23.3691 12.9165 23.2121 11.055C23.0552 9.19347 22.4372 7.40032 21.4139 5.83741C20.3905 4.2745 18.9941 2.99102 17.3506 2.10284C15.7071 1.21465 13.8683 0.749717 12.0002 0.75L10.5752 0.8625C13.8568 1.24799 16.8831 2.8236 19.0809 5.29089C21.2786 7.75818 22.4952 10.9458 22.5002 14.25Z" fill="white"/>
<path opacity="0.15" d="M2.99979 10.5002C2.99718 8.87483 3.34797 7.26833 4.02786 5.79199C4.70775 4.31565 5.70049 3.00478 6.93729 1.9502C5.51804 2.66748 4.26697 3.67749 3.26661 4.91364C2.26624 6.14978 1.5393 7.58395 1.13374 9.12158C0.728179 10.6592 0.653204 12.2653 0.913761 13.8341C1.17432 15.4028 1.76449 16.8984 2.64535 18.2224C3.52621 19.5464 4.67774 20.6685 6.024 21.5149C7.37026 22.3613 8.88066 22.9126 10.4556 23.1326C12.0305 23.3526 13.6342 23.2361 15.1608 22.791C16.6875 22.3459 18.1024 21.5821 19.3123 20.5502C17.5969 21.4146 15.6887 21.8254 13.7695 21.7434C11.8504 21.6614 9.98421 21.0893 8.34878 20.0818C6.71335 19.0742 5.36315 17.6646 4.42681 15.9874C3.49048 14.3101 2.9992 12.4211 2.99979 10.5002Z" fill="#000064"/>
<path d="M8.25 10.5C8.66421 10.5 9 10.1642 9 9.75C9 9.33579 8.66421 9 8.25 9C7.83579 9 7.5 9.33579 7.5 9.75C7.5 10.1642 7.83579 10.5 8.25 10.5Z" fill="#64738F"/>
<path d="M15.75 10.5C16.1642 10.5 16.5 10.1642 16.5 9.75C16.5 9.33579 16.1642 9 15.75 9C15.3358 9 15 9.33579 15 9.75C15 10.1642 15.3358 10.5 15.75 10.5Z" fill="#64738F"/>
<path d="M12 23.25C18.2132 23.25 23.25 18.2132 23.25 12C23.25 5.7868 18.2132 0.75 12 0.75C5.7868 0.75 0.75 5.7868 0.75 12C0.75 18.2132 5.7868 23.25 12 23.25Z" stroke="#2E4369" stroke-linecap="round" stroke-linejoin="round"/>
<path d="M17.2127 18.075C16.5617 17.3399 15.7622 16.7514 14.8668 16.3483C13.9715 15.9452 13.0008 15.7368 12.0189 15.7368C11.0371 15.7368 10.0664 15.9452 9.17105 16.3483C8.27572 16.7514 7.47615 17.3399 6.8252 18.075" stroke="#2E4369" stroke-linecap="round" stroke-linejoin="round"/>
<path d="M8.25 10.5C8.66421 10.5 9 10.1642 9 9.75C9 9.33579 8.66421 9 8.25 9C7.83579 9 7.5 9.33579 7.5 9.75C7.5 10.1642 7.83579 10.5 8.25 10.5Z" stroke="#2E4369" stroke-linecap="round" stroke-linejoin="round"/>
<path d="M15.75 10.5C16.1642 10.5 16.5 10.1642 16.5 9.75C16.5 9.33579 16.1642 9 15.75 9C15.3358 9 15 9.33579 15 9.75C15 10.1642 15.3358 10.5 15.75 10.5Z" stroke="#2E4369" stroke-linecap="round" stroke-linejoin="round"/>
</svg>
