<svg width="34" height="36" viewBox="0 0 34 36" fill="none" xmlns="http://www.w3.org/2000/svg">
<path d="M27.667 21.0952H33.0002V34.1005H27.667V21.0952Z" fill="#C3D6F9"/>
<path d="M18.0961 10.4576C20.4525 10.4576 22.3626 8.34042 22.3626 5.72878C22.3626 3.11715 20.4525 1 18.0961 1C15.7398 1 13.8296 3.11715 13.8296 5.72878C13.8296 8.34042 15.7398 10.4576 18.0961 10.4576Z" fill="#FFCC66"/>
<path d="M10.6049 21.0972C12.9612 21.0972 14.8714 18.9801 14.8714 16.3684C14.8714 13.7568 12.9612 11.6396 10.6049 11.6396C8.24857 11.6396 6.33838 13.7568 6.33838 16.3684C6.33838 18.9801 8.24857 21.0972 10.6049 21.0972Z" fill="#DB4C3F"/>
<path d="M19.1609 30.5542H13.8278C13.262 30.5542 12.7194 30.3051 12.3193 29.8617C11.9192 29.4183 11.6945 28.8169 11.6945 28.1898C11.6945 27.5627 11.9192 26.9613 12.3193 26.5179C12.7194 26.0745 13.262 25.8254 13.8278 25.8254H15.961C22.3336 25.8254 20.2004 22.2788 27.6668 22.2788V31.8469C26.6001 31.8469 19.7006 35.283 15.9338 35.283C13.6726 35.283 11.6945 34.0003 7.40077 31.7364C5.3635 30.6606 1.00098 27.8274 1.00098 25.8254C1.00098 23.461 6.81039 26.4537 11.6945 28.1898" fill="#C0A299"/>
<path opacity="0.15" d="M27.6668 29.4822C26.6001 29.4822 19.7006 32.9183 15.9338 32.9183C13.6726 32.9183 11.6945 31.6356 7.40077 29.3717C5.84829 28.5524 2.95078 26.7117 1.65749 24.9976C1.47224 25.0132 1.29985 25.1085 1.17716 25.2631C1.05448 25.4178 0.99125 25.6195 1.00098 25.8251C1.00098 27.8277 5.3635 30.6609 7.40077 31.7361C11.6945 34 13.6726 35.2827 15.9338 35.2827C19.7006 35.2827 26.6001 31.8472 27.6668 31.8472V34.1005H32.9999V31.7361H27.6668V29.4822Z" fill="#000064"/>
<path d="M27.6668 31.8473C26.6001 31.8473 19.7006 35.2833 15.9338 35.2833C13.6726 35.2833 11.6945 34.0007 7.40077 31.7367C5.3635 30.661 1.00098 27.8278 1.00098 25.8258C1.00098 23.4614 6.81039 26.4541 11.6945 28.1902M27.6668 21.0952H32.9999V34.1005H27.6668V21.0952Z" stroke="#2E4369" stroke-linecap="round" stroke-linejoin="round"/>
<path d="M18.0961 10.4576C20.4525 10.4576 22.3626 8.34042 22.3626 5.72878C22.3626 3.11715 20.4525 1 18.0961 1C15.7398 1 13.8296 3.11715 13.8296 5.72878C13.8296 8.34042 15.7398 10.4576 18.0961 10.4576Z" fill="#DB4C3F" stroke="#2E4369" stroke-linecap="round" stroke-linejoin="round"/>
<path d="M10.6049 21.0972C12.9612 21.0972 14.8714 18.9801 14.8714 16.3684C14.8714 13.7568 12.9612 11.6396 10.6049 11.6396C8.24857 11.6396 6.33838 13.7568 6.33838 16.3684C6.33838 18.9801 8.24857 21.0972 10.6049 21.0972Z" stroke="#2E4369" stroke-linecap="round" stroke-linejoin="round"/>
<path d="M19.1608 30.5542H13.8276C13.2618 30.5542 12.7192 30.3051 12.3192 29.8617C11.9191 29.4183 11.6943 28.8169 11.6943 28.1898C11.6943 27.5627 11.9191 26.9613 12.3192 26.5179C12.7192 26.0745 13.2618 25.8254 13.8276 25.8254H15.9609C22.3335 25.8254 20.1815 22.2788 27.6479 22.2788" stroke="#2E4369" stroke-linecap="round" stroke-linejoin="round"/>
</svg>
