<svg width="24" height="24" viewBox="0 0 24 24" fill="none" xmlns="http://www.w3.org/2000/svg">
<path d="M0.75 2.25H20.25V6.75H0.75V2.25Z" fill="#A6B1C9"/>
<path d="M20.175 16.0125L20.25 15.975V6.75H0.75V18.75H12.8625L17.25 10.5L20.175 16.0125Z" fill="white"/>
<path opacity="0.15" d="M15.9373 12.975L14.9998 11.25L10.9873 18.75H12.8623L15.9373 12.975Z" fill="#000064"/>
<path d="M3 4.875C3.20711 4.875 3.375 4.70711 3.375 4.5C3.375 4.29289 3.20711 4.125 3 4.125C2.79289 4.125 2.625 4.29289 2.625 4.5C2.625 4.70711 2.79289 4.875 3 4.875Z" fill="#F27E7C"/>
<path d="M5.625 4.875C5.83211 4.875 6 4.70711 6 4.5C6 4.29289 5.83211 4.125 5.625 4.125C5.41789 4.125 5.25 4.29289 5.25 4.5C5.25 4.70711 5.41789 4.875 5.625 4.875Z" fill="#F27E7C"/>
<path d="M8.25 4.875C8.45711 4.875 8.625 4.70711 8.625 4.5C8.625 4.29289 8.45711 4.125 8.25 4.125C8.04289 4.125 7.875 4.29289 7.875 4.5C7.875 4.70711 8.04289 4.875 8.25 4.875Z" fill="#F27E7C"/>
<path opacity="0.15" d="M0.75 6.75H2.25V18.75H0.75V6.75ZM0.75 2.25H2.25V6.75H0.75V2.25Z" fill="#000064"/>
<path d="M3 4.875C3.20711 4.875 3.375 4.70711 3.375 4.5C3.375 4.29289 3.20711 4.125 3 4.125C2.79289 4.125 2.625 4.29289 2.625 4.5C2.625 4.70711 2.79289 4.875 3 4.875Z" stroke="#2E4369" stroke-linecap="round" stroke-linejoin="round"/>
<path d="M5.625 4.875C5.83211 4.875 6 4.70711 6 4.5C6 4.29289 5.83211 4.125 5.625 4.125C5.41789 4.125 5.25 4.29289 5.25 4.5C5.25 4.70711 5.41789 4.875 5.625 4.875Z" stroke="#2E4369" stroke-linecap="round" stroke-linejoin="round"/>
<path d="M8.25 4.875C8.45711 4.875 8.625 4.70711 8.625 4.5C8.625 4.29289 8.45711 4.125 8.25 4.125C8.04289 4.125 7.875 4.29289 7.875 4.5C7.875 4.70711 8.04289 4.875 8.25 4.875Z" stroke="#2E4369" stroke-linecap="round" stroke-linejoin="round"/>
<path d="M0.75 6.75V18.75H12.75M0.75 2.25H20.25V6.75H0.75V2.25ZM20.25 16.125V6.75V16.125Z" stroke="#2E4369" stroke-linecap="round" stroke-linejoin="round"/>
<path d="M17.25 9.25H16.9125C15.437 9.3309 14.0433 9.95346 12.9984 10.9984C11.9535 12.0433 11.3309 13.437 11.25 14.9125V15.25C11.25 16.4367 11.6019 17.5967 12.2612 18.5834C12.9205 19.5701 13.8575 20.3392 14.9539 20.7933C16.0503 21.2474 17.2567 21.3662 18.4205 21.1347C19.5844 20.9032 20.6535 20.3318 21.4926 19.4926C22.3318 18.6535 22.9032 17.5844 23.1347 16.4205C23.3662 15.2567 23.2474 14.0503 22.7933 12.9539C22.3392 11.8575 21.5701 10.9205 20.5834 10.2612C19.5967 9.60189 18.4367 9.25 17.25 9.25Z" fill="#ED4C49"/>
<path d="M17.25 21.25C20.5637 21.25 23.25 18.5637 23.25 15.25C23.25 11.9363 20.5637 9.25 17.25 9.25C13.9363 9.25 11.25 11.9363 11.25 15.25C11.25 18.5637 13.9363 21.25 17.25 21.25Z" stroke="#2E4369" stroke-linecap="round" stroke-linejoin="round"/>
<path d="M15 17.5L19.5 13M15 13L19.5 17.5L15 13Z" stroke="#2E4369" stroke-linecap="round" stroke-linejoin="round"/>
</svg>
