<svg width="16" height="18" viewBox="0 0 16 18" fill="none" xmlns="http://www.w3.org/2000/svg">
<g clip-path="url(#clip0)">
<path d="M13.5 1.75V11.5H23.25C23.25 10.2196 22.9978 8.95176 22.5078 7.76884C22.0178 6.58591 21.2997 5.51108 20.3943 4.60571C19.4889 3.70034 18.4141 2.98216 17.2312 2.49217C16.0482 2.00219 14.7804 1.75 13.5 1.75V1.75Z" fill="#FFCC66"/>
<path d="M10.5003 4.75C8.89772 4.75188 7.32032 5.14875 5.90768 5.9055C4.49503 6.66225 3.2907 7.75554 2.40126 9.08863C1.51181 10.4217 0.964675 11.9535 0.808268 13.5484C0.651861 15.1433 0.891004 16.7522 1.50454 18.2327C2.11807 19.7132 3.08707 21.0196 4.32579 22.0364C5.56452 23.0531 7.03477 23.7489 8.60644 24.062C10.1781 24.3752 11.8028 24.2961 13.3366 23.8318C14.8704 23.3675 16.2662 22.5322 17.4003 21.4L10.5003 14.5V4.75Z" fill="#44D88D"/>
<path d="M15 14.5L21.225 20.4625C22.546 18.7564 23.2588 16.6577 23.25 14.5H15Z" fill="#F45D5D"/>
<path d="M13.5003 1.75V11.5H23.2503C23.2503 10.2196 22.9981 8.95176 22.5081 7.76884C22.0181 6.58591 21.3 5.51108 20.3946 4.60571C19.4892 3.70034 18.4144 2.98216 17.2315 2.49217C16.0485 2.00219 14.7807 1.75 13.5003 1.75V1.75ZM10.5003 4.75C8.89772 4.75188 7.32032 5.14875 5.90768 5.9055C4.49503 6.66225 3.2907 7.75554 2.40126 9.08863C1.51181 10.4217 0.964675 11.9535 0.808268 13.5484C0.651861 15.1433 0.891004 16.7522 1.50454 18.2327C2.11807 19.7132 3.08707 21.0196 4.32579 22.0364C5.56452 23.0531 7.03477 23.7489 8.60644 24.062C10.1781 24.3752 11.8028 24.2961 13.3366 23.8318C14.8704 23.3675 16.2662 22.5322 17.4003 21.4L10.5003 14.5V4.75ZM15.0003 14.5L21.2253 20.4625C22.5463 18.7564 23.2591 16.6577 23.2503 14.5H15.0003Z" stroke="#2E4369" stroke-linecap="round" stroke-linejoin="round"/>
</g>
<defs>
<clipPath id="clip0">
<rect width="16" height="16" fill="white" transform="translate(0 1)"/>
</clipPath>
</defs>
</svg>
