<svg width="42" height="41" viewBox="0 0 42 41" fill="none" xmlns="http://www.w3.org/2000/svg">
<path d="M28.2192 17.3092L28.78 17.5553V16.9429V3.78293C28.78 2.50844 27.7143 1.54336 26.4942 1.54336H6.57188C5.28986 1.54336 4.28604 2.56879 4.28604 3.78293V34.0179C4.28604 35.2924 5.35172 36.2575 6.57188 36.2575H26.4942C27.7762 36.2575 28.78 35.232 28.78 34.0179V30.8104V30.198L28.2192 30.4442C27.3013 30.8471 26.2921 31.0708 25.2369 31.0708C21.1448 31.0708 17.8518 27.8444 17.8518 23.8767C17.8518 19.9089 21.1448 16.6826 25.2369 16.6826C26.2921 16.6826 27.3013 16.9062 28.2192 17.3092Z" fill="#C8D0E8" stroke="#2E4369" stroke-width="0.8"/>
<path d="M29.3481 33.3134C29.3481 34.3113 28.5182 35.1667 27.4442 35.1667H7.3316C6.30644 35.1667 5.42773 34.3588 5.42773 33.3134V2.85327C5.42773 1.85535 6.25762 1 7.3316 1H27.4442C28.4694 1 29.3481 1.80783 29.3481 2.85327V16.1113C28.3717 15.6836 27.2978 15.446 26.175 15.446C21.8303 15.446 18.3154 18.8674 18.3154 23.0967C18.3154 27.3259 21.8303 30.7473 26.175 30.7473C27.2978 30.7473 28.3717 30.5097 29.3481 30.0821V33.3134Z" fill="#EBF5FF"/>
<path d="M28.179 17.4008L28.88 17.7084V16.9429V3.78293C28.88 2.44924 27.7655 1.44336 26.4942 1.44336H6.57188C5.2353 1.44336 4.18604 2.51289 4.18604 3.78293V34.0179C4.18604 35.3516 5.30055 36.3575 6.57188 36.3575H26.4942C27.8307 36.3575 28.88 35.2879 28.88 34.0179V30.8104V30.0449L28.179 30.3526C27.2734 30.7502 26.2778 30.9708 25.2369 30.9708C21.1977 30.9708 17.9518 27.7869 17.9518 23.8767C17.9518 19.9665 21.1977 16.7826 25.2369 16.7826C26.2778 16.7826 27.2734 17.0032 28.179 17.4008Z" stroke="#2E4369"/>
<path d="M9.52134 7.65076L10.3434 9.30165L12.1809 9.53749L10.8269 10.811L11.1654 12.6034L9.52134 11.7544L7.87727 12.6034L8.1674 10.811L6.86182 9.53749L8.69931 9.30165L9.52134 7.65076Z" fill="#F27E7C" stroke="#2E4369" stroke-width="0.3"/>
<path d="M16.5336 7.65076L17.3556 9.30165L19.1931 9.53749L17.8391 10.811L18.1776 12.6034L16.5336 11.7544L14.8895 12.6034L15.1796 10.811L13.874 9.53749L15.7115 9.30165L16.5336 7.65076Z" fill="#F27E7C" stroke="#2E4369" stroke-width="0.3"/>
<path d="M23.5448 7.65076L24.3668 9.30165L26.2043 9.53749L24.8504 10.811L25.1889 12.6034L23.5448 11.7544L21.9007 12.6034L22.1908 10.811L20.8853 9.53749L22.7227 9.30165L23.5448 7.65076Z" fill="#F27E7C" stroke="#2E4369" stroke-width="0.3"/>
<path d="M17.21 19.82H8.40933C8.1192 19.82 7.92578 19.6313 7.92578 19.3483C7.92578 19.0653 8.1192 18.8766 8.40933 18.8766H17.2583C17.5484 18.8766 17.7419 19.0653 17.7419 19.3483C17.7419 19.6313 17.5001 19.82 17.21 19.82Z" fill="#2E4369"/>
<path d="M14.9373 22.9335H8.40933C8.1192 22.9335 7.92578 22.7448 7.92578 22.4618C7.92578 22.1788 8.1192 21.9901 8.40933 21.9901H14.9856C15.2757 21.9901 15.4692 22.1788 15.4692 22.4618C15.4692 22.7448 15.2274 22.9335 14.9373 22.9335Z" fill="#2E4369"/>
<path d="M15.9527 26.3297H8.40933C8.1192 26.3297 7.92578 26.141 7.92578 25.858C7.92578 25.575 8.1192 25.3864 8.40933 25.3864H16.0011C16.2912 25.3864 16.4846 25.575 16.4846 25.858C16.4846 26.141 16.2429 26.3297 15.9527 26.3297Z" fill="#2E4369"/>
<path d="M24.968 30.6127C28.8551 31.0996 32.4109 28.4205 32.9101 24.6288C33.4092 20.837 30.6627 17.3685 26.7756 16.8816C22.8884 16.3947 19.3327 19.0738 18.8335 22.8656C18.3344 26.6573 21.0809 30.1258 24.968 30.6127Z" fill="white"/>
<path opacity="0.1" d="M26.7756 16.8818C25.683 16.7449 24.5727 16.8581 23.5326 17.2123C22.4926 17.5666 21.5513 18.1522 20.7835 18.9227C22.2694 18.1009 24.0094 17.8295 25.6839 18.1584C27.3584 18.4872 28.8552 19.3942 29.8993 20.7129C30.9435 22.0315 31.465 23.6733 31.3681 25.3368C31.2712 27.0004 30.5624 28.574 29.3718 29.7688C30.6674 29.0522 31.699 27.9562 32.3205 26.6359C32.942 25.3157 33.1219 23.8382 32.8347 22.4126C32.5476 20.9871 31.8079 19.6859 30.7204 18.6932C29.6329 17.7006 28.2528 17.0668 26.7756 16.8818Z" fill="#000064"/>
<path d="M24.968 30.6127C28.8551 31.0996 32.4109 28.4205 32.9101 24.6288C33.4092 20.837 30.6627 17.3685 26.7756 16.8816C22.8884 16.3947 19.3327 19.0738 18.8335 22.8656C18.3344 26.6573 21.0809 30.1258 24.968 30.6127Z" stroke="#2E4369" stroke-miterlimit="10" stroke-linecap="round" stroke-linejoin="round"/>
<path d="M30.2358 29.179L35.6865 36.1426" stroke="#2E4369" stroke-miterlimit="10" stroke-linecap="round" stroke-linejoin="round"/>
</svg>
