<svg width="24" height="24" viewBox="0 0 24 24" fill="none" xmlns="http://www.w3.org/2000/svg">
<path d="M0.75 2.25H20.25V6.75H0.75V2.25Z" fill="#A6B1C9"/>
<path d="M17.25 9.75C18.2893 9.74983 19.3105 10.0213 20.2125 10.5375H20.25V6.75H0.75V18.75H12.0375C11.5102 17.8367 11.2329 16.8005 11.2336 15.7459C11.2344 14.6913 11.513 13.6555 12.0416 12.7429C12.5701 11.8303 13.3299 11.0731 14.2443 10.5477C15.1587 10.0223 16.1954 9.74712 17.25 9.75Z" fill="white"/>
<path opacity="0.15" d="M12.0373 18.7125C11.2921 17.4078 11.0636 15.8709 11.3969 14.4058C11.7301 12.9407 12.601 11.654 13.8373 10.8C13.0613 11.0619 12.347 11.4799 11.7387 12.0283C11.1303 12.5767 10.6406 13.2438 10.2998 13.9886C9.95907 14.7334 9.77439 15.5401 9.75718 16.3589C9.73998 17.1778 9.89061 17.9915 10.1998 18.75H12.0373V18.7125Z" fill="#000064"/>
<path d="M3 4.875C3.20711 4.875 3.375 4.70711 3.375 4.5C3.375 4.29289 3.20711 4.125 3 4.125C2.79289 4.125 2.625 4.29289 2.625 4.5C2.625 4.70711 2.79289 4.875 3 4.875Z" fill="#F27E7C"/>
<path d="M5.625 4.875C5.83211 4.875 6 4.70711 6 4.5C6 4.29289 5.83211 4.125 5.625 4.125C5.41789 4.125 5.25 4.29289 5.25 4.5C5.25 4.70711 5.41789 4.875 5.625 4.875Z" fill="#F27E7C"/>
<path d="M8.25 4.875C8.45711 4.875 8.625 4.70711 8.625 4.5C8.625 4.29289 8.45711 4.125 8.25 4.125C8.04289 4.125 7.875 4.29289 7.875 4.5C7.875 4.70711 8.04289 4.875 8.25 4.875Z" fill="#F27E7C"/>
<path opacity="0.15" d="M0.75 6.75H2.25V18.75H0.75V6.75ZM0.75 2.25H2.25V6.75H0.75V2.25Z" fill="#000064"/>
<path d="M3 4.875C3.20711 4.875 3.375 4.70711 3.375 4.5C3.375 4.29289 3.20711 4.125 3 4.125C2.79289 4.125 2.625 4.29289 2.625 4.5C2.625 4.70711 2.79289 4.875 3 4.875Z" stroke="#2E4369" stroke-linecap="round" stroke-linejoin="round"/>
<path d="M5.625 4.875C5.83211 4.875 6 4.70711 6 4.5C6 4.29289 5.83211 4.125 5.625 4.125C5.41789 4.125 5.25 4.29289 5.25 4.5C5.25 4.70711 5.41789 4.875 5.625 4.875Z" stroke="#2E4369" stroke-linecap="round" stroke-linejoin="round"/>
<path d="M8.25 4.875C8.45711 4.875 8.625 4.70711 8.625 4.5C8.625 4.29289 8.45711 4.125 8.25 4.125C8.04289 4.125 7.875 4.29289 7.875 4.5C7.875 4.70711 8.04289 4.875 8.25 4.875Z" stroke="#2E4369" stroke-linecap="round" stroke-linejoin="round"/>
<path d="M0.75 6.75V18.75H12M0.75 2.25H20.25V6.75H0.75V2.25ZM20.25 10.5V6.75V10.5Z" stroke="#2E4369" stroke-linecap="round" stroke-linejoin="round"/>
<path d="M17 22C20.3137 22 23 19.3137 23 16C23 12.6863 20.3137 10 17 10C13.6863 10 11 12.6863 11 16C11 19.3137 13.6863 22 17 22Z" fill="#5EDC89"/>
<path opacity="0.25" d="M17 10C16.0999 9.99944 15.2113 10.2014 14.3999 10.5909C13.5884 10.9803 12.875 11.5474 12.3125 12.25C13.465 11.3195 14.9209 10.8482 16.4 10.9268C17.8791 11.0054 19.2769 11.6283 20.3243 12.6757C21.3717 13.7231 21.9946 15.1209 22.0732 16.6C22.1518 18.0791 21.6805 19.535 20.75 20.6875C21.7219 19.911 22.4284 18.8516 22.7717 17.6559C23.115 16.4602 23.0782 15.1873 22.6663 14.0135C22.2544 12.8396 21.4879 11.8228 20.4727 11.1038C19.4576 10.3848 18.244 9.99903 17 10Z" fill="white"/>
<path d="M17 22C20.3137 22 23 19.3137 23 16C23 12.6863 20.3137 10 17 10C13.6863 10 11 12.6863 11 16C11 19.3137 13.6863 22 17 22Z" stroke="#2E4369" stroke-miterlimit="10" stroke-linecap="round" stroke-linejoin="round"/>
<path d="M19.625 14.5L16.625 17.875L14.75 16" stroke="#2E4369" stroke-miterlimit="10" stroke-linecap="round" stroke-linejoin="round"/>
</svg>
