<svg width="121" height="24" viewBox="0 0 121 24" fill="none" xmlns="http://www.w3.org/2000/svg">
<path d="M1.01136 18H3.47159V13.1932H8.46591V18H10.9205V6.36364H8.46591V11.1648H3.47159V6.36364H1.01136V18ZM23.2159 10.4375C22.892 7.75 20.858 6.20455 18.1648 6.20455C15.0909 6.20455 12.7443 8.375 12.7443 12.1818C12.7443 15.9773 15.0511 18.1591 18.1648 18.1591C21.1477 18.1591 22.9489 16.1761 23.2159 14.0341L20.7273 14.0227C20.4943 15.267 19.517 15.983 18.2045 15.983C16.4375 15.983 15.2386 14.6705 15.2386 12.1818C15.2386 9.76136 16.4205 8.38068 18.2216 8.38068C19.5682 8.38068 20.5398 9.15909 20.7273 10.4375H23.2159ZM24.9801 6.36364V18H27.3665V10.3977H27.4631L30.4744 17.9432H32.0994L35.1108 10.4261H35.2074V18H37.5938V6.36364H34.5597L31.3551 14.1818H31.2188L28.0142 6.36364H24.9801Z" fill="url(#paint0_linear)"/>
<path d="M51.7727 10C51.3409 7.61364 49.4318 6.20455 47.0909 6.20455C44.1136 6.20455 41.9545 8.5 41.9545 12.1818C41.9545 15.8636 44.1136 18.1591 47.0909 18.1591C49.4318 18.1591 51.3409 16.75 51.7727 14.3636H50.3636C50.0227 15.9773 48.6364 16.8409 47.0909 16.8409C44.9773 16.8409 43.3182 15.2045 43.3182 12.1818C43.3182 9.15909 44.9773 7.52273 47.0909 7.52273C48.6364 7.52273 50.0227 8.38636 50.3636 10H51.7727ZM63.8679 12.1818C63.8679 8.5 61.7088 6.20455 58.7315 6.20455C55.7543 6.20455 53.5952 8.5 53.5952 12.1818C53.5952 15.8636 55.7543 18.1591 58.7315 18.1591C61.7088 18.1591 63.8679 15.8636 63.8679 12.1818ZM62.5043 12.1818C62.5043 15.2045 60.8452 16.8409 58.7315 16.8409C56.6179 16.8409 54.9588 15.2045 54.9588 12.1818C54.9588 9.15909 56.6179 7.52273 58.7315 7.52273C60.8452 7.52273 62.5043 9.15909 62.5043 12.1818ZM75.4645 6.36364H74.0781V15.5227H73.9645L67.6009 6.36364H66.2372V18H67.6463V8.86364H67.7599L74.1009 18H75.4645V6.36364ZM87.5114 6.36364H86.125V15.5227H86.0114L79.6477 6.36364H78.2841V18H79.6932V8.86364H79.8068L86.1477 18H87.5114V6.36364ZM90.331 18H97.4446V16.75H91.7401V12.7955H96.9901V11.5455H91.7401V7.61364H97.3537V6.36364H90.331V18ZM109.257 10C108.825 7.61364 106.916 6.20455 104.575 6.20455C101.598 6.20455 99.4389 8.5 99.4389 12.1818C99.4389 15.8636 101.598 18.1591 104.575 18.1591C106.916 18.1591 108.825 16.75 109.257 14.3636H107.848C107.507 15.9773 106.121 16.8409 104.575 16.8409C102.462 16.8409 100.803 15.2045 100.803 12.1818C100.803 9.15909 102.462 7.52273 104.575 7.52273C106.121 7.52273 107.507 8.38636 107.848 10H109.257ZM110.898 7.61364H114.557V18H115.966V7.61364H119.625V6.36364H110.898V7.61364Z" fill="black"/>
<defs>
<linearGradient id="paint0_linear" x1="19.5" y1="0" x2="19.5" y2="24" gradientUnits="userSpaceOnUse">
<stop stop-color="#D70900"/>
<stop offset="1" stop-color="#BF0B1C"/>
</linearGradient>
</defs>
</svg>
