<svg width="32" height="36" viewBox="0 0 32 36" fill="none" xmlns="http://www.w3.org/2000/svg">
<g clip-path="url(#clip0)">
<path d="M16 26.2963C20.2767 26.2963 23.7437 22.5819 23.7437 18.0001C23.7437 13.4182 20.2767 9.70383 16 9.70383C11.7232 9.70383 8.25623 13.4182 8.25623 18.0001C8.25623 22.5819 11.7232 26.2963 16 26.2963Z" fill="#ED4848"/>
<path d="M9.62375 18C9.62375 13.665 12.7273 10.1073 16.6837 9.7364C16.4584 9.7153 16.2305 9.70387 16 9.70387C11.7232 9.70387 8.25623 13.4182 8.25623 18.0001C8.25623 22.582 11.7232 26.2963 16 26.2963C16.2305 26.2963 16.4584 26.2848 16.6837 26.2637C12.7273 25.8928 9.62375 22.335 9.62375 18Z" fill="#CC4040"/>
<path d="M18.5729 4.03067C18.5729 2.48097 17.421 1.22465 16.0001 1.22465C14.5792 1.22465 13.4273 2.48097 13.4273 4.03067C13.4273 4.98151 13.8614 5.82123 14.5247 6.32873L16.0001 9.64284L17.4755 6.32873C18.1388 5.82123 18.5729 4.98144 18.5729 4.03067Z" fill="#9CCC65"/>
<path d="M15.5503 5.96256C14.887 5.45505 14.4529 4.61526 14.4529 3.66449C14.4529 2.62984 14.9668 1.72662 15.7309 1.24013C14.4365 1.38693 13.4273 2.58025 13.4273 4.03076C13.4273 4.98161 13.8614 5.82133 14.5247 6.32883L16.0001 9.64294L16.5944 8.30788L15.5503 5.96256Z" fill="#88AD57"/>
<path d="M8.59929 6.17326C7.57646 5.07744 5.93283 5.06176 4.92805 6.13817C3.92326 7.21457 3.93796 8.97553 4.9608 10.0713C5.58835 10.7437 6.44948 11.0087 7.25352 10.8651L10.4842 12.0908L9.34015 8.62955C9.47423 7.76815 9.22685 6.84559 8.59929 6.17326Z" fill="#9CCC65"/>
<path d="M7.73711 9.8289C6.93308 9.97255 6.07195 9.70752 5.4444 9.03519C4.76152 8.30359 4.5287 7.27568 4.74792 6.35275C3.92952 7.43714 4.00351 9.04544 4.96091 10.0712C5.58846 10.7435 6.44959 11.0085 7.25362 10.8649L10.4843 12.0906L10.0234 10.6963L7.73711 9.8289Z" fill="#88AD57"/>
<path d="M2.961 15.2435C1.51451 15.2435 0.341858 16.4775 0.341858 17.9999C0.341858 19.5222 1.51451 20.7562 2.961 20.7562C3.84852 20.7562 4.63232 20.2912 5.10603 19.5805L8.19942 17.9999L5.10603 16.4192C4.63232 15.7085 3.84845 15.2435 2.961 15.2435Z" fill="#9CCC65"/>
<path d="M4.76401 18.4819C4.2903 19.1926 3.50644 19.6576 2.61898 19.6576C1.65324 19.6576 0.810165 19.1071 0.356079 18.2885C0.493105 19.6752 1.60695 20.7564 2.96087 20.7564C3.84839 20.7564 4.63218 20.2914 5.10589 19.5808L8.19929 18.0001L6.95314 17.3633L4.76401 18.4819Z" fill="#88AD57"/>
<path d="M4.96083 25.9288C3.938 27.0246 3.92336 28.7855 4.92808 29.862C5.9328 30.9384 7.57649 30.9227 8.59933 29.8269C9.22688 29.1545 9.47427 28.232 9.34018 27.3706L10.4842 23.9094L7.25355 25.1351C6.44952 24.9914 5.58839 25.2564 4.96083 25.9288Z" fill="#9CCC65"/>
<path d="M8.37313 26.8525C8.50721 27.7139 8.25983 28.6365 7.63227 29.3088C6.9494 30.0404 5.98995 30.2899 5.12848 30.055C6.14065 30.9318 7.64185 30.8525 8.59925 29.8268C9.2268 29.1545 9.47419 28.2319 9.3401 27.3705L10.4842 23.9094L9.18277 24.4031L8.37313 26.8525Z" fill="#88AD57"/>
<path d="M13.4273 31.9693C13.4273 33.519 14.5792 34.7753 16.0001 34.7753C17.421 34.7753 18.5729 33.519 18.5729 31.9693C18.5729 31.0185 18.1388 30.1788 17.4755 29.6712L16.0001 26.3571L14.5247 29.6712C13.8614 30.1788 13.4273 31.0185 13.4273 31.9693Z" fill="#9CCC65"/>
<path d="M16.4498 30.0375C17.1131 30.545 17.5472 31.3848 17.5472 32.3356C17.5472 33.3702 17.0333 34.2735 16.2692 34.7599C17.5636 34.6131 18.5728 33.4198 18.5728 31.9693C18.5728 31.0185 18.1388 30.1788 17.4755 29.6712L16 26.3571L15.4057 27.6922L16.4498 30.0375Z" fill="#88AD57"/>
<path d="M23.4009 29.8268C24.4237 30.9226 26.0674 30.9383 27.0722 29.8619C28.0769 28.7855 28.0622 27.0246 27.0394 25.9287C26.4118 25.2564 25.5507 24.9914 24.7467 25.135L21.516 23.9093L22.6601 27.3705C22.526 28.2319 22.7734 29.1545 23.4009 29.8268Z" fill="#9CCC65"/>
<path d="M24.2631 26.171C25.0672 26.0274 25.9283 26.2924 26.5559 26.9648C27.2387 27.6963 27.4715 28.7243 27.2523 29.6472C28.0707 28.5628 27.9967 26.9545 27.0393 25.9288C26.4118 25.2565 25.5507 24.9914 24.7466 25.1351L21.516 23.9094L21.9768 25.3036L24.2631 26.171Z" fill="#88AD57"/>
<path d="M29.0388 20.7562C30.4853 20.7562 31.658 19.5222 31.658 17.9999C31.658 16.4775 30.4853 15.2435 29.0388 15.2435C28.1513 15.2435 27.3675 15.7085 26.8938 16.4192L23.8004 17.9999L26.8938 19.5805C27.3675 20.2912 28.1514 20.7562 29.0388 20.7562Z" fill="#9CCC65"/>
<path d="M27.2357 17.518C27.7094 16.8073 28.4933 16.3423 29.3807 16.3423C30.3465 16.3423 31.1895 16.8928 31.6436 17.7115C31.5066 16.3247 30.3928 15.2435 29.0388 15.2435C28.1513 15.2435 27.3675 15.7085 26.8938 16.4192L23.8004 17.9999L25.0466 18.6366L27.2357 17.518Z" fill="#88AD57"/>
<path d="M27.0391 10.0712C28.0619 8.97539 28.0766 7.2145 27.0718 6.13802C26.0671 5.06155 24.4234 5.0773 23.4006 6.17311C22.7731 6.84544 22.5257 7.76801 22.6598 8.62941L21.5157 12.0906L24.7464 10.8649C25.5504 11.0086 26.4115 10.7435 27.0391 10.0712Z" fill="#9CCC65"/>
<path d="M23.627 9.14746C23.4929 8.28606 23.7403 7.3635 24.3679 6.69116C25.0508 5.95957 26.0102 5.71014 26.8717 5.94499C25.8595 5.06821 24.3583 5.14747 23.4009 6.17318C22.7734 6.84551 22.526 7.76808 22.6601 8.62948L21.516 12.0906L22.8174 11.5969L23.627 9.14746Z" fill="#88AD57"/>
<path d="M29.039 14.8774C28.107 14.8774 27.2282 15.3431 26.6697 16.1281L24.0692 17.4569C23.9543 15.4759 23.2152 13.6734 22.0604 12.2726L24.7801 11.2407C25.6931 11.3727 26.622 11.0363 27.281 10.3302C28.4355 9.09334 28.4501 7.09657 27.3137 5.87908C26.1773 4.66159 24.3135 4.67734 23.159 5.91417C22.5 6.62019 22.1859 7.61536 22.3091 8.59345L21.346 11.5072C20.0384 10.27 18.356 9.47822 16.5069 9.35508L17.7472 6.56906C18.4799 5.97079 18.9147 5.02918 18.9147 4.03072C18.9147 2.28147 17.6071 0.858429 16 0.858429C14.3929 0.858429 13.0853 2.28147 13.0853 4.03072C13.0853 5.02918 13.5201 5.97072 14.2528 6.56906L15.4931 9.35508C13.644 9.47822 11.9616 10.27 10.654 11.5072L9.69087 8.59345C9.81409 7.61536 9.50004 6.62019 8.84103 5.91417C7.6865 4.67726 5.8227 4.66159 4.68629 5.87908C3.54988 7.09657 3.56458 9.09334 4.71904 10.3302C5.37805 11.0363 6.30694 11.3727 7.2199 11.2407L9.93956 12.2726C8.78482 13.6734 8.04574 15.4759 7.9308 17.4569L5.33033 16.1281C4.7719 15.3432 3.89299 14.8774 2.96103 14.8774C1.32827 14.8774 0 16.2782 0 18C0 19.7218 1.32827 21.1226 2.96103 21.1226C3.89299 21.1226 4.77183 20.6569 5.33033 19.8719L7.9308 18.5431C8.04574 20.5241 8.78482 22.3266 9.93956 23.7274L7.2199 24.7593C6.30694 24.6273 5.37805 24.9637 4.71904 25.6698C3.56451 26.9067 3.54988 28.9034 4.68629 30.1209C5.8227 31.3384 7.6865 31.3227 8.84103 30.0858C9.50004 29.3798 9.81409 28.3846 9.69087 27.4065L10.654 24.4928C11.9616 25.73 13.644 26.5218 15.4931 26.6449L14.2528 29.4309C13.5201 30.0292 13.0853 30.9708 13.0853 31.9693C13.0853 33.7185 14.3929 35.1416 16 35.1416C17.6071 35.1416 18.9147 33.7185 18.9147 31.9693C18.9147 30.9708 18.4799 30.0293 17.7472 29.4309L16.5069 26.6449C18.356 26.5218 20.0384 25.73 21.346 24.4928L22.3091 27.4065C22.1859 28.3846 22.5 29.3798 23.159 30.0858C24.3135 31.3227 26.1773 31.3384 27.3137 30.1209C28.4501 28.9034 28.4354 26.9067 27.281 25.6698C26.622 24.9637 25.6931 24.6273 24.7801 24.7593L22.0604 23.7274C23.2152 22.3266 23.9543 20.5241 24.0692 18.5431L26.6697 19.8719C27.2281 20.6568 28.107 21.1226 29.039 21.1226C30.6717 21.1226 32 19.7218 32 18C32 16.2782 30.6717 14.8774 29.039 14.8774ZM22.9822 8.75176C23.0015 8.69322 23.0066 8.63045 22.9971 8.56921C22.8764 7.79337 23.1176 6.99445 23.6425 6.43215C24.5304 5.48094 25.9603 5.46512 26.8302 6.39706C27.7 7.32893 27.6853 8.86098 26.7975 9.81226C26.2726 10.3746 25.5269 10.633 24.8027 10.5036C24.7456 10.4935 24.687 10.499 24.6323 10.5197L22.0773 11.4891L22.9822 8.75176ZM14.7233 6.03071C14.1258 5.57361 13.7691 4.8259 13.7691 4.03072C13.7691 2.6854 14.7698 1.59097 16 1.59097C17.2302 1.59097 18.2309 2.6854 18.2309 4.03072C18.2309 4.8259 17.8742 5.57361 17.2767 6.03071C17.2296 6.06676 17.1917 6.1151 17.1668 6.17114L16 8.79212L14.8332 6.17114C14.8082 6.1151 14.7704 6.06676 14.7233 6.03071ZM7.36766 10.5197C7.31303 10.499 7.25443 10.4935 7.19727 10.5036C6.47309 10.633 5.72738 10.3746 5.20253 9.81226C4.3146 8.86105 4.2999 7.32901 5.16978 6.39706C6.03959 5.46519 7.46961 5.48094 8.35754 6.43215C8.88239 6.99445 9.12362 7.79337 9.00287 8.56921C8.99337 8.63045 8.9985 8.69322 9.01785 8.75176L9.92267 11.4891L7.36766 10.5197ZM4.95884 19.2501C4.90653 19.2768 4.86147 19.3173 4.82776 19.3678C4.40109 20.0079 3.70318 20.3901 2.96096 20.3901C1.7053 20.3901 0.683761 19.3179 0.683761 18C0.683761 16.6821 1.7053 15.6099 2.96103 15.6099C3.70325 15.6099 4.40116 15.9921 4.82783 16.6322C4.86147 16.6827 4.9066 16.7232 4.95891 16.7499L7.40533 18L4.95884 19.2501ZM9.01785 27.2482C8.9985 27.3068 8.99337 27.3696 9.00287 27.4308C9.12362 28.2066 8.88239 29.0055 8.35754 29.5678C7.46961 30.5191 6.03966 30.5349 5.16978 29.6029C4.2999 28.671 4.31467 27.139 5.20253 26.1877C5.72738 25.6254 6.47309 25.367 7.19727 25.4964C7.25443 25.5066 7.31303 25.501 7.36766 25.4803L9.92267 24.5109L9.01785 27.2482ZM17.2767 29.9693C17.8742 30.4264 18.2309 31.1741 18.2309 31.9693C18.2309 33.3146 17.2302 34.409 16 34.409C14.7698 34.409 13.7691 33.3146 13.7691 31.9693C13.7691 31.1741 14.1258 30.4264 14.7233 29.9693C14.7704 29.9332 14.8083 29.8849 14.8332 29.8289L16 27.2079L17.1668 29.8289C17.1918 29.8849 17.2296 29.9332 17.2767 29.9693ZM24.6323 25.4803C24.687 25.501 24.7456 25.5065 24.8027 25.4964C25.5269 25.367 26.2726 25.6254 26.7975 26.1877C27.6854 27.139 27.7001 28.671 26.8302 29.6029C25.9603 30.5349 24.5304 30.5191 23.6425 29.5678C23.1176 29.0055 22.8764 28.2066 22.9971 27.4308C23.0066 27.3696 23.0015 27.3068 22.9822 27.2482L22.0773 24.5109L24.6323 25.4803ZM16 25.9299C11.9186 25.9299 8.59822 22.3725 8.59822 18C8.59822 13.6275 11.9186 10.0701 16 10.0701C20.0814 10.0701 23.4018 13.6274 23.4018 18C23.4018 22.3726 20.0814 25.9299 16 25.9299ZM29.039 20.3901C28.2968 20.3901 27.5988 20.0079 27.1722 19.3678C27.1385 19.3173 27.0934 19.2768 27.0411 19.2501L24.5947 18L27.0411 16.7499C27.0934 16.7232 27.1385 16.6827 27.1722 16.6322C27.5988 15.9921 28.2968 15.6099 29.039 15.6099C30.2947 15.6099 31.3162 16.6821 31.3162 18C31.3162 19.3179 30.2947 20.3901 29.039 20.3901Z" fill="#333333"/>
<path d="M13.3588 18.076C14.5351 18.076 15.4886 17.0544 15.4886 15.7942C15.4886 14.534 14.5351 13.5124 13.3588 13.5124C12.1825 13.5124 11.2289 14.534 11.2289 15.7942C11.2289 17.0544 12.1825 18.076 13.3588 18.076Z" fill="#9CCC65"/>
<path d="M14.0426 17.3435C12.8663 17.3435 11.9127 16.3219 11.9127 15.0617C11.9127 14.6192 12.0306 14.2065 12.2341 13.8567C11.6307 14.2596 11.2289 14.9765 11.2289 15.7942C11.2289 17.0544 12.1825 18.076 13.3588 18.076C14.1221 18.076 14.7912 17.6456 15.1673 16.9992C14.8408 17.2171 14.4555 17.3435 14.0426 17.3435Z" fill="#88AD57"/>
<path d="M13.3588 18.4423C11.9959 18.4423 10.8871 17.2544 10.8871 15.7942C10.8871 14.3341 11.9959 13.1462 13.3588 13.1462C14.7218 13.1462 15.8305 14.3341 15.8305 15.7942C15.8305 17.2544 14.7218 18.4423 13.3588 18.4423ZM13.3588 13.8787C12.373 13.8787 11.5708 14.738 11.5708 15.7942C11.5708 16.8505 12.3729 17.7098 13.3588 17.7098C14.3447 17.7098 15.1468 16.8505 15.1468 15.7942C15.1468 14.738 14.3447 13.8787 13.3588 13.8787Z" fill="#333333"/>
<path d="M14.1211 23.6865C14.8763 23.6865 15.4886 23.0306 15.4886 22.2214C15.4886 21.4123 14.8763 20.7563 14.1211 20.7563C13.3658 20.7563 12.7535 21.4123 12.7535 22.2214C12.7535 23.0306 13.3658 23.6865 14.1211 23.6865Z" fill="#9CCC65"/>
<path d="M14.7364 23.0272C13.9812 23.0272 13.3689 22.3713 13.3689 21.5621C13.3689 21.3278 13.4216 21.1071 13.5129 20.9106C13.0632 21.1506 12.7535 21.6467 12.7535 22.2214C12.7535 23.0306 13.3658 23.6865 14.1211 23.6865C14.6575 23.6865 15.1206 23.3548 15.3446 22.873C15.1612 22.9708 14.9552 23.0272 14.7364 23.0272Z" fill="#88AD57"/>
<path d="M14.1211 24.0528C13.1785 24.0528 12.4117 23.2313 12.4117 22.2215C12.4117 21.2116 13.1785 20.3901 14.1211 20.3901C15.0636 20.3901 15.8305 21.2116 15.8305 22.2215C15.8305 23.2313 15.0636 24.0528 14.1211 24.0528ZM14.1211 21.1226C13.5555 21.1226 13.0954 21.6156 13.0954 22.2215C13.0954 22.8273 13.5555 23.3203 14.1211 23.3203C14.6866 23.3203 15.1467 22.8273 15.1467 22.2215C15.1467 21.6156 14.6866 21.1226 14.1211 21.1226Z" fill="#333333"/>
<path d="M19.9403 22.2215C20.6955 22.2215 21.3078 21.5656 21.3078 20.7564C21.3078 19.9473 20.6955 19.2913 19.9403 19.2913C19.185 19.2913 18.5728 19.9473 18.5728 20.7564C18.5728 21.5656 19.185 22.2215 19.9403 22.2215Z" fill="#9CCC65"/>
<path d="M20.5557 21.5623C19.8004 21.5623 19.1881 20.9063 19.1881 20.0972C19.1881 19.8628 19.2408 19.6421 19.3321 19.4456C18.8824 19.6856 18.5728 20.1817 18.5728 20.7565C18.5728 21.5656 19.185 22.2216 19.9403 22.2216C20.4768 22.2216 20.9398 21.8898 21.1638 21.408C20.9804 21.5059 20.7744 21.5623 20.5557 21.5623Z" fill="#88AD57"/>
<path d="M19.9403 22.5878C18.9977 22.5878 18.2309 21.7663 18.2309 20.7564C18.2309 19.7466 18.9977 18.9251 19.9403 18.9251C20.8829 18.9251 21.6497 19.7466 21.6497 20.7564C21.6497 21.7663 20.8829 22.5878 19.9403 22.5878ZM19.9403 19.6576C19.3748 19.6576 18.9147 20.1506 18.9147 20.7564C18.9147 21.3623 19.3748 21.8553 19.9403 21.8553C20.5058 21.8553 20.9659 21.3623 20.9659 20.7564C20.9659 20.1506 20.5058 19.6576 19.9403 19.6576Z" fill="#333333"/>
<path d="M19.281 15.9663C20.0363 15.9663 20.6486 15.3104 20.6486 14.5012C20.6486 13.6921 20.0363 13.0361 19.281 13.0361C18.5258 13.0361 17.9135 13.6921 17.9135 14.5012C17.9135 15.3104 18.5258 15.9663 19.281 15.9663Z" fill="#9CCC65"/>
<path d="M19.828 15.3804C19.0728 15.3804 18.4605 14.7244 18.4605 13.9153C18.4605 13.6614 18.5209 13.4227 18.6269 13.2145C18.2019 13.463 17.9135 13.946 17.9135 14.5013C17.9135 15.3105 18.5258 15.9664 19.281 15.9664C19.7993 15.9664 20.2502 15.6574 20.4821 15.2021C20.2878 15.3157 20.065 15.3804 19.828 15.3804Z" fill="#88AD57"/>
<path d="M19.2811 16.3326C18.3385 16.3326 17.5717 15.5111 17.5717 14.5013C17.5717 13.4915 18.3385 12.6699 19.2811 12.6699C20.2236 12.6699 20.9905 13.4915 20.9905 14.5013C20.9905 15.5111 20.2236 16.3326 19.2811 16.3326ZM19.2811 13.4025C18.7155 13.4025 18.2554 13.8954 18.2554 14.5013C18.2554 15.1072 18.7155 15.6001 19.2811 15.6001C19.8466 15.6001 20.3067 15.1072 20.3067 14.5013C20.3067 13.8954 19.8466 13.4025 19.2811 13.4025Z" fill="#333333"/>
</g>
<defs>
<clipPath id="clip0">
<rect width="32" height="34.2831" fill="white" transform="translate(0 0.858429)"/>
</clipPath>
</defs>
</svg>
