<svg width="34" height="36" viewBox="0 0 34 36" fill="none" xmlns="http://www.w3.org/2000/svg">
<path d="M19.1333 25.1262H33V11.1583C33 10.4847 32.7752 9.83877 32.3752 9.36249C31.9751 8.88622 31.4325 8.61865 30.8667 8.61865H3.13333C2.56754 8.61865 2.02492 8.88622 1.62484 9.36249C1.22476 9.83877 1 10.4847 1 11.1583V25.1262H14.8667V22.5866H19.1333V25.1262Z" fill="#D6958A"/>
<path opacity="0.2" d="M30.8667 8.61865H3.13333C2.56754 8.61865 2.02492 8.88622 1.62484 9.36249C1.22476 9.83877 1 10.4847 1 11.1583V13.063C1 12.3895 1.22476 11.7435 1.62484 11.2672C2.02492 10.7909 2.56754 10.5234 3.13333 10.5234H30.8667C31.4325 10.5234 31.9751 10.7909 32.3752 11.2672C32.7752 11.7435 33 12.3895 33 13.063V11.1583C32.9992 10.485 32.7741 9.83966 32.3742 9.36361C31.9743 8.88755 31.4322 8.61966 30.8667 8.61865Z" fill="white"/>
<path d="M31.9321 25.1245V35.283H2.06543V25.1245H14.8644V27.6654H19.1321V25.1245H31.9321Z" fill="#CC7C6E"/>
<path opacity="0.15" d="M2.06689 25.1245H31.9336V28.934H2.06689V25.1245Z" fill="#000064"/>
<path d="M14.8657 22.5864H19.1324V27.6657H14.8657V22.5864Z" fill="#DB4C3F"/>
<path d="M19.1333 25.1265H33V11.1585C33 10.485 32.7752 9.839 32.3752 9.36273C31.9751 8.88646 31.4325 8.61889 30.8667 8.61889H3.13333C2.56754 8.61889 2.02492 8.88646 1.62484 9.36273C1.22476 9.839 1 10.485 1 11.1585V25.1265H14.8667M11.6667 8.61889V6.07926C11.6667 4.73216 12.1162 3.44023 12.9163 2.48768C13.7165 1.53513 14.8017 1 15.9333 1H18.0667C19.1983 1 20.2835 1.53513 21.0837 2.48768C21.8838 3.44023 22.3333 4.73216 22.3333 6.07926V8.56556L11.6667 8.61889Z" stroke="#2E4369" stroke-linecap="round" stroke-linejoin="round"/>
<path d="M31.9321 25.1245V35.283H2.06543V25.1245" stroke="#2E4369" stroke-linecap="round" stroke-linejoin="round"/>
<path d="M14.8657 22.5864H19.1324V27.6657H14.8657V22.5864Z" stroke="#2E4369" stroke-linecap="round" stroke-linejoin="round"/>
</svg>
