<svg width="17" height="18" viewBox="0 0 17 18" fill="none" xmlns="http://www.w3.org/2000/svg">
<g clip-path="url(#clip0)">
<path fill-rule="evenodd" clip-rule="evenodd" d="M10.5002 7.33337H11.5602C12.1535 7.33337 12.4468 8.05337 12.0268 8.47337L8.96682 11.5334C8.70682 11.7934 8.28682 11.7934 8.02682 11.5334L4.96682 8.47337C4.54682 8.05337 4.84682 7.33337 5.44016 7.33337H6.50016V4.00004C6.50016 3.63337 6.80016 3.33337 7.16682 3.33337H9.83349C10.2002 3.33337 10.5002 3.63337 10.5002 4.00004V7.33337ZM4.50016 14.6667C4.1335 14.6667 3.8335 14.3667 3.8335 14C3.8335 13.6334 4.1335 13.3334 4.50016 13.3334H12.5002C12.8668 13.3334 13.1668 13.6334 13.1668 14C13.1668 14.3667 12.8668 14.6667 12.5002 14.6667H4.50016Z" fill="black" fill-opacity="0.54"/>
</g>
<defs>
<clipPath id="clip0">
<rect width="16" height="18" fill="white" transform="translate(0.5)"/>
</clipPath>
</defs>
</svg>
