<svg width="11" height="12" viewBox="0 0 11 12" fill="none" xmlns="http://www.w3.org/2000/svg">
<path fill-rule="evenodd" clip-rule="evenodd" d="M7.50016 4.33337H8.56016C9.15349 4.33337 9.44682 5.05337 9.02682 5.47337L5.96682 8.53337C5.70682 8.79337 5.28682 8.79337 5.02682 8.53337L1.96682 5.47337C1.54682 5.05337 1.84682 4.33337 2.44016 4.33337H3.50016V1.00004C3.50016 0.633374 3.80016 0.333374 4.16682 0.333374H6.83349C7.20016 0.333374 7.50016 0.633374 7.50016 1.00004V4.33337ZM1.50016 11.6667C1.1335 11.6667 0.833496 11.3667 0.833496 11C0.833496 10.6334 1.1335 10.3334 1.50016 10.3334H9.50016C9.86683 10.3334 10.1668 10.6334 10.1668 11C10.1668 11.3667 9.86683 11.6667 9.50016 11.6667H1.50016Z" fill="black" fill-opacity="0.54"/>
</svg>
