<svg width="42" height="40" viewBox="0 0 42 40" fill="none" xmlns="http://www.w3.org/2000/svg">
<path d="M24.4544 11.25V1.25H6.51416V38.75H34.706V11.25H24.4544Z" fill="#EBF5FF"/>
<path d="M34.7062 11.25L24.4546 1.25V11.25H34.7062Z" fill="white"/>
<path opacity="0.15" d="M21.3149 1.25V15.625H34.7061V11.25H24.4545V1.25H21.3149Z" fill="#000064"/>
<path d="M11.6401 15H29.5804V33.75H11.6401V15Z" fill="white"/>
<path d="M6.51416 1.25V38.75H34.706V11.25L24.4544 1.25H6.51416Z" stroke="#2E4369" stroke-miterlimit="10" stroke-linecap="round" stroke-linejoin="round"/>
<path d="M11.6401 27.5H29.5804M24.4546 1.25V11.25H34.7062L24.4546 1.25ZM11.6401 15H29.5804V33.75H11.6401V15ZM18.0474 15V33.75V15ZM11.6401 21.25H29.5804H11.6401Z" stroke="#2E4369" stroke-miterlimit="10" stroke-linecap="round" stroke-linejoin="round"/>
</svg>
