<svg width="34" height="36" viewBox="0 0 34 36" fill="none" xmlns="http://www.w3.org/2000/svg">
<path d="M3.28564 35.2825C4.71061 33.8348 6.40936 32.6851 8.28298 31.9003C10.1566 31.1155 12.1676 30.7114 14.199 30.7114C21.1126 30.7114 26.1408 35.2825 26.1408 35.2825H3.28564Z" fill="#E8C29D"/>
<path d="M18.1413 18.1413C18.5413 17.5128 22.7124 10.1421 22.7124 10.1421L29.5689 18.1413C29.5659 15.3142 28.7744 12.544 27.2834 10.1421C29.0621 11.4826 30.9773 12.6318 32.9972 13.5703C32.9972 13.5703 33.2257 10.2563 29.5689 7.85654C32.1972 7.62799 32.9972 6.71378 32.9972 6.71378C32.9972 6.71378 29.7975 3.97117 26.1406 5.57103C26.5406 3.68548 27.2834 1 27.2834 1C27.2834 1 23.9123 2.37131 22.7124 4.42827C19.4555 2.54272 16.9986 3.28551 16.9986 3.28551L20.4269 6.71378C19.0718 6.52941 17.6926 6.75794 16.4694 7.36954C15.2462 7.98113 14.2359 8.94736 13.5703 10.1421C17.7414 9.74209 19.2841 10.1421 19.2841 10.1421C19.2841 10.1421 16.7129 12.3133 18.1413 18.1413Z" fill="#98C472"/>
<path d="M5.57103 19.2841C8.09553 19.2841 10.1421 17.2376 10.1421 14.7131C10.1421 12.1886 8.09553 10.1421 5.57103 10.1421C3.04652 10.1421 1 12.1886 1 14.7131C1 17.2376 3.04652 19.2841 5.57103 19.2841Z" fill="#DB4C3F"/>
<path opacity="0.15" d="M14.7131 30.7122C16.5415 30.8836 18.0842 33.0549 16.4272 35.2832H26.1406C26.1406 35.2832 21.3411 30.9408 14.7131 30.7122ZM23.5694 7.85709C25.2264 8.14278 27.5691 10.5997 27.6262 10.6568L27.2834 10.1426C29.0621 11.4832 30.9773 12.6323 32.9972 13.5709C32.9972 13.5709 33.2257 10.2569 29.5689 7.85709C32.1972 7.62854 32.9972 6.71433 32.9972 6.71433C32.9972 6.71433 29.7975 3.97172 26.1406 5.57157C26.2549 5.0002 26.4263 4.37168 26.5406 3.74316C23.5694 5.28589 22.7124 6.71433 22.141 7.85709C18.1985 7.85709 13.7417 10.0283 13.5703 10.1426C17.7414 9.74264 19.2841 10.1426 19.2841 10.1426C19.2841 10.1426 16.7129 12.3138 18.1413 18.1419C18.5413 17.5134 22.7124 10.1426 22.7124 10.1426L29.5689 18.1419C28.9975 16.4849 24.9979 8.99984 23.5694 7.85709Z" fill="#000064"/>
<path d="M22.7125 10.1421C23.5696 15.513 23.9124 24.7122 18.2558 31.2259M3.28564 35.2827C4.71061 33.835 6.40936 32.6853 8.28298 31.9006C10.1566 31.1158 12.1676 30.7117 14.199 30.7117C21.1126 30.7117 26.1408 35.2827 26.1408 35.2827H3.28564Z" stroke="#2E4369" stroke-linecap="round" stroke-linejoin="round"/>
<path d="M18.1413 18.1413C18.5413 17.5128 22.7124 10.1421 22.7124 10.1421L29.5689 18.1413C29.5659 15.3142 28.7744 12.544 27.2834 10.1421C29.0621 11.4826 30.9773 12.6318 32.9972 13.5703C32.9972 13.5703 33.2257 10.2563 29.5689 7.85654C32.1972 7.62799 32.9972 6.71378 32.9972 6.71378C32.9972 6.71378 29.7975 3.97117 26.1406 5.57103C26.5406 3.68548 27.2834 1 27.2834 1C27.2834 1 23.9123 2.37131 22.7124 4.42827C19.4555 2.54272 16.9986 3.28551 16.9986 3.28551L20.4269 6.71378C19.0718 6.52941 17.6926 6.75794 16.4694 7.36954C15.2462 7.98113 14.2359 8.94736 13.5703 10.1421C17.7414 9.74209 19.2841 10.1421 19.2841 10.1421C19.2841 10.1421 16.7129 12.3133 18.1413 18.1413Z" stroke="#2E4369" stroke-linecap="round" stroke-linejoin="round"/>
<path d="M5.57103 19.2841C8.09553 19.2841 10.1421 17.2376 10.1421 14.7131C10.1421 12.1886 8.09553 10.1421 5.57103 10.1421C3.04652 10.1421 1 12.1886 1 14.7131C1 17.2376 3.04652 19.2841 5.57103 19.2841Z" stroke="#2E4369" stroke-linecap="round" stroke-linejoin="round"/>
</svg>
