<svg width="16" height="18" viewBox="0 0 16 18" fill="none" xmlns="http://www.w3.org/2000/svg">
<g clip-path="url(#clip0)">
<path d="M0.75 8.5H23.25V22H0.75V8.5Z" fill="white"/>
<path d="M0.75 4H23.25V8.5H0.75V4Z" fill="#A6B1C9"/>
<path d="M3 6.625C3.20711 6.625 3.375 6.45711 3.375 6.25C3.375 6.04289 3.20711 5.875 3 5.875C2.79289 5.875 2.625 6.04289 2.625 6.25C2.625 6.45711 2.79289 6.625 3 6.625Z" fill="#F27E7C"/>
<path d="M5.625 6.625C5.83211 6.625 6 6.45711 6 6.25C6 6.04289 5.83211 5.875 5.625 5.875C5.41789 5.875 5.25 6.04289 5.25 6.25C5.25 6.45711 5.41789 6.625 5.625 6.625Z" fill="#F27E7C"/>
<path d="M8.25 6.625C8.45711 6.625 8.625 6.45711 8.625 6.25C8.625 6.04289 8.45711 5.875 8.25 5.875C8.04289 5.875 7.875 6.04289 7.875 6.25C7.875 6.45711 8.04289 6.625 8.25 6.625Z" fill="#F27E7C"/>
<path opacity="0.15" d="M0.75 8.5H2.25V22H0.75V8.5ZM0.75 4H2.25V8.5H0.75V4Z" fill="#000064"/>
<path d="M5.25 18.25H6.75M0.75 4H23.25V8.5H0.75V4ZM0.75 8.5V22H23.25V8.5H0.75ZM9.75 12.25H18.75H9.75ZM5.25 12.25H6.75H5.25ZM9.75 15.25H18.75H9.75ZM5.25 15.25H6.75H5.25ZM9.75 18.25H18.75H9.75Z" stroke="#2E4369" stroke-linecap="round" stroke-linejoin="round"/>
<path d="M3 6.625C3.20711 6.625 3.375 6.45711 3.375 6.25C3.375 6.04289 3.20711 5.875 3 5.875C2.79289 5.875 2.625 6.04289 2.625 6.25C2.625 6.45711 2.79289 6.625 3 6.625Z" stroke="#2E4369" stroke-linecap="round" stroke-linejoin="round"/>
<path d="M5.625 6.625C5.83211 6.625 6 6.45711 6 6.25C6 6.04289 5.83211 5.875 5.625 5.875C5.41789 5.875 5.25 6.04289 5.25 6.25C5.25 6.45711 5.41789 6.625 5.625 6.625Z" stroke="#2E4369" stroke-linecap="round" stroke-linejoin="round"/>
<path d="M8.25 6.625C8.45711 6.625 8.625 6.45711 8.625 6.25C8.625 6.04289 8.45711 5.875 8.25 5.875C8.04289 5.875 7.875 6.04289 7.875 6.25C7.875 6.45711 8.04289 6.625 8.25 6.625Z" stroke="#2E4369" stroke-linecap="round" stroke-linejoin="round"/>
</g>
<defs>
<clipPath id="clip0">
<rect width="16" height="16" fill="white" transform="translate(0 1)"/>
</clipPath>
</defs>
</svg>
