<svg width="32" height="35" viewBox="0 0 32 35" fill="none" xmlns="http://www.w3.org/2000/svg">
<path d="M30.1537 0.65918H1.846C1.16627 0.65918 0.615234 1.24953 0.615234 1.97776V32.3052C0.615234 33.0334 1.16627 33.6237 1.846 33.6237H30.1537C30.8334 33.6237 31.3845 33.0334 31.3845 32.3052V1.97776C31.3845 1.24953 30.8334 0.65918 30.1537 0.65918Z" fill="#CCD3EB"/>
<path d="M29.5383 0.65918V18.46C29.5286 21.9539 28.2287 25.3017 25.9227 27.7723C23.6167 30.2429 20.4918 31.6354 17.2306 31.6459H4.30754C3.32828 31.6459 2.38913 31.2291 1.69669 30.4873C1.00424 29.7454 0.615234 28.7392 0.615234 27.6901V1.97776C0.615234 1.62805 0.744904 1.29267 0.975718 1.04538C1.20653 0.798101 1.51958 0.65918 1.846 0.65918H29.5383Z" fill="#F5F7FF"/>
<path d="M6.76946 29.0086C6.76911 29.1303 6.73731 29.2496 6.67757 29.3532C6.61783 29.4568 6.53248 29.5406 6.431 29.5954L3.96946 30.9139C3.88372 30.961 3.78887 30.9858 3.69253 30.9865C3.57732 30.9869 3.46431 30.9526 3.36638 30.8876C3.2777 30.8282 3.2046 30.7456 3.15399 30.6475C3.10339 30.5495 3.07694 30.4392 3.07715 30.3272V27.69C3.07747 27.5776 3.1046 27.4672 3.15596 27.3692C3.20732 27.2712 3.28121 27.1889 3.37062 27.1301C3.46002 27.0713 3.56197 27.038 3.66678 27.0333C3.77159 27.0286 3.87578 27.0527 3.96946 27.1032L6.431 28.4218C6.53248 28.4766 6.61783 28.5604 6.67757 28.664C6.73731 28.7676 6.76911 28.8868 6.76946 29.0086Z" fill="#647499"/>
<path d="M20.3075 28.3496V29.6682H9.23062C9.06741 29.6682 8.91088 29.5987 8.79548 29.4751C8.68007 29.3515 8.61523 29.1838 8.61523 29.0089C8.61523 28.834 8.68007 28.6664 8.79548 28.5427C8.91088 28.4191 9.06741 28.3496 9.23062 28.3496H20.3075ZM28.9229 29.0089C28.9229 29.1838 28.8581 29.3515 28.7427 29.4751C28.6273 29.5987 28.4708 29.6682 28.3075 29.6682H21.5383V28.3496H28.3075C28.4708 28.3496 28.6273 28.4191 28.7427 28.5427C28.8581 28.6664 28.9229 28.834 28.9229 29.0089Z" fill="#96A1C3"/>
<path d="M21.5384 28.3497V29.6683C21.5384 29.8432 21.4736 30.0109 21.3581 30.1345C21.2427 30.2581 21.0862 30.3276 20.923 30.3276C20.7598 30.3276 20.6033 30.2581 20.4879 30.1345C20.3725 30.0109 20.3076 29.8432 20.3076 29.6683V28.3497C20.3076 28.1749 20.3725 28.0072 20.4879 27.8835C20.6033 27.7599 20.7598 27.6904 20.923 27.6904C21.0862 27.6904 21.2427 27.7599 21.3581 27.8835C21.4736 28.0072 21.5384 28.1749 21.5384 28.3497Z" fill="#647499"/>
<path d="M21.5383 15.5591V20.4378L15.9999 22.4157L10.4614 20.4378V15.5591L15.9999 17.1414L21.5383 15.5591Z" fill="#96A1C3"/>
<path d="M21.5383 15.5591V20.4378L15.9999 22.4157L10.4614 20.4378V15.5591L15.9999 17.1414L20.3076 15.9085L21.5383 15.5591Z" fill="#CCD3EB"/>
<path d="M21.5383 15.5591V17.8007L15.9999 19.7785L10.4614 17.8007V15.5591L15.9999 17.1414L20.3076 15.9085L21.5383 15.5591Z" fill="#96A1C3"/>
<path d="M1.846 0.65918H30.1537C30.4801 0.65918 30.7932 0.798101 31.024 1.04538C31.2548 1.29267 31.3845 1.62805 31.3845 1.97776V5.93351H0.615234V1.97776C0.615234 1.62805 0.744904 1.29267 0.975718 1.04538C1.20653 0.798101 1.51958 0.65918 1.846 0.65918Z" fill="#0074FF"/>
<path d="M24.0002 21.7568C23.8369 21.7568 23.6804 21.6874 23.565 21.5637C23.4496 21.4401 23.3848 21.2724 23.3848 21.0975V13.8453C23.3848 13.6705 23.4496 13.5028 23.565 13.3791C23.6804 13.2555 23.8369 13.186 24.0002 13.186C24.1634 13.186 24.3199 13.2555 24.4353 13.3791C24.5507 13.5028 24.6155 13.6705 24.6155 13.8453V21.0975C24.6155 21.2724 24.5507 21.4401 24.4353 21.5637C24.3199 21.6874 24.1634 21.7568 24.0002 21.7568Z" fill="#FE9661"/>
<path d="M25.231 13.8452C25.2316 14.028 25.1758 14.206 25.0723 14.3514C24.9688 14.4968 24.8234 14.6016 24.6587 14.6495L21.5387 15.5593L16.0002 17.1416L10.4618 15.5593L7.34178 14.6693C7.17347 14.6207 7.02535 14.5128 6.92131 14.363C6.81728 14.2131 6.7634 14.0301 6.76838 13.8434C6.77336 13.6568 6.8369 13.4773 6.94875 13.3341C7.0606 13.1909 7.21424 13.0922 7.38486 13.054L16.0002 11.208L24.6156 13.054C24.7868 13.0914 24.941 13.1901 25.0529 13.3339C25.1647 13.4777 25.2275 13.658 25.231 13.8452Z" fill="#CCD3EB"/>
<path d="M3.07681 3.95579C3.41668 3.95579 3.6922 3.66061 3.6922 3.2965C3.6922 2.93238 3.41668 2.63721 3.07681 2.63721C2.73694 2.63721 2.46143 2.93238 2.46143 3.2965C2.46143 3.66061 2.73694 3.95579 3.07681 3.95579Z" fill="#F5F7FF"/>
<path d="M5.53824 3.95579C5.8781 3.95579 6.15362 3.66061 6.15362 3.2965C6.15362 2.93238 5.8781 2.63721 5.53824 2.63721C5.19837 2.63721 4.92285 2.93238 4.92285 3.2965C4.92285 3.66061 5.19837 3.95579 5.53824 3.95579Z" fill="#F5F7FF"/>
<path d="M8.00015 3.95579C8.34002 3.95579 8.61554 3.66061 8.61554 3.2965C8.61554 2.93238 8.34002 2.63721 8.00015 2.63721C7.66028 2.63721 7.38477 2.93238 7.38477 3.2965C7.38477 3.66061 7.66028 3.95579 8.00015 3.95579Z" fill="#F5F7FF"/>
<path d="M0.615385 21.0975C0.778595 21.0975 0.93512 21.028 1.05053 20.9044C1.16593 20.7808 1.23077 20.6131 1.23077 20.4382V19.7789C1.23077 19.6041 1.16593 19.4364 1.05053 19.3127C0.93512 19.1891 0.778595 19.1196 0.615385 19.1196C0.452174 19.1196 0.295649 19.1891 0.180242 19.3127C0.0648351 19.4364 0 19.6041 0 19.7789V20.4382C0 20.6131 0.0648351 20.7808 0.180242 20.9044C0.295649 21.028 0.452174 21.0975 0.615385 21.0975Z" fill="#033C59"/>
<path d="M30.1538 0H1.84615C1.35652 0 0.886947 0.208383 0.540726 0.579306C0.194505 0.950229 0 1.45331 0 1.97787V17.1416C0 17.3164 0.0648351 17.4841 0.180242 17.6078C0.295649 17.7314 0.452174 17.8009 0.615385 17.8009C0.778595 17.8009 0.93512 17.7314 1.05053 17.6078C1.16593 17.4841 1.23077 17.3164 1.23077 17.1416V6.59291H30.7692V32.3053C30.7692 32.4801 30.7044 32.6478 30.589 32.7715C30.4736 32.8951 30.3171 32.9646 30.1538 32.9646H1.84615C1.68294 32.9646 1.52642 32.8951 1.41101 32.7715C1.2956 32.6478 1.23077 32.4801 1.23077 32.3053V23.0752C1.23077 22.9003 1.16593 22.7326 1.05053 22.609C0.93512 22.4854 0.778595 22.4159 0.615385 22.4159C0.452174 22.4159 0.295649 22.4854 0.180242 22.609C0.0648351 22.7326 0 22.9003 0 23.0752V32.3053C0 32.8298 0.194505 33.3329 0.540726 33.7038C0.886947 34.0748 1.35652 34.2831 1.84615 34.2831H30.1538C30.6435 34.2831 31.1131 34.0748 31.4593 33.7038C31.8055 33.3329 32 32.8298 32 32.3053V1.97787C32 1.45331 31.8055 0.950229 31.4593 0.579306C31.1131 0.208383 30.6435 0 30.1538 0ZM30.7692 5.27433H1.23077V1.97787C1.23077 1.80302 1.2956 1.63533 1.41101 1.51168C1.52642 1.38804 1.68294 1.31858 1.84615 1.31858H30.1538C30.3171 1.31858 30.4736 1.38804 30.589 1.51168C30.7044 1.63533 30.7692 1.80302 30.7692 1.97787V5.27433Z" fill="#033C59"/>
<path d="M24.7324 12.4077L16.1232 10.5485C16.0422 10.5287 15.9581 10.5287 15.877 10.5485L7.26166 12.3945C6.95371 12.4604 6.67562 12.6359 6.47264 12.8926C6.26967 13.1493 6.15376 13.4721 6.14377 13.8083C6.13378 14.1446 6.23031 14.4746 6.41764 14.7446C6.60497 15.0146 6.87209 15.2087 7.17551 15.2954L9.84628 16.0668V20.4379C9.83927 20.5817 9.87639 20.7239 9.95195 20.843C10.0275 20.962 10.1374 21.0513 10.2647 21.0972L15.8032 23.0751C15.9309 23.1213 16.0693 23.1213 16.197 23.0751L21.7355 21.0972C21.8629 21.0513 21.9727 20.962 22.0483 20.843C22.1239 20.7239 22.161 20.5817 22.154 20.4379V16.0668L23.3847 15.7174V22.4158C23.3847 22.5906 23.4496 22.7583 23.565 22.882C23.6804 23.0056 23.8369 23.0751 24.0001 23.0751C24.1633 23.0751 24.3199 23.0056 24.4353 22.882C24.5507 22.7583 24.6155 22.5906 24.6155 22.4158V15.3614L24.8186 15.302C25.119 15.2129 25.3828 15.0182 25.5675 14.7491C25.7523 14.4801 25.8473 14.1524 25.8374 13.8186C25.8275 13.4848 25.7131 13.1642 25.5127 12.9084C25.3124 12.6525 25.0376 12.4762 24.7324 12.4077ZM20.9232 19.9632L16.0001 21.7565L11.077 19.9962V16.4162L15.8401 17.8007C15.9454 17.8271 16.0549 17.8271 16.1601 17.8007L20.9232 16.4162V19.9632ZM24.4986 14.0296L21.3847 14.9196L16.0001 16.4821L10.6217 14.946L7.50782 14.0625C7.46517 14.0501 7.42862 14.0206 7.40571 13.9801C7.3828 13.9396 7.3753 13.8912 7.38474 13.845C7.38546 13.8058 7.39868 13.7681 7.42219 13.7381C7.44571 13.7081 7.47809 13.6877 7.51397 13.6802L16.0001 11.8671L24.4863 13.6868C24.5212 13.694 24.5528 13.7135 24.5762 13.7421C24.5996 13.7708 24.6134 13.807 24.6155 13.845C24.6198 13.8856 24.6104 13.9266 24.5889 13.9605C24.5675 13.9943 24.5354 14.0188 24.4986 14.0296Z" fill="#033C59"/>
</svg>
