<svg width="150" height="120" viewBox="0 0 150 120" fill="none" xmlns="http://www.w3.org/2000/svg">
<path fill-rule="evenodd" clip-rule="evenodd" d="M55.8002 81H105.6C107.92 81 109.8 79.1196 109.8 76.8C109.8 74.4804 107.92 72.6 105.6 72.6C105.6 72.6 102 70.7196 102 68.4C102 66.0804 104.371 64.2 107.296 64.2H113.4C115.72 64.2 117.6 62.3196 117.6 60C117.6 57.6804 115.72 55.8 113.4 55.8H100.2C102.52 55.8 104.4 53.9196 104.4 51.6C104.4 49.2804 102.52 47.4 100.2 47.4H124.2C126.52 47.4 128.4 45.5196 128.4 43.2C128.4 40.8804 126.52 39 124.2 39H65.4002C63.0806 39 61.2002 40.8804 61.2002 43.2C61.2002 45.5196 63.0806 47.4 65.4002 47.4H41.4002C39.0806 47.4 37.2002 49.2804 37.2002 51.6C37.2002 53.9196 39.0806 55.8 41.4002 55.8H56.4002C58.7198 55.8 60.6002 57.6804 60.6002 60C60.6002 62.3196 58.7198 64.2 56.4002 64.2H32.4002C30.0806 64.2 28.2002 66.0804 28.2002 68.4C28.2002 70.7196 30.0806 72.6 32.4002 72.6H55.8002C53.4806 72.6 51.6002 74.4804 51.6002 76.8C51.6002 79.1196 53.4806 81 55.8002 81ZM120 60.0001C120 62.3197 121.881 64.2001 124.2 64.2001C126.52 64.2001 128.4 62.3197 128.4 60.0001C128.4 57.6805 126.52 55.8001 124.2 55.8001C121.881 55.8001 120 57.6805 120 60.0001Z" fill="#EDEDED"/>
<path fill-rule="evenodd" clip-rule="evenodd" d="M92.2026 38.4001L97.7837 79.1057L98.2852 83.1895C98.4467 84.5051 97.5111 85.7026 96.1955 85.8641L61.0594 90.1783C59.7438 90.3398 58.5463 89.4042 58.3848 88.0886L52.9753 44.0321C52.8946 43.3743 53.3624 42.7756 54.0202 42.6948C54.0243 42.6943 54.0285 42.6938 54.0326 42.6934L56.9476 42.3664M59.3049 42.102L62.0571 41.7933L59.3049 42.102Z" fill="white"/>
<path d="M93.441 38.2303C93.3472 37.5463 92.7168 37.0679 92.0328 37.1616C91.3488 37.2554 90.8704 37.8859 90.9642 38.5699L93.441 38.2303ZM97.7837 79.1057L99.0244 78.9534L99.0233 78.9446L99.0221 78.9359L97.7837 79.1057ZM98.2852 83.1895L99.5258 83.0372L98.2852 83.1895ZM96.1955 85.8641L96.3479 87.1048L96.1955 85.8641ZM61.0594 90.1783L61.2117 91.4189L61.0594 90.1783ZM58.3848 88.0886L59.6255 87.9363L58.3848 88.0886ZM52.9753 44.0321L51.7347 44.1845L52.9753 44.0321ZM54.0326 42.6934L54.172 43.9356L54.0326 42.6934ZM57.087 43.6086C57.773 43.5316 58.2668 42.9131 58.1899 42.227C58.1129 41.541 57.4944 41.0472 56.8083 41.1242L57.087 43.6086ZM59.1656 40.8598C58.4795 40.9368 57.9857 41.5553 58.0627 42.2414C58.1397 42.9274 58.7582 43.4212 59.4443 43.3442L59.1656 40.8598ZM62.1965 43.0355C62.8825 42.9586 63.3763 42.34 63.2994 41.654C63.2224 40.9679 62.6039 40.4741 61.9178 40.5511L62.1965 43.0355ZM90.9642 38.5699L96.5453 79.2755L99.0221 78.9359L93.441 38.2303L90.9642 38.5699ZM96.543 79.258L97.0445 83.3418L99.5258 83.0372L99.0244 78.9534L96.543 79.258ZM97.0445 83.3418C97.1219 83.9722 96.6736 84.546 96.0432 84.6234L96.3479 87.1048C98.3487 86.8591 99.7715 85.038 99.5258 83.0372L97.0445 83.3418ZM96.0432 84.6234L60.9071 88.9376L61.2117 91.4189L96.3479 87.1048L96.0432 84.6234ZM60.9071 88.9376C60.2767 89.015 59.7029 88.5667 59.6255 87.9363L57.1441 88.241C57.3898 90.2418 59.2109 91.6646 61.2117 91.4189L60.9071 88.9376ZM59.6255 87.9363L54.216 43.8798L51.7347 44.1845L57.1441 88.241L59.6255 87.9363ZM54.216 43.8798C54.2194 43.9072 54.1999 43.9321 54.1725 43.9355L53.8678 41.4541C52.5248 41.619 51.5698 42.8414 51.7347 44.1845L54.216 43.8798ZM54.1725 43.9355L54.172 43.9356L53.8933 41.4511C53.8848 41.4521 53.8763 41.4531 53.8678 41.4541L54.1725 43.9355ZM54.172 43.9356L57.087 43.6086L56.8083 41.1242L53.8933 41.4511L54.172 43.9356ZM59.4443 43.3442L62.1965 43.0355L61.9178 40.5511L59.1656 40.8598L59.4443 43.3442Z" fill="#A2A2A2"/>
<path fill-rule="evenodd" clip-rule="evenodd" d="M90.6836 40.9614L95.7354 77.8516L96.1898 81.5525C96.3362 82.7448 95.4998 83.8286 94.3216 83.9732L62.8564 87.8367C61.6783 87.9813 60.6045 87.1321 60.4581 85.9398L55.6656 46.9079C55.531 45.8116 56.3106 44.8137 57.407 44.6791L60.5055 44.2987" fill="#E7E9F1"/>
<path d="M65.2529 34C65.2529 32.4812 66.4841 31.25 68.0029 31.25H93.0745C93.8036 31.25 94.5028 31.5395 95.0185 32.0549L102.147 39.1788C102.663 39.6946 102.953 40.3943 102.953 41.124V76.4C102.953 77.9188 101.722 79.15 100.203 79.15H68.0029C66.4841 79.15 65.2529 77.9188 65.2529 76.4V34Z" fill="white" stroke="#A2A2A2" stroke-width="2.5"/>
<path d="M94.0029 31.4418V38.4001C94.0029 39.3942 94.8088 40.2001 95.8029 40.2001H100.563" stroke="#A2A2A2" stroke-width="2.5" stroke-linecap="round" stroke-linejoin="round"/>
<path d="M71.2031 37.7001C69.8224 37.7001 68.7031 38.8194 68.7031 40.2001H71.2031V37.7001ZM86.8031 37.7001H71.2031V40.2001H86.8031V37.7001ZM89.3031 40.2001C89.3031 38.8194 88.1838 37.7001 86.8031 37.7001V40.2001H89.3031ZM86.8031 42.7001C88.1838 42.7001 89.3031 41.5808 89.3031 40.2001H86.8031V42.7001ZM71.2031 42.7001H86.8031V40.2001H71.2031V42.7001ZM68.7031 40.2001C68.7031 41.5808 69.8224 42.7001 71.2031 42.7001V40.2001H68.7031ZM71.2031 44.9C69.8224 44.9 68.7031 46.0192 68.7031 47.4H71.2031V44.9ZM97.0031 44.9H71.2031V47.4H97.0031V44.9ZM99.5031 47.4C99.5031 46.0192 98.3839 44.9 97.0031 44.9V47.4H99.5031ZM97.0031 49.9C98.3839 49.9 99.5031 48.7807 99.5031 47.4H97.0031V49.9ZM71.2031 49.9H97.0031V47.4H71.2031V49.9ZM68.7031 47.4C68.7031 48.7807 69.8224 49.9 71.2031 49.9V47.4H68.7031ZM71.2031 55.2001V52.7001C69.8224 52.7001 68.7031 53.8194 68.7031 55.2001H71.2031ZM71.2031 55.2001H68.7031C68.7031 56.5808 69.8224 57.7001 71.2031 57.7001V55.2001ZM97.0031 55.2001H71.2031V57.7001H97.0031V55.2001ZM97.0031 55.2001V57.7001C98.3839 57.7001 99.5031 56.5808 99.5031 55.2001H97.0031ZM97.0031 55.2001H99.5031C99.5031 53.8194 98.3839 52.7001 97.0031 52.7001V55.2001ZM71.2031 55.2001H97.0031V52.7001H71.2031V55.2001ZM71.2031 60.5C69.8224 60.5 68.7031 61.6193 68.7031 63H71.2031V60.5ZM97.0031 60.5H71.2031V63H97.0031V60.5ZM99.5031 63C99.5031 61.6193 98.3839 60.5 97.0031 60.5V63H99.5031ZM97.0031 65.5C98.3839 65.5 99.5031 64.3807 99.5031 63H97.0031V65.5ZM71.2031 65.5H97.0031V63H71.2031V65.5ZM68.7031 63C68.7031 64.3807 69.8224 65.5 71.2031 65.5V63H68.7031ZM71.2031 70.7999V68.2999C69.8224 68.2999 68.7031 69.4192 68.7031 70.7999H71.2031ZM71.2031 70.7999H68.7031C68.7031 72.1806 69.8224 73.2999 71.2031 73.2999V70.7999ZM86.8031 70.7999H71.2031V73.2999H86.8031V70.7999ZM86.8031 70.7999V73.2999C88.1838 73.2999 89.3031 72.1806 89.3031 70.7999H86.8031ZM86.8031 70.7999H89.3031C89.3031 69.4192 88.1838 68.2999 86.8031 68.2999V70.7999ZM71.2031 70.7999H86.8031V68.2999H71.2031V70.7999Z" fill="white"/>
</svg>
