<svg width="32" height="32" viewBox="0 0 32 32" fill="none" xmlns="http://www.w3.org/2000/svg">
<path d="M1 8H31V30H1V8Z" fill="white"/>
<path d="M1 2H31V8H1V2Z" fill="#A6B1C9"/>
<path d="M4 5.5C4.27614 5.5 4.5 5.27614 4.5 5C4.5 4.72386 4.27614 4.5 4 4.5C3.72386 4.5 3.5 4.72386 3.5 5C3.5 5.27614 3.72386 5.5 4 5.5Z" fill="#F27E7C"/>
<path d="M7.5 5.5C7.77614 5.5 8 5.27614 8 5C8 4.72386 7.77614 4.5 7.5 4.5C7.22386 4.5 7 4.72386 7 5C7 5.27614 7.22386 5.5 7.5 5.5Z" fill="#F27E7C"/>
<path d="M11 5.5C11.2761 5.5 11.5 5.27614 11.5 5C11.5 4.72386 11.2761 4.5 11 4.5C10.7239 4.5 10.5 4.72386 10.5 5C10.5 5.27614 10.7239 5.5 11 5.5Z" fill="#F27E7C"/>
<path opacity="0.15" d="M1 8H3V30H1V8ZM1 2H3V8H1V2Z" fill="#000064"/>
<path d="M11 12H21C21 12 18 19 16 19C14 19 11 12 11 12ZM16 19C15.1 19 14 20.45 13.05 22H18.95C18 20.45 16.9 19 16 19Z" fill="#C3D6F9"/>
<path d="M21 26C20.3963 24.6273 19.7118 23.2917 18.95 22H13.05C12.2882 23.2917 11.6037 24.6273 11 26H21Z" fill="#44AB96"/>
<path d="M1 8V30H31V8M1 2H31V8H1V2Z" stroke="#2E4369" stroke-linecap="round" stroke-linejoin="round"/>
<path d="M13.05 22H18.95M11 12H21C21 12 18 19 16 19C14 19 11 12 11 12ZM11 26H21C21 26 18 19 16 19C14 19 11 26 11 26Z" stroke="#2E4369" stroke-linecap="round" stroke-linejoin="round"/>
<path d="M4 5.5C4.27614 5.5 4.5 5.27614 4.5 5C4.5 4.72386 4.27614 4.5 4 4.5C3.72386 4.5 3.5 4.72386 3.5 5C3.5 5.27614 3.72386 5.5 4 5.5Z" stroke="#2E4369" stroke-linecap="round" stroke-linejoin="round"/>
<path d="M7.5 5.5C7.77614 5.5 8 5.27614 8 5C8 4.72386 7.77614 4.5 7.5 4.5C7.22386 4.5 7 4.72386 7 5C7 5.27614 7.22386 5.5 7.5 5.5Z" stroke="#2E4369" stroke-linecap="round" stroke-linejoin="round"/>
<path d="M11 5.5C11.2761 5.5 11.5 5.27614 11.5 5C11.5 4.72386 11.2761 4.5 11 4.5C10.7239 4.5 10.5 4.72386 10.5 5C10.5 5.27614 10.7239 5.5 11 5.5Z" stroke="#2E4369" stroke-linecap="round" stroke-linejoin="round"/>
</svg>
