<svg width="32" height="32" viewBox="0 0 32 32" fill="none" xmlns="http://www.w3.org/2000/svg">
<path d="M23 29C27.4183 29 31 25.4183 31 21C31 16.5817 27.4183 13 23 13C18.5817 13 15 16.5817 15 21C15 25.4183 18.5817 29 23 29Z" fill="#78D1F4"/>
<path d="M23 29C27.4183 29 31 25.4183 31 21C31 16.5817 27.4183 13 23 13C18.5817 13 15 16.5817 15 21C15 25.4183 18.5817 29 23 29Z" fill="#78D1F4"/>
<path d="M1 3H27V9H1V3Z" fill="#A6B1C9"/>
<path d="M23 13C24.3857 12.9998 25.7473 13.3617 26.95 14.05H27V9H1V25H16.05C15.3469 23.7822 14.9772 22.4007 14.9782 20.9945C14.9791 19.5884 15.3507 18.2073 16.0554 16.9905C16.7602 15.7737 17.7732 14.7642 18.9924 14.0636C20.2115 13.363 21.5939 12.9962 23 13Z" fill="white"/>
<path opacity="0.15" d="M16.0502 24.9499C15.0566 23.2103 14.7519 21.1611 15.1963 19.2077C15.6407 17.2542 16.8019 15.5385 18.4502 14.3999C17.4155 14.7491 16.4632 15.3065 15.652 16.0376C14.8409 16.7688 14.188 17.6583 13.7336 18.6514C13.2792 19.6444 13.033 20.72 13.0101 21.8118C12.9871 22.9037 13.188 23.9886 13.6002 24.9999H16.0502V24.9499Z" fill="#000064"/>
<path d="M4 6.5C4.27614 6.5 4.5 6.27614 4.5 6C4.5 5.72386 4.27614 5.5 4 5.5C3.72386 5.5 3.5 5.72386 3.5 6C3.5 6.27614 3.72386 6.5 4 6.5Z" fill="#F27E7C"/>
<path d="M7.5 6.5C7.77614 6.5 8 6.27614 8 6C8 5.72386 7.77614 5.5 7.5 5.5C7.22386 5.5 7 5.72386 7 6C7 6.27614 7.22386 6.5 7.5 6.5Z" fill="#F27E7C"/>
<path d="M11 6.5C11.2761 6.5 11.5 6.27614 11.5 6C11.5 5.72386 11.2761 5.5 11 5.5C10.7239 5.5 10.5 5.72386 10.5 6C10.5 6.27614 10.7239 6.5 11 6.5Z" fill="#F27E7C"/>
<path opacity="0.15" d="M1 9H3V25H1V9ZM1 3H3V9H1V3Z" fill="#000064"/>
<path d="M23 29C27.4183 29 31 25.4183 31 21C31 16.5817 27.4183 13 23 13C18.5817 13 15 16.5817 15 21C15 25.4183 18.5817 29 23 29Z" stroke="#2E4369" stroke-linecap="round" stroke-linejoin="round"/>
<path d="M23 17V22H27" stroke="#2E4369" stroke-linecap="round" stroke-linejoin="round"/>
<path d="M4 6.5C4.27614 6.5 4.5 6.27614 4.5 6C4.5 5.72386 4.27614 5.5 4 5.5C3.72386 5.5 3.5 5.72386 3.5 6C3.5 6.27614 3.72386 6.5 4 6.5Z" stroke="#2E4369" stroke-linecap="round" stroke-linejoin="round"/>
<path d="M7.5 6.5C7.77614 6.5 8 6.27614 8 6C8 5.72386 7.77614 5.5 7.5 5.5C7.22386 5.5 7 5.72386 7 6C7 6.27614 7.22386 6.5 7.5 6.5Z" stroke="#2E4369" stroke-linecap="round" stroke-linejoin="round"/>
<path d="M11 6.5C11.2761 6.5 11.5 6.27614 11.5 6C11.5 5.72386 11.2761 5.5 11 5.5C10.7239 5.5 10.5 5.72386 10.5 6C10.5 6.27614 10.7239 6.5 11 6.5Z" stroke="#2E4369" stroke-linecap="round" stroke-linejoin="round"/>
<path d="M1 9V25H16M1 3H27V9H1V3ZM27 14V9V14Z" stroke="#2E4369" stroke-linecap="round" stroke-linejoin="round"/>
</svg>
