<svg width="93" height="83" viewBox="0 0 93 83" fill="none" xmlns="http://www.w3.org/2000/svg">
<path d="M1.87474 82.4388C2.20144 82.5239 2.54853 82.4768 2.84078 82.3078C3.13302 82.1387 3.34687 81.8613 3.43597 81.5357C6.06352 71.7321 16.7421 69.1913 23.1247 67.6709C24.7242 67.2908 25.987 66.9898 26.8084 66.6352C34.0788 63.4796 36.4487 58.403 37.1579 54.699C37.2001 54.4786 37.1834 54.251 37.1095 54.0391C37.0356 53.8273 36.9071 53.6387 36.737 53.4923C32.9513 50.2245 29.7574 45.3189 27.7421 39.676C27.6852 39.5142 27.5958 39.3657 27.4793 39.2398C24.8135 36.3418 23.2829 33.278 23.2829 30.8367C23.2829 29.4107 23.8212 28.4541 25.0329 27.7321C25.2144 27.6236 25.3661 27.4717 25.4743 27.29C25.5825 27.1083 25.6439 26.9026 25.6528 26.6913C26.2166 13.6964 35.4717 3.46681 46.8237 3.40048L47.0967 3.41834C58.5048 3.5765 67.7013 14.0255 68.0304 27.2041C68.035 27.3842 68.0778 27.5613 68.1561 27.7236C68.2344 27.8859 68.3463 28.0297 68.4844 28.1454C69.2829 28.8214 69.6554 29.6785 69.6554 30.8418C69.6554 32.8852 68.5661 35.3979 66.5916 37.9132C66.4975 38.0343 66.425 38.1706 66.3773 38.3163C64.3365 44.7857 60.6732 50.4974 56.3314 53.9923C56.1515 54.1376 56.0143 54.3288 55.9344 54.5458C55.8544 54.7627 55.8347 54.9972 55.8773 55.2245C56.5865 58.926 58.9564 64 66.2268 67.1607C67.0865 67.5331 68.4207 67.824 70.112 68.1888C76.4309 69.5561 87.0048 71.8495 89.5992 81.5357C89.6428 81.6975 89.7178 81.8491 89.8199 81.982C89.9221 82.1148 90.0494 82.2262 90.1946 82.3098C90.3398 82.3934 90.5001 82.4476 90.6662 82.4693C90.8324 82.491 91.0012 82.4798 91.163 82.4362C91.3248 82.3927 91.4765 82.3177 91.6093 82.2155C91.7421 82.1133 91.8535 81.986 91.9371 81.8408C92.0207 81.6956 92.0749 81.5354 92.0966 81.3692C92.1183 81.203 92.1071 81.0342 92.0635 80.8724C89.0661 69.6811 77.0865 67.0867 70.6528 65.6939C69.1605 65.3699 67.8722 65.0918 67.2446 64.8163C62.4997 62.7551 59.5763 59.6148 58.5431 55.4668C62.9487 51.6837 66.6349 45.8469 68.7421 39.301C70.9793 36.3928 72.2089 33.3979 72.2089 30.8393C72.2089 29.1326 71.6579 27.7092 70.5661 26.5969C69.9589 12.301 59.7574 1.04334 47.0967 0.862219L46.7166 0.857117C34.2855 0.923443 24.0406 11.8852 23.1451 25.9336C21.5482 27.1071 20.737 28.7525 20.737 30.8418C20.737 33.8597 22.4436 37.4694 25.4309 40.7806C27.4946 46.4515 30.6936 51.4336 34.5023 54.9209C33.4742 59.0842 30.5482 62.2347 25.7931 64.2984C25.1783 64.5663 23.9538 64.8597 22.5355 65.1964C16.0533 66.7372 3.99209 69.6071 0.97168 80.8775C0.884451 81.2043 0.930585 81.5524 1.09993 81.8451C1.26928 82.1379 1.54798 82.3514 1.87474 82.4388Z" fill="#828282"/>
</svg>
