<svg width="42" height="40" viewBox="0 0 42 40" fill="none" xmlns="http://www.w3.org/2000/svg">
<path d="M35.2408 5H28.257C28.6422 5.55234 28.8435 6.20704 28.8336 6.875V8.75H31.3965V33.75H10.8934V8.75H13.4563V6.875C13.4464 6.20704 13.6477 5.55234 14.0329 5H7.04902C6.70916 5 6.38322 5.1317 6.14291 5.36612C5.90259 5.60054 5.76758 5.91848 5.76758 6.25V37.5C5.76758 37.8315 5.90259 38.1495 6.14291 38.3839C6.38322 38.6183 6.70916 38.75 7.04902 38.75H35.2408C35.5807 38.75 35.9067 38.6183 36.147 38.3839C36.3873 38.1495 36.5223 37.8315 36.5223 37.5V6.25C36.5223 5.91848 36.3873 5.60054 36.147 5.36612C35.9067 5.1317 35.5807 5 35.2408 5Z" fill="#DDA991"/>
<path d="M25.6295 3.75008H24.284C24.137 3.04365 23.7441 2.40853 23.1719 1.95234C22.5997 1.49616 21.8835 1.24695 21.1445 1.24695C20.4055 1.24695 19.6892 1.49616 19.1171 1.95234C18.5449 2.40853 18.152 3.04365 18.0049 3.75008H16.6594C16.2314 3.72246 15.8022 3.78436 15.4007 3.93164C14.9992 4.07891 14.6346 4.30817 14.3312 4.60405C14.0279 4.89993 13.7929 5.25561 13.6419 5.64728C13.4909 6.03894 13.4275 6.45755 13.4558 6.87508V8.75008H28.8331V6.87508C28.8513 6.45998 28.7808 6.04573 28.6262 5.65858C28.4717 5.27143 28.2363 4.91983 27.9352 4.62604C27.634 4.33225 27.2735 4.10269 26.8766 3.95191C26.4797 3.80112 26.0551 3.73239 25.6295 3.75008Z" fill="#C3D1FF"/>
<path d="M10.8931 8.75H31.3962V33.75H10.8931V8.75Z" fill="#EBF5FF"/>
<path opacity="0.15" d="M8.97119 35.625H29.4743V33.75H10.8934V10.625H8.97119V35.625ZM10.8934 8.75V10.625H26.2707V8.75H13.4563V6.875C13.4496 6.47131 13.5147 6.06956 13.6485 5.6875C12.8724 5.75135 12.1518 6.10603 11.6381 6.67706C11.1244 7.2481 10.8575 7.99107 10.8934 8.75Z" fill="#000064"/>
<path d="M16.0189 27.5H26.2704M13.456 8.75H10.8931V33.75H31.3962V8.75H28.8333H13.456ZM16.0189 15H26.2704H16.0189ZM16.0189 21.25H26.2704H16.0189Z" stroke="#2E4369" stroke-miterlimit="10" stroke-linecap="round" stroke-linejoin="round"/>
<path d="M28.257 5H35.2408C35.5807 5 35.9067 5.1317 36.147 5.36612C36.3873 5.60054 36.5223 5.91848 36.5223 6.25V37.5C36.5223 37.8315 36.3873 38.1495 36.147 38.3839C35.9067 38.6183 35.5807 38.75 35.2408 38.75H7.04902C6.70916 38.75 6.38322 38.6183 6.14291 38.3839C5.90259 38.1495 5.76758 37.8315 5.76758 37.5V6.25C5.76758 5.91848 5.90259 5.60054 6.14291 5.36612C6.38322 5.1317 6.70916 5 7.04902 5H14.0329" stroke="#2E4369" stroke-miterlimit="10" stroke-linecap="round" stroke-linejoin="round"/>
<path d="M25.6295 3.75008H24.284C24.137 3.04365 23.7441 2.40853 23.1719 1.95234C22.5997 1.49616 21.8835 1.24695 21.1445 1.24695C20.4055 1.24695 19.6892 1.49616 19.1171 1.95234C18.5449 2.40853 18.152 3.04365 18.0049 3.75008H16.6594C16.2314 3.72246 15.8022 3.78436 15.4007 3.93164C14.9992 4.07891 14.6346 4.30817 14.3312 4.60405C14.0279 4.89993 13.7929 5.25561 13.6419 5.64728C13.4909 6.03894 13.4275 6.45755 13.4558 6.87508V8.75008H28.8331V6.87508C28.8513 6.45998 28.7808 6.04573 28.6262 5.65858C28.4717 5.27143 28.2363 4.91983 27.9352 4.62604C27.634 4.33225 27.2735 4.10269 26.8766 3.95191C26.4797 3.80112 26.0551 3.73239 25.6295 3.75008V3.75008Z" stroke="#2E4369" stroke-miterlimit="10" stroke-linecap="round" stroke-linejoin="round"/>
</svg>
