<svg width="34" height="34" viewBox="0 0 34 34" fill="none" xmlns="http://www.w3.org/2000/svg">
<path d="M19.1333 23.5197H33V10.482C33 9.8533 32.7752 9.25035 32.3752 8.8058C31.9751 8.36124 31.4325 8.1115 30.8667 8.1115H3.13333C2.56754 8.1115 2.02492 8.36124 1.62484 8.8058C1.22476 9.25035 1 9.8533 1 10.482V23.5197H14.8667V21.1492H19.1333V23.5197Z" fill="#D6958A"/>
<path opacity="0.2" d="M30.8667 8.1115H3.13333C2.56754 8.1115 2.02492 8.36124 1.62484 8.8058C1.22476 9.25035 1 9.8533 1 10.482V12.2599C1 11.6312 1.22476 11.0282 1.62484 10.5837C2.02492 10.1391 2.56754 9.88937 3.13333 9.88937H30.8667C31.4325 9.88937 31.9751 10.1391 32.3752 10.5837C32.7752 11.0282 33 11.6312 33 12.2599V10.482C32.9992 9.85359 32.7741 9.25119 32.3742 8.80684C31.9743 8.36249 31.4322 8.11244 30.8667 8.1115Z" fill="white"/>
<path d="M31.9331 23.5181V33.0001H2.06641V23.5181H14.8653V25.8898H19.1331V23.5181H31.9331Z" fill="#CC7C6E"/>
<path opacity="0.15" d="M2.06641 23.5181H31.9331V27.0738H2.06641V23.5181Z" fill="#000064"/>
<path d="M14.8652 21.1486H19.1319V25.8896H14.8652V21.1486Z" fill="url(#paint0_linear)"/>
<path d="M19.1333 23.5197H33V10.482C33 9.8533 32.7752 9.25035 32.3752 8.8058C31.9751 8.36125 31.4325 8.1115 30.8667 8.1115H3.13333C2.56754 8.1115 2.02492 8.36125 1.62484 8.8058C1.22476 9.25035 1 9.8533 1 10.482V23.5197H14.8667M11.6667 8.1115V5.741C11.6667 4.48361 12.1162 3.27772 12.9163 2.38861C13.7165 1.4995 14.8017 1 15.9333 1H18.0667C19.1983 1 20.2835 1.4995 21.0837 2.38861C21.8838 3.27772 22.3333 4.48361 22.3333 5.741V8.06172L11.6667 8.1115Z" stroke="#2E4369" stroke-linecap="round" stroke-linejoin="round"/>
<path d="M31.9331 23.5181V33.0001H2.06641V23.5181" stroke="#2E4369" stroke-linecap="round" stroke-linejoin="round"/>
<path d="M14.8652 21.1486H19.1319V25.8896H14.8652V21.1486Z" stroke="#2E4369" stroke-linecap="round" stroke-linejoin="round"/>
<defs>
<linearGradient id="paint0_linear" x1="16.9986" y1="21.1486" x2="16.9986" y2="25.8896" gradientUnits="userSpaceOnUse">
<stop stop-color="#D70900"/>
<stop offset="1" stop-color="#BF0B1C"/>
</linearGradient>
</defs>
</svg>
