<svg width="35" height="39" viewBox="0 0 35 39" fill="none" xmlns="http://www.w3.org/2000/svg">
<g clip-path="url(#clip0)">
<path d="M7.94413 21.5729H5.936C5.63391 21.5729 5.38913 21.7911 5.38913 22.0604V24.2054C5.38913 24.4747 5.63391 24.6929 5.936 24.6929H7.94413C8.24622 24.6929 8.49101 24.4747 8.49101 24.2054V22.0604C8.49101 21.7911 8.24622 21.5729 7.94413 21.5729ZM7.39726 23.7179H6.48288V22.5479H7.39726V23.7179Z" fill="black"/>
<path d="M7.94413 17.4261H5.936C5.63391 17.4261 5.38913 17.6444 5.38913 17.9136V20.0586C5.38913 20.3279 5.63391 20.5461 5.936 20.5461H7.94413C8.24622 20.5461 8.49101 20.3279 8.49101 20.0586V17.9136C8.49101 17.6444 8.24622 17.4261 7.94413 17.4261ZM7.39726 19.5711H6.48288V18.4011H7.39726V19.5711Z" fill="black"/>
<path d="M29.0638 21.7162H27.0556C26.7536 21.7162 26.5088 21.9344 26.5088 22.2037V24.3487C26.5088 24.618 26.7536 24.8362 27.0556 24.8362H29.0638C29.3659 24.8362 29.6107 24.618 29.6107 24.3487V22.2037C29.6107 21.9344 29.3659 21.7162 29.0638 21.7162ZM28.5169 23.8612H27.6025V22.6912H28.5169V23.8612Z" fill="black"/>
<path d="M29.0638 17.4261H27.0556C26.7536 17.4261 26.5088 17.6444 26.5088 17.9136V20.0586C26.5088 20.3279 26.7536 20.5461 27.0556 20.5461H29.0638C29.3659 20.5461 29.6107 20.3279 29.6107 20.0586V17.9136C29.6107 17.6444 29.3659 17.4261 29.0638 17.4261ZM28.5169 19.5711H27.6025V18.4011H28.5169V19.5711Z" fill="black"/>
<path d="M20.8685 11.9202H18.8602C18.5581 11.9202 18.3133 12.1384 18.3133 12.4077V14.5527C18.3133 14.822 18.5581 15.0402 18.8602 15.0402H20.8685C21.1706 15.0402 21.4154 14.822 21.4154 14.5527V12.4077C21.4154 12.1384 21.1706 11.9202 20.8685 11.9202ZM20.3217 14.0652H19.4071V12.8952H20.3217V14.0652Z" fill="black"/>
<path d="M16.126 11.9202H14.1179C13.8158 11.9202 13.571 12.1384 13.571 12.4077V14.5527C13.571 14.822 13.8158 15.0402 14.1179 15.0402H16.126C16.4281 15.0402 16.6729 14.822 16.6729 14.5527V12.4077C16.6729 12.1384 16.4281 11.9202 16.126 11.9202ZM15.5792 14.0652H14.6648V12.8952H15.5792V14.0652Z" fill="black"/>
<path d="M16.126 16.2103H14.1179C13.8158 16.2103 13.571 16.4285 13.571 16.6978V18.8428C13.571 19.1121 13.8158 19.3303 14.1179 19.3303H16.126C16.4281 19.3303 16.6729 19.1121 16.6729 18.8428V16.6978C16.6729 16.4285 16.4281 16.2103 16.126 16.2103ZM15.5792 18.3553H14.6648V17.1853H15.5792V18.3553Z" fill="black"/>
<path d="M20.8685 16.2103H18.8602C18.5581 16.2103 18.3133 16.4285 18.3133 16.6978V18.8428C18.3133 19.1121 18.5581 19.3303 18.8602 19.3303H20.8685C21.1706 19.3303 21.4154 19.1121 21.4154 18.8428V16.6978C21.4154 16.4285 21.1706 16.2103 20.8685 16.2103ZM20.3217 18.3553H19.4071V17.1853H20.3217V18.3553Z" fill="black"/>
<path d="M33.3278 20.7497H24.7684V15.6471L25.6986 16.3087C25.8132 16.3901 25.9354 16.4288 26.0563 16.4285C26.3359 16.4285 26.6055 16.2217 26.7439 15.8608C26.9418 15.3435 26.7946 14.7055 26.4154 14.4356L18.0466 8.4828V7.85383H20.2799C20.5856 7.85383 20.8333 7.51611 20.8333 7.09931V5.01594C20.8333 4.59914 20.5856 4.26142 20.2799 4.26142H18.0375C17.9948 3.90257 17.7683 3.62793 17.4929 3.62793C17.1872 3.62793 16.9395 3.96565 16.9395 4.38245V5.01594V7.09931V8.4828L8.57092 14.4356C8.19171 14.7055 8.0445 15.3435 8.24241 15.8608C8.44031 16.3781 8.9085 16.5788 9.2877 16.3087L10.2177 15.6471V20.7497H1.67222C1.24431 20.7497 0.89743 21.2227 0.89743 21.8061C0.89743 22.3895 1.24431 22.8624 1.67222 22.8624H1.86038V37.9437C1.86038 38.5271 2.20726 39 2.63517 39H10.9927H23.9936C23.996 39 23.9982 38.9991 24.0005 38.9991C24.0029 38.9991 24.0051 39 24.0073 39H32.3648C32.7927 39 33.1396 38.5271 33.1396 37.9437V22.8624H33.3278C33.7557 22.8624 34.1026 22.3895 34.1026 21.8061C34.1026 21.2227 33.7557 20.7497 33.3278 20.7497ZM24.7821 36.8874V22.8624H31.59V36.8874H24.7821ZM19.7265 6.3451H18.0466V5.77076H19.7265V6.3451ZM3.40995 22.8624H10.2179V36.8874H3.40995V22.8624ZM20.3554 36.8874H18.0466V30.4076H20.3556V36.8874H20.3554ZM16.9397 36.8874H14.6309V30.4076H16.9397V36.8874ZM21.4623 36.8874V29.6531C21.4623 29.2363 21.2145 28.8985 20.9088 28.8985H14.0774C13.7717 28.8985 13.524 29.2363 13.524 29.6531V36.8874H11.7672V21.8061V14.5449L17.4929 10.472L23.2186 14.5446V36.8874H21.4623Z" fill="black"/>
</g>
<defs>
<clipPath id="clip0">
<rect width="35" height="39" fill="white"/>
</clipPath>
</defs>
</svg>
