<svg width="40" height="40" viewBox="0 0 40 40" fill="none" xmlns="http://www.w3.org/2000/svg">
<path d="M24.6242 17.8667C24.7091 17.8182 24.781 17.7498 24.8338 17.6675C24.8866 17.5852 24.9186 17.4913 24.9273 17.3939L25.1394 15L27.5636 14.7818C27.661 14.7732 27.7549 14.7411 27.8372 14.6884C27.9195 14.6356 27.9879 14.5637 28.0364 14.4788C28.081 14.3926 28.1043 14.297 28.1043 14.2C28.1043 14.103 28.081 14.0074 28.0364 13.9212L27.0242 11.7394L28.9939 10.3515C29.0731 10.2952 29.1376 10.2206 29.1819 10.1341C29.2262 10.0476 29.249 9.95173 29.2485 9.85455C29.249 9.75738 29.2262 9.6615 29.1819 9.57501C29.1376 9.48852 29.0731 9.41395 28.9939 9.35758L27.0242 7.9697L28.0364 5.78789C28.081 5.70173 28.1043 5.60613 28.1043 5.5091C28.1043 5.41207 28.081 5.31646 28.0364 5.23031C27.9879 5.14541 27.9195 5.07351 27.8372 5.02075C27.7549 4.96798 27.661 4.93591 27.5636 4.92728L25.1394 4.71516L24.9273 2.29092C24.9186 2.19352 24.8866 2.09966 24.8338 2.01734C24.781 1.93503 24.7091 1.8667 24.6242 1.81819C24.5381 1.77356 24.4425 1.75026 24.3455 1.75026C24.2484 1.75026 24.1528 1.77356 24.0667 1.81819L21.8849 2.83031L20.497 0.860614C20.4411 0.780596 20.3668 0.715249 20.2803 0.670126C20.1937 0.625003 20.0976 0.60144 20 0.60144C19.9024 0.60144 19.8063 0.625003 19.7198 0.670126C19.6332 0.715249 19.5589 0.780596 19.503 0.860614L18.1152 2.83031L15.9333 1.81819C15.8472 1.77356 15.7516 1.75026 15.6545 1.75026C15.5575 1.75026 15.4619 1.77356 15.3758 1.81819C15.2909 1.8667 15.219 1.93503 15.1662 2.01734C15.1134 2.09966 15.0814 2.19352 15.0727 2.29092L14.8606 4.71516L12.4364 4.92728C12.339 4.93591 12.2451 4.96798 12.1628 5.02075C12.0805 5.07351 12.0121 5.14541 11.9636 5.23031C11.919 5.31646 11.8957 5.41207 11.8957 5.5091C11.8957 5.60613 11.919 5.70173 11.9636 5.78789L12.9758 7.9697L11.0061 9.35758C10.9269 9.41395 10.8625 9.48852 10.8182 9.57501C10.7738 9.6615 10.751 9.75738 10.7515 9.85455C10.751 9.95173 10.7738 10.0476 10.8182 10.1341C10.8625 10.2206 10.9269 10.2952 11.0061 10.3515L12.9758 11.7394L11.9636 13.9394C11.919 14.0256 11.8957 14.1212 11.8957 14.2182C11.8957 14.3152 11.919 14.4108 11.9636 14.497C12.0121 14.5819 12.0805 14.6538 12.1628 14.7065C12.2451 14.7593 12.339 14.7914 12.4364 14.8L14.8606 15.0182L15.0727 17.4121C15.0814 17.5095 15.1134 17.6034 15.1662 17.6857C15.219 17.768 15.2909 17.8363 15.3758 17.8849C15.4619 17.9295 15.5575 17.9528 15.6545 17.9528C15.7516 17.9528 15.8472 17.9295 15.9333 17.8849L18.1152 16.8727L19.503 18.8424C19.5589 18.9225 19.6332 18.9878 19.7198 19.0329C19.8063 19.078 19.9024 19.1016 20 19.1016C20.0976 19.1016 20.1937 19.078 20.2803 19.0329C20.3668 18.9878 20.4411 18.9225 20.497 18.8424L21.8849 16.8727L24.0667 17.8849C24.1543 17.9267 24.2506 17.9469 24.3477 17.9437C24.4447 17.9406 24.5396 17.9141 24.6242 17.8667ZM23.7939 16.4303L21.9333 15.5697C21.8094 15.5162 21.6711 15.5056 21.5404 15.5397C21.4098 15.5737 21.2942 15.6504 21.2121 15.7576L20 17.4364L18.8182 15.7576C18.7625 15.6773 18.6882 15.6117 18.6017 15.5663C18.5151 15.5209 18.4189 15.4971 18.3212 15.497C18.2328 15.4967 18.1455 15.5175 18.0667 15.5576L16.2061 16.4182L16.0182 14.3697C16.0048 14.2296 15.943 14.0985 15.8434 13.999C15.7439 13.8995 15.6128 13.8377 15.4727 13.8243L13.4242 13.6364L14.2849 11.7758C14.3449 11.6469 14.3578 11.5011 14.3213 11.3637C14.2847 11.2263 14.201 11.1062 14.0849 11.0243L12.4061 9.84243L14.0849 8.63031C14.201 8.54839 14.2847 8.42824 14.3213 8.29086C14.3578 8.15348 14.3449 8.00763 14.2849 7.8788L13.4242 6.06061L15.4727 5.87274C15.6128 5.8593 15.7439 5.79752 15.8434 5.69799C15.943 5.59846 16.0048 5.46739 16.0182 5.32728L16.2061 3.2788L18.0667 4.1394C18.1955 4.1995 18.3414 4.21239 18.4787 4.17583C18.6161 4.13927 18.7363 4.05558 18.8182 3.9394L20 2.26061L21.2121 3.9394C21.294 4.05558 21.4142 4.13927 21.5516 4.17583C21.689 4.21239 21.8348 4.1995 21.9636 4.1394L23.8242 3.2788L24.0121 5.32728C24.0256 5.46739 24.0873 5.59846 24.1869 5.69799C24.2864 5.79752 24.4175 5.8593 24.5576 5.87274L26.6061 6.06061L25.7455 7.92122C25.6854 8.05005 25.6725 8.19591 25.709 8.33329C25.7456 8.47066 25.8293 8.59082 25.9455 8.67274L27.6242 9.88486L25.9455 11.0667C25.8293 11.1486 25.7456 11.2687 25.709 11.4061C25.6725 11.5435 25.6854 11.6894 25.7455 11.8182L26.6061 13.6788L24.5576 13.8667C24.4175 13.8801 24.2864 13.9419 24.1869 14.0414C24.0873 14.1409 24.0256 14.272 24.0121 14.4121L23.7939 16.4303Z" fill="black"/>
<path d="M20 4.92725C19.0255 4.92725 18.0728 5.21623 17.2626 5.75764C16.4523 6.29906 15.8207 7.06859 15.4478 7.96893C15.0749 8.86927 14.9773 9.85998 15.1674 10.8158C15.3575 11.7716 15.8268 12.6495 16.5159 13.3386C17.205 14.0277 18.0829 14.497 19.0387 14.6871C19.9945 14.8772 20.9852 14.7797 21.8856 14.4067C22.7859 14.0338 23.5555 13.4023 24.0969 12.592C24.6383 11.7817 24.9273 10.829 24.9273 9.85452C24.9257 8.54822 24.406 7.29588 23.4823 6.37218C22.5586 5.44849 21.3063 4.92885 20 4.92725ZM20 13.5697C19.2652 13.5697 18.5469 13.3518 17.936 12.9436C17.325 12.5353 16.8488 11.9551 16.5676 11.2762C16.2865 10.5974 16.2129 9.8504 16.3562 9.12973C16.4996 8.40906 16.8534 7.74708 17.373 7.22751C17.8926 6.70794 18.5545 6.3541 19.2752 6.21075C19.9959 6.0674 20.7429 6.14098 21.4217 6.42217C22.1006 6.70336 22.6808 7.17954 23.089 7.79049C23.4973 8.40144 23.7151 9.11973 23.7151 9.85452C23.7135 10.8393 23.3216 11.7834 22.6252 12.4798C21.9289 13.1761 20.9848 13.5681 20 13.5697Z" fill="black"/>
<path d="M26.4849 26.6667H26.5515C26.6821 26.6514 26.8041 26.594 26.8992 26.5033C26.9943 26.4125 27.0573 26.2933 27.0788 26.1637L27.4727 23.8061L29.4121 24.9637C29.5216 25.0296 29.6492 25.0593 29.7765 25.0484C29.9039 25.0375 30.0245 24.9866 30.1212 24.903C30.2234 24.8212 30.2963 24.7085 30.3291 24.5818C30.3619 24.4551 30.3527 24.3211 30.303 24.2L27.0364 16.6364C26.9648 16.5021 26.8454 16.3997 26.7018 16.3495C26.5582 16.2992 26.401 16.3048 26.2614 16.3651C26.1217 16.4254 26.0098 16.536 25.9479 16.6749C25.886 16.8139 25.8787 16.971 25.9273 17.1152L28.4303 22.9576L27.3333 22.297C27.2464 22.2513 27.1497 22.2275 27.0515 22.2275C26.9533 22.2275 26.8566 22.2513 26.7697 22.297C26.6792 22.3385 26.6004 22.4018 26.5401 22.481C26.4798 22.5603 26.4401 22.6532 26.4242 22.7515L26.2303 23.9091L24.3394 19.3758C24.3089 19.3021 24.2641 19.2351 24.2077 19.1787C24.1512 19.1223 24.0842 19.0777 24.0104 19.0473C23.9366 19.0169 23.8576 19.0013 23.7778 19.0015C23.698 19.0017 23.6191 19.0177 23.5455 19.0485C23.3977 19.1113 23.2808 19.2302 23.2206 19.379C23.1604 19.5279 23.1617 19.6946 23.2243 19.8424L25.9212 26.3212C25.9716 26.4272 26.0517 26.5162 26.1518 26.5776C26.2518 26.6389 26.3675 26.6699 26.4849 26.6667Z" fill="black"/>
<path d="M16.4546 19.0182C16.381 18.9874 16.302 18.9715 16.2222 18.9713C16.1424 18.971 16.0634 18.9866 15.9896 19.017C15.9159 19.0474 15.8488 19.0921 15.7924 19.1484C15.7359 19.2048 15.6911 19.2718 15.6606 19.3455L13.7697 23.8788L13.5758 22.7213C13.56 22.6229 13.5202 22.53 13.4599 22.4508C13.3997 22.3715 13.3208 22.3083 13.2303 22.2667C13.1434 22.2211 13.0467 22.1972 12.9485 22.1972C12.8503 22.1972 12.7536 22.2211 12.6667 22.2667L11.5697 22.9273L14.0727 17.0849C14.1214 16.9408 14.114 16.7836 14.0521 16.6446C13.9902 16.5057 13.8783 16.3951 13.7387 16.3348C13.599 16.2745 13.4418 16.2689 13.2982 16.3192C13.1546 16.3695 13.0352 16.4719 12.9636 16.6061L9.69698 24.2C9.64736 24.3175 9.63606 24.4477 9.66468 24.5719C9.6933 24.6962 9.7604 24.8083 9.85641 24.8922C9.95242 24.9761 10.0725 25.0276 10.1994 25.0394C10.3264 25.0511 10.4539 25.0225 10.5636 24.9576L12.503 23.8L12.897 26.1576C12.9184 26.2873 12.9815 26.4065 13.0766 26.4972C13.1717 26.588 13.2937 26.6453 13.4243 26.6607H13.4909C13.6116 26.6613 13.7297 26.6258 13.8301 26.5589C13.9306 26.4919 14.0087 26.3965 14.0546 26.2849L16.7515 19.8061C16.8138 19.6619 16.8176 19.4992 16.7622 19.3522C16.7068 19.2052 16.5965 19.0855 16.4546 19.0182Z" fill="black"/>
<path d="M37.8667 18.1818C37.4739 18.1814 37.0944 18.3238 36.7989 18.5825C36.5034 18.8412 36.3121 19.1985 36.2606 19.5879L35.9091 22.2182C35.7997 22.1544 35.6864 22.0977 35.5697 22.0485C35.0936 21.8607 34.5655 21.8525 34.0838 22.0254C33.6021 22.1982 33.1997 22.5403 32.9515 22.9879L31.8364 25.006C31.2655 25.7939 30.5369 26.4544 29.697 26.9454C29.2572 27.2072 28.8503 27.5205 28.4849 27.8788C26.194 30.0909 26.3212 32.806 26.3818 34.1151C26.3818 34.2606 26.3818 34.3879 26.3818 34.497C26.1736 34.5502 25.9858 34.6641 25.8424 34.8242C25.7385 34.9426 25.6606 35.0814 25.6136 35.2317C25.5666 35.382 25.5517 35.5405 25.5697 35.697L25.9152 38.4242C25.9487 38.6895 26.077 38.9337 26.2763 39.1118C26.4757 39.29 26.7327 39.3902 27 39.3939H33.0606C33.3548 39.3939 33.6369 39.2771 33.8449 39.0691C34.0529 38.8611 34.1697 38.579 34.1697 38.2848V35.5576C34.1681 35.2639 34.0508 34.9827 33.8431 34.7751C33.6355 34.5674 33.3543 34.4501 33.0606 34.4485H32.8546C32.8886 34.2741 32.9605 34.1094 33.0652 33.9659C33.1699 33.8224 33.3049 33.7037 33.4606 33.6182C35.0303 32.8303 39.5212 29.8242 39.5212 26.406V19.806C39.5213 19.5902 39.4783 19.3765 39.3947 19.1774C39.3112 18.9783 39.1889 18.7979 39.0348 18.6467C38.8808 18.4955 38.6981 18.3765 38.4976 18.2966C38.297 18.2168 38.0825 18.1778 37.8667 18.1818ZM32.9455 38.1818H27.0909L26.7758 35.6606H32.9455V38.1818ZM38.2727 26.406C38.2727 28.9757 34.5818 31.6909 32.897 32.5333C32.5473 32.7275 32.2486 33.0017 32.0253 33.3336C31.802 33.6654 31.6604 34.0454 31.6121 34.4424H27.5818C27.5818 34.3333 27.5818 34.206 27.5818 34.0485C27.5212 32.8364 27.4182 30.5757 29.3152 28.7394C29.6136 28.449 29.9452 28.1947 30.303 27.9818C31.3054 27.401 32.1731 26.6139 32.8485 25.6727L34.0121 23.5697C34.1181 23.3732 34.2941 23.2237 34.5051 23.1507C34.7161 23.0778 34.9468 23.0867 35.1515 23.1757C35.3075 23.2387 35.442 23.3454 35.5388 23.4831C35.6356 23.6207 35.6905 23.7834 35.697 23.9515L35.5576 25.0424C35.4929 25.4313 35.3036 25.7887 35.0182 26.0606L34.2243 26.8545C33.6316 27.4426 33.2375 28.2012 33.097 29.0242C33.0838 29.1111 33.0897 29.1998 33.1141 29.2842C33.1386 29.3685 33.1812 29.4466 33.2388 29.5129C33.2965 29.5792 33.3679 29.6321 33.448 29.6681C33.5282 29.7041 33.6152 29.7222 33.703 29.7212C33.8474 29.7233 33.9878 29.6738 34.0989 29.5816C34.21 29.4893 34.2846 29.3605 34.3091 29.2182C34.4109 28.6493 34.6836 28.125 35.0909 27.7151L35.8849 26.9212C36.3535 26.453 36.6558 25.8442 36.7455 25.1879L37.4727 19.7333C37.48 19.6256 37.5297 19.5252 37.611 19.4542C37.6922 19.3831 37.7984 19.3473 37.9061 19.3545C38.0138 19.3618 38.1142 19.4115 38.1852 19.4927C38.2562 19.574 38.2921 19.6802 38.2849 19.7879L38.2727 26.406Z" fill="black"/>
<path d="M27.9273 37.3637C28.1917 37.3637 28.4061 37.1493 28.4061 36.8849C28.4061 36.6205 28.1917 36.4061 27.9273 36.4061C27.6628 36.4061 27.4485 36.6205 27.4485 36.8849C27.4485 37.1493 27.6628 37.3637 27.9273 37.3637Z" fill="black"/>
<path d="M13.7091 34.4969C13.7091 34.3878 13.7091 34.2605 13.7091 34.1151C13.7697 32.806 13.897 30.0908 11.6061 27.8787C11.2406 27.5204 10.8337 27.2071 10.3939 26.9454C9.54565 26.4565 8.80873 25.796 8.23031 25.006L7.12121 22.9818C6.87208 22.5353 6.46924 22.1945 5.98762 22.0228C5.50601 21.8511 4.97843 21.8602 4.50303 22.0484C4.38638 22.0977 4.27301 22.1543 4.16364 22.2181L3.81818 19.5878C3.73949 19.2025 3.52365 18.8588 3.21074 18.6205C2.89783 18.3823 2.5091 18.2657 2.11672 18.2923C1.72433 18.319 1.35494 18.4871 1.07712 18.7655C0.799306 19.0438 0.631929 19.4136 0.606064 19.806V26.406C0.606064 29.8242 5.08485 32.8302 6.66667 33.6181C6.82109 33.7053 6.95506 33.8244 7.0596 33.9677C7.16413 34.1109 7.23681 34.2748 7.27273 34.4484H7.03031C6.73665 34.45 6.45547 34.5674 6.24782 34.775C6.04017 34.9827 5.92281 35.2639 5.92122 35.5575V38.2848C5.92122 38.5789 6.03807 38.861 6.24606 39.069C6.45406 39.277 6.73616 39.3939 7.03031 39.3939H13.0909C13.3614 39.3945 13.6228 39.2963 13.8259 39.1178C14.0291 38.9392 14.1599 38.6925 14.1939 38.4242L14.5455 35.6969C14.5647 35.5409 14.5509 35.3825 14.5049 35.2322C14.459 35.0818 14.3819 34.9428 14.2788 34.8242C14.1273 34.6588 13.9283 34.5445 13.7091 34.4969ZM7.18182 32.5333C5.49697 31.6908 1.81818 28.9757 1.81818 26.406V19.806C1.82175 19.704 1.86305 19.6069 1.93407 19.5336C2.0051 19.4603 2.1008 19.416 2.20264 19.4092C2.30448 19.4024 2.40522 19.4337 2.48535 19.4969C2.56548 19.5601 2.61929 19.6508 2.63637 19.7515L3.36364 25.206C3.44861 25.8625 3.74919 26.4722 4.21818 26.9393L5.01212 27.7393C5.42326 28.1473 5.69842 28.6722 5.8 29.2424C5.82454 29.3847 5.89907 29.5135 6.01018 29.6057C6.12129 29.698 6.26168 29.7475 6.40606 29.7454C6.49391 29.7464 6.58093 29.7283 6.66109 29.6923C6.74124 29.6563 6.81261 29.6034 6.87026 29.5371C6.92791 29.4708 6.97046 29.3927 6.99495 29.3083C7.01945 29.224 7.02531 29.1353 7.01212 29.0484C6.86896 28.2263 6.47524 27.4685 5.88485 26.8787L5.06061 26.0605C4.77836 25.782 4.59707 25.4173 4.54546 25.0242L4.4 23.9393C4.41572 23.75 4.49156 23.5706 4.61647 23.4274C4.74137 23.2842 4.90878 23.1847 5.09426 23.1434C5.27973 23.1021 5.47355 23.1212 5.64741 23.1979C5.82126 23.2746 5.96604 23.4048 6.06061 23.5696L7.18788 25.6181L7.21818 25.6727C7.89593 26.614 8.76555 27.401 9.7697 27.9818C10.13 28.1988 10.4654 28.4549 10.7697 28.7454C12.6667 30.5636 12.5576 32.8424 12.503 34.0545C12.503 34.2121 12.503 34.3393 12.503 34.4484H8.48485C8.43368 34.0492 8.289 33.6677 8.06258 33.3349C7.83616 33.0021 7.5344 32.7274 7.18182 32.5333ZM12.9818 38.1818H7.13334V35.6605H13.297L12.9818 38.1818Z" fill="black"/>
<path d="M12.1212 37.3576C12.2164 37.3588 12.3098 37.3315 12.3895 37.2794C12.4691 37.2273 12.5314 37.1525 12.5684 37.0648C12.6054 36.9771 12.6154 36.8803 12.5971 36.7869C12.5788 36.6934 12.5331 36.6076 12.4658 36.5403C12.3985 36.4729 12.3126 36.4272 12.2192 36.4089C12.1257 36.3907 12.029 36.4006 11.9412 36.4376C11.8535 36.4746 11.7788 36.5369 11.7267 36.6166C11.6745 36.6962 11.6473 36.7896 11.6485 36.8848C11.6485 37.0102 11.6983 37.1305 11.7869 37.2191C11.8756 37.3078 11.9958 37.3576 12.1212 37.3576Z" fill="black"/>
</svg>
