<svg width="40" height="37" viewBox="0 0 40 37" fill="none" xmlns="http://www.w3.org/2000/svg">
<g clip-path="url(#clip0)">
<path d="M35.2222 14.5533V0H8.77778V13.9367L5.56667 17.0817C5.18889 17.4517 5 17.8833 5 18.3767V35.15C5 36.1983 5.81852 37 6.88889 37H37.1111C38.1815 37 39 36.1983 39 35.15V18.9933C39 18.5 38.8111 18.0067 38.4333 17.6983L35.2222 14.5533ZM36.5864 18.3767L35.2222 19.4867V16.3417L36.5864 18.3767ZM33.963 1.23333V20.1033L22.3148 26.27C22.1259 26.3933 21.8741 26.3933 21.6852 26.27L10.037 19.6717V1.23333H33.963ZM8.77778 18.9317L7.46605 17.6983L8.77778 15.6633V18.9317ZM36.5864 34.5333H29.2932H21.6852H7.46605C7.08827 34.5333 7.46605 35.1923 7.46605 34.8223V34.5333V33.7111V32.8889V30.4222V26.3111V19.7333L21.0556 27.3183C21.6222 27.6267 22.3148 27.6267 22.8815 27.3183L36.5864 20.35V27.3183V29.4356V31.5528V34.5333C36.9642 34.5333 36.5864 34.9033 36.5864 34.5333Z" fill="#333333"/>
<path d="M20 10.175C22.75 10.175 25 8.51002 25 6.47502H23.75C23.75 8.00127 22.0625 9.25002 20 9.25002C17.9375 9.25002 16.25 8.00127 16.25 6.47502C16.25 4.94877 17.9375 3.70002 20 3.70002C20.5625 3.70002 21.125 3.79252 21.625 3.97752L22.1875 3.14502C21.5 2.91377 20.75 2.77502 20 2.77502C17.25 2.77502 15 4.44002 15 6.47502C15 8.51002 17.25 10.175 20 10.175Z" fill="#333333"/>
<path d="M18.5625 5.68875L17.6875 6.33625L20 8.0475L24.8125 4.48625L23.9375 3.83875L20 6.7525L18.5625 5.68875Z" fill="#333333"/>
<path d="M30 11.1H24.375V12.025H30V11.1Z" fill="#333333"/>
<path d="M15.625 12.95H10V13.875H15.625V12.95Z" fill="#333333"/>
<path d="M30 14.8H10V15.725H30V14.8Z" fill="#333333"/>
<path d="M25.625 16.65H14.375V17.575H25.625V16.65Z" fill="#333333"/>
<path d="M15 23.4333H10V24.6667H15V23.4333Z" fill="#333333"/>
<path d="M30 12.95H16.875V13.875H30V12.95Z" fill="#333333"/>
<path d="M23.125 11.1H10V12.025H23.125V11.1Z" fill="#333333"/>
</g>
<defs>
<clipPath id="clip0">
<rect width="40" height="37" fill="white"/>
</clipPath>
</defs>
</svg>
