<svg width="36" height="38" viewBox="0 0 36 38" fill="none" xmlns="http://www.w3.org/2000/svg">
<path d="M28.308 15.0976H29.1584C31.5384 15.0976 33.4744 13.162 33.4744 10.782V9.05919C33.4744 6.67919 31.5384 4.74359 29.1584 4.74359H28.308C25.928 4.74359 23.992 6.67919 23.992 9.05919V10.782C23.992 13.1616 25.9284 15.0976 28.308 15.0976ZM25.6868 9.05919C25.6868 7.61359 26.8628 6.43799 28.308 6.43799H29.1584C30.604 6.43799 31.7796 7.61399 31.7796 9.05919V10.782C31.7796 12.2276 30.6036 13.4032 29.1584 13.4032H28.308C26.8624 13.4032 25.6868 12.2272 25.6868 10.782V9.05919Z" fill="black"/>
<path d="M4.1048 30.4508H3.0204C2.2892 30.4508 1.6948 29.856 1.6948 29.1248V20.262C1.6948 19.4072 2.39 18.7124 3.2444 18.7124H10.6296V26.4408C10.6296 27.8168 11.5552 28.98 12.8164 29.3428C12.7116 29.9696 12.1692 30.4508 11.5128 30.4508H10.4284V37.0708H12.1232V32.0832C12.4512 32.0156 12.7596 31.8932 13.0396 31.7284V37.0708H14.7344V27.7664H13.65C12.9192 27.7664 12.3244 27.1716 12.3244 26.4404V16.448C12.3244 15.5932 13.0196 14.8984 13.874 14.8984H21.918C22.7728 14.8984 23.4676 15.5936 23.4676 16.448V26.4408C23.4676 27.1716 22.8732 27.7668 22.142 27.7668H21.0576V37.0712H22.7524V31.5952C23.0844 31.8288 23.4644 31.9988 23.8756 32.0836V37.0712H25.5704V30.4512H24.486C23.8072 30.4512 23.252 29.9356 23.176 29.2768C24.3332 28.8536 25.1624 27.7432 25.1624 26.4412V18.712H32.7544C33.6092 18.712 34.304 19.4072 34.304 20.2616V29.1244C34.304 29.8552 33.7096 30.4504 32.9784 30.4504H31.894V37.0704H33.5888V32.0832C34.964 31.8004 36 30.5812 36 29.1248V20.262C36 18.4728 34.5444 17.018 32.7556 17.018H25.1636V16.448C25.1636 14.6588 23.708 13.204 21.9192 13.204H13.8752C12.086 13.204 10.6308 14.6592 10.6308 16.448V17.0176H3.2444C1.4556 17.0176 0 18.4728 0 20.262V29.1248C0 30.5812 1.0364 31.8 2.41 32.0832V37.0708H4.1048V30.4508Z" fill="black"/>
<path d="M6.84157 15.0976H7.69157C10.0716 15.0976 12.0076 13.162 12.0076 10.782V9.05919C12.0076 6.67919 10.0716 4.74359 7.69157 4.74359H6.84157C4.46157 4.74359 2.52557 6.67919 2.52557 9.05919V10.782C2.52557 13.1616 4.46157 15.0976 6.84157 15.0976ZM4.22037 9.05919C4.22037 7.61359 5.39637 6.43799 6.84157 6.43799H7.69157C9.13717 6.43799 10.3128 7.61399 10.3128 9.05919V10.782C10.3128 12.2276 9.13677 13.4032 7.69157 13.4032H6.84157C5.39597 13.4032 4.22037 12.2272 4.22037 10.782V9.05919Z" fill="black"/>
<path d="M17.4716 11.2836H18.322C20.702 11.2836 22.638 9.348 22.638 6.968V5.2452C22.638 2.8652 20.702 0.929199 18.322 0.929199H17.4716C15.0916 0.929199 13.1556 2.8652 13.1556 5.2452V6.968C13.1552 9.348 15.0916 11.2836 17.4716 11.2836ZM14.85 5.2452C14.85 3.7996 16.026 2.6236 17.4712 2.6236H18.3216C19.7672 2.6236 20.9428 3.8 20.9428 5.2452V6.968C20.9428 8.4136 19.7668 9.5892 18.3216 9.5892H17.4712C16.0256 9.5892 14.85 8.4132 14.85 6.968V5.2452Z" fill="black"/>
</svg>
