<svg width="47" height="39" viewBox="0 0 47 39" fill="none" xmlns="http://www.w3.org/2000/svg">
<g clip-path="url(#clip0)">
<path d="M14.5834 36.9941C14.2392 37.024 13.8931 37.0425 13.5544 37.05C13.3622 37.0521 13.1789 37.1171 13.0448 37.2306C12.9107 37.3442 12.8368 37.497 12.8393 37.6555C12.8418 37.814 12.9206 37.9652 13.0583 38.0757C13.196 38.1863 13.3814 38.2473 13.5736 38.2452H13.5935C13.9692 38.2368 14.3526 38.2153 14.7334 38.1833C14.9246 38.1669 15.1 38.0886 15.2211 37.9655C15.3422 37.8424 15.3991 37.6847 15.3792 37.527C15.3593 37.3694 15.2643 37.2247 15.1151 37.1248C14.9658 37.0249 14.7745 36.978 14.5834 36.9944V36.9941Z" fill="black"/>
<path d="M11.1666 36.9188C10.8293 36.8728 10.4923 36.814 10.1651 36.7443C9.97899 36.7047 9.78139 36.7277 9.6158 36.8082C9.4502 36.8887 9.33018 37.0202 9.28213 37.1737C9.23409 37.3272 9.26195 37.4902 9.35959 37.6267C9.45724 37.7633 9.61666 37.8622 9.8028 37.9019C10.1709 37.9798 10.5496 38.0459 10.9282 38.0979C10.9677 38.1032 11.0077 38.1059 11.0478 38.1059C11.23 38.1062 11.4056 38.0499 11.5397 37.9482C11.6738 37.8464 11.7565 37.7068 11.7713 37.5571C11.7862 37.4073 11.7321 37.2585 11.6198 37.1401C11.5075 37.0218 11.3453 36.9427 11.1655 36.9185L11.1666 36.9188Z" fill="black"/>
<path d="M17.9483 36.3693C17.62 36.4632 17.286 36.5486 16.9555 36.623C16.7702 36.6649 16.6126 36.7659 16.5175 36.9036C16.4223 37.0413 16.3974 37.2046 16.4483 37.3574C16.4991 37.5103 16.6215 37.6402 16.7885 37.7187C16.9555 37.7971 17.1535 37.8177 17.3389 37.7757C17.7012 37.6945 18.0635 37.601 18.4222 37.4991C18.6039 37.4472 18.7532 37.338 18.8372 37.1954C18.9212 37.0529 18.9331 36.8886 18.8703 36.7388C18.8074 36.589 18.675 36.4659 18.5021 36.3966C18.3292 36.3273 18.13 36.3175 17.9483 36.3693Z" fill="black"/>
<path d="M7.94261 36.0553C7.64079 35.9292 7.34331 35.79 7.05816 35.6412C6.89571 35.5565 6.69911 35.5285 6.5116 35.5633C6.32409 35.5981 6.16104 35.6929 6.05832 35.8269C5.95559 35.9609 5.9216 36.123 5.96383 36.2776C6.00606 36.4322 6.12105 36.5667 6.2835 36.6514C6.60742 36.8202 6.94511 36.9786 7.28788 37.1214C7.45936 37.193 7.65831 37.2055 7.84096 37.1561C8.02361 37.1068 8.17499 36.9996 8.26182 36.8582C8.34864 36.7168 8.36378 36.5527 8.30392 36.4021C8.24406 36.2515 8.11409 36.1266 7.94261 36.055V36.0553Z" fill="black"/>
<path d="M21.1009 35.1646C20.7998 35.3101 20.4915 35.45 20.1842 35.5799C20.0996 35.6158 20.0243 35.665 19.9627 35.7248C19.9011 35.7846 19.8544 35.8539 19.8252 35.9286C19.7961 36.0033 19.785 36.082 19.7928 36.1602C19.8005 36.2384 19.8268 36.3146 19.8703 36.3844C19.9137 36.4543 19.9734 36.5163 20.046 36.5671C20.1185 36.6179 20.2025 36.6565 20.293 36.6805C20.3836 36.7045 20.4791 36.7136 20.5739 36.7073C20.6688 36.7009 20.7612 36.6792 20.8459 36.6433C21.1774 36.5032 21.51 36.3526 21.8343 36.1951C22.0001 36.115 22.1205 35.9838 22.169 35.8304C22.2175 35.6771 22.1902 35.5141 22.093 35.3774C21.9958 35.2406 21.8367 35.1413 21.6507 35.1013C21.4647 35.0613 21.2671 35.0839 21.1013 35.164L21.1009 35.1646Z" fill="black"/>
<path d="M4.51679 33.7989C4.4566 33.7365 4.38187 33.6846 4.29701 33.6464C4.21214 33.6082 4.11886 33.5843 4.02265 33.5763C3.92644 33.5682 3.82926 33.5762 3.73682 33.5996C3.64438 33.623 3.55857 33.6614 3.48442 33.7126C3.41028 33.7638 3.34931 33.8267 3.3051 33.8977C3.2609 33.9686 3.23436 34.0461 3.22704 34.1256C3.21972 34.2051 3.23177 34.285 3.26249 34.3606C3.29321 34.4363 3.34196 34.506 3.40589 34.5659C3.65227 34.8088 3.91315 35.0439 4.18381 35.2662C4.32066 35.3749 4.50382 35.435 4.69383 35.4334C4.88384 35.4318 5.06549 35.3688 5.19966 35.2578C5.33384 35.1468 5.40979 34.9969 5.41117 34.8402C5.41254 34.6835 5.33923 34.5326 5.20703 34.4201C4.96716 34.2229 4.73527 34.0143 4.51679 33.7989Z" fill="black"/>
<path d="M23.9463 33.4944C23.6789 33.6817 23.4028 33.8646 23.1289 34.0385C22.9763 34.1349 22.8765 34.2773 22.8513 34.4344C22.826 34.5915 22.8776 34.7505 22.9945 34.8763C23.1114 35.0021 23.2841 35.0844 23.4746 35.1052C23.6651 35.126 23.8579 35.0835 24.0104 34.9871C24.3046 34.8013 24.5989 34.6056 24.8844 34.4054C25.0294 34.3025 25.1192 34.1564 25.1342 33.9991C25.1491 33.8417 25.088 33.6859 24.9641 33.5656C24.8403 33.4453 24.6637 33.3703 24.473 33.357C24.2823 33.3436 24.093 33.393 23.9463 33.4944Z" fill="black"/>
<path d="M3.174 32.1686C3.01168 31.9233 2.85769 31.6673 2.71747 31.4082C2.67864 31.3366 2.62308 31.2719 2.55396 31.218C2.48484 31.164 2.40351 31.1219 2.31462 31.0938C2.22573 31.0658 2.13102 31.0525 2.03589 31.0547C1.94076 31.0568 1.84708 31.0744 1.76019 31.1064C1.67331 31.1385 1.59492 31.1843 1.52951 31.2413C1.4641 31.2983 1.41294 31.3653 1.37896 31.4386C1.34498 31.5119 1.32884 31.5901 1.33146 31.6685C1.33408 31.7469 1.35541 31.8242 1.39424 31.8958C1.55041 32.1839 1.72034 32.4683 1.9015 32.7414C1.94711 32.8103 2.00872 32.8711 2.08282 32.9204C2.15692 32.9696 2.24206 33.0063 2.33337 33.0284C2.42469 33.0506 2.52039 33.0576 2.61501 33.0492C2.70964 33.0408 2.80133 33.0172 2.88486 32.9796C2.96839 32.942 3.04212 32.8911 3.10184 32.83C3.16156 32.7689 3.2061 32.6987 3.23291 32.6234C3.25973 32.5481 3.26829 32.4692 3.25812 32.3912C3.24795 32.3131 3.21925 32.2375 3.17364 32.1686H3.174Z" fill="black"/>
<path d="M1.93266 29.5309C1.84896 29.2575 1.77505 28.9764 1.71345 28.6943C1.67919 28.5384 1.57121 28.4 1.41326 28.3097C1.25531 28.2194 1.06033 28.1846 0.871219 28.2128C0.682102 28.2411 0.514341 28.3301 0.40484 28.4604C0.295339 28.5906 0.253068 28.7514 0.287326 28.9074C0.355081 29.2154 0.435881 29.5235 0.52755 29.8228C0.550345 29.8994 0.591274 29.9714 0.647981 30.0349C0.704687 30.0983 0.776051 30.1519 0.857964 30.1925C0.939876 30.2331 1.03072 30.2599 1.12526 30.2715C1.2198 30.283 1.31618 30.279 1.40884 30.2597C1.5015 30.2404 1.58861 30.2061 1.66516 30.159C1.74171 30.1118 1.80618 30.0526 1.85487 29.9847C1.90355 29.9169 1.93549 29.8418 1.94884 29.7638C1.9622 29.6858 1.9567 29.6063 1.93266 29.53V29.5309Z" fill="black"/>
<path d="M0.760672 27.3208C0.855789 27.3182 0.949348 27.3001 1.03601 27.2677C1.12266 27.2352 1.20072 27.189 1.26573 27.1317C1.33073 27.0744 1.38141 27.0071 1.41486 26.9336C1.44831 26.8601 1.46388 26.7819 1.46069 26.7035C1.4491 26.4165 1.44765 26.1292 1.45634 25.8418C1.46115 25.6833 1.38941 25.5297 1.25691 25.4148C1.1913 25.358 1.11275 25.3123 1.02574 25.2805C0.938728 25.2486 0.844965 25.2312 0.749802 25.2293C0.557611 25.2253 0.371382 25.2844 0.232085 25.3937C0.0927882 25.503 0.0118326 25.6534 0.00702786 25.8119C-0.00239269 26.1222 -0.000822595 26.4328 0.0117381 26.7435C0.018038 26.8985 0.097158 27.0454 0.232381 27.1532C0.367604 27.261 0.548338 27.3212 0.736396 27.3211L0.760672 27.3208Z" fill="black"/>
<path d="M0.845675 24.3359C0.881655 24.3403 0.917986 24.3426 0.954374 24.3427C1.12758 24.3426 1.29499 24.2912 1.42626 24.1981C1.55753 24.1049 1.64399 23.976 1.66997 23.8348C1.72179 23.5527 1.78374 23.2656 1.85404 22.982C1.87307 22.9051 1.87355 22.8259 1.85544 22.7488C1.83734 22.6718 1.801 22.5984 1.74852 22.5329C1.69603 22.4675 1.62842 22.4111 1.54954 22.3672C1.47066 22.3233 1.38206 22.2926 1.2888 22.2769C1.19554 22.2612 1.09945 22.2608 1.006 22.2757C0.912558 22.2907 0.823595 22.3206 0.744192 22.3639C0.664789 22.4072 0.596501 22.463 0.543228 22.528C0.489955 22.593 0.45274 22.6661 0.433708 22.743C0.359793 23.0463 0.293849 23.3531 0.23805 23.6552C0.223742 23.7328 0.228109 23.812 0.250903 23.8882C0.273697 23.9644 0.314471 24.0361 0.370896 24.0993C0.42732 24.1625 0.498291 24.216 0.579754 24.2565C0.661218 24.2971 0.751578 24.3241 0.845675 24.3359V24.3359Z" fill="black"/>
<path d="M1.56924 21.4101C1.75197 21.4592 1.95085 21.4464 2.12215 21.3746C2.29345 21.3028 2.42313 21.1778 2.48267 21.0271C2.59137 20.7543 2.7084 20.4788 2.83268 20.2087C2.86644 20.1353 2.88234 20.0572 2.87948 19.9787C2.87662 19.9003 2.85505 19.8231 2.81601 19.7515C2.77696 19.68 2.72121 19.6154 2.65192 19.5616C2.58263 19.5078 2.50118 19.4658 2.4122 19.438C2.32322 19.4101 2.22847 19.397 2.13334 19.3994C2.03822 19.4017 1.94459 19.4195 1.8578 19.4517C1.77101 19.4839 1.69277 19.5299 1.62753 19.587C1.56229 19.6442 1.51133 19.7113 1.47757 19.7847C1.34532 20.0728 1.21996 20.3662 1.1051 20.6569C1.04557 20.8075 1.06102 20.9715 1.14805 21.1128C1.23509 21.254 1.38659 21.361 1.56924 21.4101V21.4101Z" fill="black"/>
<path d="M2.85153 18.6176C2.93639 18.6531 3.02891 18.6746 3.1238 18.6806C3.21869 18.6867 3.3141 18.6772 3.40457 18.6529C3.49505 18.6285 3.57882 18.5897 3.6511 18.5386C3.72338 18.4876 3.78275 18.4253 3.82583 18.3553C3.98417 18.0986 4.15193 17.8411 4.32439 17.5895C4.37338 17.5211 4.40535 17.4453 4.41843 17.3667C4.43151 17.288 4.42543 17.2079 4.40056 17.1312C4.37569 17.0545 4.33252 16.9826 4.27357 16.9198C4.21463 16.857 4.14109 16.8045 4.05726 16.7654C3.97343 16.7263 3.88099 16.7013 3.78534 16.692C3.68969 16.6827 3.59275 16.6893 3.50019 16.7112C3.40763 16.7332 3.3213 16.7701 3.24626 16.8199C3.17122 16.8697 3.10896 16.9313 3.06313 17.0011C2.87979 17.2683 2.7008 17.542 2.5334 17.8148C2.4466 17.956 2.43135 18.1199 2.49099 18.2705C2.55064 18.421 2.68032 18.5459 2.85153 18.6176V18.6176Z" fill="black"/>
<path d="M6.15959 14.3482C6.08484 14.2996 5.99922 14.2636 5.90762 14.2424C5.81601 14.2211 5.72022 14.2149 5.62571 14.2241C5.5312 14.2333 5.43982 14.2578 5.35679 14.2962C5.27376 14.3346 5.20071 14.386 5.14181 14.4477C4.91064 14.6894 4.68455 14.9377 4.46896 15.1857C4.41223 15.2494 4.3714 15.3218 4.34882 15.3986C4.32624 15.4754 4.32238 15.5552 4.33744 15.6333C4.35251 15.7113 4.38621 15.7862 4.43659 15.8534C4.48697 15.9207 4.55304 15.979 4.63095 16.0251C4.70887 16.0711 4.79709 16.104 4.89051 16.1217C4.98393 16.1394 5.08069 16.1417 5.17518 16.1284C5.26967 16.1151 5.36002 16.0864 5.44099 16.0441C5.52196 16.0018 5.59195 15.9467 5.64689 15.8819C5.8498 15.6485 6.06249 15.4149 6.28025 15.1875C6.33916 15.1259 6.38277 15.0552 6.40859 14.9797C6.43441 14.9042 6.44194 14.8252 6.43073 14.7472C6.41953 14.6693 6.38982 14.5939 6.34329 14.5255C6.29677 14.457 6.23435 14.3968 6.15959 14.3482Z" fill="black"/>
<path d="M33.6096 15.3524C33.5256 15.3925 33.4522 15.4461 33.3939 15.5102C33.3356 15.5742 33.2936 15.6473 33.2705 15.725L34.6691 15.6975C34.6497 15.6546 34.6262 15.6131 34.5988 15.5732C34.5031 15.4358 34.3451 15.3353 34.1596 15.2939C33.9741 15.2525 33.7763 15.2736 33.6096 15.3524Z" fill="black"/>
<path d="M29.7146 31.6334L30.2079 30.9254L28.6973 30.4097C27.5448 30.9877 26.3251 31.3808 25.0742 31.5775C25.0654 31.4421 25.0254 31.3116 24.9581 31.1987C24.606 30.5622 24.1397 30.0141 23.5885 29.5892C23.0374 29.1642 22.4134 28.8716 21.7559 28.7299C19.599 28.2983 17.5542 29.6422 16.9998 30.0452C15.9024 29.4093 14.888 28.6085 13.985 27.6652C14.06 27.6036 14.1299 27.5347 14.194 27.4593C14.8098 26.7331 14.7417 25.6311 14.6466 25.0397C14.6211 24.7168 14.6496 24.3914 14.7307 24.0802L14.7413 24.0247C14.7888 23.8067 14.8492 23.5925 14.9223 23.3836C15.1267 22.8604 15.2259 22.2935 15.213 21.7228C15.1325 20.5114 14.3612 19.7732 13.7422 19.1802C13.2382 18.6975 12.8027 18.2806 12.7459 17.7237C12.6816 17.0556 12.6751 16.3821 12.7267 15.7126C12.7288 15.683 12.7294 15.6534 12.7285 15.6237C12.693 14.3148 11.6992 13.452 10.0484 13.2588C10.1449 12.7929 10.2604 12.3355 10.3948 11.8868C10.5151 11.9158 10.6372 11.9348 10.76 11.9435C11.614 11.9435 12.3665 11.0883 12.9294 10.3374C13.3273 9.87399 13.8145 9.51814 14.3541 9.29698C14.4524 9.24621 14.5514 9.19504 14.6505 9.14228C15.0163 8.97965 15.3485 8.73517 15.6267 8.42385C15.9049 8.11253 16.1232 7.74095 16.2683 7.33192C16.4773 6.65323 16.291 5.21255 16.2778 5.09831C16.2423 4.68044 16.17 4.2675 16.062 3.86549C17.6528 2.75342 19.435 2.02743 21.2931 1.73462C21.297 1.99641 21.3821 2.59141 21.1738 2.78339C21.0136 2.90459 20.8384 2.99893 20.6538 3.06344C20.5243 3.11857 20.3958 3.17371 20.2726 3.23678C19.6528 3.51585 19.0839 3.91914 18.5938 4.42676C18.0401 5.06142 18.0908 5.6108 18.231 5.96145C18.2997 6.13289 18.4206 6.27153 18.5722 6.35269C18.7238 6.43385 18.8962 6.45227 19.0588 6.40466C19.2214 6.35705 19.3636 6.24652 19.4601 6.09272C19.5566 5.93892 19.6012 5.75185 19.5858 5.56479L19.6085 5.53821C19.9799 5.17435 20.4044 4.88441 20.8636 4.68102C20.9587 4.63223 21.0581 4.59059 21.1578 4.54854C21.4894 4.42785 21.8004 4.24532 22.0775 4.00868C22.7206 3.41369 22.7163 2.55174 22.7131 1.97936V1.90479C22.7131 1.81554 22.7131 1.70883 22.7092 1.59658C22.8675 1.59023 23.0269 1.5827 23.187 1.5827C24.2069 1.58349 25.2234 1.71377 26.2171 1.97103C26.0194 2.27928 25.884 2.63191 25.8205 3.00446C25.7569 3.37701 25.7666 3.76055 25.849 4.12847C25.854 4.15188 25.86 4.17488 25.8667 4.19749C25.9277 4.40502 25.9552 4.623 25.948 4.84128C25.3212 4.78892 22.798 4.69927 22.5889 6.58659C22.584 6.62269 22.58 6.66116 22.5779 6.70083C22.5876 7.00401 22.5265 7.30478 22.4005 7.57349C22.336 7.61989 22.2692 7.66201 22.2003 7.69962C21.9131 7.83447 21.665 8.0555 21.4833 8.33825C21.3378 8.60163 20.8955 9.4017 21.2739 10.1284C21.7026 10.9507 22.7046 10.909 23.9746 10.8563C24.9993 10.8134 26.4052 10.7551 26.8971 11.3235C26.9923 11.4482 27.0612 11.5951 27.0988 11.7535C27.1364 11.9119 27.1417 12.0777 27.1143 12.2386C27.0817 12.312 26.8779 12.437 26.3959 12.4112L26.3186 12.4068C25.6864 12.403 25.0556 12.3399 24.4328 12.2184C23.2473 11.8134 21.7708 11.31 20.2194 11.7555C19.3663 12.0207 18.6032 12.5636 18.0271 13.315C17.4509 14.0665 17.0879 14.9925 16.9842 15.9752C16.8127 17.9454 17.4101 19.3024 18.7617 20.0084L18.8994 20.0806C19.5491 20.5003 20.291 20.7086 21.0411 20.682C21.0688 20.6794 21.0964 20.6751 21.1238 20.6689C21.3246 20.6237 22.1531 20.532 22.5218 20.9069C22.5882 20.9802 22.6383 21.0699 22.6681 21.1687C22.7822 21.147 22.8977 21.1346 23.0134 21.1314L24.1166 21.102C24.0493 20.576 23.8225 20.0916 23.4741 19.73C22.5868 18.8331 21.2079 19.0418 20.8938 19.1037C20.403 19.087 19.9243 18.9294 19.5038 18.6459L19.3619 18.5717C18.8046 18.2806 18.2541 17.7625 18.3961 16.1303C18.471 15.4716 18.7169 14.8519 19.1034 14.3478C19.49 13.8436 20.0002 13.477 20.5711 13.2934C21.6508 12.9836 22.7252 13.2961 24.0165 13.7364C24.7508 13.9012 25.4976 13.9868 26.2465 13.9923L26.3211 13.9966C26.6261 14.0383 26.9356 14.0112 27.2312 13.9171C27.5268 13.8229 27.8025 13.6636 28.0421 13.4484C28.3191 13.176 28.4927 12.7959 28.5277 12.3854C28.5725 11.9968 28.541 11.602 28.4355 11.2284C28.3299 10.8548 28.1528 10.5114 27.9165 10.222C26.9844 9.14387 25.2857 9.21487 23.9203 9.27001C23.4929 9.29761 23.0645 9.29761 22.6372 9.27001L22.6624 9.22082C22.7075 9.1879 22.7934 9.13792 22.853 9.10182C23.0772 8.98965 23.2799 8.82988 23.4496 8.63138C23.8009 8.09303 23.9923 7.4452 23.9969 6.77897C24.0186 6.58381 24.9375 6.33907 25.8781 6.42515C25.8944 6.42515 25.9107 6.42753 25.9271 6.42793C26.1497 6.43965 26.3716 6.39156 26.5741 6.28769C26.7767 6.18382 26.954 6.0272 27.0913 5.83095C27.5676 5.09792 27.3103 4.02613 27.2244 3.72864C27.189 3.48588 27.2184 3.23685 27.3089 3.01267C27.3995 2.78848 27.5471 2.59905 27.7333 2.46805C29.6776 3.25183 31.4357 4.52231 32.873 6.18226C34.3104 7.8422 35.3889 9.84763 36.026 12.0451C35.4292 12.0291 34.8356 12.1467 34.2801 12.3909C34.2006 12.4203 34.1065 12.4552 34.0238 12.4838C33.5286 11.9942 32.8983 11.7088 32.2378 11.675C31.9829 11.6601 31.7283 11.7115 31.4942 11.8251C31.26 11.9387 31.0526 12.1115 30.8883 12.3299C30.7241 12.5482 30.6073 12.8062 30.5473 13.0835C30.4874 13.3608 30.4857 13.6499 30.5426 13.928C30.594 14.1391 30.6673 14.3426 30.7613 14.5345C30.7776 14.5714 30.7968 14.6158 30.817 14.6618C30.6826 14.6751 30.5474 14.6526 30.4223 14.596C30.2452 14.3671 30.0132 14.1997 29.7537 14.1135C29.4942 14.0273 29.218 14.026 28.9579 14.1097C28.7364 14.2018 28.5441 14.3648 28.4052 14.5785C28.2663 14.7922 28.1869 15.0469 28.177 15.3108C28.135 15.7623 28.1764 16.2187 28.2985 16.6516C28.4206 17.0846 28.6208 17.485 28.8869 17.828C29.2827 18.2817 29.7768 18.6132 30.3212 18.7903L30.2466 18.9315C30.1504 19.114 30.0539 19.2984 29.9499 19.4698C29.8228 19.6792 29.6787 19.8855 29.5265 20.1044C29.3334 20.3821 29.1382 20.6649 28.9618 20.9719L30.7535 20.9243C30.8791 20.7431 31.0055 20.5574 31.1247 20.3611C31.244 20.1647 31.3583 19.9489 31.4701 19.7371C31.5223 19.6376 31.5744 19.5388 31.627 19.4428C31.75 19.2672 31.836 19.0628 31.8786 18.8449C31.9213 18.627 31.9195 18.4012 31.8733 18.1842C31.8207 18.0189 31.7353 17.869 31.6234 17.746C31.5115 17.6229 31.3761 17.5299 31.2273 17.4738C31.1148 17.4242 31.0005 17.3778 30.8866 17.3322C30.5379 17.233 30.2156 17.0419 29.9467 16.7749C29.7528 16.5249 29.6313 16.2151 29.5982 15.8863C30.0446 16.1939 30.5745 16.3137 31.0928 16.2243C31.3272 16.2018 31.553 16.1154 31.7505 15.9726C31.948 15.8298 32.111 15.6349 32.2254 15.4052C32.4802 14.8411 32.2222 14.2584 32.0334 13.8328C31.995 13.7463 31.9372 13.6154 31.9269 13.5797C31.9188 13.5396 31.9191 13.4978 31.9279 13.4578C31.9367 13.4178 31.9538 13.3807 31.9776 13.3493C31.9987 13.3184 32.0265 13.2942 32.0584 13.2788C32.0903 13.2635 32.1252 13.2575 32.1597 13.2616C32.3391 13.2629 32.5164 13.3046 32.681 13.3841C32.8457 13.4637 32.9943 13.5794 33.118 13.7245C33.5205 14.3457 34.1907 14.0966 34.7291 13.8967C35.1848 13.7269 35.8092 13.4949 36.1407 13.6892C36.3406 13.8494 36.4767 14.0905 36.5197 14.3612C36.8141 16.5053 36.6906 18.6953 36.1577 20.7811L36.8363 20.7629L37.5008 19.7744C37.6427 19.5692 37.7847 19.3663 37.9267 19.1655C38.3845 15.8022 37.91 12.3627 36.567 9.30966C35.2239 6.25658 33.0766 3.73621 30.4139 2.08738C27.7511 0.43855 24.7005 -0.259702 21.6721 0.0864964C18.6437 0.432695 15.7827 1.80675 13.4738 4.02393C11.1649 6.24111 9.5187 9.19514 8.75655 12.4889C7.99441 15.7826 8.15284 19.2582 9.21055 22.4483C10.2683 25.6384 12.1745 28.3902 14.6731 30.3337C17.1717 32.2772 20.1428 33.3192 23.187 33.3196C25.4495 33.322 27.6825 32.7452 29.7146 31.6334ZM14.8148 4.85199C14.8393 5.02215 14.8585 5.19073 14.8705 5.29744C14.8861 5.43627 14.9003 5.56042 14.9149 5.65443C14.9995 6.03434 15.0036 6.43108 14.927 6.81308C14.8427 7.02236 14.7206 7.20987 14.5683 7.36381C14.416 7.51775 14.2369 7.63479 14.0421 7.70756L13.7582 7.85512C13.0255 8.16745 12.3689 8.6682 11.8415 9.31682C11.5967 9.67244 11.3069 9.98633 10.9812 10.2486C11.8715 8.14475 13.1833 6.29821 14.8148 4.85199ZM13.5889 22.8438C13.4924 23.1216 13.4138 23.4067 13.3535 23.697L13.3432 23.7514C13.2183 24.2624 13.1869 24.7964 13.251 25.3213C13.3422 25.6702 13.3115 26.0448 13.1651 26.3693C13.1003 26.4239 13.0198 26.4498 12.939 26.4419C11.72 24.8577 10.8112 23.0058 10.2711 21.0055C9.73106 19.0051 9.57164 16.9006 9.80313 14.8272C10.3 14.8784 11.2584 15.0529 11.3095 15.6404C11.2547 16.3941 11.264 17.152 11.3372 17.9038C11.4575 19.0803 12.2131 19.8042 12.8201 20.3857C13.4043 20.945 13.7638 21.3147 13.7986 21.8414C13.7892 22.1878 13.7178 22.5286 13.5889 22.8438ZM21.5128 30.2951C22.3258 30.4681 23.0505 30.9776 23.5419 31.7219C23.4237 31.7255 23.3062 31.7326 23.187 31.7326C21.6376 31.7335 20.0998 31.4347 18.6417 30.8492C19.528 30.3491 20.5277 30.1561 21.5128 30.2951Z" fill="black"/>
<path d="M46.3382 33.8218L42.337 20.3291L43.4367 18.9202C44.0052 18.1755 44.5512 17.4134 45.0157 16.7171C45.3407 16.2328 45.463 15.648 45.3581 15.0804C45.2532 14.5128 44.9288 14.0045 44.4501 13.6578L44.4117 13.6292C43.9178 13.2664 43.2992 13.0976 42.6809 13.1571C42.0627 13.2166 41.491 13.4999 41.0815 13.9496C40.5149 14.5747 39.9083 15.2898 39.3224 16.024L38.222 17.4336L23.4104 17.7735C23.2122 17.7784 23.0194 17.8368 22.854 17.9421C22.6886 18.0474 22.5574 18.1954 22.4752 18.369L21.8325 19.7417C21.7734 19.8724 21.7435 20.0137 21.7448 20.1563C21.7461 20.299 21.7786 20.4397 21.8401 20.5695C21.9016 20.6992 21.9908 20.8151 22.1018 20.9096C22.2128 21.004 22.3433 21.075 22.4847 21.1178L33.1581 24.2451L29.3849 28.91L25.63 28.576C25.4836 28.5628 25.3359 28.5791 25.1963 28.6239C25.0567 28.6687 24.9284 28.741 24.8195 28.8361L23.1995 30.2565C23.0693 30.3745 22.9724 30.5223 22.9179 30.6862C22.8633 30.8501 22.8529 31.0246 22.8877 31.1934C22.9224 31.3622 23.0011 31.5198 23.1164 31.6513C23.2318 31.7828 23.3799 31.884 23.547 31.9453L27.2268 33.2406C27.004 33.7203 26.7123 34.3691 26.4964 34.9256C26.4185 35.1252 26.4088 35.3436 26.4687 35.5489C26.5287 35.7541 26.6551 35.9357 26.8297 36.0671C27.0055 36.2008 27.2211 36.2771 27.4451 36.2848C27.669 36.2925 27.8897 36.2313 28.075 36.1099L29.778 35.0026L32.0143 37.8518C32.1248 37.9869 32.2687 38.0932 32.433 38.1609C32.5973 38.2286 32.7765 38.2555 32.9544 38.2392C33.1323 38.2229 33.3031 38.1639 33.4511 38.0675C33.5991 37.9712 33.7197 37.8407 33.8016 37.6879L34.7567 35.8125C34.8222 35.6839 34.8583 35.5433 34.8626 35.4001C34.867 35.2569 34.8394 35.1145 34.7817 34.9824L33.3476 31.695L36.9575 26.898L43.262 35.655C43.3471 35.7704 43.4561 35.8676 43.5821 35.9405C43.7082 36.0134 43.8485 36.0604 43.9944 36.0786C44.1402 36.0967 44.2884 36.0856 44.4296 36.046C44.5707 36.0063 44.7018 35.9389 44.8146 35.8481L46.0125 34.8632C46.1646 34.7378 46.2762 34.573 46.334 34.3884C46.3917 34.2038 46.3932 34.0071 46.3382 33.8218V33.8218ZM44.2041 34.5152L37.5666 25.2946C37.4994 25.2046 37.4111 25.1312 37.3089 25.0802C37.2067 25.0291 37.0935 25.002 36.9784 25.0008C36.8633 24.9997 36.7495 25.0246 36.6462 25.0735C36.543 25.1225 36.4531 25.1942 36.384 25.2827L31.9346 31.1961C31.8616 31.293 31.8159 31.4064 31.8016 31.5253C31.7874 31.6442 31.8053 31.7646 31.8534 31.8749L33.3734 35.3586L32.7831 36.5179L30.5197 33.6338C30.4062 33.4934 30.242 33.3992 30.0596 33.37C29.8772 33.3409 29.6901 33.379 29.5356 33.4766L28.3504 34.2478C28.6222 33.6457 28.8638 33.1503 28.8678 33.1419C28.9093 33.0541 28.9316 32.9591 28.9334 32.8627C28.9352 32.7662 28.9165 32.6705 28.8783 32.5813C28.8402 32.4921 28.7835 32.4114 28.7117 32.3441C28.6399 32.2768 28.5546 32.2244 28.4609 32.1901L24.6695 30.8551L25.6674 29.98L29.6454 30.3353C29.7664 30.3457 29.8882 30.3268 29.9997 30.2803C30.1112 30.2339 30.2089 30.1613 30.2838 30.0693L34.9491 24.3058C35.018 24.2155 35.0638 24.1109 35.0828 24.0003C35.1017 23.8898 35.0933 23.7766 35.0582 23.6698C35.023 23.563 34.9622 23.4657 34.8806 23.3858C34.799 23.3059 34.699 23.2457 34.5886 23.21L23.3427 19.9149L23.6934 19.1657L38.6079 18.8233C38.7174 18.8207 38.8249 18.7943 38.9222 18.746C39.0195 18.6976 39.1042 18.6287 39.1699 18.5444C39.1699 18.5444 41.6265 15.4728 42.1736 14.8697C42.3403 14.6867 42.573 14.5713 42.8247 14.547C43.0763 14.5227 43.3282 14.5911 43.5294 14.7386L43.5678 14.7672C43.7564 14.9023 43.8847 15.1011 43.9271 15.3236C43.9694 15.5462 43.9226 15.7758 43.7961 15.9665C43.3483 16.6384 40.962 19.7713 40.962 19.7713C40.8948 19.8574 40.8492 19.9572 40.8289 20.0631C40.8085 20.169 40.8139 20.2779 40.8446 20.3814L44.873 33.9644L44.2041 34.5152Z" fill="black"/>
</g>
<defs>
<clipPath id="clip0">
<rect width="46.3784" height="39" fill="white"/>
</clipPath>
</defs>
</svg>
