<svg width="40" height="40" viewBox="0 0 40 40" fill="none" xmlns="http://www.w3.org/2000/svg">
<path d="M2 10.6667H5.032C4.70839 11.2031 4.27572 11.6655 3.762 12.024C2.71069 12.1461 1.93777 13.068 2.00101 14.1245C2.06425 15.181 2.94163 16.0042 4 16H10C11.0585 16.0046 11.9362 15.1815 11.9997 14.1249C12.0631 13.0683 11.2901 12.1461 10.2387 12.024C9.72574 11.6646 9.29323 11.2023 8.96867 10.6667H12C13.1046 10.6667 14 9.77124 14 8.66667V6H21.724L20.862 6.862C20.6887 7.02938 20.6192 7.27725 20.6802 7.51034C20.7412 7.74342 20.9232 7.92545 21.1563 7.98646C21.3894 8.04747 21.6373 7.97797 21.8047 7.80467L23.8047 5.80467C23.8107 5.79867 23.8127 5.79067 23.818 5.78467C23.8738 5.72782 23.919 5.66144 23.9513 5.58867C23.9513 5.58333 23.9513 5.57733 23.9553 5.57133C23.9805 5.50383 23.9945 5.43267 23.9967 5.36067C23.9967 5.338 23.9967 5.31667 23.9933 5.294C23.9895 5.2375 23.9786 5.18172 23.9607 5.128C23.9543 5.10529 23.9466 5.08303 23.9373 5.06133C23.9058 4.98691 23.8606 4.91906 23.804 4.86133L21.804 2.86133C21.5424 2.60869 21.1266 2.6123 20.8695 2.86945C20.6123 3.12661 20.6087 3.54241 20.8613 3.804L21.724 4.66667H14V2C14 0.895431 13.1046 0 12 0H2C0.895431 0 0 0.895431 0 2V8.66667C0 9.77124 0.895431 10.6667 2 10.6667ZM10 14.6667H4C3.63181 14.6667 3.33333 14.3682 3.33333 14C3.33333 13.6318 3.63181 13.3333 4 13.3333H10C10.3682 13.3333 10.6667 13.6318 10.6667 14C10.6667 14.3682 10.3682 14.6667 10 14.6667ZM8.26667 12H5.73333C6.06255 11.6022 6.32179 11.1513 6.5 10.6667H7.5C7.67821 11.1513 7.93745 11.6022 8.26667 12ZM12 9.33333H2C1.63181 9.33333 1.33333 9.03486 1.33333 8.66667V8H12.6667V8.66667C12.6667 9.03486 12.3682 9.33333 12 9.33333ZM2 1.33333H12C12.3682 1.33333 12.6667 1.63181 12.6667 2V6.66667H1.33333V2C1.33333 1.63181 1.63181 1.33333 2 1.33333Z" fill="black"/>
<path d="M3.36799 3.99996H3.90932C4.27751 3.99996 4.57599 3.70148 4.57599 3.33329C4.57599 2.9651 4.27751 2.66663 3.90932 2.66663H3.36799C2.9998 2.66663 2.70132 2.9651 2.70132 3.33329C2.70132 3.70148 2.9998 3.99996 3.36799 3.99996Z" fill="black"/>
<path d="M6.66667 3.99996H9.33333C9.70152 3.99996 10 3.70148 10 3.33329C10 2.9651 9.70152 2.66663 9.33333 2.66663H6.66667C6.29848 2.66663 6 2.9651 6 3.33329C6 3.70148 6.29848 3.99996 6.66667 3.99996Z" fill="black"/>
<path d="M38 0H28C26.8954 0 26 0.895431 26 2V8.66667C26 9.77124 26.8954 10.6667 28 10.6667H31.032C30.7084 11.2031 30.2757 11.6655 29.762 12.024C28.7107 12.1461 27.9378 13.068 28.001 14.1245C28.0643 15.181 28.9416 16.0042 30 16H32.6667V20.3907L31.8047 19.5287C31.5431 19.276 31.1273 19.2796 30.8701 19.5368C30.613 19.7939 30.6094 20.2097 30.862 20.4713L32.862 22.4713C32.868 22.4773 32.876 22.4793 32.882 22.4847C32.9388 22.5405 33.0052 22.5856 33.078 22.618C33.1591 22.6508 33.2459 22.6674 33.3333 22.6667C33.51 22.666 33.6793 22.5959 33.8047 22.4713L35.8047 20.4713C36.0573 20.2097 36.0537 19.7939 35.7965 19.5368C35.5394 19.2796 35.1236 19.276 34.862 19.5287L34 20.3907V16H36C37.0585 16.0046 37.9362 15.1815 37.9997 14.1249C38.0631 13.0683 37.2901 12.1461 36.2387 12.024C35.7257 11.6646 35.2932 11.2023 34.9687 10.6667H38C39.1046 10.6667 40 9.77124 40 8.66667V2C40 0.895431 39.1046 0 38 0ZM28 1.33333H38C38.3682 1.33333 38.6667 1.63181 38.6667 2V6.66667H27.3333V2C27.3333 1.63181 27.6318 1.33333 28 1.33333ZM36 14.6667H30C29.6318 14.6667 29.3333 14.3682 29.3333 14C29.3333 13.6318 29.6318 13.3333 30 13.3333H36C36.3682 13.3333 36.6667 13.6318 36.6667 14C36.6667 14.3682 36.3682 14.6667 36 14.6667ZM34.2667 12H31.7333C32.063 11.6023 32.3227 11.1514 32.5013 10.6667H33.5013C33.6791 11.1512 33.9379 11.6021 34.2667 12ZM38 9.33333H28C27.6318 9.33333 27.3333 9.03486 27.3333 8.66667V8H38.6667V8.66667C38.6667 9.03486 38.3682 9.33333 38 9.33333Z" fill="black"/>
<path d="M29.368 3.99996H29.9093C30.2775 3.99996 30.576 3.70148 30.576 3.33329C30.576 2.9651 30.2775 2.66663 29.9093 2.66663H29.368C28.9998 2.66663 28.7013 2.9651 28.7013 3.33329C28.7013 3.70148 28.9998 3.99996 29.368 3.99996Z" fill="black"/>
<path d="M32.6667 3.99996H35.3333C35.7015 3.99996 36 3.70148 36 3.33329C36 2.9651 35.7015 2.66663 35.3333 2.66663H32.6667C32.2985 2.66663 32 2.9651 32 3.33329C32 3.70148 32.2985 3.99996 32.6667 3.99996Z" fill="black"/>
<path d="M38 24H28C26.8954 24 26 24.8954 26 26V28.6667H18.276L19.138 27.8047C19.3906 27.5431 19.387 27.1273 19.1299 26.8701C18.8727 26.613 18.4569 26.6094 18.1953 26.862L16.1953 28.862C16.1387 28.9197 16.0935 28.9876 16.062 29.062C16.0529 29.0837 16.0451 29.106 16.0387 29.1287C16.0208 29.1822 16.0098 29.2377 16.006 29.294C16.006 29.3173 16.002 29.3387 16.006 29.3607C16.0082 29.4327 16.0222 29.5038 16.0473 29.5713C16.0473 29.5773 16.0473 29.5833 16.0513 29.5887C16.0837 29.6614 16.1289 29.7278 16.1847 29.7847C16.19 29.7907 16.192 29.7987 16.198 29.8047L18.198 31.8047C18.4596 32.0573 18.8754 32.0537 19.1325 31.7965C19.3897 31.5394 19.3933 31.1236 19.1407 30.862L18.276 30H26V32.6667C26 33.7712 26.8954 34.6667 28 34.6667H31.032C30.7084 35.2031 30.2757 35.6655 29.762 36.024C28.7107 36.1461 27.9378 37.068 28.001 38.1245C28.0642 39.181 28.9416 40.0042 30 40H36C37.0585 40.0046 37.9362 39.1815 37.9997 38.1249C38.0631 37.0683 37.2901 36.1461 36.2387 36.024C35.7257 35.6646 35.2932 35.2023 34.9687 34.6667H38C39.1046 34.6667 40 33.7712 40 32.6667V26C40 24.8954 39.1046 24 38 24ZM27.3333 26C27.3333 25.6318 27.6318 25.3333 28 25.3333H38C38.3682 25.3333 38.6667 25.6318 38.6667 26V30.6667H27.3333V26ZM36 38.6667H30C29.6318 38.6667 29.3333 38.3682 29.3333 38C29.3333 37.6318 29.6318 37.3333 30 37.3333H36C36.3682 37.3333 36.6667 37.6318 36.6667 38C36.6667 38.3682 36.3682 38.6667 36 38.6667ZM34.2667 36H31.7333C32.063 35.6023 32.3227 35.1514 32.5013 34.6667H33.5013C33.6791 35.1512 33.9379 35.6021 34.2667 36ZM38 33.3333H28C27.6318 33.3333 27.3333 33.0349 27.3333 32.6667V32H38.6667V32.6667C38.6667 33.0349 38.3682 33.3333 38 33.3333Z" fill="black"/>
<path d="M29.368 28H29.9093C30.2775 28 30.576 27.7015 30.576 27.3333C30.576 26.9651 30.2775 26.6666 29.9093 26.6666H29.368C28.9998 26.6666 28.7013 26.9651 28.7013 27.3333C28.7013 27.7015 28.9998 28 29.368 28Z" fill="black"/>
<path d="M32.6667 28H35.3333C35.7015 28 36 27.7015 36 27.3333C36 26.9651 35.7015 26.6666 35.3333 26.6666H32.6667C32.2985 26.6666 32 26.9651 32 27.3333C32 27.7015 32.2985 28 32.6667 28Z" fill="black"/>
<path d="M2 34.6667H5.032C4.70839 35.2031 4.27572 35.6655 3.762 36.024C2.71069 36.1461 1.93777 37.068 2.00101 38.1245C2.06425 39.181 2.94163 40.0042 4 40H10C11.0585 40.0046 11.9362 39.1815 11.9997 38.1249C12.0631 37.0683 11.2901 36.1461 10.2387 36.024C9.72574 35.6646 9.29323 35.2023 8.96867 34.6667H12C13.1046 34.6667 14 33.7712 14 32.6667V26C14 24.8954 13.1046 24 12 24H2C0.895431 24 0 24.8954 0 26V32.6667C0 33.7712 0.895431 34.6667 2 34.6667ZM10 38.6667H4C3.63181 38.6667 3.33333 38.3682 3.33333 38C3.33333 37.6318 3.63181 37.3333 4 37.3333H10C10.3682 37.3333 10.6667 37.6318 10.6667 38C10.6667 38.3682 10.3682 38.6667 10 38.6667ZM8.26667 36H5.73333C6.06255 35.6022 6.32179 35.1513 6.5 34.6667H7.5C7.67821 35.1513 7.93745 35.6022 8.26667 36ZM12 33.3333H2C1.63181 33.3333 1.33333 33.0349 1.33333 32.6667V32H12.6667V32.6667C12.6667 33.0349 12.3682 33.3333 12 33.3333ZM2 25.3333H12C12.3682 25.3333 12.6667 25.6318 12.6667 26V30.6667H1.33333V26C1.33333 25.6318 1.63181 25.3333 2 25.3333Z" fill="black"/>
<path d="M3.36799 28H3.90932C4.27751 28 4.57599 27.7015 4.57599 27.3333C4.57599 26.9651 4.27751 26.6666 3.90932 26.6666H3.36799C2.9998 26.6666 2.70132 26.9651 2.70132 27.3333C2.70132 27.7015 2.9998 28 3.36799 28Z" fill="black"/>
<path d="M6.66667 28H9.33333C9.70152 28 10 27.7015 10 27.3333C10 26.9651 9.70152 26.6666 9.33333 26.6666H6.66667C6.29848 26.6666 6 26.9651 6 27.3333C6 27.7015 6.29848 28 6.66667 28Z" fill="black"/>
</svg>
