<svg width="24" height="24" viewBox="0 0 24 24" fill="none" xmlns="http://www.w3.org/2000/svg">
<path d="M23.1536 9.53625L13.5593 0.96975C13.1295 0.586125 12.576 0.375 12 0.375C11.424 0.375 10.8705 0.586125 10.4407 0.96975L0.846375 9.53625C0.54675 9.80363 0.375 10.1872 0.375 10.5889C0.375 11.367 1.008 12 1.78613 12H3.375V23.625H20.625V12H22.2139C22.992 12 23.625 11.367 23.625 10.5889C23.625 10.1872 23.4533 9.80363 23.1536 9.53625ZM22.2139 11.25H19.875V22.875H4.125V11.25H1.78613C1.42163 11.25 1.125 10.9534 1.125 10.5889C1.125 10.4006 1.20562 10.221 1.34587 10.0958L10.9402 1.52925C11.5245 1.00763 12.4755 1.00763 13.0594 1.52925L22.6537 10.0958C22.7944 10.221 22.875 10.4006 22.875 10.5889C22.875 10.9534 22.5784 11.25 22.2139 11.25Z" fill="black" stroke="black" stroke-width="0.5"/>
<path d="M7.875 14.7206C7.875 14.0475 8.4225 13.5 9.09562 13.5H9.21787C9.258 13.5 9.2985 13.5019 9.33787 13.506L9.41175 12.7598C9.348 12.7534 9.28312 12.75 9.21787 12.75H9.09562C8.00887 12.75 7.125 13.6339 7.125 14.7206C7.125 15.2887 7.37025 15.8291 7.79737 16.2037L11.0029 19.0084L11.4968 18.4436L8.29162 15.6394C8.02687 15.4072 7.875 15.0724 7.875 14.7206Z" fill="black" stroke="black" stroke-width="0.5"/>
<path d="M14.9047 11.25H14.7821C13.8551 11.25 12.984 11.6111 12.3285 12.2666L12 12.5947L11.6719 12.2666C11.016 11.6111 10.1449 11.25 9.21787 11.25H9.09525C7.18162 11.25 5.625 12.8066 5.625 14.7206C5.625 15.7215 6.057 16.6732 6.81 17.3325L12 21.8734L17.19 17.3325C17.943 16.6732 18.375 15.7215 18.375 14.7206C18.375 12.8066 16.8184 11.25 14.9047 11.25ZM16.6957 16.7677L12 20.8766L7.30425 16.7677C6.71363 16.2514 6.375 15.5051 6.375 14.7206C6.375 13.2206 7.59525 12 9.09525 12H9.21787C9.94462 12 10.6275 12.2831 11.1412 12.7969L12 13.6552L12.8588 12.7969C13.3725 12.2831 14.0554 12 14.7821 12H14.9047C16.4047 12 17.625 13.2206 17.625 14.7206C17.625 15.5051 17.2864 16.2514 16.6957 16.7677Z" fill="black" stroke="black" stroke-width="0.5"/>
<path d="M14.625 4.5H9.375V8.25H14.625V4.5ZM13.875 6H12.375V5.25H13.875V6ZM11.625 5.25V6H10.125V5.25H11.625ZM10.125 6.75H11.625V7.5H10.125V6.75ZM12.375 7.5V6.75H13.875V7.5H12.375Z" fill="black" stroke="black" stroke-width="0.5"/>
</svg>
