<svg width="26" height="24" viewBox="0 0 26 24" fill="none" xmlns="http://www.w3.org/2000/svg">
<path fill-rule="evenodd" clip-rule="evenodd" d="M10.6 6.4H2.6C2.15817 6.4 1.8 6.75817 1.8 7.2V21.6C1.8 22.0418 2.15817 22.4 2.6 22.4H23.4C23.8418 22.4 24.2 22.0418 24.2 21.6V7.2C24.2 6.75817 23.8418 6.4 23.4 6.4H15.4V7.2C15.4 8.52548 14.3255 9.6 13 9.6C11.6745 9.6 10.6 8.52548 10.6 7.2V6.4ZM9.8 4.8V1.6C9.8 0.716344 10.5163 0 11.4 0H14.6C15.4837 0 16.2 0.716344 16.2 1.6V4.8H24.2C25.0837 4.8 25.8 5.51634 25.8 6.4V22.4C25.8 23.2837 25.0837 24 24.2 24H1.8C0.916341 24 0.199997 23.2837 0.199997 22.4V6.4C0.199997 5.51634 0.916341 4.8 1.8 4.8H9.8ZM11.8 1.6C11.5791 1.6 11.4 1.77909 11.4 2V7.2C11.4 8.08366 12.1163 8.8 13 8.8C13.8837 8.8 14.6 8.08366 14.6 7.2V2C14.6 1.77909 14.4209 1.6 14.2 1.6H11.8ZM13 8C12.5582 8 12.2 7.64183 12.2 7.2C12.2 6.75817 12.5582 6.4 13 6.4C13.4418 6.4 13.8 6.75817 13.8 7.2C13.8 7.64183 13.4418 8 13 8ZM6.6 16H8.2C9.52548 16 10.6 17.0745 10.6 18.4V19.2H4.2V18.4C4.2 17.0745 5.27451 16 6.6 16ZM5 18.4H9.8C9.8 17.5163 9.08365 16.8 8.2 16.8H6.6C5.71634 16.8 5 17.5163 5 18.4ZM7.4 15.2C6.07451 15.2 5 14.1255 5 12.8C5 11.4745 6.07451 10.4 7.4 10.4C8.72548 10.4 9.8 11.4745 9.8 12.8C9.8 14.1255 8.72548 15.2 7.4 15.2ZM7.4 14.4C8.28365 14.4 9 13.6837 9 12.8C9 11.9163 8.28365 11.2 7.4 11.2C6.51634 11.2 5.8 11.9163 5.8 12.8C5.8 13.6837 6.51634 14.4 7.4 14.4ZM13.4 16.8H17.4C17.6209 16.8 17.8 16.9791 17.8 17.2C17.8 17.4209 17.6209 17.6 17.4 17.6H13.4C13.1791 17.6 13 17.4209 13 17.2C13 16.9791 13.1791 16.8 13.4 16.8ZM13.4 14.4H21.4C21.6209 14.4 21.8 14.5791 21.8 14.8C21.8 15.0209 21.6209 15.2 21.4 15.2H13.4C13.1791 15.2 13 15.0209 13 14.8C13 14.5791 13.1791 14.4 13.4 14.4ZM13.4 12H21.4C21.6209 12 21.8 12.1791 21.8 12.4C21.8 12.6209 21.6209 12.8 21.4 12.8H13.4C13.1791 12.8 13 12.6209 13 12.4C13 12.1791 13.1791 12 13.4 12Z" fill="black"/>
</svg>
