<svg width="40" height="50" viewBox="0 0 40 50" fill="none" xmlns="http://www.w3.org/2000/svg">
<path d="M32.1212 0H7.8788C6.7628 0 5.8584 0.9044 5.8584 2.0204V37.9796C5.8584 39.0956 6.7628 40 7.8788 40H32.1208C33.2368 40 34.1412 39.0956 34.1412 37.9796V2.0204C34.1416 0.9044 33.2372 0 32.1212 0ZM32.7944 37.9796C32.7944 38.3512 32.4924 38.6532 32.1208 38.6532H7.8788C7.5072 38.6532 7.2052 38.3512 7.2052 37.9796V2.0204C7.2052 1.6488 7.5072 1.3468 7.8788 1.3468H32.1208C32.4924 1.3468 32.7944 1.6488 32.7944 2.0204V37.9796ZM10.5724 9.2256H29.428V5.1852H10.5724V9.2256ZM11.6892 6.3016H28.3116V8.1092H11.6892V6.3016ZM24.0404 15.0448C24.2792 15.0448 24.4724 14.8516 24.4724 14.6128C24.4724 14.374 24.2792 14.1808 24.0404 14.1808H15.9596C15.7208 14.1808 15.5276 14.374 15.5276 14.6128C15.5276 14.8512 15.7208 15.0448 15.9596 15.0448H24.0404ZM25.3872 17.548H14.6128C14.374 17.548 14.1808 17.7412 14.1808 17.98C14.1808 18.2188 14.374 18.412 14.6128 18.412H25.3872C25.626 18.412 25.8192 18.2188 25.8192 17.98C25.8192 17.7412 25.6256 17.548 25.3872 17.548ZM25.3872 20.9148H14.6128C14.374 20.9148 14.1808 21.108 14.1808 21.3468C14.1808 21.5852 14.374 21.7788 14.6128 21.7788H25.3872C25.626 21.7788 25.8192 21.5856 25.8192 21.3468C25.8192 21.1084 25.6256 20.9148 25.3872 20.9148ZM25.3872 24.282H14.6128C14.374 24.282 14.1808 24.4756 14.1808 24.714C14.1808 24.9524 14.374 25.146 14.6128 25.146H25.3872C25.626 25.146 25.8192 24.9528 25.8192 24.714C25.8192 24.4752 25.6256 24.282 25.3872 24.282ZM25.3872 27.6488H14.6128C14.374 27.6488 14.1808 27.842 14.1808 28.0808C14.1808 28.3192 14.374 28.5128 14.6128 28.5128H25.3872C25.626 28.5128 25.8192 28.3196 25.8192 28.0808C25.8192 27.842 25.6256 27.6488 25.3872 27.6488Z" fill="black"/>
</svg>
