<svg width="41" height="39" viewBox="0 0 41 39" fill="none" xmlns="http://www.w3.org/2000/svg">
<path d="M14.5 13.3C14.5 12 13.45 11 12.2 11H6.8C5.5 11 4.5 12.05 4.5 13.3V18.65C4.5 19.95 5.55 20.95 6.8 20.95H12.15C13.45 20.95 14.45 19.9 14.45 18.65V13.3H14.5Z" fill="black"/>
<path d="M25.5 13.3C25.5 12 24.45 11 23.2 11H17.8C16.5 11 15.5 12.05 15.5 13.3V18.65C15.5 19.95 16.55 20.95 17.8 20.95H23.15C24.45 20.95 25.45 19.9 25.45 18.65V13.3H25.5ZM23.5 18.7C23.5 18.85 23.35 19 23.2 19H17.8C17.65 19 17.5 18.85 17.5 18.7V13.3C17.5 13.15 17.65 13 17.8 13H23.15C23.3 13 23.45 13.15 23.45 13.3V18.7H23.5Z" fill="black"/>
<path d="M36.5 13.3C36.5 12 35.45 11 34.2 11H28.8C27.5 11 26.5 12.05 26.5 13.3V18.65C26.5 19.95 27.55 20.95 28.8 20.95H34.15C35.45 20.95 36.45 19.9 36.45 18.65V13.3H36.5ZM34.5 18.7C34.5 18.85 34.35 19 34.2 19H28.8C28.65 19 28.5 18.85 28.5 18.7V13.3C28.5 13.15 28.65 13 28.8 13H34.15C34.3 13 34.45 13.15 34.45 13.3V18.7H34.5Z" fill="black"/>
<path d="M12.2 22.5H6.8C5.5 22.5 4.5 23.55 4.5 24.8V30.15C4.5 31.45 5.55 32.45 6.8 32.45H12.15C13.45 32.45 14.45 31.4 14.45 30.15V24.8C14.5 23.55 13.45 22.5 12.2 22.5ZM12.5 30.2C12.5 30.35 12.35 30.5 12.2 30.5H6.8C6.65 30.5 6.5 30.35 6.5 30.2V24.8C6.5 24.65 6.65 24.5 6.8 24.5H12.15C12.3 24.5 12.45 24.65 12.45 24.8V30.2H12.5Z" fill="black"/>
<path d="M23.2 22.5H17.8C16.5 22.5 15.5 23.55 15.5 24.8V30.15C15.5 31.45 16.55 32.45 17.8 32.45H23.15C24.45 32.45 25.45 31.4 25.45 30.15V24.8C25.5 23.55 24.45 22.5 23.2 22.5ZM23.5 30.2C23.5 30.35 23.35 30.5 23.2 30.5H17.8C17.65 30.5 17.5 30.35 17.5 30.2V24.8C17.5 24.65 17.65 24.5 17.8 24.5H23.15C23.3 24.5 23.45 24.65 23.45 24.8V30.2H23.5Z" fill="black"/>
<path d="M34.2 22.5H28.8C27.5 22.5 26.5 23.55 26.5 24.8V30.15C26.5 31.45 27.55 32.45 28.8 32.45H34.15C35.45 32.45 36.45 31.4 36.45 30.15V24.8C36.5 23.55 35.45 22.5 34.2 22.5ZM34.5 30.2C34.5 30.35 34.35 30.5 34.2 30.5H28.8C28.65 30.5 28.5 30.35 28.5 30.2V24.8C28.5 24.65 28.65 24.5 28.8 24.5H34.15C34.3 24.5 34.45 24.65 34.45 24.8V30.2H34.5Z" fill="black"/>
<path d="M9.75 9H10.8C11.75 9 12.55 8.25 12.55 7.25V1.75C12.55 0.8 11.8 0 10.8 0H9.75C8.8 0 8 0.75 8 1.75V7.3C8 8.25 8.75 9 9.75 9ZM10 2H10.5V7H10V2Z" fill="black"/>
<path d="M30.25 9H31.3C32.25 9 33.05 8.25 33.05 7.25V1.75C33.05 0.8 32.3 0 31.3 0H30.25C29.3 0 28.5 0.75 28.5 1.75V7.3C28.5 8.25 29.25 9 30.25 9ZM30.5 2H31V7H30.5V2Z" fill="black"/>
<path d="M14.5 5.5H26.5C27.05 5.5 27.5 5.05 27.5 4.5C27.5 3.95 27.05 3.5 26.5 3.5H14.5C13.95 3.5 13.5 3.95 13.5 4.5C13.5 5.05 13.95 5.5 14.5 5.5Z" fill="black"/>
<path d="M36.35 3.5H35C34.45 3.5 34 3.95 34 4.5C34 5.05 34.45 5.5 35 5.5H36.35C37.55 5.5 38.5 6.45 38.5 7.65V33.9C38.5 35.1 37.55 36.05 36.35 36.05H4.65C3.45 36.05 2.5 35.1 2.5 33.9V7.65C2.5 6.45 3.45 5.5 4.65 5.5H6C6.55 5.5 7 5.05 7 4.5C7 3.95 6.55 3.5 6 3.5H4.65C2.35 3.5 0.5 5.35 0.5 7.65V33.9C0.5 36.2 2.35 38.05 4.65 38.05H36.4C38.7 38.05 40.55 36.2 40.55 33.9V7.65C40.5 5.35 38.65 3.5 36.35 3.5Z" fill="black"/>
</svg>
