<svg width="34" height="40" viewBox="0 0 34 40" fill="none" xmlns="http://www.w3.org/2000/svg">
<path d="M4.1875 29.5312H8.53125C9.04688 29.5312 9.5 29.1172 9.5 28.6016V16.4531C9.5 15.9375 9.05469 15.5469 8.53125 15.5469H5.04688V14.8672C5.04688 8.10156 10.4219 2.60156 17 2.60156C23.5781 2.60156 28.9531 8.10156 28.9531 14.8672V15.5469H25.4688C24.9531 15.5469 24.5 15.9375 24.5 16.4531V28.6016C24.5 29.1172 24.9453 29.5312 25.4688 29.5312H26.375V32.6328C26.375 34.0938 25.1797 35.3125 23.7188 35.3125H17.7656C17.3906 34.0625 16.2578 33.1875 14.9062 33.1875C13.2578 33.1875 11.9141 34.5156 11.9141 36.1719V36.2812C11.9141 37.9297 13.25 39.2891 14.9062 39.2891C16.25 39.2891 17.3828 38.3594 17.7656 37.1875H23.7188C26.2188 37.1875 28.25 35.125 28.25 32.6328V29.5312H29.8125C31.625 29.5312 33.0938 28.0625 33.0938 26.2578V18.7969C33.0938 17.3359 32.1562 16.0938 30.8281 15.6719V14.8672C30.8281 7.07031 24.6094 0.726562 17 0.726562C9.39062 0.726562 3.17188 7.07031 3.17188 14.8672V15.6719C1.84375 16.0938 0.90625 17.3359 0.90625 18.7969V26.2578C0.90625 28.0625 2.375 29.5312 4.1875 29.5312ZM16.0625 36.2812C16.0625 36.8984 15.5469 37.4062 14.9297 37.4062C14.3125 37.4062 13.7969 36.9062 13.7969 36.2812V36.1719C13.7969 35.5547 14.3125 35.0469 14.9297 35.0469C15.5469 35.0469 16.0625 35.5547 16.0625 36.1719V36.2812ZM31.2188 18.7969V26.2578C31.2188 27.0313 30.5859 27.6562 29.8125 27.6562H26.375V17.4219H29.8125C30.5859 17.4219 31.2188 18.0234 31.2188 18.7969ZM2.78125 18.7969C2.78125 18.0234 3.41406 17.4219 4.1875 17.4219H7.625V27.6562H4.1875C3.41406 27.6562 2.78125 27.0313 2.78125 26.2578V18.7969Z" fill="black"/>
</svg>
