<svg width="30" height="38" viewBox="0 0 30 38" fill="none" xmlns="http://www.w3.org/2000/svg">
<path d="M11.3169 12.9528C10.6621 12.9528 10.0162 13.1257 9.44907 13.453L9.23711 13.5753L5.88586 15.5074C5.87875 15.5115 5.87219 15.5162 5.86524 15.5205L2.07344 17.7081C1.20782 18.2077 0.587739 19.017 0.327505 19.987C0.0671142 20.9573 0.199067 21.9681 0.699067 22.8335C1.36657 23.9885 2.61555 24.706 3.95868 24.706C4.61297 24.706 5.2586 24.5335 5.82672 24.2068L9.63664 22.0074C9.63735 22.007 9.63813 22.0067 9.63883 22.0063L13.2016 19.9494C14.067 19.4511 14.687 18.6419 14.9471 17.6708C15.2073 16.7001 15.075 15.6898 14.5755 14.827C13.9085 13.671 12.6599 12.9528 11.3169 12.9528ZM5.12469 22.9884C4.77055 23.1921 4.36735 23.2997 3.95875 23.2997C3.11618 23.2997 2.33375 22.8514 1.91672 22.1299C1.60485 21.5902 1.52282 20.9586 1.68579 20.3514C1.84868 19.7442 2.23602 19.2379 2.77633 18.9261L5.88563 17.1323C5.98774 17.3538 6.10016 17.5723 6.22321 17.7861L7.8336 20.5746C7.95657 20.7871 8.09055 20.9935 8.23258 21.1941L5.12469 22.9884ZM13.5888 17.3069C13.5582 17.4208 13.5198 17.5312 13.474 17.6373C13.2755 18.0973 12.938 18.4785 12.4991 18.731L12.1654 18.9237L9.45578 20.4879C9.30946 20.2899 9.17414 20.0835 9.05102 19.8708L7.44149 17.0838C7.31797 16.8692 7.20704 16.6494 7.10938 16.4263L10.1357 14.6803L10.1519 14.671C10.1961 14.6454 10.241 14.6214 10.2867 14.599C10.5415 14.4735 10.8176 14.3968 11.1 14.3703C11.172 14.3636 11.2442 14.3589 11.3168 14.3589C12.1588 14.3589 12.9406 14.8075 13.3578 15.5307C13.6695 16.0688 13.7515 16.6996 13.5888 17.3069Z" fill="black"/>
<path d="M26.7132 23.3018C26.1459 22.9745 25.5002 22.8015 24.8453 22.8015C24.8452 22.8015 24.8452 22.8015 24.8452 22.8015C23.5026 22.8015 22.2536 23.5193 21.5856 24.6752L21.4174 24.9664L19.5283 28.2348C19.5255 28.2397 19.5232 28.2449 19.5204 28.2498L17.3273 32.0461C16.2938 33.8381 16.9105 36.137 18.7018 37.1708C19.2686 37.4982 19.9143 37.6713 20.5689 37.6713C21.9114 37.6713 23.1602 36.9532 23.8282 35.7972L28.0863 28.427C28.5861 27.5618 28.7184 26.551 28.4585 25.5809C28.1986 24.6106 27.5788 23.8012 26.7132 23.3018ZM27.1002 25.9447C27.1206 26.0207 27.137 26.0969 27.1497 26.1733C27.226 26.6319 27.1656 27.0962 26.9749 27.517C26.9708 27.5259 26.9662 27.5347 26.962 27.5436C26.9499 27.5696 26.9376 27.5955 26.9245 27.6211C26.9068 27.6555 26.8882 27.6897 26.8688 27.7234L25.1119 30.763C24.8841 30.664 24.6642 30.5536 24.4542 30.4325L21.6642 28.8223C21.4506 28.699 21.2443 28.564 21.0471 28.4187L22.7024 25.5536L22.8033 25.379C23.2209 24.6565 24.0033 24.2078 24.8455 24.2078C25.2538 24.2078 25.6567 24.3157 26.0105 24.5198C26.5505 24.8315 26.9375 25.3375 27.1002 25.9447ZM22.6106 35.0936C22.1931 35.8161 21.4109 36.265 20.5689 36.265C20.1608 36.265 19.7584 36.1571 19.405 35.9529C18.2848 35.3065 17.8992 33.869 18.5452 32.7491L20.3406 29.6414C20.5409 29.783 20.7477 29.9169 20.9611 30.0401L23.7512 31.6504C23.9617 31.7718 24.1808 31.8835 24.4056 31.9865L22.6106 35.0936Z" fill="black"/>
<path d="M29.3015 9.59871L27.2441 6.03613C27.2419 6.03246 27.2394 6.02902 27.2372 6.02543L25.0421 2.2255C24.376 1.07074 23.1284 0.353394 21.7861 0.353394C21.1305 0.353394 20.4837 0.526597 19.9156 0.854409C19.0494 1.35441 18.4294 2.16449 18.1697 3.13543C17.9105 4.10488 18.0431 5.11418 18.5426 5.97676L20.7341 9.77012C20.7373 9.77598 20.7399 9.78199 20.7433 9.78785L22.8004 13.3468C23.4673 14.5029 24.7161 15.2211 26.0595 15.2211C26.7144 15.2211 27.3601 15.0481 27.9268 14.7208C28.1973 14.5647 28.4437 14.3784 28.6627 14.1664C29.1445 13.6999 29.4934 13.109 29.6723 12.4422C29.9324 11.4724 29.8007 10.4625 29.3015 9.59871ZM19.5283 3.49863C19.6907 2.89097 20.078 2.38441 20.6185 2.07246C20.9731 1.86785 21.3769 1.75972 21.7861 1.75972C22.6273 1.75972 23.4082 2.20746 23.8242 2.92863L25.6194 6.03637C25.3932 6.14027 25.1741 6.25285 24.9651 6.37472L22.1747 7.98238C21.9642 8.10387 21.7575 8.23722 21.5553 8.38066L19.7598 5.27269C19.4484 4.73488 19.3662 4.1048 19.5283 3.49863ZM28.3141 12.0779C28.1512 12.685 27.7641 13.1911 27.2237 13.5029C26.8705 13.7069 26.4679 13.8148 26.0596 13.8148C25.9543 13.8148 25.8499 13.8078 25.7471 13.7941C25.0273 13.6983 24.383 13.2759 24.0183 12.6435L23.9936 12.6007L22.2625 9.60426C22.4624 9.45629 22.668 9.32129 22.8773 9.20051L25.6708 7.59113C25.8787 7.46972 26.0979 7.35887 26.3262 7.25957L28.0838 10.3021C28.2976 10.6718 28.4031 11.0851 28.3955 11.5043C28.3955 11.5047 28.3955 11.5052 28.3955 11.5057C28.3919 11.6964 28.3649 11.8883 28.3141 12.0779Z" fill="black"/>
<path d="M8.49916 26.4075C6.5876 26.4075 5.03244 27.9605 5.03244 29.8694C5.03244 31.7799 6.5876 33.3342 8.49916 33.3342C10.4091 33.3342 11.9629 31.7799 11.9629 29.8694C11.9629 27.9605 10.4091 26.4075 8.49916 26.4075ZM8.49916 31.928C7.36307 31.928 6.43869 31.0046 6.43869 29.8695C6.43869 28.7359 7.36307 27.8138 8.49916 27.8138C9.63361 27.8138 10.5567 28.736 10.5567 29.8695C10.5567 31.0045 9.63369 31.928 8.49916 31.928Z" fill="black"/>
<path d="M12.412 5.01544C10.5013 5.01544 8.94689 6.56841 8.94673 8.47732C8.94673 10.3862 10.5013 11.9393 12.412 11.9393C14.3227 11.9393 15.8772 10.3862 15.8772 8.47732C15.8773 6.56841 14.3227 5.01544 12.412 5.01544ZM12.412 10.533C11.2767 10.533 10.353 9.61083 10.353 8.47732C10.353 7.3438 11.2767 6.42161 12.412 6.42161C13.5474 6.42161 14.471 7.3438 14.471 8.47724C14.471 9.61083 13.5474 10.533 12.412 10.533Z" fill="black"/>
<path d="M20.4689 21.6008C22.3797 21.6008 23.9341 20.0478 23.9341 18.1389C23.9341 16.2284 22.3797 14.6741 20.4689 14.6741C18.5581 14.6741 17.0037 16.2284 17.0037 18.1389C17.0036 20.0478 18.5581 21.6008 20.4689 21.6008ZM20.4689 16.0804C21.6042 16.0804 22.5279 17.0038 22.5279 18.1389C22.5279 19.2723 21.6042 20.1945 20.4689 20.1945C19.3336 20.1945 18.4099 19.2723 18.4099 18.1389C18.4098 17.0038 19.3336 16.0804 20.4689 16.0804Z" fill="black"/>
</svg>
