<svg width="40" height="40" viewBox="0 0 40 40" fill="none" xmlns="http://www.w3.org/2000/svg">
<path d="M16.5922 19.1084C16.6326 18.8711 16.4731 18.646 16.2359 18.6055C15.9987 18.5651 15.7735 18.7246 15.733 18.9618L13.4549 32.2541C13.4144 32.4913 13.5739 32.7165 13.8111 32.7569C14.0484 32.7974 14.2342 32.8395 14.2746 32.6023L16.5922 19.1083L16.5922 19.1084Z" fill="black"/>
<path d="M21.3234 12.5807C20.8923 12.2948 20.386 12.2066 19.9133 12.2958C19.4335 12.3864 18.9879 12.6603 18.6905 13.096C18.3932 13.5318 18.3006 14.047 18.3913 14.5275C18.4728 14.9594 18.7028 15.3634 19.0656 15.6567C19.1309 15.5558 19.1938 15.4469 19.2533 15.3293C19.3884 15.0624 19.5059 14.7543 19.5972 14.3986L19.5956 14.3982L19.5959 14.3972L19.5957 14.3972C19.5969 14.3924 19.5982 14.3877 19.5996 14.383C19.6957 14.0232 19.9275 13.7341 20.226 13.557C20.523 13.3807 20.8859 13.3158 21.2464 13.4028C21.2591 13.4054 21.2716 13.4086 21.2838 13.4123C21.6416 13.5092 21.929 13.7402 22.1055 14.0376C22.2818 14.3345 22.3466 14.6974 22.2597 15.0579C22.2554 15.0784 22.2498 15.0983 22.2427 15.1176C22.056 15.8305 21.8011 16.4321 21.5035 16.9397C21.2517 17.3692 20.9704 17.7311 20.6744 18.0359C21.1235 19.5113 21.2095 21.425 21.1005 23.3493C20.9388 26.2042 20.3484 29.1038 19.8852 30.5975L19.8816 30.6111L19.8818 30.6112L19.8806 30.6149L19.3867 32.4582C19.3507 32.5928 19.3724 32.7289 19.4367 32.84C19.501 32.9513 19.6082 33.0382 19.7429 33.0742C19.8775 33.1101 20.0136 33.0884 20.1246 33.0242C20.2359 32.9598 20.3228 32.8526 20.3588 32.718L20.8549 30.8666L22.451 23.5811L22.8771 23.6731L22.4509 23.5798C22.5024 23.3444 22.7351 23.1953 22.9705 23.2469C23.1582 23.288 23.291 23.4443 23.311 23.6253L24.6965 32.7393C24.7356 32.864 24.8191 32.9633 24.9245 33.0242C25.0356 33.0884 25.1716 33.1102 25.3062 33.0742C25.4409 33.0382 25.5481 32.9513 25.6124 32.84C25.6767 32.7289 25.6984 32.5929 25.6624 32.4582L25.6619 32.4584C25.6587 32.4464 25.6561 32.4344 25.6539 32.4224C25.1572 29.6443 25.1784 26.9247 25.1983 24.3788C25.2368 19.4439 25.27 15.1834 21.3516 12.5986L21.5903 12.2355L21.35 12.5998C21.3408 12.5937 21.332 12.5874 21.3234 12.5808L21.3234 12.5807ZM19.7531 11.4401C20.4426 11.31 21.1812 11.4394 21.8098 11.8583C21.8168 11.8624 21.8237 11.8667 21.8305 11.8712L21.83 11.872L21.8357 11.8758L21.8352 11.8766C26.1428 14.7227 26.1081 19.1983 26.0676 24.3821C26.0482 26.8795 26.0274 29.5471 26.5117 32.2613C26.5992 32.6185 26.5377 32.9791 26.3659 33.2763C26.1897 33.5809 25.8975 33.8184 25.5313 33.9162C25.1649 34.0141 24.7931 33.9539 24.4882 33.7776C24.1912 33.6058 23.9581 33.3238 23.8559 32.9705C23.8479 32.9466 23.8418 32.9217 23.8379 32.896L24.2693 32.8304L23.838 32.8952L22.7996 26.0644L21.7092 31.0414C21.707 31.054 21.7042 31.0666 21.7009 31.0791L21.7003 31.0789L21.2009 32.9429C21.103 33.3092 20.8656 33.6014 20.561 33.7776C20.256 33.9539 19.8841 34.014 19.5179 33.9162C19.1516 33.8183 18.8594 33.5809 18.6833 33.2763C18.5069 32.9713 18.4467 32.5995 18.5446 32.2331L19.0386 30.3896C19.0414 30.3769 19.0446 30.3643 19.0486 30.3517L19.4652 30.4814L19.0493 30.3518C19.4984 28.9092 20.0734 26.087 20.2311 23.3015C20.3404 21.3717 20.2498 19.4705 19.7768 18.0873C19.705 17.9221 19.7409 17.7227 19.8804 17.5933L19.8811 17.594C20.1947 17.3031 20.4933 16.9438 20.7535 16.4999C21.0135 16.0564 21.237 15.5279 21.4019 14.8982C21.404 14.8856 21.4066 14.873 21.4098 14.8604L21.41 14.8605C21.4441 14.7261 21.4208 14.5908 21.3555 14.4807C21.2922 14.374 21.1884 14.2907 21.0588 14.255L21.049 14.2527L21.049 14.2525C20.9146 14.2183 20.7793 14.2416 20.6692 14.307C20.5623 14.3704 20.479 14.4743 20.4434 14.6042L20.441 14.614L20.4392 14.6136C20.3301 15.0389 20.1905 15.4055 20.0306 15.7213C19.8726 16.0333 19.6941 16.2992 19.5044 16.5257C19.4976 16.535 19.4905 16.5441 19.4829 16.553C19.3262 16.7361 19.0507 16.7575 18.8676 16.6008L18.8683 16.5999C18.8349 16.5713 18.8057 16.5469 18.783 16.5292C18.7613 16.5123 18.7343 16.4927 18.7006 16.4696C18.0665 16.0368 17.6677 15.3875 17.5356 14.6877C17.4037 13.9887 17.5385 13.2392 17.9712 12.6051C18.404 11.9709 19.0533 11.5722 19.7531 11.4401L19.7531 11.4401Z" fill="black"/>
<path d="M16.8882 17.8076C16.7509 17.8068 16.6262 17.8607 16.5352 17.9488C16.4424 18.0388 16.3839 18.1635 16.3817 18.3016C16.3796 18.4397 16.4337 18.5658 16.5229 18.6579C16.6117 18.7495 16.7339 18.8077 16.8689 18.8112V18.8096H16.8693L16.8795 18.8113C16.9191 18.8123 20.3684 18.8986 21.4084 14.8729L21.4099 14.861C21.4442 14.7264 21.4209 14.591 21.3555 14.4808C21.2907 14.3716 21.1836 14.2869 21.0496 14.2526H21.0495L16.8882 17.8076ZM15.9284 17.325C16.1794 17.0817 16.5224 16.9338 16.8983 16.9383V16.9366H16.8985L16.9087 16.9383C16.9304 16.9389 18.9318 16.9911 19.5972 14.3987L19.5957 14.3983C19.6892 14.0314 19.9233 13.7367 20.2261 13.557C20.5279 13.3779 20.8978 13.3138 21.2642 13.4072L21.2643 13.4072C21.6312 13.5008 21.9258 13.7348 22.1055 14.0376C22.2847 14.3394 22.3488 14.7094 22.2553 15.0757L22.2537 15.0753L22.2536 15.0758C21.0726 19.6783 17.094 19.684 16.8693 19.6808V19.6823H16.8689L16.8641 19.6807L16.859 19.6806V19.6805C16.4808 19.6734 16.1417 19.5151 15.8991 19.2647C15.6547 19.0125 15.5065 18.667 15.5124 18.288C15.5184 17.909 15.6769 17.5686 15.9283 17.325L15.9284 17.325ZM21.0495 14.2526C20.9149 14.2183 20.7794 14.2417 20.6693 14.307C20.56 14.3719 20.4753 14.4791 20.4411 14.6131H20.4394C19.6274 17.7775 17.0816 17.8096 16.8985 17.8078V17.8093H16.8983L16.8934 17.8077L16.8882 17.8076V17.8076" fill="black"/>
<path d="M16.9494 6.03638C17.7578 6.03638 18.4898 6.36412 19.0196 6.89394C19.5494 7.42377 19.8772 8.15573 19.8772 8.96418C19.8772 9.77264 19.5494 10.5046 19.0196 11.0344C18.4898 11.5643 17.7578 11.892 16.9494 11.892C16.1409 11.892 15.4089 11.5643 14.8791 11.0344C14.3493 10.5046 14.0215 9.77264 14.0215 8.96418C14.0215 8.15573 14.3493 7.42377 14.8791 6.89394C15.4089 6.36412 16.1409 6.03638 16.9494 6.03638ZM18.4025 7.51099C18.0307 7.13914 17.5169 6.9091 16.9494 6.9091C16.3818 6.9091 15.868 7.13914 15.4961 7.51099C15.1243 7.88285 14.8943 8.39665 14.8943 8.96418C14.8943 9.53171 15.1243 10.0455 15.4961 10.4174C15.868 10.7892 16.3818 11.0193 16.9494 11.0193C17.5169 11.0193 18.0307 10.7892 18.4025 10.4174C18.7744 10.0455 19.0044 9.5317 19.0044 8.96418C19.0044 8.39665 18.7744 7.88285 18.4025 7.51099Z" fill="black"/>
<path fill-rule="evenodd" clip-rule="evenodd" d="M7.00834 0H32.9916C36.8462 0 40 3.15374 40 7.00834V32.9916C40 36.8462 36.8462 40 32.9916 40H7.00834C3.15374 40 0 36.8462 0 32.9916V7.00834C0 3.15374 3.15374 0 7.00834 0ZM7.00837 1.75205H32.9916C35.8826 1.75205 38.2479 4.11737 38.2479 7.00832V32.9916C38.2479 35.8825 35.8826 38.2479 32.9916 38.2479H7.00837C4.11741 38.2479 1.75209 35.8825 1.75209 32.9916V7.00832C1.75209 4.11737 4.11741 1.75205 7.00837 1.75205Z" fill="black"/>
</svg>
