<svg width="36" height="36" viewBox="0 0 36 36" fill="none" xmlns="http://www.w3.org/2000/svg">
<path d="M4.10313 16.0875C4.10313 16.0881 4.10375 16.0888 4.10375 16.0894C4.10375 16.0888 4.10313 16.0881 4.10313 16.0875ZM13.0556 34.8275C12.7806 34.5081 12.2938 34.1094 11.2394 34.3188C10.9138 34.3969 9.83188 34.6356 8.595 34.6938C6.83625 34.7756 5.52063 34.4575 4.68563 33.7463C3.96063 33.1288 3.60625 32.225 3.68625 31.2031L3.70125 31.0156L3.7625 30.8463C3.87313 30.5163 3.9975 29.7444 3.6875 29.4106C3.16875 28.9206 2.815 28.0694 3.04375 27.1369C2.67125 26.5525 2.51063 25.955 2.5775 25.3869C2.60188 25.185 2.65375 24.9913 2.73125 24.8094C1.9625 24.4856 1.20438 23.9713 0.869377 23.1588C0.690627 22.7256 0.496877 21.8494 1.20313 20.84L1.29 20.7281C1.99688 19.9113 2.73813 18.8913 3.27313 18.0006C4.09875 16.6263 4.10063 16.1331 4.09688 16.0706C3.81063 15.3081 3.49313 14.4488 3.60688 13.4688C3.86625 10.4969 5.48 3.35064 14.8006 0.858764L14.9775 0.811264C15.0494 0.789389 15.1381 0.765639 15.2394 0.749389C18.5912 -0.0612362 21.9944 0.180014 25.0819 1.44814C27.9706 2.63439 30.4681 4.65001 32.3044 7.27814C34.135 9.89876 35.1662 12.925 35.2862 16.0319C35.4156 19.375 34.4619 22.6613 32.5294 25.5363C31.9581 26.4325 31.2737 27.3844 30.5494 28.2888L30.4887 28.365L30.4294 28.4206C30.3287 28.525 28.9619 30.0413 30.5325 33.4881C30.8875 34.2669 30.61 35.1888 29.8825 35.6406L29.8725 35.625C28.5344 33.3819 27.9969 31.3494 28.2737 29.585C28.4969 28.1669 29.1819 27.4281 29.32 27.2919C30.0087 26.4294 30.6581 25.5269 31.1987 24.6775L31.21 24.6606C32.9581 22.0644 33.8206 19.1019 33.7044 16.0938C33.5962 13.2913 32.6631 10.5563 31.0062 8.18501C29.3444 5.80689 27.0875 3.98376 24.48 2.91314C21.6931 1.76876 18.6156 1.55626 15.5787 2.29626L15.5363 2.30689L15.4937 2.31251C15.4725 2.31564 15.425 2.33126 15.3869 2.34376L15.2312 2.39501H15.1844C6.84 4.63689 5.41063 10.9888 5.18313 13.6181L5.18 13.6444C5.10625 14.2544 5.33875 14.8744 5.58438 15.5294C5.74875 15.96 5.83813 16.7594 4.71375 18.6763C4.12938 19.6719 3.30313 20.8188 2.50125 21.7481L2.48938 21.7625C2.28625 22.0594 2.235 22.3181 2.33313 22.555C2.49875 22.9563 3.12813 23.3381 4.01688 23.5769L4.60375 23.7338V24.995L4.3375 25.2313C4.22688 25.3294 4.16563 25.4406 4.15 25.5725C4.12063 25.8213 4.26313 26.1638 4.54125 26.5106L4.84313 26.8881L4.64563 27.3288C4.395 27.8869 4.73938 28.2256 4.77875 28.2619L4.80938 28.2913C5.87563 29.38 5.33813 31.1263 5.26313 31.3506C5.22875 31.8569 5.37938 32.2563 5.7125 32.5394C6.78625 33.4538 9.56438 33.0925 10.8838 32.7744L10.9119 32.7675C12.6438 32.4169 13.6856 33.1319 14.2556 33.7931C14.6544 34.2569 14.8844 34.7619 15.0013 35.0788C15.0612 35.2406 14.9675 35.4188 14.7994 35.4613L13.8206 35.7088C13.68 35.7444 13.535 35.6706 13.48 35.5363C13.4025 35.3475 13.2663 35.0725 13.0556 34.8275Z" fill="#333333"/>
<path d="M18.065 8.28681C24.0369 8.28681 28.8775 13.1281 28.8775 19.0993C28.8775 20.3168 28.6763 21.4874 28.305 22.5793C29.3787 20.8999 30.0012 18.9043 30.0012 16.7631C30.0012 10.7912 25.16 5.95056 19.1887 5.95056C14.4344 5.95056 10.3969 9.01869 8.94812 13.2831C10.8694 10.2787 14.2344 8.28681 18.065 8.28681Z" fill="#333333"/>
<path d="M19.5556 25.9587H18.725V27.6362H19.5556V25.9587Z" fill="#333333"/>
<path d="M21.165 25.7564L20.347 25.9004L20.6379 27.5524L21.4559 27.4084L21.165 25.7564Z" fill="#333333"/>
<path d="M22.6432 25.3189L21.8625 25.6025L22.4353 27.1792L23.216 26.8956L22.6432 25.3189Z" fill="#333333"/>
<path d="M23.2968 24.8974L24.2343 26.4205L24.9706 25.9299L24.1031 24.6287L23.2968 24.8974Z" fill="#333333"/>
<path d="M25.331 23.5596L24.6945 24.0933L25.7723 25.3787L26.4088 24.8451L25.331 23.5596Z" fill="#333333"/>
<path d="M26.4021 22.4195L25.8679 23.0555L27.1523 24.1345L27.6866 23.4985L26.4021 22.4195Z" fill="#333333"/>
<path d="M8.63525 14.5904L8.49072 15.4083L10.1426 15.7002L10.2871 14.8823L8.63525 14.5904Z" fill="#333333"/>
<path d="M10.095 16.4275H8.41748V17.2581H10.095V16.4275Z" fill="#333333"/>
<path d="M10.151 18.0503L8.49921 18.3422L8.64374 19.1601L10.2956 18.8682L10.151 18.0503Z" fill="#333333"/>
<path d="M10.4542 19.5657L8.87784 20.1395L9.16199 20.9201L10.7383 20.3462L10.4542 19.5657Z" fill="#333333"/>
<path d="M11.1562 20.9994L9.63309 21.9369L10.1237 22.6725L11.425 21.805L11.1562 20.9994Z" fill="#333333"/>
<path d="M11.9581 22.3945L10.6735 23.4731L11.2076 24.1092L12.4922 23.0306L11.9581 22.3945Z" fill="#333333"/>
<path d="M12.9963 23.5676L11.9178 24.8525L12.554 25.3865L13.6325 24.1016L12.9963 23.5676Z" fill="#333333"/>
<path d="M14.2487 24.6287L13.3812 25.9299L14.1175 26.4212L15.0544 24.8974L14.2487 24.6287Z" fill="#333333"/>
<path d="M15.6217 25.2878L15.0487 26.8645L15.8294 27.1482L16.4024 25.5716L15.6217 25.2878Z" fill="#333333"/>
<path d="M17.1804 25.7643L16.8896 27.4165L17.7077 27.5605L17.9984 25.9083L17.1804 25.7643Z" fill="#333333"/>
<path d="M24.4125 11.4999C24.4125 11.4999 18.6194 14.8174 17.9019 15.5961C17.1844 16.3749 17.2331 17.5718 18.0119 18.2899C18.7906 19.0074 19.9875 18.9586 20.7056 18.1799C21.4225 17.4011 24.4125 11.4999 24.4125 11.4999ZM18.5856 17.6668C18.1556 17.2705 18.1281 16.6005 18.5244 16.1705C18.9206 15.7405 19.5906 15.713 20.0206 16.1093C20.4506 16.5055 20.4781 17.1755 20.0819 17.6055C19.6856 18.0361 19.0156 18.0636 18.5856 17.6668Z" fill="#333333"/>
</svg>
