<svg width="34" height="26" viewBox="0 0 34 26" fill="none" xmlns="http://www.w3.org/2000/svg">
<path d="M20.34 7.96506C20.34 6.31116 18.9947 4.96545 17.3408 4.96545C15.6869 4.96545 14.3412 6.31116 14.3412 7.96506C14.3412 9.61897 15.6869 10.9647 17.3408 10.9647C18.9947 10.9647 20.34 9.61897 20.34 7.96506ZM15.0209 7.96506C15.0209 6.68596 16.0615 5.64553 17.3408 5.64553C18.6197 5.64553 19.6603 6.68596 19.6603 7.96506C19.6603 9.24417 18.6197 10.2846 17.3408 10.2846C16.0615 10.2846 15.0209 9.24417 15.0209 7.96506Z" fill="black"/>
<path d="M33.0057 20.5432L28.456 16.5457C28.4557 16.5457 28.4557 16.5457 28.4557 16.5457C28.258 16.3717 27.9994 16.2852 27.742 16.3032C27.4877 16.3201 27.2555 16.4334 27.0841 16.6204L25.8587 15.5439C28.1905 11.4957 27.3651 6.38079 23.8303 3.27464C19.7607 -0.300748 13.5373 0.1014 9.95761 4.17132C8.2193 6.14835 7.35241 8.75533 7.54503 11.377H2.09589C1.30409 11.377 0.659951 12.0211 0.659951 12.8129V19.6371C0.659951 20.4289 1.30409 21.0733 2.09589 21.0733H13.1248C13.7702 21.0733 14.311 20.6424 14.4913 20.0553C15.4157 20.3351 16.3681 20.4807 17.3193 20.4807C19.4502 20.4807 21.5605 19.7861 23.2837 18.4766L24.508 19.5521C24.3444 19.7465 24.2616 19.9914 24.2775 20.2457C24.2943 20.5084 24.4123 20.7489 24.61 20.9227L29.16 24.9201C29.3412 25.0791 29.5689 25.1647 29.8072 25.1647C29.8295 25.1647 29.8514 25.1641 29.8736 25.1625C30.1353 25.1451 30.3748 25.0272 30.5475 24.8303L33.0951 21.9309C33.2682 21.734 33.3545 21.4815 33.3381 21.22C33.3213 20.9573 33.2033 20.7168 33.0057 20.5432ZM13.881 17.5403V19.619V19.6371C13.881 20.0541 13.5416 20.3932 13.1248 20.3932H2.09589C1.67909 20.3932 1.33964 20.0541 1.33964 19.6371V12.8129C1.33964 12.3961 1.67909 12.0571 2.09589 12.0571H7.91542H9.86269H13.1248C13.3424 12.0571 13.5502 12.1518 13.6959 12.3184C13.815 12.4534 13.881 12.6289 13.881 12.8129V17.5403ZM14.0139 11.6915C13.7617 11.4916 13.4504 11.377 13.1248 11.377H10.1673C10.1426 11.1385 10.1256 10.8974 10.1256 10.6539C10.1256 9.19417 10.56 7.79027 11.3822 6.59261C12.724 4.618 14.9517 3.43909 17.3408 3.43909C21.3189 3.43909 24.5557 6.67562 24.5557 10.6539C24.5557 12.4242 23.9303 14.0794 22.7842 15.3958V14.9537C22.7842 12.9815 21.1814 11.377 19.2111 11.377H15.4701C15.4696 11.377 15.4693 11.3773 15.4688 11.3773C15.4681 11.3773 15.4673 11.377 15.4666 11.377C14.964 11.377 14.4685 11.4892 14.0139 11.6915ZM18.6931 12.0571L17.3408 15.1737L15.9885 12.0571H18.6931ZM14.5085 12.4493C14.4928 12.3893 14.4761 12.3301 14.4528 12.2729C14.4488 12.2629 14.4474 12.252 14.4432 12.2422C14.7006 12.1446 14.9705 12.0852 15.2506 12.0649L17.0291 16.1631C17.083 16.2873 17.2053 16.3678 17.3408 16.3678C17.4764 16.3678 17.5986 16.2873 17.6525 16.1631L19.4307 12.0653C20.924 12.178 22.1045 13.4303 22.1045 14.9537V16.0746C21.9848 16.1799 21.8593 16.2786 21.7325 16.3758C21.6593 16.4319 21.5904 16.4932 21.5149 16.5465C21.2894 16.7057 21.0552 16.8538 20.8111 16.9867C19.7584 17.5686 18.5584 17.876 17.3408 17.876C17.0892 17.876 16.8401 17.862 16.5935 17.8368C16.5118 17.8284 16.432 17.8118 16.351 17.8007C16.1873 17.7782 16.0235 17.7559 15.8624 17.7222C15.767 17.7023 15.6737 17.6742 15.5793 17.6504C15.4353 17.614 15.2912 17.5781 15.1496 17.5327C15.0511 17.501 14.9546 17.4623 14.8573 17.4263C14.7578 17.3895 14.6589 17.3508 14.5607 17.3094V12.8129C14.5607 12.719 14.5501 12.6265 14.5324 12.5359C14.5267 12.5063 14.5162 12.4784 14.5085 12.4493ZM23.0881 17.777V17.777C20.712 19.6984 17.4667 20.3009 14.5607 19.3741V18.0508C14.6404 18.0811 14.7217 18.1072 14.8025 18.1347C14.8346 18.1457 14.8664 18.1576 14.8986 18.1681C15.1123 18.2376 15.3295 18.2961 15.549 18.3464C15.6173 18.3623 15.6855 18.3786 15.7543 18.3927C15.938 18.4296 16.1233 18.4582 16.3095 18.4819C16.4445 18.4995 16.5803 18.5127 16.7167 18.5233C16.8464 18.5331 16.9762 18.5403 17.1062 18.5438C17.1848 18.546 17.2619 18.5561 17.3408 18.5561C18.2353 18.5561 19.1204 18.4008 19.9548 18.1083C19.9749 18.1013 19.9949 18.0938 20.015 18.0867C20.1234 18.0477 20.2314 18.0076 20.3379 17.9638C20.3978 17.9395 20.4565 17.9127 20.5157 17.8869C20.5888 17.8547 20.6625 17.8237 20.7346 17.7893C20.871 17.7244 21.0058 17.6561 21.1381 17.583C21.277 17.5074 21.4136 17.4275 21.5474 17.3437C21.949 17.0923 22.3266 16.8052 22.674 16.4866C22.6741 16.4865 22.6741 16.4863 22.6742 16.4863C22.6744 16.4861 22.6746 16.4859 22.6748 16.4858C24.326 14.9625 25.2353 12.8912 25.2353 10.6539C25.2353 6.30062 21.6939 2.75902 17.3408 2.75902C14.726 2.75902 12.2885 4.04925 10.8205 6.20921C9.92128 7.51917 9.44589 9.05609 9.44589 10.6539C9.44589 10.8965 9.45722 11.1383 9.47948 11.377H8.2244C8.03026 8.91995 8.83964 6.47288 10.4685 4.62054C13.7998 0.832064 19.5928 0.457064 23.3814 3.78558C26.74 6.73656 27.4791 11.6381 25.1392 15.4405C25.1389 15.4407 25.1389 15.4409 25.1389 15.441C24.8682 15.8832 24.5564 16.3065 24.2123 16.6989C23.8767 17.0817 23.5092 17.4342 23.0881 17.777ZM23.8236 18.0457C23.9 17.9787 23.9697 17.9089 24.043 17.8406C24.098 17.7894 24.1548 17.7381 24.2081 17.6862C24.3873 17.5115 24.5605 17.3334 24.7236 17.1471C24.8907 16.9567 25.0479 16.7578 25.1997 16.5551C25.2451 16.4946 25.2877 16.4329 25.3316 16.3714C25.388 16.2924 25.4475 16.2155 25.5014 16.135L26.6334 17.1293L25.8204 18.0555L24.9552 19.0401L23.8236 18.0457ZM32.5842 21.4821L30.0365 24.3817C29.983 24.4424 29.9096 24.4787 29.8287 24.484C29.7482 24.4887 29.6693 24.4627 29.6088 24.4092L25.0588 20.4117C24.9978 20.358 24.9615 20.284 24.9564 20.2032C24.9514 20.1225 24.9779 20.0444 25.0314 19.9836L25.2396 19.7467C25.2404 19.7458 25.2416 19.7454 25.2424 19.7446L26.2363 18.6123L27.5791 17.084C27.6326 17.0233 27.706 16.9869 27.7869 16.9817C27.7935 16.9813 27.8006 16.9811 27.8072 16.9811C27.8807 16.9811 27.951 17.0075 28.0068 17.0567L32.5568 21.0541C32.6178 21.1078 32.6541 21.1817 32.6592 21.2625C32.6643 21.3432 32.6377 21.4213 32.5842 21.4821Z" fill="black" stroke="black" stroke-width="0.5"/>
<path d="M12.417 13.5328H2.80214C2.61425 13.5328 2.46229 13.6852 2.46229 13.8729C2.46229 14.0606 2.61425 14.2129 2.80214 14.2129H12.417C12.6049 14.2129 12.7568 14.0606 12.7568 13.8729C12.7568 13.6852 12.6049 13.5328 12.417 13.5328Z" fill="black"/>
<path d="M12.417 15.885H2.80214C2.61425 15.885 2.46229 16.0374 2.46229 16.225C2.46229 16.4127 2.61425 16.5651 2.80214 16.5651H12.417C12.6049 16.5651 12.7568 16.4127 12.7568 16.225C12.7568 16.0374 12.6049 15.885 12.417 15.885Z" fill="black"/>
<path d="M12.417 18.2374H2.80214C2.61425 18.2374 2.46229 18.3897 2.46229 18.5774C2.46229 18.7651 2.61425 18.9174 2.80214 18.9174H12.417C12.6049 18.9174 12.7568 18.7651 12.7568 18.5774C12.7568 18.3897 12.6049 18.2374 12.417 18.2374Z" fill="black"/>
</svg>
