<svg width="40" height="50" viewBox="0 0 40 50" fill="none" xmlns="http://www.w3.org/2000/svg">
<path d="M36.076 16.5024H33.3848C33.066 15.268 32.5812 14.0968 31.9392 13.0096L33.8448 11.104C34.2068 10.742 34.4064 10.2596 34.4064 9.7456C34.4064 9.2316 34.2068 8.7492 33.8448 8.3872L31.6128 6.1552C30.864 5.406 29.6448 5.4056 28.896 6.1552L26.9904 8.0608C25.9032 7.4184 24.732 6.934 23.4976 6.6152V3.924C23.4976 2.8632 22.6344 2 21.5736 2H18.4264C17.3656 2 16.5024 2.8632 16.5024 3.924V6.6152C15.268 6.934 14.0968 7.4188 13.0096 8.0608L11.104 6.1552C10.3548 5.4056 9.1356 5.406 8.3872 6.1552L6.1552 8.3868C5.7932 8.7488 5.5936 9.2312 5.5936 9.7452C5.5936 10.2592 5.7932 10.7416 6.1552 11.1036L8.0608 13.0092C7.4184 14.0964 6.934 15.2676 6.6152 16.502H3.924C2.8632 16.502 2 17.3652 2 18.426V21.5732C2 22.634 2.8632 23.4972 3.924 23.4972H6.6152C6.934 24.7316 7.4188 25.9028 8.0608 26.99L6.1552 28.8956C5.7932 29.2576 5.5936 29.74 5.5936 30.254C5.5936 30.768 5.7932 31.2504 6.1552 31.6124L8.3872 33.8444C8.7616 34.2192 9.2536 34.4064 9.7456 34.4064C10.2376 34.4064 10.7296 34.2192 11.104 33.8444L13.0096 31.9388C14.0968 32.5812 15.268 33.0656 16.5024 33.3844V36.0756C16.5024 37.1364 17.3656 37.9996 18.4264 37.9996H21.5736C22.6344 37.9996 23.4976 37.1364 23.4976 36.0756V33.3844C24.732 33.0656 25.9032 32.5808 26.9904 31.9388L28.896 33.8444C29.2704 34.2192 29.7624 34.4064 30.2544 34.4064C30.7464 34.4064 31.2384 34.2192 31.6128 33.8444L33.8448 31.6128C34.2068 31.2508 34.4064 30.7684 34.4064 30.2544C34.4064 29.7404 34.2068 29.258 33.8448 28.896L31.9392 26.9904C32.5816 25.9032 33.066 24.732 33.3848 23.4976H36.076C37.1368 23.4976 38 22.6344 38 21.5736V18.4264C38 17.3656 37.1368 16.5024 36.076 16.5024ZM36.8 21.5736C36.8 21.9728 36.4752 22.2976 36.076 22.2976H32.914C32.8968 22.2976 32.8808 22.3012 32.864 22.3028C32.8428 22.3048 32.8216 22.3052 32.8012 22.3092C32.7772 22.3136 32.7544 22.3216 32.7316 22.3292C32.718 22.3336 32.704 22.3364 32.6908 22.342C32.666 22.352 32.6428 22.3652 32.6196 22.3784C32.6096 22.384 32.5988 22.3888 32.5888 22.3952C32.5668 22.4092 32.5472 22.4264 32.5276 22.4432C32.518 22.4516 32.5072 22.4588 32.498 22.4676C32.4804 22.4844 32.4656 22.5036 32.45 22.5224C32.4408 22.5336 32.4308 22.544 32.4224 22.556C32.4084 22.576 32.3972 22.598 32.386 22.62C32.3792 22.6328 32.3712 22.6448 32.3652 22.658C32.354 22.684 32.346 22.7112 32.3384 22.7388C32.3356 22.7492 32.3308 22.7584 32.3284 22.7688C32.012 24.1988 31.456 25.5412 30.6764 26.7584C30.6576 26.7876 30.6436 26.818 30.6304 26.8488C30.6288 26.8528 30.6264 26.856 30.6248 26.86C30.5972 26.9292 30.5844 27.0012 30.5832 27.0728C30.5832 27.0772 30.5824 27.0816 30.5824 27.086C30.5828 27.1588 30.5976 27.2304 30.6236 27.298C30.6252 27.3024 30.626 27.3068 30.628 27.3112C30.6572 27.3816 30.7 27.4464 30.7552 27.5024C30.7564 27.5036 30.7564 27.5048 30.7576 27.506L30.7616 27.51C30.7624 27.5108 30.7632 27.5116 30.764 27.5124L32.9968 29.7452C33.132 29.8808 33.2068 30.062 33.2068 30.2552C33.2068 30.4484 33.132 30.6296 32.9968 30.7652L30.7648 32.9972C30.4836 33.2784 30.026 33.2788 29.7448 32.9972L27.512 30.7644C27.5112 30.7636 27.5108 30.7632 27.51 30.7624L27.5056 30.758C27.5044 30.7568 27.5028 30.7564 27.502 30.7556C27.446 30.7004 27.3812 30.658 27.3112 30.6288C27.3064 30.6268 27.3016 30.626 27.2968 30.624C27.2296 30.598 27.1584 30.5836 27.0864 30.5832C27.0812 30.5832 27.0764 30.5844 27.0712 30.5844C27 30.5856 26.9284 30.5984 26.86 30.6256C26.8556 30.6272 26.852 30.63 26.8476 30.632C26.8172 30.6448 26.7868 30.6588 26.758 30.6772C25.5408 31.4568 24.1984 32.0128 22.7684 32.3292C22.7576 32.3316 22.748 32.3364 22.7372 32.3396C22.71 32.3472 22.6832 32.3548 22.6576 32.3656C22.6424 32.3724 22.6288 32.3812 22.6144 32.3892C22.5948 32.4 22.5744 32.4096 22.5564 32.4224C22.5412 32.4332 22.5276 32.4456 22.5136 32.4576C22.4984 32.4704 22.4824 32.4824 22.4684 32.4968C22.4556 32.51 22.4452 32.5248 22.4336 32.5392C22.4208 32.5552 22.4072 32.57 22.396 32.5872C22.3864 32.602 22.3792 32.618 22.3708 32.6336C22.3608 32.652 22.3504 32.67 22.3424 32.6892C22.3352 32.7072 22.3308 32.7264 22.3252 32.7452C22.3196 32.7636 22.3132 32.7812 22.3092 32.8004C22.3044 32.824 22.3036 32.8484 22.302 32.8728C22.3008 32.8872 22.2976 32.9008 22.2976 32.9152V36.0776C22.2976 36.4768 21.9728 36.8016 21.5736 36.8016H18.4264C18.0272 36.8016 17.7024 36.4768 17.7024 36.0776V32.9152C17.7024 32.9008 17.6992 32.8872 17.698 32.8728C17.6964 32.8484 17.6952 32.824 17.6908 32.8004C17.6872 32.7812 17.6804 32.7636 17.6748 32.7452C17.6692 32.7264 17.6648 32.7072 17.6576 32.6892C17.6496 32.6696 17.6392 32.652 17.6292 32.6336C17.6208 32.618 17.6136 32.602 17.604 32.5872C17.5928 32.57 17.5792 32.5552 17.5664 32.5392C17.5548 32.5248 17.5444 32.51 17.5316 32.4968C17.5176 32.4824 17.5016 32.4704 17.4864 32.4576C17.4724 32.4456 17.4588 32.4328 17.4436 32.4224C17.4252 32.4096 17.4052 32.4 17.3856 32.3892C17.3712 32.3816 17.3576 32.3724 17.3424 32.3656C17.3172 32.3544 17.29 32.3472 17.2628 32.3396C17.2524 32.3368 17.2428 32.3316 17.2316 32.3292C15.8016 32.0128 14.4592 31.4568 13.242 30.6772C13.2128 30.6584 13.182 30.6444 13.1512 30.6312C13.1476 30.6296 13.1444 30.6272 13.1404 30.626C13.0708 30.598 12.9984 30.5852 12.926 30.5844C12.922 30.5844 12.9184 30.5836 12.9144 30.5836C12.8412 30.584 12.7688 30.5988 12.7008 30.6252C12.6968 30.6268 12.6932 30.6272 12.6892 30.6288C12.6184 30.658 12.5532 30.7008 12.4968 30.7564C12.496 30.7572 12.4948 30.7576 12.4936 30.7584L12.49 30.762C12.4888 30.7632 12.488 30.764 12.4868 30.7652L10.2544 32.9976C9.9728 33.2792 9.5152 33.2788 9.2344 32.9976L7.0024 30.7656C6.8668 30.6304 6.7924 30.4492 6.7924 30.256C6.7924 30.0624 6.8672 29.8812 7.0024 29.746L9.2352 27.5132C9.236 27.5124 9.2368 27.5116 9.2376 27.5108L9.2416 27.5068C9.2428 27.5056 9.2428 27.5044 9.244 27.5032C9.2992 27.4472 9.342 27.3824 9.3712 27.312C9.3732 27.3076 9.3736 27.3032 9.3756 27.2988C9.4016 27.2312 9.4164 27.1596 9.4168 27.0868C9.4168 27.0824 9.416 27.078 9.416 27.0736C9.4148 27.0016 9.402 26.9296 9.3744 26.8608C9.3728 26.8568 9.3704 26.8536 9.3688 26.8496C9.3556 26.8188 9.3416 26.7884 9.3228 26.7592C8.5432 25.542 7.9872 24.1996 7.6708 22.7696C7.6684 22.7588 7.6636 22.7492 7.6604 22.7384C7.6528 22.7112 7.6452 22.6844 7.6344 22.6588C7.6276 22.6436 7.6188 22.6304 7.6112 22.616C7.6004 22.5964 7.5908 22.576 7.578 22.5576C7.5676 22.5424 7.5552 22.5296 7.5436 22.5156C7.5304 22.5 7.518 22.4836 7.5036 22.4692C7.4912 22.4568 7.4768 22.4468 7.4632 22.436C7.4468 22.4224 7.4312 22.4088 7.4132 22.3968C7.3992 22.3876 7.384 22.3808 7.3692 22.3732C7.35 22.3628 7.3312 22.3516 7.3108 22.3432C7.294 22.3364 7.276 22.3324 7.2588 22.3272C7.2392 22.3212 7.22 22.314 7.1996 22.3104C7.1776 22.306 7.1548 22.3056 7.1324 22.3036C7.1164 22.3024 7.1012 22.2988 7.0852 22.2988H3.924C3.5248 22.2988 3.2 21.974 3.2 21.5748V18.4276C3.2 18.0284 3.5248 17.7036 3.924 17.7036H7.0848C7.0852 17.7036 7.086 17.7036 7.0864 17.7036C7.0876 17.7036 7.0888 17.7028 7.09 17.7028C7.152 17.7024 7.2104 17.6904 7.2664 17.6724C7.2764 17.6692 7.286 17.6668 7.2956 17.6632C7.35 17.6428 7.4004 17.6144 7.446 17.58C7.4548 17.5736 7.4624 17.5664 7.4708 17.5596C7.516 17.5216 7.556 17.4784 7.5884 17.4288C7.592 17.4232 7.5944 17.4172 7.5976 17.4116C7.6296 17.3584 7.6544 17.3004 7.6688 17.2384C7.6692 17.2364 7.6708 17.2348 7.6712 17.2328C7.9876 15.8028 8.5436 14.4604 9.3232 13.2432C9.342 13.214 9.356 13.1836 9.3692 13.1528C9.3708 13.1488 9.3732 13.1456 9.3748 13.1416C9.4024 13.0724 9.4152 13.0004 9.4164 12.9288C9.4164 12.9244 9.4172 12.92 9.4172 12.9156C9.4168 12.8428 9.402 12.7712 9.376 12.7036C9.3744 12.6992 9.3736 12.6948 9.3716 12.6904C9.3424 12.62 9.2996 12.5552 9.2444 12.4992C9.2432 12.498 9.2432 12.4968 9.242 12.4956L9.238 12.4916C9.2372 12.4908 9.2364 12.49 9.2356 12.4892L7.0028 10.2564C6.8676 10.1208 6.7928 9.9396 6.7928 9.7464C6.7928 9.5532 6.8676 9.372 7.0028 9.2364L9.2348 7.0044C9.516 6.7232 9.9736 6.7228 10.2548 7.0044L12.494 9.2436C12.4964 9.246 12.4992 9.2464 12.5016 9.2488C12.5528 9.2984 12.6116 9.3356 12.6748 9.364C12.6892 9.3704 12.7032 9.3756 12.718 9.3808C12.7824 9.4036 12.8488 9.4192 12.9172 9.4196C12.9176 9.4196 12.918 9.4196 12.9184 9.4196H12.9188C12.9864 9.4196 13.0536 9.404 13.1192 9.3804C13.1384 9.3736 13.156 9.3644 13.1744 9.3552C13.1968 9.3444 13.2204 9.3384 13.242 9.3248C14.4592 8.5452 15.8016 7.9892 17.2316 7.6728C17.2424 7.6704 17.252 7.6656 17.2628 7.6624C17.29 7.6548 17.3168 7.6472 17.3424 7.6364C17.3576 7.6296 17.3712 7.6208 17.3856 7.6128C17.4052 7.602 17.4256 7.5924 17.4436 7.5796C17.4588 7.5688 17.4724 7.5564 17.4864 7.5444C17.5016 7.5316 17.5176 7.5196 17.5316 7.5052C17.5444 7.492 17.5548 7.4772 17.5664 7.4628C17.5792 7.4468 17.5928 7.432 17.604 7.4148C17.6136 7.4 17.6208 7.384 17.6292 7.3684C17.6392 7.35 17.6496 7.332 17.6576 7.3128C17.6648 7.2948 17.6692 7.2756 17.6748 7.2568C17.6804 7.2384 17.6868 7.2208 17.6908 7.2016C17.6956 7.178 17.6964 7.1536 17.698 7.1292C17.6992 7.1148 17.7024 7.1012 17.7024 7.0868V3.924C17.7024 3.5248 18.0272 3.2 18.4264 3.2H21.5736C21.9728 3.2 22.2976 3.5248 22.2976 3.924V7.0864C22.2976 7.1008 22.3008 7.1144 22.302 7.1288C22.3036 7.1532 22.3048 7.1776 22.3092 7.2012C22.3128 7.2204 22.3196 7.238 22.3252 7.2564C22.3308 7.2752 22.3352 7.2944 22.3424 7.3124C22.3504 7.332 22.3608 7.3496 22.3708 7.368C22.3792 7.3836 22.3864 7.3996 22.396 7.4144C22.4072 7.4316 22.4208 7.4464 22.4336 7.4624C22.4452 7.4768 22.4556 7.4916 22.4684 7.5048C22.4824 7.5192 22.4984 7.5312 22.5136 7.544C22.5276 7.556 22.5412 7.5688 22.5564 7.5792C22.5748 7.592 22.5948 7.6016 22.6144 7.6124C22.6288 7.62 22.6424 7.6292 22.6576 7.636C22.6828 7.6472 22.71 7.6544 22.7372 7.662C22.7476 7.6648 22.7572 7.67 22.7684 7.6724C24.1984 7.9888 25.5408 8.5448 26.758 9.3244C26.7796 9.338 26.8032 9.3444 26.8256 9.3548C26.8444 9.3636 26.8616 9.3728 26.8808 9.38C26.9464 9.4036 27.0136 9.4192 27.0812 9.4192H27.0816C27.082 9.4192 27.0824 9.4192 27.0828 9.4192C27.1512 9.4192 27.2176 9.4032 27.282 9.3804C27.2968 9.3752 27.3108 9.37 27.3252 9.3636C27.3884 9.3356 27.4472 9.298 27.4984 9.2484C27.5008 9.246 27.5036 9.2456 27.506 9.2432L29.7452 7.004C30.0268 6.7224 30.4844 6.7228 30.7652 7.004L32.9972 9.236C33.1328 9.3712 33.2072 9.5524 33.2072 9.7456C33.2072 9.9392 33.1324 10.1204 32.9972 10.2556L30.7644 12.4884C30.7636 12.4892 30.7628 12.49 30.762 12.4908L30.758 12.4948C30.7568 12.496 30.7568 12.4972 30.7556 12.4984C30.7004 12.5544 30.6576 12.6192 30.6284 12.6896C30.6264 12.694 30.626 12.6984 30.624 12.7028C30.598 12.7704 30.5832 12.842 30.5828 12.9148C30.5828 12.9192 30.5836 12.9236 30.5836 12.928C30.5848 13 30.5976 13.072 30.6252 13.1408C30.6268 13.1448 30.6292 13.148 30.6308 13.152C30.644 13.1828 30.658 13.2132 30.6768 13.2424C31.4564 14.4596 32.0124 15.802 32.3288 17.232C32.3292 17.234 32.3308 17.2356 32.3312 17.2376C32.3456 17.3 32.3704 17.3584 32.4028 17.4116C32.406 17.4168 32.4084 17.4228 32.4116 17.428C32.444 17.478 32.4844 17.5212 32.5296 17.5592C32.5376 17.566 32.5452 17.5728 32.554 17.5792C32.5996 17.614 32.65 17.642 32.7048 17.6624C32.7144 17.666 32.724 17.6684 32.734 17.6716C32.79 17.6896 32.8488 17.7016 32.9108 17.702C32.912 17.702 32.9132 17.7028 32.9144 17.7028C32.9148 17.7028 32.9156 17.7028 32.916 17.7028H36.0768C36.476 17.7028 36.8008 18.0276 36.8008 18.4268V21.5736H36.8Z" fill="black"/>
<path d="M20 9.79999C14.3756 9.79999 9.8 14.3756 9.8 20C9.8 25.6244 14.3756 30.2 20 30.2C25.6244 30.2 30.2 25.6244 30.2 20C30.2 14.3756 25.6244 9.79999 20 9.79999ZM20 29C15.0372 29 11 24.9628 11 20C11 15.0372 15.0372 11 20 11C24.9628 11 29 15.0372 29 20C29 24.9628 24.9628 29 20 29Z" fill="black"/>
<path d="M20 19.2596C21.8 19.2596 23.2644 17.7952 23.2644 15.9952C23.2644 14.1952 21.8 12.7308 20 12.7308C18.2 12.7308 16.7356 14.1952 16.7356 15.9952C16.7356 17.7952 18.2 19.2596 20 19.2596ZM20 13.9308C21.1384 13.9308 22.0644 14.8568 22.0644 15.9952C22.0644 17.1336 21.1384 18.0596 20 18.0596C18.8616 18.0596 17.9356 17.1336 17.9356 15.9952C17.9356 14.8568 18.8616 13.9308 20 13.9308Z" fill="black"/>
<path d="M20 19.9408C17.4636 19.9408 15.4 22.0044 15.4 24.5408V24.6884C15.4 25.8156 16.244 26.7516 17.3636 26.866C17.3836 26.868 17.4044 26.8692 17.4244 26.8692H22.5752C22.5956 26.8692 22.616 26.8684 22.636 26.866C23.7556 26.7516 24.5996 25.8156 24.5996 24.6884V24.5408C24.6 22.0044 22.5364 19.9408 20 19.9408ZM23.4 24.6884C23.4 25.1884 23.0328 25.6056 22.5412 25.6692H17.4588C16.9672 25.6056 16.6 25.1884 16.6 24.6884V24.5408C16.6 22.666 18.1252 21.1408 20 21.1408C21.8748 21.1408 23.4 22.666 23.4 24.5408V24.6884Z" fill="black"/>
</svg>
