<svg width="40" height="46" viewBox="0 0 40 46" fill="none" xmlns="http://www.w3.org/2000/svg">
<g filter="url(#filter0_d)">
<path d="M19.6792 8.07801C19.7248 8.07801 19.7704 8.07721 19.816 8.07561C21.7632 8.00081 23.2868 6.35601 23.2132 4.40841C23.1384 2.45721 21.5184 0.944009 19.5464 1.01161C17.5988 1.08641 16.0748 2.73121 16.1496 4.67881C16.2224 6.58481 17.7732 8.07801 19.6792 8.07801ZM19.5768 1.81081C19.6124 1.80961 19.648 1.80881 19.6832 1.80881C21.158 1.80881 22.3576 2.96401 22.414 4.43881C22.4712 5.94561 21.292 7.21841 19.7856 7.27601C18.2644 7.32841 17.0064 6.15801 16.9488 4.64801C16.8912 3.14161 18.07 1.86881 19.5768 1.81081Z" fill="black" stroke="black" stroke-width="0.2"/>
<path d="M20.6524 29.9244C19.7088 29.9604 18.836 30.362 18.1944 31.0544C17.5528 31.7472 17.2192 32.648 17.2556 33.5916C17.3284 35.498 18.8788 36.9912 20.7852 36.9912C20.8308 36.9912 20.8768 36.9904 20.9228 36.9884C22.8696 36.914 24.3936 35.2692 24.3196 33.3216C24.2444 31.3696 22.6204 29.8408 20.6524 29.9244ZM20.892 36.1892C19.3612 36.2344 18.1124 35.0716 18.0548 33.5612C18.0268 32.8312 18.2848 32.1344 18.7812 31.5984C19.2776 31.0624 19.9528 30.752 20.6824 30.7236C20.7176 30.7224 20.7532 30.7216 20.7884 30.7216C22.2636 30.7216 23.4636 31.8772 23.52 33.352C23.5772 34.8584 22.3984 36.1316 20.892 36.1892Z" fill="black" stroke="black" stroke-width="0.2"/>
<path d="M30.4472 12.288C31.3932 12.288 32.2828 11.9188 32.9508 11.2484C33.6176 10.58 33.9836 9.69161 33.982 8.74721C33.98 7.80321 33.6108 6.91601 32.9424 6.25001C32.2756 5.58481 31.3892 5.21881 30.4476 5.21881C29.5012 5.21881 28.6116 5.58801 27.9436 6.25841C26.568 7.63881 26.5716 9.88121 27.9516 11.2568C28.6188 11.9216 29.5052 12.288 30.4472 12.288ZM28.51 6.82321C29.0272 6.30481 29.7152 6.01881 30.4476 6.01881C31.176 6.01881 31.8616 6.30201 32.3776 6.81681C32.8948 7.33241 33.1804 8.01841 33.182 8.74881C33.1832 9.47961 32.9 10.1664 32.3844 10.6836C31.8672 11.2024 31.1792 11.488 30.4472 11.488C29.7184 11.488 29.0328 11.2048 28.5164 10.69C27.4488 9.62561 27.446 7.89081 28.51 6.82321Z" fill="black" stroke="black" stroke-width="0.2"/>
<path d="M10.0216 25.712C9.07519 25.712 8.18599 26.0812 7.51839 26.7516C6.85159 27.4204 6.48559 28.3084 6.48719 29.2524C6.48839 30.1964 6.85799 31.0836 7.52679 31.75C8.19359 32.4148 9.07999 32.7812 10.0216 32.7812C10.968 32.7812 11.8572 32.4116 12.5252 31.7412C13.192 31.0724 13.558 30.1844 13.5564 29.2404C13.5548 28.296 13.1856 27.4092 12.5168 26.7432C11.8496 26.078 10.9636 25.712 10.0216 25.712ZM11.9584 31.1764C11.4416 31.6952 10.7536 31.9812 10.0212 31.9812C9.29279 31.9812 8.60719 31.698 8.09119 31.1836C7.57359 30.668 7.28799 29.9816 7.28679 29.2512C7.28559 28.5208 7.56879 27.8336 8.08479 27.3164C8.60159 26.7976 9.28919 26.512 10.0216 26.512C10.75 26.512 11.4356 26.7952 11.952 27.31C12.4692 27.8252 12.7548 28.5112 12.756 29.2416C12.7572 29.972 12.474 30.6592 11.9584 31.1764Z" fill="black" stroke="black" stroke-width="0.2"/>
<path d="M30.9032 25.238C29.914 25.238 28.9636 25.656 28.2956 26.3852C27.6576 27.0816 27.3292 27.9844 27.3704 28.9272C27.4116 29.8704 27.8176 30.7408 28.5136 31.3784C29.1672 31.9772 30.0148 32.3068 30.9004 32.3068C31.8896 32.3068 32.84 31.8884 33.508 31.1592C34.8244 29.7232 34.7264 27.4832 33.2892 26.166C32.636 25.5676 31.7888 25.238 30.9032 25.238ZM32.9184 30.6188C32.4012 31.1832 31.666 31.5072 30.9008 31.5072C30.216 31.5072 29.56 31.252 29.0544 30.7888C28.516 30.2956 28.2016 29.6224 28.17 28.8928C28.138 28.1632 28.3924 27.4648 28.8856 26.926C29.4028 26.3616 30.138 26.038 30.9032 26.038C31.588 26.038 32.2436 26.2932 32.7488 26.756C33.8604 27.7752 33.9368 29.508 32.9184 30.6188Z" fill="black" stroke="black" stroke-width="0.2"/>
<path d="M9.566 12.7624C10.5552 12.7624 11.5056 12.3444 12.1732 11.6152C12.8112 10.9192 13.1396 10.0164 13.0984 9.07321C13.0568 8.13001 12.6508 7.25921 11.9548 6.62161C11.3016 6.02281 10.454 5.69321 9.5684 5.69321C8.5792 5.69321 7.6292 6.11121 6.9612 6.84001C5.6448 8.27721 5.7432 10.5176 7.18 11.834C7.8328 12.4328 8.68 12.7624 9.566 12.7624ZM7.55 7.38081C8.0668 6.81681 8.802 6.49361 9.5672 6.49361C10.252 6.49361 10.908 6.74881 11.4136 7.21161C11.952 7.70521 12.2664 8.37841 12.2984 9.10841C12.3304 9.83841 12.0764 10.5364 11.5828 11.0752C11.066 11.6392 10.3312 11.9628 9.5656 11.9628C8.8808 11.9628 8.2248 11.7076 7.7196 11.2448C6.608 10.2256 6.532 8.49241 7.55 7.38081Z" fill="black" stroke="black" stroke-width="0.2"/>
<path d="M34.6952 15.0056L34.5816 15.0072C32.634 15.0696 31.1 16.7048 31.162 18.6524C31.222 20.5716 32.7724 22.0748 34.692 22.0748L34.8064 22.0728C35.7496 22.0432 36.6252 21.6476 37.2712 20.9588C37.9176 20.27 38.2568 19.3712 38.2264 18.4276C38.1656 16.5088 36.6144 15.0056 34.6952 15.0056ZM36.6884 20.4116C36.1884 20.944 35.5112 21.2504 34.7808 21.2736L34.692 21.2748C33.2072 21.2748 32.008 20.112 31.9612 18.6272C31.9136 17.12 33.1004 15.8548 34.6068 15.8068L34.6952 15.8056C36.18 15.8056 37.38 16.9684 37.4272 18.4536C37.4504 19.1832 37.1884 19.8788 36.6884 20.4116Z" fill="black" stroke="black" stroke-width="0.2"/>
<path d="M9.3072 19.3472C9.2464 17.4284 7.696 15.9252 5.7768 15.9252L5.6624 15.9268C3.7144 15.9884 2.18 17.624 2.2416 19.5724C2.3028 21.4912 3.8532 22.994 5.772 22.994L5.8868 22.992C6.8304 22.9624 7.706 22.5668 8.352 21.8784C8.9984 21.19 9.3372 20.2912 9.3072 19.3472ZM5.8612 22.1928L5.772 22.194C4.288 22.194 3.0888 21.0312 3.0412 19.5472C2.9932 18.0396 4.1808 16.7744 5.6876 16.7268L5.7764 16.7256C7.2608 16.7256 8.4604 17.8884 8.5072 19.3728C8.5304 20.1028 8.268 20.7984 7.7684 21.3312C7.2688 21.8636 6.5916 22.1696 5.8612 22.1928Z" fill="black" stroke="black" stroke-width="0.2"/>
<path d="M28.1576 25.3808L28.162 25.3788C28.2036 25.3608 28.2396 25.3344 28.272 25.3044C28.2804 25.2964 28.2876 25.288 28.2956 25.2792C28.3208 25.252 28.3424 25.2208 28.3588 25.1876C28.3632 25.1792 28.368 25.1724 28.3716 25.1636C28.3868 25.1268 28.3976 25.0884 28.4016 25.0476C28.4024 25.0408 28.4004 25.0348 28.4008 25.0284C28.4008 25.0244 28.4032 25.0208 28.4032 25.0172L28.4292 23.208C28.4324 22.9868 28.2556 22.8052 28.0352 22.802C27.8204 22.7884 27.6324 22.9756 27.6292 23.196L27.6136 24.27L25.41 22.7956C26.17 21.762 26.63 20.496 26.656 19.1232L28.994 19.1172L28.4124 20.0184C28.2924 20.204 28.346 20.4516 28.5316 20.5712C28.5984 20.6144 28.6736 20.6352 28.748 20.6352C28.8792 20.6352 29.008 20.5708 29.0844 20.452L30.0652 18.932C30.0672 18.9288 30.0672 18.9252 30.0692 18.9224C30.0728 18.9164 30.0776 18.912 30.0812 18.9056C30.1008 18.8692 30.1128 18.8304 30.1204 18.7912C30.1224 18.7824 30.122 18.774 30.1232 18.7648C30.128 18.7268 30.1272 18.6888 30.1208 18.6508C30.1188 18.6396 30.1176 18.6292 30.1148 18.6184C30.1044 18.576 30.0896 18.5348 30.0648 18.4972L29.2048 17.1724C29.0848 16.9868 28.8372 16.9348 28.6512 17.0548C28.466 17.1752 28.4132 17.4228 28.5336 17.608L28.9936 18.3168L26.626 18.3228C26.474 16.874 25.8352 15.5704 24.8816 14.57L26.6828 12.7116L26.9228 13.7576C26.9652 13.9428 27.13 14.068 27.3124 14.068C27.342 14.068 27.372 14.0648 27.4024 14.058C27.6176 14.0084 27.752 13.794 27.7028 13.5788L27.2984 11.8152C27.2976 11.8116 27.2948 11.8088 27.2936 11.8052C27.292 11.7984 27.2924 11.792 27.2904 11.7856C27.278 11.746 27.2588 11.7104 27.2356 11.6776C27.2304 11.67 27.224 11.664 27.218 11.6568C27.1944 11.6276 27.1672 11.602 27.1364 11.5804C27.1268 11.5732 27.1172 11.5664 27.1068 11.56C27.0696 11.5384 27.03 11.5208 26.9864 11.5124L26.9796 11.5112C26.978 11.5112 26.9768 11.5108 26.9752 11.5104L25.4372 11.2044C25.2168 11.1624 25.01 11.302 24.9668 11.5188C24.9236 11.7356 25.064 11.946 25.2808 11.9892L26.1092 12.154L24.2972 14.0232C23.2788 13.19 22.0004 12.67 20.6052 12.59C20.606 12.5792 20.6112 12.5696 20.6112 12.5584L20.5848 9.89602L21.4904 10.4708C21.5568 10.5128 21.6312 10.5332 21.7044 10.5332C21.8368 10.5332 21.966 10.4676 22.0428 10.3476C22.1612 10.1612 22.1056 9.91402 21.9192 9.79562L20.392 8.82602C20.3884 8.82362 20.384 8.82402 20.3808 8.82162C20.3752 8.81842 20.3712 8.81322 20.3652 8.81042C20.3292 8.79122 20.2904 8.77922 20.2512 8.77202C20.2416 8.77042 20.2324 8.77082 20.2228 8.76962C20.1856 8.76522 20.1488 8.76642 20.112 8.77282C20.1 8.77482 20.0884 8.77602 20.0768 8.77922C20.0352 8.79002 19.9944 8.80522 19.9572 8.82962L19.95 8.83442L19.9496 8.83482L18.64 9.69962C18.4556 9.82122 18.4048 10.0692 18.5264 10.2536C18.6484 10.438 18.8964 10.4888 19.0804 10.3672L19.7852 9.90202L19.812 12.5668C19.812 12.576 19.8168 12.5836 19.8176 12.5924C18.36 12.6868 17.0356 13.2664 16.0016 14.1744L14.3504 12.5844L15.3956 12.3412C15.6108 12.2912 15.7448 12.076 15.6948 11.8608C15.6448 11.6452 15.4284 11.5112 15.2144 11.5616L13.452 11.9716C13.448 11.9724 13.4452 11.9756 13.4412 11.9764C13.4348 11.978 13.4284 11.9776 13.4224 11.9796C13.3832 11.992 13.348 12.0112 13.3152 12.034C13.3072 12.0396 13.3012 12.0464 13.2936 12.0524C13.2644 12.0764 13.2388 12.1032 13.2176 12.1344C13.2108 12.1436 13.2044 12.1524 13.1984 12.1624C13.1768 12.2 13.1588 12.24 13.1504 12.284L13.1488 12.2924L12.848 13.8332C12.8056 14.05 12.9472 14.26 13.164 14.3024C13.3804 14.3436 13.5908 14.2032 13.6332 13.9864L13.7952 13.1576L15.4356 14.7376C14.5664 15.716 13.986 16.956 13.8436 18.3276C13.8348 18.3272 13.8268 18.3224 13.818 18.3224L11.1524 18.3156L11.6128 17.6072C11.7332 17.422 11.6804 17.174 11.4952 17.0536C11.3096 16.9336 11.0624 16.986 10.9416 17.1712L10.08 18.498C10.0556 18.5356 10.0404 18.5768 10.03 18.6188C10.0272 18.63 10.026 18.6412 10.024 18.6524C10.018 18.6896 10.0172 18.7268 10.0216 18.764C10.0228 18.7736 10.0224 18.7828 10.0244 18.7928C10.032 18.832 10.044 18.87 10.0636 18.9064C10.0668 18.912 10.0716 18.9164 10.0748 18.922C10.0768 18.9256 10.0768 18.9296 10.0792 18.9332L11.0604 20.4528C11.1368 20.5716 11.2656 20.636 11.3968 20.636C11.4712 20.636 11.5464 20.6152 11.6136 20.572C11.7992 20.4524 11.8524 20.2048 11.7328 20.0192L11.1512 19.118L13.8132 19.1248C13.846 20.8212 14.5364 22.358 15.6428 23.4896L13.6528 24.9656L13.5984 24.1232C13.584 23.9024 13.3936 23.742 13.1732 23.7496C12.9528 23.764 12.7856 23.9544 12.7996 24.1748L12.9016 25.7504C12.9044 25.7948 12.9172 25.8372 12.9336 25.8768C12.9384 25.8876 12.944 25.8976 12.9496 25.908C12.9668 25.9408 12.988 25.9708 13.0136 25.998C13.0208 26.0056 13.0264 26.0132 13.034 26.0204C13.0632 26.0468 13.096 26.0704 13.1328 26.0876C13.1372 26.0896 13.1424 26.0888 13.1468 26.0908C13.152 26.0932 13.1556 26.098 13.1612 26.0996L14.856 26.7312C14.902 26.748 14.9492 26.7564 14.9956 26.7564C15.1576 26.7564 15.3104 26.6572 15.3704 26.4964C15.4476 26.2892 15.3424 26.0588 15.1352 25.9816L14.1304 25.6068L16.2496 24.0344C17.25 24.828 18.4908 25.3264 19.844 25.4084C19.824 25.4536 19.812 25.5032 19.8112 25.5564L19.7844 28.2208L19.08 27.7556C18.896 27.6348 18.6476 27.6852 18.526 27.8692C18.4044 28.0536 18.4552 28.3016 18.6396 28.4236L19.9572 29.2936C19.9616 29.2968 19.9668 29.2976 19.9716 29.3004C19.9932 29.3132 20.0156 29.3232 20.0388 29.3316C20.0496 29.336 20.06 29.3412 20.0712 29.344C20.1052 29.3532 20.14 29.3592 20.1752 29.3592C20.1756 29.3592 20.1764 29.3596 20.1772 29.3596C20.178 29.3596 20.1792 29.3592 20.18 29.3592C20.2136 29.3588 20.2468 29.354 20.2792 29.3456C20.2916 29.3424 20.3028 29.3364 20.3148 29.332C20.3316 29.3256 20.3484 29.3216 20.3648 29.3128C20.3692 29.3104 20.3724 29.3064 20.3768 29.3044C20.3816 29.3016 20.3868 29.3008 20.3916 29.2976L21.9188 28.328C22.1052 28.2092 22.1604 27.9624 22.0424 27.7756C21.9232 27.5892 21.676 27.534 21.49 27.652L20.5844 28.2268L20.6108 25.5644C20.6112 25.51 20.6008 25.458 20.5816 25.4108C22.282 25.3192 23.8064 24.568 24.9044 23.4036C24.922 23.4204 24.9344 23.4408 24.9556 23.4548L27.1696 24.9356L26.3944 25.2704C26.1916 25.358 26.0984 25.5936 26.186 25.796C26.2512 25.9472 26.3984 26.0376 26.5536 26.0376C26.6064 26.0376 26.6604 26.0272 26.712 26.0048L28.1576 25.3808ZM22.8512 23.9784C22.0688 24.3912 21.1788 24.628 20.2344 24.628C19.2896 24.628 18.4 24.3912 17.6176 23.9784V23.9464C17.6176 22.8652 18.3428 21.8828 19.3768 21.4912L19.9508 22.7168C20.0164 22.8568 20.1568 22.9464 20.3112 22.9472C20.3116 22.9472 20.3124 22.9472 20.3132 22.9472C20.4668 22.9472 20.6072 22.8588 20.6736 22.7204L21.2376 21.5468C22.188 21.9816 22.8516 22.9392 22.8516 23.946V23.9784H22.8512ZM23.6144 23.4896C23.4228 22.2084 22.45 21.058 21.1568 20.6556L21.1544 20.6628C20.9676 20.6048 20.764 20.684 20.6776 20.8648L20.3172 21.6148L19.95 20.83C19.868 20.6548 19.6748 20.5744 19.4936 20.6192L19.4916 20.6112C18.0968 20.956 17.0492 22.1284 16.8532 23.4884C15.492 22.46 14.6068 20.8336 14.6068 19C14.6068 15.8968 17.1316 13.372 20.2344 13.372C23.338 13.372 25.8624 15.8968 25.8624 19C25.8624 20.8344 24.9764 22.4612 23.6144 23.4896Z" fill="black" stroke="black" stroke-width="0.3"/>
<path d="M20.2348 14.794C18.878 14.794 17.7744 15.8976 17.7744 17.2544C17.7744 18.6112 18.878 19.7152 20.2348 19.7152C21.5916 19.7152 22.6952 18.6112 22.6952 17.2544C22.6952 15.8976 21.5916 14.794 20.2348 14.794ZM20.2348 18.9152C19.3192 18.9152 18.5744 18.1704 18.5744 17.2548C18.5744 16.3392 19.3192 15.5944 20.2348 15.5944C21.1504 15.5944 21.8952 16.3392 21.8952 17.2548C21.8952 18.1704 21.1504 18.9152 20.2348 18.9152Z" fill="black"/>
</g>
<defs>
<filter id="filter0_d" x="-1.8602" y="0.909424" width="44.1885" height="44.1818" filterUnits="userSpaceOnUse" color-interpolation-filters="sRGB">
<feFlood flood-opacity="0" result="BackgroundImageFix"/>
<feColorMatrix in="SourceAlpha" type="matrix" values="0 0 0 0 0 0 0 0 0 0 0 0 0 0 0 0 0 0 127 0"/>
<feOffset dy="4"/>
<feGaussianBlur stdDeviation="2"/>
<feColorMatrix type="matrix" values="0 0 0 0 0 0 0 0 0 0 0 0 0 0 0 0 0 0 0.25 0"/>
<feBlend mode="normal" in2="BackgroundImageFix" result="effect1_dropShadow"/>
<feBlend mode="normal" in="SourceGraphic" in2="effect1_dropShadow" result="shape"/>
</filter>
</defs>
</svg>
