<svg width="40" height="40" viewBox="0 0 40 40" fill="none" xmlns="http://www.w3.org/2000/svg">
<path d="M13.3333 15.8333V13.2C13.3333 12.3513 13.6705 11.5374 14.2706 10.9373C14.8707 10.3371 15.6846 10 16.5333 10H23.4667C24.3154 10 25.1293 10.3371 25.7294 10.9373C26.3295 11.5374 26.6667 12.3513 26.6667 13.2V15.8333C26.6667 16.0543 26.5789 16.2663 26.4226 16.4226C26.2663 16.5789 26.0543 16.6667 25.8333 16.6667C25.6123 16.6667 25.4004 16.5789 25.2441 16.4226C25.0878 16.2663 25 16.0543 25 15.8333V13.2C24.9978 12.794 24.8356 12.4053 24.5485 12.1182C24.2614 11.8311 23.8727 11.6689 23.4667 11.6667H16.5333C16.1273 11.6689 15.7386 11.8311 15.4515 12.1182C15.1644 12.4053 15.0022 12.794 15 13.2V15.8333C15 16.0543 14.9122 16.2663 14.7559 16.4226C14.5996 16.5789 14.3877 16.6667 14.1667 16.6667C13.9457 16.6667 13.7337 16.5789 13.5774 16.4226C13.4211 16.2663 13.3333 16.0543 13.3333 15.8333ZM15.8333 4.16667C15.8333 3.34258 16.0777 2.537 16.5355 1.85179C16.9934 1.16659 17.6441 0.632536 18.4055 0.317171C19.1668 0.00180535 20.0046 -0.0807085 20.8129 0.0800632C21.6211 0.240835 22.3636 0.637672 22.9463 1.22039C23.529 1.80311 23.9258 2.54554 24.0866 3.35379C24.2474 4.16205 24.1649 4.99982 23.8495 5.76118C23.5341 6.52254 23.0001 7.17329 22.3149 7.63112C21.6297 8.08896 20.8241 8.33333 20 8.33333C18.8949 8.33333 17.8351 7.89435 17.0537 7.11295C16.2723 6.33155 15.8333 5.27174 15.8333 4.16667ZM17.5 4.16667C17.5 4.66112 17.6466 5.14447 17.9213 5.55559C18.196 5.96672 18.5865 6.28715 19.0433 6.47637C19.5001 6.66559 20.0028 6.7151 20.4877 6.61863C20.9727 6.52217 21.4181 6.28407 21.7678 5.93444C22.1174 5.5848 22.3555 5.13935 22.452 4.65439C22.5484 4.16944 22.4989 3.66678 22.3097 3.20996C22.1205 2.75314 21.8 2.3627 21.3889 2.08799C20.9778 1.81329 20.4945 1.66667 20 1.66667C19.337 1.66667 18.7011 1.93006 18.2322 2.3989C17.7634 2.86774 17.5 3.50363 17.5 4.16667ZM24.1667 40C24.3877 40 24.5996 39.9122 24.7559 39.7559C24.9122 39.5996 25 39.3877 25 39.1667V35.75C24.9784 35.1015 24.7055 34.4868 24.2389 34.0359C23.7724 33.5849 23.1489 33.333 22.5 33.3333H17.5C16.8511 33.333 16.2276 33.5849 15.7611 34.0359C15.2945 34.4868 15.0216 35.1015 15 35.75V39.1667C15 39.3877 15.0878 39.5996 15.2441 39.7559C15.4004 39.9122 15.6123 40 15.8333 40C16.0543 40 16.2663 39.9122 16.4226 39.7559C16.5789 39.5996 16.6667 39.3877 16.6667 39.1667V35.75C16.6874 35.5437 16.7843 35.3526 16.9384 35.2139C17.0924 35.0752 17.2927 34.999 17.5 35H22.5C22.7073 34.999 22.9076 35.0752 23.0616 35.2139C23.2157 35.3526 23.3126 35.5437 23.3333 35.75V39.1667C23.3333 39.3877 23.4211 39.5996 23.5774 39.7559C23.7337 39.9122 23.9457 40 24.1667 40ZM16.6667 28.3333C16.6667 27.6741 16.8622 27.0296 17.2284 26.4814C17.5947 25.9333 18.1153 25.506 18.7244 25.2537C19.3335 25.0014 20.0037 24.9354 20.6503 25.0641C21.2969 25.1927 21.8908 25.5101 22.357 25.9763C22.8232 26.4425 23.1407 27.0364 23.2693 27.683C23.3979 28.3296 23.3319 28.9999 23.0796 29.6089C22.8273 30.218 22.4001 30.7386 21.8519 31.1049C21.3037 31.4712 20.6593 31.6667 20 31.6667C19.1159 31.6667 18.2681 31.3155 17.643 30.6904C17.0179 30.0652 16.6667 29.2174 16.6667 28.3333ZM18.3333 28.3333C18.3333 28.663 18.4311 28.9852 18.6142 29.2593C18.7974 29.5334 19.0576 29.747 19.3622 29.8731C19.6667 29.9993 20.0018 30.0323 20.3251 29.968C20.6485 29.9037 20.9454 29.7449 21.1785 29.5119C21.4116 29.2788 21.5703 28.9818 21.6346 28.6585C21.6989 28.3352 21.6659 28.0001 21.5398 27.6955C21.4137 27.391 21.2 27.1307 20.926 26.9476C20.6519 26.7644 20.3296 26.6667 20 26.6667C19.558 26.6667 19.134 26.8423 18.8215 27.1548C18.5089 27.4674 18.3333 27.8913 18.3333 28.3333ZM37.5 33.3333H32.5C31.8511 33.333 31.2276 33.5849 30.7611 34.0359C30.2945 34.4868 30.0216 35.1015 30 35.75V39.1667C30 39.3877 30.0878 39.5996 30.2441 39.7559C30.4004 39.9122 30.6123 40 30.8333 40C31.0543 40 31.2663 39.9122 31.4226 39.7559C31.5789 39.5996 31.6667 39.3877 31.6667 39.1667V35.75C31.6874 35.5437 31.7843 35.3526 31.9384 35.2139C32.0924 35.0752 32.2927 34.999 32.5 35H37.5C37.7073 34.999 37.9076 35.0752 38.0616 35.2139C38.2157 35.3526 38.3126 35.5437 38.3333 35.75V39.1667C38.3333 39.3877 38.4211 39.5996 38.5774 39.7559C38.7337 39.9122 38.9457 40 39.1667 40C39.3877 40 39.5996 39.9122 39.7559 39.7559C39.9122 39.5996 40 39.3877 40 39.1667V35.75C39.9784 35.1015 39.7055 34.4868 39.2389 34.0359C38.7724 33.5849 38.1488 33.333 37.5 33.3333ZM35 25C35.6593 25 36.3037 25.1955 36.8519 25.5618C37.4001 25.928 37.8273 26.4486 38.0796 27.0577C38.3319 27.6668 38.3979 28.337 38.2693 28.9836C38.1407 29.6302 37.8232 30.2242 37.357 30.6904C36.8908 31.1565 36.2969 31.474 35.6503 31.6026C35.0037 31.7312 34.3335 31.6652 33.7244 31.4129C33.1153 31.1606 32.5947 30.7334 32.2284 30.1852C31.8622 29.6371 31.6667 28.9926 31.6667 28.3333C31.6667 27.4493 32.0179 26.6014 32.643 25.9763C33.2681 25.3512 34.1159 25 35 25ZM35 26.6667C34.6704 26.6667 34.3481 26.7644 34.074 26.9476C33.8 27.1307 33.5863 27.391 33.4602 27.6955C33.3341 28.0001 33.301 28.3352 33.3654 28.6585C33.4297 28.9818 33.5884 29.2788 33.8215 29.5119C34.0546 29.7449 34.3515 29.9037 34.6748 29.968C34.9981 30.0323 35.3333 29.9993 35.6378 29.8731C35.9423 29.747 36.2026 29.5334 36.3858 29.2593C36.5689 28.9852 36.6667 28.663 36.6667 28.3333C36.6667 27.8913 36.4911 27.4674 36.1785 27.1548C35.866 26.8423 35.442 26.6667 35 26.6667ZM0.833333 40C1.05435 40 1.26631 39.9122 1.42259 39.7559C1.57887 39.5996 1.66667 39.3877 1.66667 39.1667V35.75C1.68739 35.5437 1.78426 35.3526 1.93835 35.2139C2.09244 35.0752 2.29269 34.999 2.5 35H7.5C7.70731 34.999 7.90756 35.0752 8.06165 35.2139C8.21574 35.3526 8.3126 35.5437 8.33333 35.75V39.1667C8.33333 39.3877 8.42113 39.5996 8.57741 39.7559C8.73369 39.9122 8.94565 40 9.16667 40C9.38768 40 9.59964 39.9122 9.75592 39.7559C9.9122 39.5996 10 39.3877 10 39.1667V35.75C9.97837 35.1015 9.70546 34.4868 9.23895 34.0359C8.77243 33.5849 8.14885 33.333 7.5 33.3333H2.5C1.85115 33.333 1.22757 33.5849 0.761055 34.0359C0.294538 34.4868 0.0216283 35.1015 0 35.75L0 39.1667C0 39.3877 0.0877974 39.5996 0.244078 39.7559C0.400358 39.9122 0.61232 40 0.833333 40ZM1.66667 28.3333C1.66667 27.6741 1.86216 27.0296 2.22843 26.4814C2.59471 25.9333 3.1153 25.506 3.72439 25.2537C4.33348 25.0014 5.0037 24.9354 5.6503 25.0641C6.2969 25.1927 6.89085 25.5101 7.35702 25.9763C7.8232 26.4425 8.14067 27.0364 8.26928 27.683C8.3979 28.3296 8.33189 28.9999 8.0796 29.6089C7.82731 30.218 7.40006 30.7386 6.8519 31.1049C6.30374 31.4712 5.65927 31.6667 5 31.6667C4.11594 31.6667 3.2681 31.3155 2.64298 30.6904C2.01786 30.0652 1.66667 29.2174 1.66667 28.3333ZM3.33333 28.3333C3.33333 28.663 3.43108 28.9852 3.61422 29.2593C3.79735 29.5334 4.05765 29.747 4.36219 29.8731C4.66674 29.9993 5.00185 30.0323 5.32515 29.968C5.64845 29.9037 5.94542 29.7449 6.17851 29.5119C6.4116 29.2788 6.57033 28.9818 6.63464 28.6585C6.69895 28.3352 6.66595 28.0001 6.5398 27.6955C6.41365 27.391 6.20003 27.1307 5.92595 26.9476C5.65187 26.7644 5.32964 26.6667 5 26.6667C4.55797 26.6667 4.13405 26.8423 3.82149 27.1548C3.50893 27.4674 3.33333 27.8913 3.33333 28.3333ZM5 23.3333C5.22101 23.3333 5.43297 23.2455 5.58926 23.0893C5.74554 22.933 5.83333 22.721 5.83333 22.5V20.8333H19.1667V22.5C19.1667 22.721 19.2545 22.933 19.4107 23.0893C19.567 23.2455 19.779 23.3333 20 23.3333C20.221 23.3333 20.433 23.2455 20.5893 23.0893C20.7455 22.933 20.8333 22.721 20.8333 22.5V20.8333H34.1667V22.5C34.1667 22.721 34.2545 22.933 34.4107 23.0893C34.567 23.2455 34.779 23.3333 35 23.3333C35.221 23.3333 35.433 23.2455 35.5893 23.0893C35.7455 22.933 35.8333 22.721 35.8333 22.5V20C35.8333 19.779 35.7455 19.567 35.5893 19.4107C35.433 19.2545 35.221 19.1667 35 19.1667H20.8333V17.5C20.8333 17.279 20.7455 17.067 20.5893 16.9107C20.433 16.7545 20.221 16.6667 20 16.6667C19.779 16.6667 19.567 16.7545 19.4107 16.9107C19.2545 17.067 19.1667 17.279 19.1667 17.5V19.1667H5C4.77899 19.1667 4.56702 19.2545 4.41074 19.4107C4.25446 19.567 4.16667 19.779 4.16667 20V22.5C4.16667 22.721 4.25446 22.933 4.41074 23.0893C4.56702 23.2455 4.77899 23.3333 5 23.3333Z" fill="black"/>
</svg>
