<svg height="512" viewBox="0 0 64 64" width="512" xmlns="http://www.w3.org/2000/svg"><g id="Airplane"><path d="m51 39v11h-38v-11a2.006 2.006 0 0 1 2-2h34a2.006 2.006 0 0 1 2 2z" fill="#c49a6c"/><path d="m15 50h34v11h-34z" fill="#8b5e3c"/><path d="m25 37h3v-4h8v4h3v-7h-14z" fill="#58595b"/><path d="m39 15.9a15 15 0 0 0 -5.238-11.39l-1.111-.952a1 1 0 0 0 -1.3 0l-1.111.952a15 15 0 0 0 -5.24 11.39v14.1h14z" fill="#2488ff"/><path d="m59.035 30.839-20.035-11.839v11l22 7v-2.717a4 4 0 0 0 -1.965-3.444z" fill="#ff6243"/><path d="m4.965 30.839a4 4 0 0 0 -1.965 3.444v2.717l22-7v-11z" fill="#ff6243"/><path d="m28 33h8v4h-8z" fill="#006df0"/><path d="m15 50h34v2h-34z" fill="#754c29"/><path d="m39 53h2a1 1 0 0 0 1-1v-4a1 1 0 0 0 -1-1h-2a1 1 0 0 0 -1 1v4a1 1 0 0 0 1 1z" fill="#ffcd00"/><path d="m23 53h2a1 1 0 0 0 1-1v-4a1 1 0 0 0 -1-1h-2a1 1 0 0 0 -1 1v4a1 1 0 0 0 1 1z" fill="#ffcd00"/><path d="m59.54 29.98-19.54-11.55v-2.53a15.98 15.98 0 0 0 -5.59-12.15l-1.11-.95a1.977 1.977 0 0 0 -2.6 0l-1.11.95a15.98 15.98 0 0 0 -5.59 12.15v2.53l-19.54 11.55a5 5 0 0 0 -2.46 4.3v2.72a1 1 0 0 0 .41.81 1.036 1.036 0 0 0 .59.19 1.047 1.047 0 0 0 .3-.05l20.7-6.58v4.63h-9a3.009 3.009 0 0 0 -3 3v11a1 1 0 0 0 1 1h1v10a1 1 0 0 0 1 1h34a1 1 0 0 0 1-1v-10h1a1 1 0 0 0 1-1v-11a3.009 3.009 0 0 0 -3-3h-9v-4.63l20.7 6.58a1.047 1.047 0 0 0 .3.05 1.036 1.036 0 0 0 .59-.19 1 1 0 0 0 .41-.81v-2.72a5 5 0 0 0 -2.46-4.3zm-33.54-14.08a13.974 13.974 0 0 1 4.89-10.63l1.11-.95 1.11.95a13.974 13.974 0 0 1 4.89 10.63v13.1h-12zm0 15.1h12v5h-1v-3a1 1 0 0 0 -1-1h-8a1 1 0 0 0 -1 1v3h-1zm9 3v2h-6v-2zm-31 1.63v-1.35a3.013 3.013 0 0 1 1.47-2.58l18.53-10.95v8.52zm44 24.37h-32v-9h5v1a2.006 2.006 0 0 0 2 2h2a2.006 2.006 0 0 0 2-2v-1h10v1a2.006 2.006 0 0 0 2 2h2a2.006 2.006 0 0 0 2-2v-1h5zm-25-8v-4h2v4zm16 0v-4h2v4zm10-14a1 1 0 0 1 1 1v10h-7v-1a2.006 2.006 0 0 0 -2-2h-2a2.006 2.006 0 0 0 -2 2v1h-10v-1a2.006 2.006 0 0 0 -2-2h-2a2.006 2.006 0 0 0 -2 2v1h-7v-10a1 1 0 0 1 1-1zm11-2.37-20-6.36v-8.52l18.53 10.95a3.013 3.013 0 0 1 1.47 2.58z" fill="#231f20"/></g></svg>