<svg height="506pt" viewBox="-1 0 506 506" width="506pt" xmlns="http://www.w3.org/2000/svg"><path d="m380.511719 264.859375c47.941406-.003906 91.039062 29.226563 108.769531 73.769531 17.730469 44.542969 6.507812 95.394532-28.320312 128.339844v-20.148438c1.082031-10.667968-2.402344-21.292968-9.59375-29.246093-7.1875-7.953125-17.40625-12.492188-28.125-12.496094h-9.210938l-14.601562 41.453125-15.140626-17.03125h.011719l7.300781-23.300781h-23.300781l7.300781 23.300781-14 17.03125h-.011718l-13.410156-41.453125h-10.390626c-10.722656 0-20.941406 4.539063-28.132812 12.492187-7.191406 7.957032-10.675781 18.582032-9.597656 29.25v20.148438c-34.828125-32.945312-46.050782-83.796875-28.320313-128.339844 17.730469-44.542968 60.828125-73.773437 108.773438-73.769531zm35.21875 77.742187v-14.601562c-.328125-19.921875-16.574219-35.894531-36.496094-35.894531s-36.164063 15.972656-36.492187 35.894531v14.601562c-.21875 13.179688 6.6875 25.457032 18.070312 32.109376 11.378906 6.65625 25.464844 6.65625 36.847656 0 11.378906-6.652344 18.289063-18.929688 18.070313-32.109376zm0 0" fill="#00acea"/><path d="m423.242188 405.078125c10.71875.003906 20.9375 4.542969 28.125 12.496094 7.191406 7.953125 10.675781 18.578125 9.59375 29.246093v20.148438c-45.132813 42.707031-115.769532 42.707031-160.902344 0v-20.148438c-1.078125-10.667968 2.40625-21.292968 9.597656-29.25 7.191406-7.953124 17.410156-12.492187 28.132812-12.492187h10.390626l13.410156 41.453125h.011718l14-17.03125h8.6875l15.140626 17.03125 14.601562-41.453125zm0 0" fill="#00efd1"/><path d="m415.730469 328v14.601562c.21875 13.179688-6.691407 25.457032-18.070313 32.109376-11.382812 6.65625-25.46875 6.65625-36.847656 0-11.382812-6.652344-18.289062-18.929688-18.070312-32.109376v-14.601562c.328124-19.921875 16.570312-35.894531 36.492187-35.894531s36.167969 15.972656 36.496094 35.894531zm0 0" fill="#00efd1"/><path d="m161.191406 68.621094v-3.0625c-.003906-15.710938-12.738281-28.445313-28.449218-28.449219h-41.113282c-.410156 0-.824218.039063-1.230468.109375-3.542969.597656-6.136719 3.667969-6.136719 7.261719v57.019531c0 21.242188 17.21875 38.464844 38.464843 38.464844 21.242188 0 38.464844-17.222656 38.464844-38.464844zm79.949219 55.449218c.046875 30.0625-11.519531 58.980469-32.28125 80.71875v-3.988281c1.140625-11.242187-2.53125-22.441406-10.105469-30.824219-7.574218-8.382812-18.34375-13.167968-29.644531-13.167968h-9.710937l-15.386719 44.230468-15.953125-18.488281h.011718l7.691407-24.5625h-24.5625l7.691406 24.5625-14.75 18.480469-.011719.007812-14.128906-44.230468h-10.960938c-11.300781 0-22.070312 4.78125-29.648437 13.167968-7.578125 8.382813-11.25 19.582032-10.109375 30.824219v3.988281c-36.289062-38.117187-42.679688-95.765624-15.621094-140.90625 27.058594-45.140624 80.914063-66.679687 131.636719-52.640624 50.722656 14.039062 85.84375 60.199218 85.84375 112.828124zm0 0" fill="#00acea"/><path d="m169.109375 156.808594c11.300781 0 22.070313 4.785156 29.644531 13.167968 7.574219 8.382813 11.246094 19.582032 10.105469 30.824219v3.988281c-22.09375 23.210938-52.742187 36.351563-84.789063 36.351563-32.046874 0-62.695312-13.140625-84.789062-36.351563v-3.988281c-1.140625-11.242187 2.53125-22.441406 10.109375-30.824219 7.578125-8.386718 18.347656-13.167968 29.648437-13.167968h10.960938l14.128906 44.230468.011719-.007812 14.75-18.480469h9.167969l15.953125 18.488281 15.386719-44.230468zm0 0" fill="#00efd1"/><path d="m161.191406 68.621094v32.878906c0 21.242188-17.222656 38.464844-38.464844 38.464844-21.246093 0-38.464843-17.222656-38.464843-38.464844v-16.300781c20.480469-2.929688 28.21875-22.070313 28.21875-22.070313l.429687-.980468c12.359375 8.480468 29.128906 14.421874 48.28125 6.472656zm0 0" fill="#00efd1"/><path d="m161.191406 65.558594v3.0625c-19.152344 7.949218-35.921875 2.007812-48.28125-6.472656-8.578125-6.015626-16.050781-13.476563-22.078125-22.046876l-.433593-2.882812c.40625-.070312.820312-.109375 1.230468-.109375h41.113282c15.710937.003906 28.445312 12.738281 28.449218 28.449219zm0 0" fill="#4b5d63"/><path d="m112.910156 62.148438-.429687.980468s-7.738281 19.140625-28.21875 22.070313v-40.71875c0-3.59375 2.59375-6.664063 6.136719-7.261719l.433593 2.882812c6.027344 8.570313 13.5 16.03125 22.078125 22.046876zm0 0" fill="#4b5d63"/><g fill="#083863"><path d="m124.070312 0c-49.628906 0-94.480468 29.570312-114.035156 75.183594-19.550781 45.613281-10.0429685 98.488281 24.175782 134.433594 34.984374 36.746093 88.816406 48.488281 135.925781 29.652343 47.109375-18.839843 78.003906-64.460937 78.003906-115.199219-.078125-68.488281-55.582031-123.992187-124.070313-124.070312zm0 234.140625c-29.195312.117187-57.21875-11.484375-77.789062-32.199219v-1.140625c0-.238281-.011719-.472656-.035156-.707031-.941406-9.273438 2.089844-18.511719 8.339844-25.425781 6.25-6.917969 15.136718-10.859375 24.457031-10.859375h5.847656l12.574219 39.363281c.753906 2.351563 2.695312 4.132813 5.109375 4.6875 2.410156.550781 4.933593-.210937 6.636719-2.003906.140624-.144531.273437-.296875.398437-.460938l12.648437-15.84375h2.597657l13.855469 16.058594c1.632812 1.898437 4.152343 2.773437 6.609374 2.304687 2.460938-.46875 4.480469-2.210937 5.300782-4.574218l13.757812-39.53125h4.730469c9.320313 0 18.203125 3.945312 24.453125 10.859375 6.246094 6.914062 9.277344 16.152343 8.335938 25.421875-.023438.234375-.039063.472656-.039063.707031v1.144531c-20.570313 20.71875-48.59375 32.316406-77.789063 32.199219zm-3.34375-69.152344h5.507813l-2.753906 8.792969zm94.144532 21.320313c-4.863282-21.359375-23.855469-36.507813-45.761719-36.5h-9.710937c-2.976563 0-5.628907 1.886718-6.609376 4.699218l-11.398437 32.769532-5.476563-6.34375 6.527344-20.855469c.667969-2.125.28125-4.441406-1.039062-6.234375-1.316406-1.796875-3.414063-2.855469-5.640625-2.855469h-24.558594c-2.226563 0-4.324219 1.058594-5.640625 2.855469-1.320312 1.792969-1.707031 4.109375-1.042969 6.234375l6.578125 21.011719-4.277344 5.359375-10.148437-31.769531c-.929687-2.902344-3.625-4.871094-6.667969-4.871094h-10.964844c-21.90625-.011719-40.90625 15.140625-45.769531 36.5-31.40625-45.835938-23.726562-107.890625 17.90625-144.6875 41.628907-36.792969 104.15625-36.792969 145.789063 0 41.628906 36.796875 49.308594 98.851562 17.90625 144.6875zm0 0"/><path d="m132.742188 30.109375h-41.113282c-.808594 0-1.613281.074219-2.410156.210937-6.917969 1.152344-11.980469 7.148438-11.957031 14.160157v57.019531c0 25.109375 20.355469 45.464844 45.464843 45.464844 25.109376 0 45.464844-20.355469 45.464844-45.464844v-35.941406c-.023437-19.566406-15.882812-35.425782-35.449218-35.449219zm21.355468 33.589844c-12.316406 3.632812-24.816406 1.191406-37.226562-7.324219-5.082032-3.542969-9.734375-7.660156-13.875-12.265625h29.746094c11.113281.015625 20.382812 8.515625 21.355468 19.589844zm-50.121094.527343c-3.085937 4.976563-7.484374 8.996094-12.714843 11.625v-23.859374c3.867187 4.445312 8.121093 8.542968 12.714843 12.234374zm18.753907 68.734376c-17.378907.003906-31.46875-14.082032-31.472657-31.460938v-10.6875c12.683594-3.757812 20.371094-12.691406 24.332032-18.820312 8.386718 4.71875 17.828125 7.246093 27.449218 7.351562 3.75-.007812 7.488282-.417969 11.148438-1.222656v23.378906c-.015625 17.367188-14.089844 31.441406-31.457031 31.460938zm0 0"/><path d="m380.511719 257.859375c-68.492188.078125-123.992188 55.582031-124.070313 124.070313 0 68.523437 55.546875 124.070312 124.070313 124.070312 68.523437 0 124.070312-55.546875 124.070312-124.070312-.078125-68.488282-55.582031-123.992188-124.070312-124.070313zm-73.453125 206.039063v-17.078126c0-.238281-.011719-.472656-.035156-.707031-.878907-8.699219 1.964843-17.363281 7.828124-23.847656 5.863282-6.484375 14.195313-10.1875 22.9375-10.183594h5.300782l11.84375 36.597657c.789062 2.4375 2.84375 4.246093 5.359375 4.722656 2.515625.476562 5.089843-.453125 6.71875-2.429688l11.898437-14.476562h2.238282l13.054687 14.679687c1.644531 1.851563 4.148437 2.695313 6.578125 2.21875 2.433594-.476562 4.429688-2.207031 5.253906-4.542969l12.957032-36.769531h4.253906c8.738281 0 17.070312 3.699219 22.929687 10.1875 5.863281 6.484375 8.703125 15.144531 7.824219 23.84375-.023438.234375-.035156.46875-.035156.707031v17.078126c-41.800782 37.46875-105.101563 37.46875-146.902344 0zm70.769531-50.699219h4.242187l-2.121093 6.773437zm90.132813 35.613281v-1.652344c1.171874-12.582031-3.011719-25.074218-11.523438-34.414062s-20.5625-14.664063-33.195312-14.667969h-9.210938c-2.96875.003906-5.613281 1.875-6.601562 4.675781l-10.65625 30.246094-4.613282-5.1875 6.117188-19.523438c.667968-2.125.28125-4.441406-1.035156-6.238281-1.320313-1.792969-3.414063-2.855469-5.644532-2.855469h-23.296875c-2.230469 0-4.324219 1.0625-5.640625 2.855469-1.320312 1.796875-1.707031 4.113281-1.039062 6.238281l6.167968 19.6875-3.476562 4.222657-9.472656-29.277344c-.9375-2.890625-3.625-4.847656-6.660156-4.847656h-10.390626c-12.636718 0-24.691406 5.320312-33.203124 14.664062-8.511719 9.339844-12.695313 21.832031-11.527344 34.417969v1.652344c-14.757813-19.160156-22.714844-42.691406-22.617188-66.878906-.121094-39.402344 20.832032-75.863282 54.9375-95.597657 34.105469-19.738281 76.15625-19.738281 110.261719 0 34.105469 19.734375 55.058594 56.195313 54.9375 95.597657.101563 24.1875-7.859375 47.722656-22.617187 66.882812zm0 0"/><path d="m224.691406 436.710938h-136.816406c-3.714844-.035157-7.253906-1.582032-9.800781-4.285157-2.550781-2.703125-3.886719-6.324219-3.707031-10.035156 0-.042969 0-.089844 0-.136719l.214843-105.238281 23.445313 23.445313c2.734375 2.730468 7.167968 2.730468 9.902344 0 2.734374-2.734376 2.734374-7.167969 0-9.902344l-35.347657-35.34375-.015625-.015625c-.019531-.023438-.046875-.042969-.070312-.066407-.140625-.132812-.28125-.265624-.429688-.390624-.050781-.039063-.101562-.074219-.15625-.113282-.128906-.101562-.257812-.199218-.398437-.292968-.050781-.03125-.101563-.058594-.152344-.09375-.144531-.089844-.285156-.179688-.4375-.261719-.039063-.019531-.082031-.039063-.125-.058594-.160156-.082031-.324219-.164063-.492187-.234375-.035157-.015625-.074219-.027344-.105469-.039062-.179688-.070313-.355469-.136719-.539063-.195313l-.113281-.027344c-.179687-.054687-.363281-.101562-.546875-.140625-.070312-.011718-.140625-.019531-.210938-.03125-.15625-.023437-.3125-.054687-.46875-.070312-.160156-.015625-.292968-.015625-.4375-.023438-.085937 0-.167968-.011718-.253906-.011718h-.007812c-.234375 0-.46875.011718-.699219.035156-.167969.015625-.332031.046875-.496094.074218-.058593.011719-.125.015626-.183593.027344-.199219.039063-.394532.09375-.585938.148438-.023438.007812-.050781.011718-.078125.019531-.199219.058594-.390625.132813-.578125.207031l-.0625.023438c-.179688.074218-.355469.160156-.523438.246094-.03125.015624-.066406.03125-.097656.046874-.160156.085938-.3125.183594-.464844.28125-.039062.023438-.082031.046876-.121093.070313-.152344.101563-.300781.214844-.441407.328125-.035156.027344-.074218.054688-.109374.082031-.175782.144531-.34375.300781-.503907.457031l-35.351562 35.363282c-2.734375 2.730468-2.734375 7.164062 0 9.898437s7.167969 2.734375 9.898437 0l23.367188-23.367187-.21875 105.070312c-.238282 7.421875 2.515625 14.625 7.644531 19.996094 5.125 5.367188 12.195313 8.449219 19.617187 8.550781h137.058594c3.863282 0 7-3.132812 7-7 0-3.863281-3.136718-7-7-7zm0 0"/><path d="m282.269531 69.289062h136.816407c3.714843.015626 7.261718 1.554688 9.8125 4.261719 2.496093 2.738281 3.820312 6.347657 3.683593 10.050781v.140626l-.214843 105.238281-23.433594-23.441407c-2.734375-2.734374-7.167969-2.734374-9.902344 0-2.734375 2.734376-2.734375 7.167969 0 9.898438l35.351562 35.363281c.042969.042969.089844.078125.132813.121094.121094.113281.242187.226563.367187.332031.058594.050782.125.089844.183594.136719.121094.09375.242188.1875.367188.273437.058594.035157.117187.066407.171875.105469.136719.085938.273437.171875.417969.246094.046874.027344.101562.046875.144531.074219.15625.078125.3125.152344.476562.222656.039063.015625.082031.03125.125.046875.167969.066406.339844.128906.515625.183594.046875.015625.101563.023437.144532.039062.171874.046875.339843.09375.519531.128907.078125.015624.160156.023437.242187.039062.144532.023438.289063.050781.4375.0625.144532.015625.3125.019531.46875.027344.074219 0 .148438.011718.222656.011718h.015626c.234374 0 .464843-.011718.699218-.035156.179688-.019531.351563-.046875.527344-.078125.046875-.007812.097656-.011719.152344-.023437.207031-.039063.410156-.09375.609375-.152344.015625 0 .035156-.007812.050781-.015625.203125-.058594.402344-.132813.59375-.210937l.050781-.019532c.183594-.074218.359375-.160156.53125-.25.03125-.015625.058594-.027344.089844-.042968.15625-.085938.308594-.179688.460937-.277344.039063-.027344.085938-.050782.125-.078125.140626-.09375.273438-.199219.402344-.300781.046875-.035157.097656-.066407.144532-.105469.175781-.144531.34375-.296875.5-.457031l35.359374-35.359376c2.734376-2.734374 2.734376-7.167968 0-9.898437-2.730468-2.734375-7.164062-2.734375-9.898437 0l-23.375 23.375.214844-105.074219c.207031-7.332031-2.464844-14.449218-7.4375-19.835937-5.144531-5.480469-12.300781-8.625-19.816407-8.714844h-137.050781c-3.867187 0-7 3.132813-7 7 0 3.863281 3.132813 7 7 7zm0 0"/><path d="m379.230469 284.511719c-24.007813.027343-43.460938 19.480469-43.488281 43.488281v14.601562c-.238282 15.695313 7.996093 30.300782 21.554687 38.21875 13.554687 7.917969 30.324219 7.917969 43.878906 0 13.554688-7.917968 21.792969-22.523437 21.554688-38.21875v-14.601562c-.003907-24.019531-19.480469-43.488281-43.5-43.488281zm29.5 58.089843c.195312 10.664063-5.382813 20.605469-14.589844 26-9.207031 5.390626-20.605469 5.390626-29.8125 0-9.207031-5.394531-14.785156-15.335937-14.585937-26v-14.601562c.292968-16.078125 13.414062-28.957031 29.492187-28.957031 16.082031 0 29.199219 12.878906 29.496094 28.957031zm0 0"/></g></svg>