<svg width="24" height="24" viewBox="0 0 24 24" fill="none" xmlns="http://www.w3.org/2000/svg">
<path d="M7.07101 13.306C6.87613 13.1117 6.63932 12.9646 6.37877 12.8761C6.11821 12.7875 5.84083 12.7597 5.56789 12.795C5.29495 12.8302 5.03371 12.9275 4.8042 13.0794C4.57469 13.2312 4.38302 13.4336 4.24388 13.6711L3.60002 13.2169V9.92805C3.60002 9.45066 3.41037 8.99282 3.07281 8.65526C2.73524 8.31769 2.27741 8.12805 1.80002 8.12805C1.32263 8.12805 0.864792 8.31769 0.527227 8.65526C0.189662 8.99282 1.97785e-05 9.45066 1.97713e-05 9.92805V15.3638C-0.00120621 15.6243 0.0545974 15.8819 0.163514 16.1186C0.272431 16.3553 0.431822 16.5652 0.630499 16.7337L6.00001 21.5941V23.128C5.99997 23.2068 6.01546 23.2849 6.0456 23.3577C6.07574 23.4305 6.11993 23.4967 6.17565 23.5524C6.23138 23.6081 6.29754 23.6523 6.37035 23.6825C6.44317 23.7126 6.52121 23.7281 6.60001 23.728H10.2C10.2788 23.7281 10.3569 23.7126 10.4297 23.6825C10.5025 23.6523 10.5686 23.6081 10.6244 23.5524C10.6801 23.4967 10.7243 23.4305 10.7544 23.3577C10.7846 23.2849 10.8001 23.2068 10.8 23.128V17.6238C10.8002 17.3853 10.7528 17.1492 10.6606 16.9293C10.5685 16.7094 10.4334 16.51 10.2633 16.3429L7.07101 13.306ZM9.60001 22.528H7.20001V21.328C7.20006 21.2442 7.1825 21.1613 7.14849 21.0847C7.11447 21.0081 7.06476 20.9395 7.00255 20.8833L1.4174 15.8279C1.34923 15.7713 1.2944 15.7004 1.25682 15.6201C1.21924 15.5399 1.19985 15.4524 1.20002 15.3638V9.92805C1.20002 9.76892 1.26323 9.61631 1.37575 9.50379C1.48828 9.39126 1.64089 9.32805 1.80002 9.32805C1.95915 9.32805 2.11176 9.39126 2.22428 9.50379C2.3368 9.61631 2.40002 9.76892 2.40002 9.92805V13.528C2.40004 13.6242 2.42315 13.7189 2.46741 13.8042C2.51166 13.8896 2.57577 13.9631 2.65433 14.0185L4.05233 15.0046C4.13212 15.3304 4.3002 15.6278 4.53809 15.8642L6.85708 18.0562C6.91428 18.1105 6.98164 18.1531 7.05531 18.1813C7.12897 18.2096 7.2075 18.2231 7.28638 18.221C7.36526 18.2189 7.44295 18.2012 7.515 18.169C7.58704 18.1368 7.65202 18.0907 7.70622 18.0334C7.76041 17.976 7.80276 17.9085 7.83082 17.8348C7.85889 17.761 7.87213 17.6824 7.86978 17.6036C7.86743 17.5247 7.84953 17.4471 7.81713 17.3751C7.78472 17.3032 7.73843 17.2383 7.68091 17.1843L5.37425 15.004C5.31821 14.9479 5.27387 14.8811 5.2438 14.8077C5.21373 14.7342 5.19852 14.6555 5.19906 14.5762C5.19959 14.4968 5.21586 14.4184 5.24692 14.3453C5.27797 14.2723 5.32321 14.2062 5.37999 14.1507C5.43678 14.0953 5.504 14.0517 5.57776 14.0224C5.65152 13.9931 5.73035 13.9787 5.8097 13.9801C5.88905 13.9815 5.96733 13.9986 6.04003 14.0304C6.11272 14.0623 6.17838 14.1082 6.2332 14.1656L9.42541 17.2019C9.48095 17.2572 9.52497 17.3229 9.55494 17.3954C9.58491 17.4678 9.60023 17.5454 9.60001 17.6238V22.528Z" fill="black"/>
<path d="M22.2 8.12805C21.7228 8.12858 21.2652 8.31839 20.9278 8.65584C20.5903 8.99329 20.4005 9.45082 20.4 9.92805V13.2169L19.756 13.671C19.6779 13.5379 19.5832 13.4153 19.4742 13.306C19.1384 12.9705 18.6836 12.7813 18.2089 12.7794C17.7342 12.7775 17.2779 12.9632 16.9394 13.296L13.7262 16.3534C13.5588 16.5199 13.4262 16.7179 13.3359 16.9359C13.2455 17.154 13.1994 17.3877 13.2 17.6238V23.128C13.2 23.2068 13.2155 23.2849 13.2456 23.3577C13.2757 23.4305 13.3199 23.4967 13.3756 23.5524C13.4314 23.6081 13.4975 23.6523 13.5703 23.6825C13.6432 23.7126 13.7212 23.7281 13.8 23.728H17.4C17.4788 23.7281 17.5568 23.7126 17.6297 23.6825C17.7025 23.6523 17.7686 23.6081 17.8244 23.5524C17.8801 23.4967 17.9243 23.4305 17.9544 23.3577C17.9846 23.2849 18 23.2068 18 23.128V21.5941L23.3514 16.75C23.5546 16.5808 23.7181 16.3688 23.8302 16.1292C23.9423 15.8896 24.0003 15.6283 24 15.3638V9.92805C23.9995 9.45082 23.8097 8.99329 23.4722 8.65584C23.1348 8.31839 22.6772 8.12858 22.2 8.12805ZM22.8 15.3638C22.7992 15.4564 22.7776 15.5476 22.7368 15.6308C22.696 15.7139 22.6371 15.7869 22.5644 15.8443L16.9975 20.8833C16.9353 20.9395 16.8855 21.0081 16.8515 21.0847C16.8175 21.1613 16.8 21.2442 16.8 21.328V22.528H14.4V17.6238C14.3987 17.4705 14.4576 17.3227 14.5641 17.2124L17.7773 14.1556C17.8889 14.0442 18.0398 13.9812 18.1974 13.9801C18.3551 13.9791 18.5068 14.0401 18.6199 14.15C18.7329 14.2599 18.7982 14.4098 18.8016 14.5674C18.805 14.725 18.7463 14.8776 18.6381 14.9923L16.3191 17.1843C16.2616 17.2384 16.2153 17.3032 16.1829 17.3751C16.1505 17.4471 16.1326 17.5247 16.1302 17.6036C16.1279 17.6825 16.1411 17.761 16.1692 17.8348C16.1973 17.9085 16.2396 17.976 16.2938 18.0334C16.348 18.0907 16.413 18.1368 16.485 18.169C16.5571 18.2012 16.6348 18.2189 16.7136 18.221C16.7925 18.2231 16.871 18.2097 16.9447 18.1814C17.0184 18.1531 17.0857 18.1105 17.1429 18.0562L19.4744 15.8525C19.7091 15.6188 19.874 15.3244 19.9507 15.0023L21.3457 14.0185C21.4243 13.9631 21.4884 13.8896 21.5326 13.8043C21.5769 13.7189 21.6 13.6242 21.6 13.528V9.92805C21.6 9.76892 21.6632 9.61631 21.7757 9.50379C21.8883 9.39126 22.0409 9.32805 22.2 9.32805C22.3591 9.32805 22.5117 9.39126 22.6243 9.50379C22.7368 9.61631 22.8 9.76892 22.8 9.92805V15.3638Z" fill="black"/>
<path d="M19.2 4.52804C19.2 2.5593 18.2315 0.934498 16.6717 0.288778C15.1863 -0.328171 13.473 0.0573583 12 1.31187C10.5264 0.0573583 8.81135 -0.328171 7.32833 0.288868C5.76857 0.934528 4.80002 2.55933 4.80002 4.52804C4.80002 8.35244 8.417 11.5411 11.7774 12.8853C11.9203 12.9423 12.0797 12.9423 12.2227 12.8853C15.583 11.5411 19.2 8.35247 19.2 4.52804ZM12 11.6788C8.98201 10.395 6.00002 7.57376 6.00002 4.52804C6.00002 3.05382 6.68498 1.85442 7.78772 1.39737C8.10118 1.26812 8.43712 1.2022 8.77618 1.20342C9.70195 1.20342 10.6945 1.6716 11.5758 2.55225C11.6315 2.60798 11.6976 2.65219 11.7704 2.68235C11.8432 2.71251 11.9212 2.72804 12 2.72804C12.0788 2.72804 12.1568 2.71251 12.2296 2.68235C12.3024 2.65219 12.3685 2.60798 12.4242 2.55225C13.6302 1.34523 15.0457 0.913978 16.2123 1.39725C17.315 1.85445 18 3.05385 18 4.52804C18 7.57376 15.0182 10.395 12 11.6788Z" fill="black"/>
</svg>
