<svg width="35" height="35" viewBox="0 0 35 35" fill="none" xmlns="http://www.w3.org/2000/svg">
<path d="M18.3203 22.1484H16.3151C16.2606 21.2209 15.8221 20.3548 15.0933 19.769L13.4817 18.4736C13.4011 18.5074 13.3189 18.5385 13.2345 18.5656L13.1097 18.6056L12.6067 18.7668L11.0987 19.2501C10.9589 19.295 10.8148 19.317 10.6714 19.317C10.5729 19.317 10.4753 19.3033 10.3791 19.2826C10.2307 19.2507 10.0868 19.1966 9.95365 19.1168C9.94769 19.1132 9.94125 19.1108 9.93534 19.1071C9.70757 18.9659 9.52941 18.7642 9.41512 18.5286C9.37451 18.4449 9.34145 18.3573 9.31804 18.2661C9.30647 18.221 9.29649 18.1753 9.2894 18.1287C9.28257 18.0839 9.28246 18.0397 9.27992 17.9952C9.21415 18.0052 9.14844 18.0154 9.08192 18.0224C8.58029 18.076 8.14883 18.0786 7.78759 18.0366L7.94366 18.3261L8.09548 18.6077L8.11701 18.6477C8.46134 19.2863 8.27402 20.0832 7.68122 20.5017C7.43155 20.6779 7.14222 20.7638 6.85463 20.7638C6.67467 20.7638 6.49656 20.7261 6.3281 20.66C6.44908 21.3007 6.85148 21.8413 7.40272 22.1484H3.82812C3.67712 22.1484 3.55469 22.2709 3.55469 22.4219C3.55469 22.5729 3.67712 22.6953 3.82812 22.6953H8.64769L9.60573 31.5978C9.66336 32.1332 10.1153 32.5391 10.6538 32.5391C11.2169 32.5391 11.6807 32.0963 11.7067 31.5337L12.1159 22.6953H13.1251C13.1256 23.9508 13.1278 29.2161 13.1306 31.4882C13.1313 32.0699 13.603 32.5391 14.1847 32.5391H14.1918C14.7251 32.5391 15.1742 32.1418 15.2382 31.6124C15.5314 29.1849 16.2938 22.8263 16.2938 22.8263C16.2999 22.7828 16.3031 22.739 16.3075 22.6953H18.3203C18.4713 22.6953 18.5938 22.5729 18.5938 22.4219C18.5938 22.2709 18.4713 22.1484 18.3203 22.1484Z" fill="black"/>
<path d="M4.64844 12.0312C4.88918 12.0312 5.10359 11.9257 5.25366 11.7605L5.25825 11.7635L5.32604 11.6728L5.32933 11.6684L5.87165 10.9421C6.3878 10.2509 7.1999 9.84375 8.06258 9.84375H9.29688C10.3102 9.84375 11.1928 9.29112 11.6652 8.47212C12.3239 8.44839 12.8516 7.91058 12.8516 7.24609C12.8516 6.76554 12.5734 6.3538 12.1717 6.15123C12.2541 5.9861 12.3047 5.80252 12.3047 5.60547C12.3047 4.96759 11.8175 4.44922 11.1959 4.38727C11.202 4.33787 11.2109 4.28932 11.2109 4.23828C11.2109 3.55871 10.66 3.00781 9.98047 3.00781C9.52462 3.00781 9.13122 3.25857 8.9186 3.62689C8.69736 3.4138 8.39784 3.28125 8.06641 3.28125C7.42852 3.28125 6.91015 3.76844 6.8482 4.39002C6.7988 4.38398 6.75025 4.375 6.69922 4.375C6.01965 4.375 5.46875 4.9259 5.46875 5.60547C5.46875 5.76749 5.50189 5.92133 5.55881 6.06301C5.0355 6.20458 4.64844 6.67799 4.64844 7.24609C4.64844 7.6461 4.84232 7.99795 5.13795 8.22268C4.55124 8.31628 4.10156 8.82051 4.10156 9.43359C4.10156 9.82666 4.28928 10.1726 4.57619 10.3979C4.15756 10.4351 3.82812 10.7826 3.82812 11.2109C3.82812 11.664 4.19539 12.0312 4.64844 12.0312ZM9.29688 9.29688C8.16364 9.29688 7.22924 8.43057 7.12032 7.32547C8.21941 7.26559 8.88957 6.85904 9.29688 6.36186C9.5353 6.07085 9.68322 5.7494 9.77501 5.44804C9.8226 5.29174 9.85593 5.14067 9.87773 5.00263C9.91536 5.01303 9.95271 5.02378 9.98951 5.03611C10.1922 5.10401 10.3814 5.20049 10.5529 5.3213C10.8337 5.51915 11.0663 5.78056 11.2286 6.08549C11.3404 6.29549 11.417 6.52617 11.4552 6.76963C11.4727 6.88065 11.4844 6.99355 11.4844 7.10938C11.4844 7.57155 11.3394 8.00003 11.0938 8.35361C10.6984 8.92282 10.0409 9.29688 9.29688 9.29688Z" fill="black"/>
<path d="M11.2226 10.6804C11.1155 10.6717 11.0081 10.6641 10.8988 10.6641H8.74627C7.76408 10.6641 6.8577 11.192 6.37311 12.0463L4.54142 15.2757C4.03792 16.1634 4.0814 17.2468 4.62475 18.0926L5.10906 18.7331L6.19628 19.9272C6.49763 20.2581 7.00044 20.3127 7.36587 20.0549C7.73277 19.7959 7.84879 19.3026 7.63557 18.9072L7.43563 18.5364L7.26093 18.2123L7.06197 17.8432L6.65557 17.0893C6.61362 17.0114 6.58656 16.9285 6.57148 16.8442C6.53726 16.6529 6.57148 16.4543 6.67121 16.2852C6.68703 16.2583 6.70322 16.2317 6.72233 16.2065C7.06706 15.7526 7.81074 14.8537 8.91864 13.9357C8.92829 13.9277 8.94002 13.9251 8.95035 13.9187C9.54431 13.421 10.1572 12.9681 10.6728 12.6282C10.7188 12.5979 10.7721 12.5821 10.8259 12.5821C10.8511 12.5821 10.8764 12.5856 10.9012 12.5925C10.9439 12.6047 11.0222 12.6387 11.0652 12.7307C11.3248 13.2866 11.8423 13.9778 12.8323 14.115C12.9309 14.1286 12.9858 14.1951 13.0098 14.2336C13.0122 14.2375 13.0121 14.2421 13.0143 14.2461C13.0335 14.2738 13.0468 14.3036 13.0547 14.3365C13.0669 14.3865 13.0699 14.439 13.0513 14.4911L13.0015 14.6308L12.5841 15.8013C12.5104 16.0074 12.3612 16.1727 12.1636 16.2667L12.1605 16.2682L10.3064 17.1495C10.2483 17.1771 10.1964 17.2122 10.1475 17.2503C9.95206 17.4026 9.83353 17.6304 9.82277 17.8787C9.82036 17.934 9.82153 17.9899 9.83014 18.0465C9.83573 18.0833 9.84824 18.1177 9.8584 18.153C9.88458 18.2439 9.92277 18.3295 9.97643 18.406C9.99003 18.4254 10.0066 18.4426 10.0218 18.4608C10.0796 18.5301 10.1449 18.5935 10.2235 18.6422C10.4356 18.7739 10.6937 18.8055 10.9318 18.7294L12.9823 18.0722L13.0676 18.0449C14.0138 17.7416 14.6739 16.9091 14.7656 15.9345C14.7724 15.8622 14.7768 15.7894 14.7773 15.7157L14.7827 14.786L14.7878 13.9196L14.7875 13.1772C15.1144 12.7952 15.3125 12.3 15.3125 11.7578C15.3125 10.5497 14.3331 9.57031 13.125 9.57031C12.309 9.57031 11.5986 10.0181 11.2226 10.6804ZM13.125 10.1172C14.0297 10.1172 14.7656 10.8532 14.7656 11.7578C14.7656 12.1456 14.6297 12.5018 14.4039 12.783C14.1029 13.1576 13.6418 13.3984 13.125 13.3984C12.2204 13.3984 11.4844 12.6625 11.4844 11.7578C11.4844 11.3889 11.6083 11.0491 11.8147 10.7748C12.1143 10.3764 12.5893 10.1172 13.125 10.1172Z" fill="black"/>
<path d="M30.3516 7.92969H28.7112V7.51953C28.7112 6.99098 28.2827 6.5625 27.7542 6.5625H27.7539C27.2254 6.5625 26.7969 6.99098 26.7969 7.51953V7.92969H22.4219V7.51953C22.4219 6.99098 21.9934 6.5625 21.4648 6.5625C20.9363 6.5625 20.5078 6.99098 20.5078 7.51953V7.92969H18.8672C18.5652 7.92969 18.3203 8.17454 18.3203 8.47656V10.1172V18.3203C18.3203 18.6223 18.5652 18.8672 18.8672 18.8672H30.3516C30.6536 18.8672 30.8984 18.6223 30.8984 18.3203V10.1172V8.47656C30.8984 8.17454 30.6536 7.92969 30.3516 7.92969ZM30.3516 18.3203H18.8672V10.3906H30.3516V18.3203ZM18.8672 8.47656H20.5216C20.5885 8.93977 20.9831 9.29688 21.4648 9.29688C21.9466 9.29688 22.3412 8.93977 22.4081 8.47656H26.8107C26.8775 8.93977 27.2722 9.29688 27.7539 9.29688H27.7542C28.2359 9.29688 28.6306 8.93977 28.6974 8.47656H30.3516V9.84375H18.8672V8.47656ZM21.0547 7.92969V7.51953C21.0547 7.29337 21.2387 7.10938 21.4648 7.10938C21.691 7.10938 21.875 7.29337 21.875 7.51953V7.92969V8.20312V8.33984C21.875 8.38801 21.8651 8.43359 21.8498 8.47656C21.7932 8.63534 21.6428 8.75 21.4648 8.75C21.2869 8.75 21.1365 8.63534 21.0799 8.47656C21.0646 8.43359 21.0547 8.38801 21.0547 8.33984V8.20312V7.92969ZM27.3438 7.92969V7.51953C27.3438 7.29337 27.5279 7.10938 27.7542 7.10938C27.9803 7.10938 28.1643 7.29337 28.1643 7.51953V7.92969V8.20312V8.33984C28.1643 8.38801 28.1544 8.43359 28.1391 8.47656C28.0825 8.63534 27.932 8.75 27.7539 8.75C27.5759 8.75 27.4256 8.63534 27.3689 8.47656C27.3536 8.43359 27.3438 8.38801 27.3438 8.33984V8.20312V7.92969Z" fill="black"/>
<path d="M27.3438 13.9453H28.9844C29.2864 13.9453 29.5312 13.7005 29.5312 13.3984V11.7578C29.5312 11.4558 29.2864 11.2109 28.9844 11.2109H27.3438C27.0417 11.2109 26.7969 11.4558 26.7969 11.7578V13.3984C26.7969 13.7005 27.0417 13.9453 27.3438 13.9453ZM28.9844 13.3984H27.3438V11.7578H28.9844V13.3984Z" fill="black"/>
<path d="M23.7891 13.9453H25.4297C25.7317 13.9453 25.9766 13.7005 25.9766 13.3984V11.7578C25.9766 11.4558 25.7317 11.2109 25.4297 11.2109H23.7891C23.487 11.2109 23.2422 11.4558 23.2422 11.7578V13.3984C23.2422 13.7005 23.487 13.9453 23.7891 13.9453Z" fill="black"/>
<path d="M20.2344 13.9453H21.875C22.177 13.9453 22.4219 13.7005 22.4219 13.3984V11.7578C22.4219 11.4558 22.177 11.2109 21.875 11.2109H20.2344C19.9323 11.2109 19.6875 11.4558 19.6875 11.7578V13.3984C19.6875 13.7005 19.9323 13.9453 20.2344 13.9453ZM21.875 13.3984H20.2344V11.7578H21.875V13.3984Z" fill="black"/>
<path d="M23.7891 17.5H25.4297C25.7317 17.5 25.9766 17.2552 25.9766 16.9531V15.3125C25.9766 15.0105 25.7317 14.7656 25.4297 14.7656H23.7891C23.487 14.7656 23.2422 15.0105 23.2422 15.3125V16.9531C23.2422 17.2552 23.487 17.5 23.7891 17.5ZM25.4297 16.9531H23.7891V15.3125H25.4297V16.9531Z" fill="black"/>
<path d="M27.3438 17.5H28.9844C29.2864 17.5 29.5312 17.2552 29.5312 16.9531V15.3125C29.5312 15.0105 29.2864 14.7656 28.9844 14.7656H27.3438C27.0417 14.7656 26.7969 15.0105 26.7969 15.3125V16.9531C26.7969 17.2552 27.0417 17.5 27.3438 17.5ZM28.9844 16.9531H27.3438V15.3125H28.9844V16.9531Z" fill="black"/>
<path d="M20.2344 17.5H21.875C22.177 17.5 22.4219 17.2552 22.4219 16.9531V15.3125C22.4219 15.0105 22.177 14.7656 21.875 14.7656H20.2344C19.9323 14.7656 19.6875 15.0105 19.6875 15.3125V16.9531C19.6875 17.2552 19.9323 17.5 20.2344 17.5Z" fill="black"/>
</svg>
