<svg width="35" height="35" viewBox="0 0 35 35" fill="none" xmlns="http://www.w3.org/2000/svg">
<path d="M9.29688 4.375C7.79297 4.375 6.5625 5.60547 6.5625 7.10938C6.5625 8.61328 7.79297 9.84375 9.29688 9.84375C10.8008 9.84375 12.0312 8.61328 12.0312 7.10938C12.0312 5.60547 10.8008 4.375 9.29688 4.375ZM9.29688 9.29688C8.17578 9.29688 7.21875 8.42188 7.10938 7.32812C9.1875 7.21875 9.73437 5.85156 9.87109 5.00391C10.8008 5.25 11.4844 6.09766 11.4844 7.10938C11.4844 8.3125 10.5 9.29688 9.29688 9.29688Z" fill="black"/>
<path d="M18.3203 22.1484H16.3242C16.2695 21.2188 15.832 20.3438 15.0938 19.7695L13.4805 18.4844C13.3984 18.5117 13.3164 18.5391 13.2344 18.5664L13.0977 18.5937L12.6055 18.7578L11.1016 19.25C10.9648 19.3047 10.8281 19.3047 10.6641 19.3047C10.5547 19.3047 10.4727 19.2773 10.3633 19.2773C10.2266 19.25 10.0625 19.1953 9.92578 19.1133C9.92578 19.1133 9.92578 19.1133 9.89844 19.1133C9.67969 18.9766 9.48828 18.7578 9.37891 18.5391C9.35156 18.457 9.29688 18.375 9.26953 18.2656C9.26953 18.2109 9.24219 18.1836 9.24219 18.1289C9.24219 18.0742 9.24219 18.0469 9.24219 17.9922C9.1875 17.9922 9.10547 18.0195 9.05078 18.0195C8.55859 18.0742 8.12109 18.0742 7.76562 18.0469L7.92969 18.3477L8.09375 18.6211L8.12109 18.6484C8.47656 19.2773 8.28516 20.0703 7.68359 20.5078C7.4375 20.6719 7.13672 20.7813 6.86328 20.7813C6.67188 20.7813 6.50781 20.7539 6.34375 20.6719C6.45313 21.3008 6.86328 21.8477 7.41016 22.1484H3.82812C3.66406 22.1484 3.55469 22.2578 3.55469 22.4219C3.55469 22.5859 3.66406 22.6953 3.82812 22.6953H8.64062L9.59766 31.6094C9.65234 32.1563 10.1172 32.5391 10.6367 32.5391C11.2109 32.5391 11.6758 32.1016 11.7031 31.5274L12.1133 22.6953H13.125C13.125 23.9531 13.125 29.2031 13.125 31.5C13.125 32.0742 13.5898 32.5391 14.1914 32.5391C14.7383 32.5391 15.1758 32.1289 15.2305 31.6094C15.5312 29.1758 16.2969 22.832 16.2969 22.832C16.2969 22.7773 16.2969 22.75 16.2969 22.6953H18.3203C18.4844 22.6953 18.5938 22.5859 18.5938 22.4219C18.5938 22.2578 18.4844 22.1484 18.3203 22.1484Z" fill="black"/>
<path d="M11.2109 10.6914C11.1016 10.6914 10.9922 10.6641 10.8828 10.6641H8.75C7.76562 10.6641 6.86328 11.1836 6.37109 12.0586L4.53906 15.2852C4.04687 16.1602 4.07421 17.2539 4.62109 18.1016L5.11328 18.7305L6.20703 19.9336C6.50781 20.2617 7 20.3164 7.38281 20.0703C7.73828 19.8242 7.875 19.3047 7.65625 18.9219L7.46484 18.5391L7.30078 18.2109L7.10937 17.8555L6.69921 17.0898C6.64453 17.0078 6.61718 16.9258 6.61718 16.8437C6.58984 16.6523 6.61718 16.4609 6.72656 16.2969C6.7539 16.2695 6.7539 16.2422 6.78125 16.2148C7.13671 15.75 7.875 14.875 8.96875 13.9453C8.96875 13.9453 8.99609 13.9453 8.99609 13.918C9.59765 13.4258 10.1992 12.9609 10.7187 12.6328C10.7734 12.6055 10.8281 12.5781 10.8828 12.5781C10.9102 12.5781 10.9375 12.5781 10.9648 12.5781C11.0195 12.5781 11.0742 12.6328 11.1289 12.7148C11.375 13.2617 11.8945 13.9727 12.9062 14.1094C13.0156 14.1094 13.0703 14.1914 13.0703 14.2188C13.0977 14.2461 13.0977 14.2734 13.0977 14.3008C13.0977 14.3555 13.125 14.4102 13.0977 14.4648L13.043 14.6016L12.5781 15.8047C12.4961 16.0234 12.3594 16.1875 12.168 16.2695L10.3086 17.1445C10.2539 17.1719 10.1992 17.1992 10.1445 17.2539C9.95312 17.418 9.84375 17.6367 9.8164 17.8828C9.8164 17.9375 9.8164 17.9922 9.8164 18.0469C9.8164 18.0742 9.84375 18.1289 9.84375 18.1562C9.87109 18.2383 9.89843 18.3203 9.95312 18.4023C9.95312 18.4297 9.98046 18.4297 10.0078 18.457C10.0625 18.5391 10.1445 18.5937 10.1992 18.6484C10.418 18.7852 10.6641 18.8125 10.9102 18.7305L12.9609 18.0742L13.043 18.0469C14 17.7461 14.6562 16.8984 14.7383 15.9414C14.7383 15.8594 14.7383 15.8047 14.7383 15.7227V14.793V13.918V13.1797C15.1211 12.7969 15.3125 12.3047 15.3125 11.7578C15.3125 10.5547 14.3281 9.57031 13.125 9.57031C12.3047 9.57031 11.5937 10.0078 11.2109 10.6914ZM13.125 10.1172C14.0273 10.1172 14.7656 10.8555 14.7656 11.7578C14.7656 12.1406 14.6289 12.4961 14.4102 12.7695C14.1094 13.1523 13.6445 13.3984 13.125 13.3984C12.2227 13.3984 11.4844 12.6602 11.4844 11.7578C11.4844 11.4023 11.6211 11.0469 11.8125 10.7734C12.1133 10.3633 12.5781 10.1172 13.125 10.1172Z" fill="black"/>
<path d="M30.3516 7.92969H28.7109V7.51953C28.7109 7 28.2734 6.5625 27.7539 6.5625C27.2344 6.5625 26.7969 7 26.7969 7.51953V7.92969H22.4219V7.51953C22.4219 7 21.9844 6.5625 21.4648 6.5625C20.9453 6.5625 20.5078 7 20.5078 7.51953V7.92969H18.8672C18.5664 7.92969 18.3203 8.17578 18.3203 8.47656V10.1172V18.3203C18.3203 18.6211 18.5664 18.8672 18.8672 18.8672H30.3516C30.6523 18.8672 30.8984 18.6211 30.8984 18.3203V10.1172V8.47656C30.8984 8.17578 30.6523 7.92969 30.3516 7.92969ZM30.3516 18.3203H18.8672V10.3906H30.3516V18.3203ZM18.8672 8.47656H20.5352C20.5898 8.94141 21 9.29688 21.4648 9.29688C21.957 9.29688 22.3398 8.94141 22.3945 8.47656H26.7969C26.8516 8.94141 27.2617 9.29688 27.7266 9.29688C28.2188 9.29688 28.6016 8.94141 28.6563 8.47656H30.2969V9.84375H18.8672V8.47656ZM21.0547 7.92969V7.51953C21.0547 7.30078 21.2461 7.10938 21.4648 7.10938C21.6836 7.10938 21.875 7.30078 21.875 7.51953V7.92969V8.20312V8.33984C21.875 8.39453 21.875 8.42188 21.8477 8.47656C21.793 8.64062 21.6289 8.75 21.4648 8.75C21.3008 8.75 21.1367 8.64062 21.082 8.47656C21.0547 8.42188 21.0547 8.39453 21.0547 8.33984V8.20312V7.92969ZM27.3438 7.92969V7.51953C27.3438 7.30078 27.5352 7.10938 27.7539 7.10938C27.9727 7.10938 28.1641 7.30078 28.1641 7.51953V7.92969V8.20312V8.33984C28.1641 8.39453 28.1641 8.42188 28.1367 8.47656C28.082 8.64062 27.918 8.75 27.7539 8.75C27.5625 8.75 27.4258 8.64062 27.3711 8.47656C27.3438 8.42188 27.3438 8.39453 27.3438 8.33984V8.20312V7.92969Z" fill="black"/>
<path d="M27.3438 13.9453H28.9844C29.2852 13.9453 29.5312 13.6992 29.5312 13.3984V11.7578C29.5312 11.457 29.2852 11.2109 28.9844 11.2109H27.3438C27.043 11.2109 26.7969 11.457 26.7969 11.7578V13.3984C26.7969 13.6992 27.043 13.9453 27.3438 13.9453ZM28.9844 13.3984H27.3438V11.7578H28.9844V13.3984Z" fill="black"/>
<path d="M23.7891 13.9453H25.4297C25.7305 13.9453 25.9766 13.6992 25.9766 13.3984V11.7578C25.9766 11.457 25.7305 11.2109 25.4297 11.2109H23.7891C23.4883 11.2109 23.2422 11.457 23.2422 11.7578V13.3984C23.2422 13.6992 23.4883 13.9453 23.7891 13.9453Z" fill="black"/>
<path d="M20.2344 13.9453H21.875C22.1758 13.9453 22.4219 13.6992 22.4219 13.3984V11.7578C22.4219 11.457 22.1758 11.2109 21.875 11.2109H20.2344C19.9336 11.2109 19.6875 11.457 19.6875 11.7578V13.3984C19.6875 13.6992 19.9336 13.9453 20.2344 13.9453ZM21.875 13.3984H20.2344V11.7578H21.875V13.3984Z" fill="black"/>
<path d="M23.7891 17.5H25.4297C25.7305 17.5 25.9766 17.2539 25.9766 16.9531V15.3125C25.9766 15.0117 25.7305 14.7656 25.4297 14.7656H23.7891C23.4883 14.7656 23.2422 15.0117 23.2422 15.3125V16.9531C23.2422 17.2539 23.4883 17.5 23.7891 17.5ZM25.4297 16.9531H23.7891V15.3125H25.4297V16.9531Z" fill="black"/>
<path d="M27.3438 17.5H28.9844C29.2852 17.5 29.5312 17.2539 29.5312 16.9531V15.3125C29.5312 15.0117 29.2852 14.7656 28.9844 14.7656H27.3438C27.043 14.7656 26.7969 15.0117 26.7969 15.3125V16.9531C26.7969 17.2539 27.043 17.5 27.3438 17.5ZM28.9844 16.9531H27.3438V15.3125H28.9844V16.9531Z" fill="black"/>
<path d="M20.2344 17.5H21.875C22.1758 17.5 22.4219 17.2539 22.4219 16.9531V15.3125C22.4219 15.0117 22.1758 14.7656 21.875 14.7656H20.2344C19.9336 14.7656 19.6875 15.0117 19.6875 15.3125V16.9531C19.6875 17.2539 19.9336 17.5 20.2344 17.5Z" fill="black"/>
</svg>
